  0
SECTION
  2
HEADER
  9
$ANGBASE
  50
0.0
  9
$ANGDIR
  70
1
  9
$MEASUREMENT
  70
0
  0
ENDSEC
  0
SECTION
  2
TABLES
  0
TABLE
  2
LTYPE
  70
4
  0
LTYPE
  5
40F
  2
CONTINUOUS
  70
0
  3
Solid line
  72
65
  73
0
  40
0.0
  0
LTYPE
  5
410
  2
DASHDOT
 70
0
  3
Dash Dot ____ _ ____ _
 72
65
 73
4
 40
2.0
 49
1.25
 49
-0.25
 49
0.25
 49
-0.25
  0
LTYPE
  5
411
  2
DASHED
 70
0
  3
Dashed __ __ __ __ __
 72
65
 73
2
 40
0.75
 49
0.5
 49
-0.25
  0
LTYPE
  5
43B
  2
DOTTED
 70
0
  3
Dotted .  .  .  .
 72
65
 73
2
 40
0.2
 49
0.0
 49
-0.2
  0
ENDTAB
  0
TABLE
  2
STYLE
  70
4
  0
STYLE
  2
KICAD
  70
0
  40
0
  41
1
  42
1
  50
0
  71
0
  3
isocp.shx
  0
STYLE
  2
KICADB
  70
0
  40
0
  41
1
  42
1
  50
0
  71
0
  3
isocp.shx
  0
STYLE
  2
KICADI
  70
0
  40
0
  41
1
  42
1
  50
15
  71
0
  3
isocp.shx
  0
STYLE
  2
KICADBI
  70
0
  40
0
  41
1
  42
1
  50
15
  71
0
  3
isocp.shx
  0
ENDTAB
  0
TABLE
  2
LAYER
  70
1
  0
LAYER
  2
BLACK
  70
0
  62
7
  6
CONTINUOUS
  0
ENDTAB
  0
ENDSEC
  0
SECTION
  2
ENTITIES
0
ARC
8
BLACK
10
12.652
20
-18.4371
40
12.8674
50
87.846
51
108.133
0
LINE
8
BLACK
6
CONTINUOUS
10
6.71833
20
-4.18724
11
6.71833
21
-2.93731
0
LINE
8
BLACK
6
CONTINUOUS
10
6.71833
20
-2.46859
11
6.71833
21
-2.68733
0
ARC
8
BLACK
10
8.6591
20
-5.80268
40
0.406238
50
-183.811
51
-91.6422
0
LINE
8
BLACK
6
CONTINUOUS
10
6.74957
20
-4.49972
11
7.49953
21
-4.49972
0
ARC
8
BLACK
10
2.32007
20
-18.4371
40
12.8673
50
71.8673
51
92.154
0
LINE
8
BLACK
6
CONTINUOUS
10
13.175
20
-5.53946
11
13.5687
21
-3.256
0
LINE
8
BLACK
6
CONTINUOUS
10
6.71833
20
-2.93731
11
6.74957
21
-2.93731
0
LINE
8
BLACK
6
CONTINUOUS
10
7.5451
20
-4.43722
11
7.5451
21
-4.51584
0
LINE
8
BLACK
6
CONTINUOUS
10
6.74957
20
-4.43722
11
6.74957
21
-4.49972
0
LINE
8
BLACK
6
CONTINUOUS
10
6.71833
20
-4.43722
11
6.71833
21
-5.77568
0
LINE
8
BLACK
6
CONTINUOUS
10
8.25376
20
-2.46859
11
7.62384
21
-2.46859
0
LINE
8
BLACK
6
CONTINUOUS
10
8.25376
20
-5.77568
11
8.25376
21
-4.59458
0
ARC
8
BLACK
10
13.1356
20
-5.53946
40
0.0393701
50
-90
51
-0
0
LINE
8
BLACK
6
CONTINUOUS
10
7.49953
20
-4.43722
11
7.5451
21
-4.43722
0
ARC
8
BLACK
10
10.2712
20
-7.1823
40
5.1273
50
49.975
51
113.171
0
LINE
8
BLACK
6
CONTINUOUS
10
6.74957
20
-2.46859
11
7.49953
21
-2.46859
0
LINE
8
BLACK
6
CONTINUOUS
10
7.5451
20
-2.54733
11
7.5451
21
-2.68733
0
LINE
8
BLACK
6
CONTINUOUS
10
7.49953
20
-2.46859
11
7.49953
21
-2.68733
0
LINE
8
BLACK
6
CONTINUOUS
10
6.71833
20
-4.43722
11
6.74957
21
-4.43722
0
ARC
8
BLACK
10
1.83644
20
-5.53946
40
0.03937
50
-180
51
-89.9999
0
ARC
8
BLACK
10
4.70085
20
-7.1823
40
5.1273
50
66.8289
51
130.025
0
LINE
8
BLACK
6
CONTINUOUS
10
7.49953
20
-4.49972
11
7.49953
21
-4.43722
0
ARC
8
BLACK
10
6.31298
20
-5.80268
40
0.406241
50
-88.3578
51
3.81032
0
LINE
8
BLACK
6
CONTINUOUS
10
1.40337
20
-3.256
11
1.79707
21
-5.53946
0
LINE
8
BLACK
6
CONTINUOUS
10
7.49953
20
-2.93733
11
7.5451
21
-2.93733
0
LINE
8
BLACK
6
CONTINUOUS
10
8.25376
20
-4.59458
11
7.62384
21
-4.59458
0
LINE
8
BLACK
6
CONTINUOUS
10
6.74957
20
-4.18724
11
6.71833
21
-4.18724
0
LINE
8
BLACK
6
CONTINUOUS
10
6.74957
20
-2.68733
11
6.74957
21
-2.46859
0
LINE
8
BLACK
6
CONTINUOUS
10
7.49953
20
-2.68733
11
7.5451
21
-2.68733
0
LINE
8
BLACK
6
CONTINUOUS
10
7.49953
20
-4.18724
11
7.5451
21
-4.18724
0
LINE
8
BLACK
6
CONTINUOUS
10
7.5451
20
-2.93733
11
7.5451
21
-4.18724
0
LINE
8
BLACK
6
CONTINUOUS
10
7.49953
20
-2.93733
11
7.49953
21
-4.18724
0
ARC
8
BLACK
10
7.62384
20
-2.54733
40
0.0787402
50
90
51
180
0
LINE
8
BLACK
6
CONTINUOUS
10
6.74957
20
-2.93731
11
6.74957
21
-4.18724
0
LINE
8
BLACK
6
CONTINUOUS
10
6.71833
20
-2.68733
11
6.74957
21
-2.68733
0
ARC
8
BLACK
10
7.62384
20
-4.51584
40
0.0787401
50
-180
51
-90
0
LINE
8
BLACK
6
CONTINUOUS
10
6.72072
20
-2.69434
11
6.75172
21
-2.72534
0
LINE
8
BLACK
6
CONTINUOUS
10
6.75172
20
-2.69434
11
6.72072
21
-2.72534
0
LINE
8
BLACK
6
CONTINUOUS
10
6.72072
20
-2.74434
11
6.75172
21
-2.77534
0
LINE
8
BLACK
6
CONTINUOUS
10
6.75172
20
-2.74434
11
6.72072
21
-2.77534
0
LINE
8
BLACK
6
CONTINUOUS
10
6.72072
20
-2.79434
11
6.75172
21
-2.82534
0
LINE
8
BLACK
6
CONTINUOUS
10
6.75172
20
-2.79434
11
6.72072
21
-2.82534
0
LINE
8
BLACK
6
CONTINUOUS
10
6.72072
20
-2.84434
11
6.75172
21
-2.87534
0
LINE
8
BLACK
6
CONTINUOUS
10
6.75172
20
-2.84434
11
6.72072
21
-2.87534
0
LINE
8
BLACK
6
CONTINUOUS
10
6.72072
20
-2.89434
11
6.75172
21
-2.92534
0
LINE
8
BLACK
6
CONTINUOUS
10
6.75172
20
-2.89434
11
6.72072
21
-2.92534
0
LINE
8
BLACK
6
CONTINUOUS
10
6.72072
20
-4.19673
11
6.75172
21
-4.22773
0
LINE
8
BLACK
6
CONTINUOUS
10
6.75172
20
-4.19673
11
6.72072
21
-4.22773
0
LINE
8
BLACK
6
CONTINUOUS
10
6.72072
20
-4.24673
11
6.75172
21
-4.27773
0
LINE
8
BLACK
6
CONTINUOUS
10
6.75172
20
-4.24673
11
6.72072
21
-4.27773
0
LINE
8
BLACK
6
CONTINUOUS
10
6.72072
20
-4.29673
11
6.75172
21
-4.32773
0
LINE
8
BLACK
6
CONTINUOUS
10
6.75172
20
-4.29673
11
6.72072
21
-4.32773
0
LINE
8
BLACK
6
CONTINUOUS
10
6.72072
20
-4.34673
11
6.75172
21
-4.37773
0
LINE
8
BLACK
6
CONTINUOUS
10
6.75172
20
-4.34673
11
6.72072
21
-4.37773
0
LINE
8
BLACK
6
CONTINUOUS
10
6.72072
20
-4.39673
11
6.75172
21
-4.42773
0
LINE
8
BLACK
6
CONTINUOUS
10
6.75172
20
-4.39673
11
6.72072
21
-4.42773
0
LINE
8
BLACK
6
CONTINUOUS
10
7.51206
20
-4.19434
11
7.54306
21
-4.22534
0
LINE
8
BLACK
6
CONTINUOUS
10
7.54306
20
-4.19434
11
7.51206
21
-4.22534
0
LINE
8
BLACK
6
CONTINUOUS
10
7.51206
20
-4.24434
11
7.54306
21
-4.27534
0
LINE
8
BLACK
6
CONTINUOUS
10
7.54306
20
-4.24434
11
7.51206
21
-4.27534
0
LINE
8
BLACK
6
CONTINUOUS
10
7.51206
20
-4.29434
11
7.54306
21
-4.32534
0
LINE
8
BLACK
6
CONTINUOUS
10
7.54306
20
-4.29434
11
7.51206
21
-4.32534
0
LINE
8
BLACK
6
CONTINUOUS
10
7.51206
20
-4.34434
11
7.54306
21
-4.37534
0
LINE
8
BLACK
6
CONTINUOUS
10
7.54306
20
-4.34434
11
7.51206
21
-4.37534
0
LINE
8
BLACK
6
CONTINUOUS
10
7.51206
20
-4.39434
11
7.54306
21
-4.42534
0
LINE
8
BLACK
6
CONTINUOUS
10
7.54306
20
-4.39434
11
7.51206
21
-4.42534
0
LINE
8
BLACK
6
CONTINUOUS
10
7.51387
20
-2.69552
11
7.54487
21
-2.72652
0
LINE
8
BLACK
6
CONTINUOUS
10
7.54487
20
-2.69552
11
7.51387
21
-2.72652
0
LINE
8
BLACK
6
CONTINUOUS
10
7.51387
20
-2.74552
11
7.54487
21
-2.77652
0
LINE
8
BLACK
6
CONTINUOUS
10
7.54487
20
-2.74552
11
7.51387
21
-2.77652
0
LINE
8
BLACK
6
CONTINUOUS
10
7.51387
20
-2.79552
11
7.54487
21
-2.82652
0
LINE
8
BLACK
6
CONTINUOUS
10
7.54487
20
-2.79552
11
7.51387
21
-2.82652
0
LINE
8
BLACK
6
CONTINUOUS
10
7.51387
20
-2.84552
11
7.54487
21
-2.87652
0
LINE
8
BLACK
6
CONTINUOUS
10
7.54487
20
-2.84552
11
7.51387
21
-2.87652
0
LINE
8
BLACK
6
CONTINUOUS
10
7.51387
20
-2.89552
11
7.54487
21
-2.92652
0
LINE
8
BLACK
6
CONTINUOUS
10
7.54487
20
-2.89552
11
7.51387
21
-2.92652
0
CIRCLE
8
BLACK
10
6.56724
20
-2.55127
40
0.023622
0
CIRCLE
8
BLACK
10
6.56724
20
-2.82686
40
0.023622
0
CIRCLE
8
BLACK
10
8.07022
20
-2.56436
40
0.023622
0
CIRCLE
8
BLACK
10
8.07022
20
-2.83995
40
0.023622
0
LINE
8
BLACK
6
CONTINUOUS
10
1.69011
20
-3.56647
11
1.69011
21
-3.63537
0
LINE
8
BLACK
6
CONTINUOUS
10
1.65566
20
-3.60092
11
1.72455
21
-3.60092
0
LINE
8
BLACK
6
CONTINUOUS
10
1.82034
20
-4.30508
11
1.82034
21
-4.37398
0
LINE
8
BLACK
6
CONTINUOUS
10
1.78589
20
-4.33953
11
1.85479
21
-4.33953
0
LINE
8
BLACK
6
CONTINUOUS
10
1.95058
20
-5.04369
11
1.95058
21
-5.11258
0
LINE
8
BLACK
6
CONTINUOUS
10
1.91613
20
-5.07813
11
1.98503
21
-5.07813
0
LINE
8
BLACK
6
CONTINUOUS
10
2.08403
20
-3.49701
11
2.08403
21
-3.56591
0
LINE
8
BLACK
6
CONTINUOUS
10
2.04958
20
-3.53146
11
2.11848
21
-3.53146
0
LINE
8
BLACK
6
CONTINUOUS
10
2.21426
20
-4.23562
11
2.21426
21
-4.30452
0
LINE
8
BLACK
6
CONTINUOUS
10
2.17982
20
-4.27007
11
2.24871
21
-4.27007
0
LINE
8
BLACK
6
CONTINUOUS
10
2.3445
20
-4.97423
11
2.3445
21
-5.04312
0
LINE
8
BLACK
6
CONTINUOUS
10
2.31005
20
-5.00867
11
2.37895
21
-5.00867
0
LINE
8
BLACK
6
CONTINUOUS
10
2.54035
20
-2.97819
11
2.54035
21
-3.04709
0
LINE
8
BLACK
6
CONTINUOUS
10
2.5059
20
-3.01264
11
2.5748
21
-3.01264
0
LINE
8
BLACK
6
CONTINUOUS
10
2.60571
20
-3.72534
11
2.60571
21
-3.79423
0
LINE
8
BLACK
6
CONTINUOUS
10
2.57127
20
-3.75979
11
2.64016
21
-3.75979
0
LINE
8
BLACK
6
CONTINUOUS
10
2.67108
20
-4.47248
11
2.67108
21
-4.54138
0
LINE
8
BLACK
6
CONTINUOUS
10
2.63663
20
-4.50693
11
2.70553
21
-4.50693
0
LINE
8
BLACK
6
CONTINUOUS
10
2.93883
20
-2.94333
11
2.93883
21
-3.01223
0
LINE
8
BLACK
6
CONTINUOUS
10
2.90438
20
-2.97778
11
2.97327
21
-2.97778
0
LINE
8
BLACK
6
CONTINUOUS
10
3.00419
20
-3.69047
11
3.00419
21
-3.75937
0
LINE
8
BLACK
6
CONTINUOUS
10
2.96974
20
-3.72492
11
3.03864
21
-3.72492
0
LINE
8
BLACK
6
CONTINUOUS
10
3.06956
20
-4.43762
11
3.06956
21
-4.50652
0
LINE
8
BLACK
6
CONTINUOUS
10
3.03511
20
-4.47207
11
3.10401
21
-4.47207
0
LINE
8
BLACK
6
CONTINUOUS
10
3.42974
20
-2.59261
11
3.42974
21
-2.66151
0
LINE
8
BLACK
6
CONTINUOUS
10
3.3953
20
-2.62706
11
3.46419
21
-2.62706
0
LINE
8
BLACK
6
CONTINUOUS
10
3.42974
20
-4.09261
11
3.42974
21
-4.16151
0
LINE
8
BLACK
6
CONTINUOUS
10
3.3953
20
-4.12706
11
3.46419
21
-4.12706
0
LINE
8
BLACK
6
CONTINUOUS
10
3.42974
20
-3.34261
11
3.42974
21
-3.41151
0
LINE
8
BLACK
6
CONTINUOUS
10
3.3953
20
-3.37706
11
3.46419
21
-3.37706
0
LINE
8
BLACK
6
CONTINUOUS
10
3.82974
20
-2.59261
11
3.82974
21
-2.66151
0
LINE
8
BLACK
6
CONTINUOUS
10
3.7953
20
-2.62706
11
3.86419
21
-2.62706
0
LINE
8
BLACK
6
CONTINUOUS
10
3.82974
20
-4.09261
11
3.82974
21
-4.16151
0
LINE
8
BLACK
6
CONTINUOUS
10
3.7953
20
-4.12706
11
3.86419
21
-4.12706
0
LINE
8
BLACK
6
CONTINUOUS
10
3.82974
20
-3.34261
11
3.82974
21
-3.41151
0
LINE
8
BLACK
6
CONTINUOUS
10
3.7953
20
-3.37706
11
3.86419
21
-3.37706
0
LINE
8
BLACK
6
CONTINUOUS
10
4.17974
20
-2.77962
11
4.17974
21
-2.84852
0
LINE
8
BLACK
6
CONTINUOUS
10
4.1453
20
-2.81407
11
4.21419
21
-2.81407
0
LINE
8
BLACK
6
CONTINUOUS
10
4.17974
20
-3.52962
11
4.17974
21
-3.59852
0
LINE
8
BLACK
6
CONTINUOUS
10
4.1453
20
-3.56407
11
4.21419
21
-3.56407
0
LINE
8
BLACK
6
CONTINUOUS
10
4.17974
20
-4.27962
11
4.17974
21
-4.34852
0
LINE
8
BLACK
6
CONTINUOUS
10
4.1453
20
-4.31407
11
4.21419
21
-4.31407
0
LINE
8
BLACK
6
CONTINUOUS
10
4.30967
20
-5.18513
11
4.30967
21
-5.25403
0
LINE
8
BLACK
6
CONTINUOUS
10
4.27522
20
-5.21958
11
4.34411
21
-5.21958
0
LINE
8
BLACK
6
CONTINUOUS
10
4.57974
20
-2.77962
11
4.57974
21
-2.84852
0
LINE
8
BLACK
6
CONTINUOUS
10
4.5453
20
-2.81407
11
4.61419
21
-2.81407
0
LINE
8
BLACK
6
CONTINUOUS
10
4.57974
20
-3.52962
11
4.57974
21
-3.59852
0
LINE
8
BLACK
6
CONTINUOUS
10
4.5453
20
-3.56407
11
4.61419
21
-3.56407
0
LINE
8
BLACK
6
CONTINUOUS
10
4.57974
20
-4.27962
11
4.57974
21
-4.34852
0
LINE
8
BLACK
6
CONTINUOUS
10
4.5453
20
-4.31407
11
4.61419
21
-4.31407
0
LINE
8
BLACK
6
CONTINUOUS
10
4.70967
20
-5.18513
11
4.70967
21
-5.25403
0
LINE
8
BLACK
6
CONTINUOUS
10
4.67522
20
-5.21958
11
4.74411
21
-5.21958
0
LINE
8
BLACK
6
CONTINUOUS
10
4.92974
20
-3.62312
11
4.92974
21
-3.69202
0
LINE
8
BLACK
6
CONTINUOUS
10
4.8953
20
-3.65757
11
4.96419
21
-3.65757
0
LINE
8
BLACK
6
CONTINUOUS
10
4.92974
20
-4.37312
11
4.92974
21
-4.44202
0
LINE
8
BLACK
6
CONTINUOUS
10
4.8953
20
-4.40757
11
4.96419
21
-4.40757
0
LINE
8
BLACK
6
CONTINUOUS
10
4.92974
20
-2.87312
11
4.92974
21
-2.94202
0
LINE
8
BLACK
6
CONTINUOUS
10
4.8953
20
-2.90757
11
4.96419
21
-2.90757
0
LINE
8
BLACK
6
CONTINUOUS
10
5.18262
20
-5.25148
11
5.18262
21
-5.32037
0
LINE
8
BLACK
6
CONTINUOUS
10
5.14817
20
-5.28593
11
5.21707
21
-5.28593
0
LINE
8
BLACK
6
CONTINUOUS
10
5.32974
20
-3.62312
11
5.32974
21
-3.69202
0
LINE
8
BLACK
6
CONTINUOUS
10
5.2953
20
-3.65757
11
5.36419
21
-3.65757
0
LINE
8
BLACK
6
CONTINUOUS
10
5.32974
20
-4.37312
11
5.32974
21
-4.44202
0
LINE
8
BLACK
6
CONTINUOUS
10
5.2953
20
-4.40757
11
5.36419
21
-4.40757
0
LINE
8
BLACK
6
CONTINUOUS
10
5.32974
20
-2.87312
11
5.32974
21
-2.94202
0
LINE
8
BLACK
6
CONTINUOUS
10
5.2953
20
-2.90757
11
5.36419
21
-2.90757
0
LINE
8
BLACK
6
CONTINUOUS
10
5.56899
20
-5.355
11
5.56899
21
-5.4239
0
LINE
8
BLACK
6
CONTINUOUS
10
5.53454
20
-5.38945
11
5.60344
21
-5.38945
0
LINE
8
BLACK
6
CONTINUOUS
10
6.00969
20
-5.53789
11
6.00969
21
-5.60678
0
LINE
8
BLACK
6
CONTINUOUS
10
5.97524
20
-5.57233
11
6.04414
21
-5.57233
0
LINE
8
BLACK
6
CONTINUOUS
10
6.3561
20
-5.73789
11
6.3561
21
-5.80678
0
LINE
8
BLACK
6
CONTINUOUS
10
6.32165
20
-5.77233
11
6.39055
21
-5.77233
0
LINE
8
BLACK
6
CONTINUOUS
10
8.61597
20
-5.73787
11
8.61597
21
-5.80676
0
LINE
8
BLACK
6
CONTINUOUS
10
8.58152
20
-5.77231
11
8.65042
21
-5.77231
0
LINE
8
BLACK
6
CONTINUOUS
10
8.96238
20
-5.53787
11
8.96238
21
-5.60676
0
LINE
8
BLACK
6
CONTINUOUS
10
8.92793
20
-5.57231
11
8.99683
21
-5.57231
0
LINE
8
BLACK
6
CONTINUOUS
10
9.40307
20
-5.35498
11
9.40307
21
-5.42388
0
LINE
8
BLACK
6
CONTINUOUS
10
9.36863
20
-5.38943
11
9.43752
21
-5.38943
0
LINE
8
BLACK
6
CONTINUOUS
10
9.64232
20
-2.8731
11
9.64232
21
-2.942
0
LINE
8
BLACK
6
CONTINUOUS
10
9.60787
20
-2.90755
11
9.67677
21
-2.90755
0
LINE
8
BLACK
6
CONTINUOUS
10
9.64232
20
-3.6231
11
9.64232
21
-3.692
0
LINE
8
BLACK
6
CONTINUOUS
10
9.60787
20
-3.65755
11
9.67677
21
-3.65755
0
LINE
8
BLACK
6
CONTINUOUS
10
9.64232
20
-4.3731
11
9.64232
21
-4.442
0
LINE
8
BLACK
6
CONTINUOUS
10
9.60787
20
-4.40755
11
9.67677
21
-4.40755
0
LINE
8
BLACK
6
CONTINUOUS
10
9.78945
20
-5.25146
11
9.78945
21
-5.32035
0
LINE
8
BLACK
6
CONTINUOUS
10
9.755
20
-5.28591
11
9.82389
21
-5.28591
0
LINE
8
BLACK
6
CONTINUOUS
10
10.0423
20
-2.8731
11
10.0423
21
-2.942
0
LINE
8
BLACK
6
CONTINUOUS
10
10.0079
20
-2.90755
11
10.0768
21
-2.90755
0
LINE
8
BLACK
6
CONTINUOUS
10
10.0423
20
-3.6231
11
10.0423
21
-3.692
0
LINE
8
BLACK
6
CONTINUOUS
10
10.0079
20
-3.65755
11
10.0768
21
-3.65755
0
LINE
8
BLACK
6
CONTINUOUS
10
10.0423
20
-4.3731
11
10.0423
21
-4.442
0
LINE
8
BLACK
6
CONTINUOUS
10
10.0079
20
-4.40755
11
10.0768
21
-4.40755
0
LINE
8
BLACK
6
CONTINUOUS
10
10.2624
20
-5.18511
11
10.2624
21
-5.25401
0
LINE
8
BLACK
6
CONTINUOUS
10
10.228
20
-5.21956
11
10.2969
21
-5.21956
0
LINE
8
BLACK
6
CONTINUOUS
10
10.3923
20
-2.7796
11
10.3923
21
-2.8485
0
LINE
8
BLACK
6
CONTINUOUS
10
10.3579
20
-2.81405
11
10.4268
21
-2.81405
0
LINE
8
BLACK
6
CONTINUOUS
10
10.3923
20
-3.5296
11
10.3923
21
-3.5985
0
LINE
8
BLACK
6
CONTINUOUS
10
10.3579
20
-3.56405
11
10.4268
21
-3.56405
0
LINE
8
BLACK
6
CONTINUOUS
10
10.3923
20
-4.2796
11
10.3923
21
-4.3485
0
LINE
8
BLACK
6
CONTINUOUS
10
10.3579
20
-4.31405
11
10.4268
21
-4.31405
0
LINE
8
BLACK
6
CONTINUOUS
10
10.6624
20
-5.18511
11
10.6624
21
-5.25401
0
LINE
8
BLACK
6
CONTINUOUS
10
10.628
20
-5.21956
11
10.6969
21
-5.21956
0
LINE
8
BLACK
6
CONTINUOUS
10
10.7923
20
-2.7796
11
10.7923
21
-2.8485
0
LINE
8
BLACK
6
CONTINUOUS
10
10.7579
20
-2.81405
11
10.8268
21
-2.81405
0
LINE
8
BLACK
6
CONTINUOUS
10
10.7923
20
-3.5296
11
10.7923
21
-3.5985
0
LINE
8
BLACK
6
CONTINUOUS
10
10.7579
20
-3.56405
11
10.8268
21
-3.56405
0
LINE
8
BLACK
6
CONTINUOUS
10
10.7923
20
-4.2796
11
10.7923
21
-4.3485
0
LINE
8
BLACK
6
CONTINUOUS
10
10.7579
20
-4.31405
11
10.8268
21
-4.31405
0
LINE
8
BLACK
6
CONTINUOUS
10
11.1423
20
-3.34259
11
11.1423
21
-3.41149
0
LINE
8
BLACK
6
CONTINUOUS
10
11.1079
20
-3.37704
11
11.1768
21
-3.37704
0
LINE
8
BLACK
6
CONTINUOUS
10
11.1423
20
-4.09259
11
11.1423
21
-4.16149
0
LINE
8
BLACK
6
CONTINUOUS
10
11.1079
20
-4.12704
11
11.1768
21
-4.12704
0
LINE
8
BLACK
6
CONTINUOUS
10
11.1423
20
-2.59259
11
11.1423
21
-2.66149
0
LINE
8
BLACK
6
CONTINUOUS
10
11.1079
20
-2.62704
11
11.1768
21
-2.62704
0
LINE
8
BLACK
6
CONTINUOUS
10
11.5423
20
-3.34259
11
11.5423
21
-3.41149
0
LINE
8
BLACK
6
CONTINUOUS
10
11.5079
20
-3.37704
11
11.5768
21
-3.37704
0
LINE
8
BLACK
6
CONTINUOUS
10
11.5423
20
-4.09259
11
11.5423
21
-4.16149
0
LINE
8
BLACK
6
CONTINUOUS
10
11.5079
20
-4.12704
11
11.5768
21
-4.12704
0
LINE
8
BLACK
6
CONTINUOUS
10
11.5423
20
-2.59259
11
11.5423
21
-2.66149
0
LINE
8
BLACK
6
CONTINUOUS
10
11.5079
20
-2.62704
11
11.5768
21
-2.62704
0
LINE
8
BLACK
6
CONTINUOUS
10
11.9025
20
-4.4376
11
11.9025
21
-4.5065
0
LINE
8
BLACK
6
CONTINUOUS
10
11.8681
20
-4.47205
11
11.937
21
-4.47205
0
LINE
8
BLACK
6
CONTINUOUS
10
11.9679
20
-3.69046
11
11.9679
21
-3.75935
0
LINE
8
BLACK
6
CONTINUOUS
10
11.9334
20
-3.7249
11
12.0023
21
-3.7249
0
LINE
8
BLACK
6
CONTINUOUS
10
12.0332
20
-2.94331
11
12.0332
21
-3.01221
0
LINE
8
BLACK
6
CONTINUOUS
10
11.9988
20
-2.97776
11
12.0677
21
-2.97776
0
LINE
8
BLACK
6
CONTINUOUS
10
12.301
20
-4.47246
11
12.301
21
-4.54136
0
LINE
8
BLACK
6
CONTINUOUS
10
12.2665
20
-4.50691
11
12.3354
21
-4.50691
0
LINE
8
BLACK
6
CONTINUOUS
10
12.3664
20
-3.72532
11
12.3664
21
-3.79422
0
LINE
8
BLACK
6
CONTINUOUS
10
12.3319
20
-3.75977
11
12.4008
21
-3.75977
0
LINE
8
BLACK
6
CONTINUOUS
10
12.4317
20
-2.97817
11
12.4317
21
-3.04707
0
LINE
8
BLACK
6
CONTINUOUS
10
12.3973
20
-3.01262
11
12.4662
21
-3.01262
0
LINE
8
BLACK
6
CONTINUOUS
10
12.6276
20
-4.97421
11
12.6276
21
-5.0431
0
LINE
8
BLACK
6
CONTINUOUS
10
12.5931
20
-5.00866
11
12.662
21
-5.00866
0
LINE
8
BLACK
6
CONTINUOUS
10
12.7578
20
-4.2356
11
12.7578
21
-4.3045
0
LINE
8
BLACK
6
CONTINUOUS
10
12.7234
20
-4.27005
11
12.7923
21
-4.27005
0
LINE
8
BLACK
6
CONTINUOUS
10
12.888
20
-3.49699
11
12.888
21
-3.56589
0
LINE
8
BLACK
6
CONTINUOUS
10
12.8536
20
-3.53144
11
12.9225
21
-3.53144
0
LINE
8
BLACK
6
CONTINUOUS
10
13.0215
20
-5.04367
11
13.0215
21
-5.11256
0
LINE
8
BLACK
6
CONTINUOUS
10
12.987
20
-5.07811
11
13.0559
21
-5.07811
0
LINE
8
BLACK
6
CONTINUOUS
10
13.1517
20
-4.30506
11
13.1517
21
-4.37396
0
LINE
8
BLACK
6
CONTINUOUS
10
13.1173
20
-4.33951
11
13.1862
21
-4.33951
0
LINE
8
BLACK
6
CONTINUOUS
10
13.282
20
-3.56645
11
13.282
21
-3.63535
0
LINE
8
BLACK
6
CONTINUOUS
10
13.2475
20
-3.6009
11
13.3164
21
-3.6009
0
LINE
8
BLACK
6
CONTINUOUS
10
2.14265
20
-2.97166
11
2.14265
21
-2.91041
0
LINE
8
BLACK
6
CONTINUOUS
10
2.14265
20
-2.91041
11
2.0814
21
-2.91041
0
LINE
8
BLACK
6
CONTINUOUS
10
2.0814
20
-2.91041
11
2.0814
21
-2.97166
0
LINE
8
BLACK
6
CONTINUOUS
10
2.0814
20
-2.97166
11
2.14265
21
-2.97166
0
LINE
8
BLACK
6
CONTINUOUS
10
2.93005
20
-5.21575
11
2.93005
21
-5.15451
0
LINE
8
BLACK
6
CONTINUOUS
10
2.93005
20
-5.15451
11
2.86881
21
-5.15451
0
LINE
8
BLACK
6
CONTINUOUS
10
2.86881
20
-5.15451
11
2.86881
21
-5.21575
0
LINE
8
BLACK
6
CONTINUOUS
10
2.86881
20
-5.21575
11
2.93005
21
-5.21575
0
LINE
8
BLACK
6
CONTINUOUS
10
4.18989
20
-2.263
11
4.18989
21
-2.20175
0
LINE
8
BLACK
6
CONTINUOUS
10
4.18989
20
-2.20175
11
4.12865
21
-2.20175
0
LINE
8
BLACK
6
CONTINUOUS
10
4.12865
20
-2.20175
11
4.12865
21
-2.263
0
LINE
8
BLACK
6
CONTINUOUS
10
4.12865
20
-2.263
11
4.18989
21
-2.263
0
LINE
8
BLACK
6
CONTINUOUS
10
5.56785
20
-2.34174
11
5.56785
21
-2.28049
0
LINE
8
BLACK
6
CONTINUOUS
10
5.56785
20
-2.28049
11
5.5066
21
-2.28049
0
LINE
8
BLACK
6
CONTINUOUS
10
5.5066
20
-2.28049
11
5.5066
21
-2.34174
0
LINE
8
BLACK
6
CONTINUOUS
10
5.5066
20
-2.34174
11
5.56785
21
-2.34174
0
LINE
8
BLACK
6
CONTINUOUS
10
5.68596
20
-3.87569
11
5.68596
21
-3.81445
0
LINE
8
BLACK
6
CONTINUOUS
10
5.68596
20
-3.81445
11
5.62471
21
-3.81445
0
LINE
8
BLACK
6
CONTINUOUS
10
5.62471
20
-3.81445
11
5.62471
21
-3.87569
0
LINE
8
BLACK
6
CONTINUOUS
10
5.62471
20
-3.87569
11
5.68596
21
-3.87569
0
LINE
8
BLACK
6
CONTINUOUS
10
6.53537
20
-5.25069
11
6.53537
21
-5.18945
0
LINE
8
BLACK
6
CONTINUOUS
10
6.53537
20
-5.18945
11
6.47412
21
-5.18945
0
LINE
8
BLACK
6
CONTINUOUS
10
6.47412
20
-5.18945
11
6.47412
21
-5.25069
0
LINE
8
BLACK
6
CONTINUOUS
10
6.47412
20
-5.25069
11
6.53537
21
-5.25069
0
LINE
8
BLACK
6
CONTINUOUS
10
6.59147
20
-3.68032
11
6.59147
21
-3.61907
0
LINE
8
BLACK
6
CONTINUOUS
10
6.59147
20
-3.61907
11
6.53022
21
-3.61907
0
LINE
8
BLACK
6
CONTINUOUS
10
6.53022
20
-3.61907
11
6.53022
21
-3.68032
0
LINE
8
BLACK
6
CONTINUOUS
10
6.53022
20
-3.68032
11
6.59147
21
-3.68032
0
LINE
8
BLACK
6
CONTINUOUS
10
7.74895
20
-2.81418
11
7.74895
21
-2.75293
0
LINE
8
BLACK
6
CONTINUOUS
10
7.74895
20
-2.75293
11
7.6877
21
-2.75293
0
LINE
8
BLACK
6
CONTINUOUS
10
7.6877
20
-2.75293
11
7.6877
21
-2.81418
0
LINE
8
BLACK
6
CONTINUOUS
10
7.6877
20
-2.81418
11
7.74895
21
-2.81418
0
LINE
8
BLACK
6
CONTINUOUS
10
7.74895
20
-4.37323
11
7.74895
21
-4.31199
0
LINE
8
BLACK
6
CONTINUOUS
10
7.74895
20
-4.31199
11
7.6877
21
-4.31199
0
LINE
8
BLACK
6
CONTINUOUS
10
7.6877
20
-4.31199
11
7.6877
21
-4.37323
0
LINE
8
BLACK
6
CONTINUOUS
10
7.6877
20
-4.37323
11
7.74895
21
-4.37323
0
LINE
8
BLACK
6
CONTINUOUS
10
9.30801
20
-2.81418
11
9.30801
21
-2.75293
0
LINE
8
BLACK
6
CONTINUOUS
10
9.30801
20
-2.75293
11
9.24676
21
-2.75293
0
LINE
8
BLACK
6
CONTINUOUS
10
9.24676
20
-2.75293
11
9.24676
21
-2.81418
0
LINE
8
BLACK
6
CONTINUOUS
10
9.24676
20
-2.81418
11
9.30801
21
-2.81418
0
LINE
8
BLACK
6
CONTINUOUS
10
9.30801
20
-4.37323
11
9.30801
21
-4.31199
0
LINE
8
BLACK
6
CONTINUOUS
10
9.30801
20
-4.31199
11
9.24676
21
-4.31199
0
LINE
8
BLACK
6
CONTINUOUS
10
9.24676
20
-4.31199
11
9.24676
21
-4.37323
0
LINE
8
BLACK
6
CONTINUOUS
10
9.24676
20
-4.37323
11
9.30801
21
-4.37323
0
LINE
8
BLACK
6
CONTINUOUS
10
10.8449
20
-2.29695
11
10.8449
21
-2.23571
0
LINE
8
BLACK
6
CONTINUOUS
10
10.8449
20
-2.23571
11
10.7837
21
-2.23571
0
LINE
8
BLACK
6
CONTINUOUS
10
10.7837
20
-2.23571
11
10.7837
21
-2.29695
0
LINE
8
BLACK
6
CONTINUOUS
10
10.7837
20
-2.29695
11
10.8449
21
-2.29695
0
LINE
8
BLACK
6
CONTINUOUS
10
12.0949
20
-5.23445
11
12.0949
21
-5.17321
0
LINE
8
BLACK
6
CONTINUOUS
10
12.0949
20
-5.17321
11
12.0337
21
-5.17321
0
LINE
8
BLACK
6
CONTINUOUS
10
12.0337
20
-5.17321
11
12.0337
21
-5.23445
0
LINE
8
BLACK
6
CONTINUOUS
10
12.0337
20
-5.23445
11
12.0949
21
-5.23445
0
LINE
8
BLACK
6
CONTINUOUS
10
12.9074
20
-2.98445
11
12.9074
21
-2.92321
0
LINE
8
BLACK
6
CONTINUOUS
10
12.9074
20
-2.92321
11
12.8462
21
-2.92321
0
LINE
8
BLACK
6
CONTINUOUS
10
12.8462
20
-2.92321
11
12.8462
21
-2.98445
0
LINE
8
BLACK
6
CONTINUOUS
10
12.8462
20
-2.98445
11
12.9074
21
-2.98445
0
LINE
8
BLACK
6
CONTINUOUS
10
1.88707
20
-3.64469
11
1.96557
21
-3.56619
0
LINE
8
BLACK
6
CONTINUOUS
10
1.96557
20
-3.56619
11
1.88707
21
-3.48769
0
LINE
8
BLACK
6
CONTINUOUS
10
1.88707
20
-3.48769
11
1.80857
21
-3.56619
0
LINE
8
BLACK
6
CONTINUOUS
10
1.80857
20
-3.56619
11
1.88707
21
-3.64469
0
LINE
8
BLACK
6
CONTINUOUS
10
2.0173
20
-4.3833
11
2.0958
21
-4.3048
0
LINE
8
BLACK
6
CONTINUOUS
10
2.0958
20
-4.3048
11
2.0173
21
-4.2263
0
LINE
8
BLACK
6
CONTINUOUS
10
2.0173
20
-4.2263
11
1.9388
21
-4.3048
0
LINE
8
BLACK
6
CONTINUOUS
10
1.9388
20
-4.3048
11
2.0173
21
-4.3833
0
LINE
8
BLACK
6
CONTINUOUS
10
2.14754
20
-5.1219
11
2.22604
21
-5.0434
0
LINE
8
BLACK
6
CONTINUOUS
10
2.22604
20
-5.0434
11
2.14754
21
-4.9649
0
LINE
8
BLACK
6
CONTINUOUS
10
2.14754
20
-4.9649
11
2.06904
21
-5.0434
0
LINE
8
BLACK
6
CONTINUOUS
10
2.06904
20
-5.0434
11
2.14754
21
-5.1219
0
LINE
8
BLACK
6
CONTINUOUS
10
2.73959
20
-3.07371
11
2.81809
21
-2.99521
0
LINE
8
BLACK
6
CONTINUOUS
10
2.81809
20
-2.99521
11
2.73959
21
-2.91671
0
LINE
8
BLACK
6
CONTINUOUS
10
2.73959
20
-2.91671
11
2.66109
21
-2.99521
0
LINE
8
BLACK
6
CONTINUOUS
10
2.66109
20
-2.99521
11
2.73959
21
-3.07371
0
LINE
8
BLACK
6
CONTINUOUS
10
2.80495
20
-3.82085
11
2.88345
21
-3.74235
0
LINE
8
BLACK
6
CONTINUOUS
10
2.88345
20
-3.74235
11
2.80495
21
-3.66385
0
LINE
8
BLACK
6
CONTINUOUS
10
2.80495
20
-3.66385
11
2.72645
21
-3.74235
0
LINE
8
BLACK
6
CONTINUOUS
10
2.72645
20
-3.74235
11
2.80495
21
-3.82085
0
LINE
8
BLACK
6
CONTINUOUS
10
2.87032
20
-4.568
11
2.94882
21
-4.4895
0
LINE
8
BLACK
6
CONTINUOUS
10
2.94882
20
-4.4895
11
2.87032
21
-4.411
0
LINE
8
BLACK
6
CONTINUOUS
10
2.87032
20
-4.411
11
2.79182
21
-4.4895
0
LINE
8
BLACK
6
CONTINUOUS
10
2.79182
20
-4.4895
11
2.87032
21
-4.568
0
LINE
8
BLACK
6
CONTINUOUS
10
3.62974
20
-2.70556
11
3.70824
21
-2.62706
0
LINE
8
BLACK
6
CONTINUOUS
10
3.70824
20
-2.62706
11
3.62974
21
-2.54856
0
LINE
8
BLACK
6
CONTINUOUS
10
3.62974
20
-2.54856
11
3.55124
21
-2.62706
0
LINE
8
BLACK
6
CONTINUOUS
10
3.55124
20
-2.62706
11
3.62974
21
-2.70556
0
LINE
8
BLACK
6
CONTINUOUS
10
3.62974
20
-4.20556
11
3.70824
21
-4.12706
0
LINE
8
BLACK
6
CONTINUOUS
10
3.70824
20
-4.12706
11
3.62974
21
-4.04856
0
LINE
8
BLACK
6
CONTINUOUS
10
3.62974
20
-4.04856
11
3.55124
21
-4.12706
0
LINE
8
BLACK
6
CONTINUOUS
10
3.55124
20
-4.12706
11
3.62974
21
-4.20556
0
LINE
8
BLACK
6
CONTINUOUS
10
3.62974
20
-3.45556
11
3.70824
21
-3.37706
0
LINE
8
BLACK
6
CONTINUOUS
10
3.70824
20
-3.37706
11
3.62974
21
-3.29856
0
LINE
8
BLACK
6
CONTINUOUS
10
3.62974
20
-3.29856
11
3.55124
21
-3.37706
0
LINE
8
BLACK
6
CONTINUOUS
10
3.55124
20
-3.37706
11
3.62974
21
-3.45556
0
LINE
8
BLACK
6
CONTINUOUS
10
4.37974
20
-2.89257
11
4.45824
21
-2.81407
0
LINE
8
BLACK
6
CONTINUOUS
10
4.45824
20
-2.81407
11
4.37974
21
-2.73557
0
LINE
8
BLACK
6
CONTINUOUS
10
4.37974
20
-2.73557
11
4.30124
21
-2.81407
0
LINE
8
BLACK
6
CONTINUOUS
10
4.30124
20
-2.81407
11
4.37974
21
-2.89257
0
LINE
8
BLACK
6
CONTINUOUS
10
4.37974
20
-3.64257
11
4.45824
21
-3.56407
0
LINE
8
BLACK
6
CONTINUOUS
10
4.45824
20
-3.56407
11
4.37974
21
-3.48557
0
LINE
8
BLACK
6
CONTINUOUS
10
4.37974
20
-3.48557
11
4.30124
21
-3.56407
0
LINE
8
BLACK
6
CONTINUOUS
10
4.30124
20
-3.56407
11
4.37974
21
-3.64257
0
LINE
8
BLACK
6
CONTINUOUS
10
4.37974
20
-4.39257
11
4.45824
21
-4.31407
0
LINE
8
BLACK
6
CONTINUOUS
10
4.45824
20
-4.31407
11
4.37974
21
-4.23557
0
LINE
8
BLACK
6
CONTINUOUS
10
4.37974
20
-4.23557
11
4.30124
21
-4.31407
0
LINE
8
BLACK
6
CONTINUOUS
10
4.30124
20
-4.31407
11
4.37974
21
-4.39257
0
LINE
8
BLACK
6
CONTINUOUS
10
4.50967
20
-5.29808
11
4.58817
21
-5.21958
0
LINE
8
BLACK
6
CONTINUOUS
10
4.58817
20
-5.21958
11
4.50967
21
-5.14108
0
LINE
8
BLACK
6
CONTINUOUS
10
4.50967
20
-5.14108
11
4.43117
21
-5.21958
0
LINE
8
BLACK
6
CONTINUOUS
10
4.43117
20
-5.21958
11
4.50967
21
-5.29808
0
LINE
8
BLACK
6
CONTINUOUS
10
5.12974
20
-3.73607
11
5.20824
21
-3.65757
0
LINE
8
BLACK
6
CONTINUOUS
10
5.20824
20
-3.65757
11
5.12974
21
-3.57907
0
LINE
8
BLACK
6
CONTINUOUS
10
5.12974
20
-3.57907
11
5.05124
21
-3.65757
0
LINE
8
BLACK
6
CONTINUOUS
10
5.05124
20
-3.65757
11
5.12974
21
-3.73607
0
LINE
8
BLACK
6
CONTINUOUS
10
5.12974
20
-4.48607
11
5.20824
21
-4.40757
0
LINE
8
BLACK
6
CONTINUOUS
10
5.20824
20
-4.40757
11
5.12974
21
-4.32907
0
LINE
8
BLACK
6
CONTINUOUS
10
5.12974
20
-4.32907
11
5.05124
21
-4.40757
0
LINE
8
BLACK
6
CONTINUOUS
10
5.05124
20
-4.40757
11
5.12974
21
-4.48607
0
LINE
8
BLACK
6
CONTINUOUS
10
5.12974
20
-2.98607
11
5.20824
21
-2.90757
0
LINE
8
BLACK
6
CONTINUOUS
10
5.20824
20
-2.90757
11
5.12974
21
-2.82907
0
LINE
8
BLACK
6
CONTINUOUS
10
5.12974
20
-2.82907
11
5.05124
21
-2.90757
0
LINE
8
BLACK
6
CONTINUOUS
10
5.05124
20
-2.90757
11
5.12974
21
-2.98607
0
LINE
8
BLACK
6
CONTINUOUS
10
5.37581
20
-5.41619
11
5.45431
21
-5.33769
0
LINE
8
BLACK
6
CONTINUOUS
10
5.45431
20
-5.33769
11
5.37581
21
-5.25919
0
LINE
8
BLACK
6
CONTINUOUS
10
5.37581
20
-5.25919
11
5.29731
21
-5.33769
0
LINE
8
BLACK
6
CONTINUOUS
10
5.29731
20
-5.33769
11
5.37581
21
-5.41619
0
LINE
8
BLACK
6
CONTINUOUS
10
6.18289
20
-5.75083
11
6.26139
21
-5.67233
0
LINE
8
BLACK
6
CONTINUOUS
10
6.26139
20
-5.67233
11
6.18289
21
-5.59383
0
LINE
8
BLACK
6
CONTINUOUS
10
6.18289
20
-5.59383
11
6.10439
21
-5.67233
0
LINE
8
BLACK
6
CONTINUOUS
10
6.10439
20
-5.67233
11
6.18289
21
-5.75083
0
LINE
8
BLACK
6
CONTINUOUS
10
8.78917
20
-5.75082
11
8.86767
21
-5.67232
0
LINE
8
BLACK
6
CONTINUOUS
10
8.86767
20
-5.67232
11
8.78917
21
-5.59382
0
LINE
8
BLACK
6
CONTINUOUS
10
8.78917
20
-5.59382
11
8.71067
21
-5.67232
0
LINE
8
BLACK
6
CONTINUOUS
10
8.71067
20
-5.67232
11
8.78917
21
-5.75082
0
LINE
8
BLACK
6
CONTINUOUS
10
9.59626
20
-5.41617
11
9.67476
21
-5.33767
0
LINE
8
BLACK
6
CONTINUOUS
10
9.67476
20
-5.33767
11
9.59626
21
-5.25917
0
LINE
8
BLACK
6
CONTINUOUS
10
9.59626
20
-5.25917
11
9.51776
21
-5.33767
0
LINE
8
BLACK
6
CONTINUOUS
10
9.51776
20
-5.33767
11
9.59626
21
-5.41617
0
LINE
8
BLACK
6
CONTINUOUS
10
9.84232
20
-2.98605
11
9.92082
21
-2.90755
0
LINE
8
BLACK
6
CONTINUOUS
10
9.92082
20
-2.90755
11
9.84232
21
-2.82905
0
LINE
8
BLACK
6
CONTINUOUS
10
9.84232
20
-2.82905
11
9.76382
21
-2.90755
0
LINE
8
BLACK
6
CONTINUOUS
10
9.76382
20
-2.90755
11
9.84232
21
-2.98605
0
LINE
8
BLACK
6
CONTINUOUS
10
9.84232
20
-3.73605
11
9.92082
21
-3.65755
0
LINE
8
BLACK
6
CONTINUOUS
10
9.92082
20
-3.65755
11
9.84232
21
-3.57905
0
LINE
8
BLACK
6
CONTINUOUS
10
9.84232
20
-3.57905
11
9.76382
21
-3.65755
0
LINE
8
BLACK
6
CONTINUOUS
10
9.76382
20
-3.65755
11
9.84232
21
-3.73605
0
LINE
8
BLACK
6
CONTINUOUS
10
9.84232
20
-4.48605
11
9.92082
21
-4.40755
0
LINE
8
BLACK
6
CONTINUOUS
10
9.92082
20
-4.40755
11
9.84232
21
-4.32905
0
LINE
8
BLACK
6
CONTINUOUS
10
9.84232
20
-4.32905
11
9.76382
21
-4.40755
0
LINE
8
BLACK
6
CONTINUOUS
10
9.76382
20
-4.40755
11
9.84232
21
-4.48605
0
LINE
8
BLACK
6
CONTINUOUS
10
10.4624
20
-5.29806
11
10.5409
21
-5.21956
0
LINE
8
BLACK
6
CONTINUOUS
10
10.5409
20
-5.21956
11
10.4624
21
-5.14106
0
LINE
8
BLACK
6
CONTINUOUS
10
10.4624
20
-5.14106
11
10.3839
21
-5.21956
0
LINE
8
BLACK
6
CONTINUOUS
10
10.3839
20
-5.21956
11
10.4624
21
-5.29806
0
LINE
8
BLACK
6
CONTINUOUS
10
10.5923
20
-2.89255
11
10.6708
21
-2.81405
0
LINE
8
BLACK
6
CONTINUOUS
10
10.6708
20
-2.81405
11
10.5923
21
-2.73555
0
LINE
8
BLACK
6
CONTINUOUS
10
10.5923
20
-2.73555
11
10.5138
21
-2.81405
0
LINE
8
BLACK
6
CONTINUOUS
10
10.5138
20
-2.81405
11
10.5923
21
-2.89255
0
LINE
8
BLACK
6
CONTINUOUS
10
10.5923
20
-3.64255
11
10.6708
21
-3.56405
0
LINE
8
BLACK
6
CONTINUOUS
10
10.6708
20
-3.56405
11
10.5923
21
-3.48555
0
LINE
8
BLACK
6
CONTINUOUS
10
10.5923
20
-3.48555
11
10.5138
21
-3.56405
0
LINE
8
BLACK
6
CONTINUOUS
10
10.5138
20
-3.56405
11
10.5923
21
-3.64255
0
LINE
8
BLACK
6
CONTINUOUS
10
10.5923
20
-4.39255
11
10.6708
21
-4.31405
0
LINE
8
BLACK
6
CONTINUOUS
10
10.6708
20
-4.31405
11
10.5923
21
-4.23555
0
LINE
8
BLACK
6
CONTINUOUS
10
10.5923
20
-4.23555
11
10.5138
21
-4.31405
0
LINE
8
BLACK
6
CONTINUOUS
10
10.5138
20
-4.31405
11
10.5923
21
-4.39255
0
LINE
8
BLACK
6
CONTINUOUS
10
11.3423
20
-3.45554
11
11.4208
21
-3.37704
0
LINE
8
BLACK
6
CONTINUOUS
10
11.4208
20
-3.37704
11
11.3423
21
-3.29854
0
LINE
8
BLACK
6
CONTINUOUS
10
11.3423
20
-3.29854
11
11.2638
21
-3.37704
0
LINE
8
BLACK
6
CONTINUOUS
10
11.2638
20
-3.37704
11
11.3423
21
-3.45554
0
LINE
8
BLACK
6
CONTINUOUS
10
11.3423
20
-4.20554
11
11.4208
21
-4.12704
0
LINE
8
BLACK
6
CONTINUOUS
10
11.4208
20
-4.12704
11
11.3423
21
-4.04854
0
LINE
8
BLACK
6
CONTINUOUS
10
11.3423
20
-4.04854
11
11.2638
21
-4.12704
0
LINE
8
BLACK
6
CONTINUOUS
10
11.2638
20
-4.12704
11
11.3423
21
-4.20554
0
LINE
8
BLACK
6
CONTINUOUS
10
11.3423
20
-2.70554
11
11.4208
21
-2.62704
0
LINE
8
BLACK
6
CONTINUOUS
10
11.4208
20
-2.62704
11
11.3423
21
-2.54854
0
LINE
8
BLACK
6
CONTINUOUS
10
11.3423
20
-2.54854
11
11.2638
21
-2.62704
0
LINE
8
BLACK
6
CONTINUOUS
10
11.2638
20
-2.62704
11
11.3423
21
-2.70554
0
LINE
8
BLACK
6
CONTINUOUS
10
12.1017
20
-4.56798
11
12.1802
21
-4.48948
0
LINE
8
BLACK
6
CONTINUOUS
10
12.1802
20
-4.48948
11
12.1017
21
-4.41098
0
LINE
8
BLACK
6
CONTINUOUS
10
12.1017
20
-4.41098
11
12.0232
21
-4.48948
0
LINE
8
BLACK
6
CONTINUOUS
10
12.0232
20
-4.48948
11
12.1017
21
-4.56798
0
LINE
8
BLACK
6
CONTINUOUS
10
12.1671
20
-3.82084
11
12.2456
21
-3.74234
0
LINE
8
BLACK
6
CONTINUOUS
10
12.2456
20
-3.74234
11
12.1671
21
-3.66384
0
LINE
8
BLACK
6
CONTINUOUS
10
12.1671
20
-3.66384
11
12.0886
21
-3.74234
0
LINE
8
BLACK
6
CONTINUOUS
10
12.0886
20
-3.74234
11
12.1671
21
-3.82084
0
LINE
8
BLACK
6
CONTINUOUS
10
12.2325
20
-3.07369
11
12.311
21
-2.99519
0
LINE
8
BLACK
6
CONTINUOUS
10
12.311
20
-2.99519
11
12.2325
21
-2.91669
0
LINE
8
BLACK
6
CONTINUOUS
10
12.2325
20
-2.91669
11
12.154
21
-2.99519
0
LINE
8
BLACK
6
CONTINUOUS
10
12.154
20
-2.99519
11
12.2325
21
-3.07369
0
LINE
8
BLACK
6
CONTINUOUS
10
12.8245
20
-5.12188
11
12.903
21
-5.04338
0
LINE
8
BLACK
6
CONTINUOUS
10
12.903
20
-5.04338
11
12.8245
21
-4.96488
0
LINE
8
BLACK
6
CONTINUOUS
10
12.8245
20
-4.96488
11
12.746
21
-5.04338
0
LINE
8
BLACK
6
CONTINUOUS
10
12.746
20
-5.04338
11
12.8245
21
-5.12188
0
LINE
8
BLACK
6
CONTINUOUS
10
12.9548
20
-4.38328
11
13.0333
21
-4.30478
0
LINE
8
BLACK
6
CONTINUOUS
10
13.0333
20
-4.30478
11
12.9548
21
-4.22628
0
LINE
8
BLACK
6
CONTINUOUS
10
12.9548
20
-4.22628
11
12.8763
21
-4.30478
0
LINE
8
BLACK
6
CONTINUOUS
10
12.8763
20
-4.30478
11
12.9548
21
-4.38328
0
LINE
8
BLACK
6
CONTINUOUS
10
13.085
20
-3.64467
11
13.1635
21
-3.56617
0
LINE
8
BLACK
6
CONTINUOUS
10
13.1635
20
-3.56617
11
13.085
21
-3.48767
0
LINE
8
BLACK
6
CONTINUOUS
10
13.085
20
-3.48767
11
13.0065
21
-3.56617
0
LINE
8
BLACK
6
CONTINUOUS
10
13.0065
20
-3.56617
11
13.085
21
-3.64467
0
LINE
8
BLACK
6
CONTINUOUS
10
1.50308
20
-6.33335
11
1.50308
21
-6.25461
0
LINE
8
BLACK
6
CONTINUOUS
10
1.50308
20
-6.25461
11
1.52183
21
-6.25461
0
LINE
8
BLACK
6
CONTINUOUS
10
1.52183
20
-6.25461
11
1.53308
21
-6.25836
0
LINE
8
BLACK
6
CONTINUOUS
10
1.53308
20
-6.25836
11
1.54058
21
-6.26586
0
LINE
8
BLACK
6
CONTINUOUS
10
1.54058
20
-6.26586
11
1.54433
21
-6.27336
0
LINE
8
BLACK
6
CONTINUOUS
10
1.54433
20
-6.27336
11
1.54808
21
-6.28836
0
LINE
8
BLACK
6
CONTINUOUS
10
1.54808
20
-6.28836
11
1.54808
21
-6.29961
0
LINE
8
BLACK
6
CONTINUOUS
10
1.54808
20
-6.29961
11
1.54433
21
-6.3146
0
LINE
8
BLACK
6
CONTINUOUS
10
1.54433
20
-6.3146
11
1.54058
21
-6.3221
0
LINE
8
BLACK
6
CONTINUOUS
10
1.54058
20
-6.3221
11
1.53308
21
-6.3296
0
LINE
8
BLACK
6
CONTINUOUS
10
1.53308
20
-6.3296
11
1.52183
21
-6.33335
0
LINE
8
BLACK
6
CONTINUOUS
10
1.52183
20
-6.33335
11
1.50308
21
-6.33335
0
LINE
8
BLACK
6
CONTINUOUS
10
1.58182
20
-6.33335
11
1.58182
21
-6.28086
0
LINE
8
BLACK
6
CONTINUOUS
10
1.58182
20
-6.29586
11
1.58557
21
-6.28836
0
LINE
8
BLACK
6
CONTINUOUS
10
1.58557
20
-6.28836
11
1.58932
21
-6.28461
0
LINE
8
BLACK
6
CONTINUOUS
10
1.58932
20
-6.28461
11
1.59682
21
-6.28086
0
LINE
8
BLACK
6
CONTINUOUS
10
1.59682
20
-6.28086
11
1.60432
21
-6.28086
0
LINE
8
BLACK
6
CONTINUOUS
10
1.63057
20
-6.33335
11
1.63057
21
-6.28086
0
LINE
8
BLACK
6
CONTINUOUS
10
1.63057
20
-6.25461
11
1.62682
21
-6.25836
0
LINE
8
BLACK
6
CONTINUOUS
10
1.62682
20
-6.25836
11
1.63057
21
-6.26211
0
LINE
8
BLACK
6
CONTINUOUS
10
1.63057
20
-6.26211
11
1.63432
21
-6.25836
0
LINE
8
BLACK
6
CONTINUOUS
10
1.63432
20
-6.25836
11
1.63057
21
-6.25461
0
LINE
8
BLACK
6
CONTINUOUS
10
1.63057
20
-6.25461
11
1.63057
21
-6.26211
0
LINE
8
BLACK
6
CONTINUOUS
10
1.67931
20
-6.33335
11
1.67181
21
-6.3296
0
LINE
8
BLACK
6
CONTINUOUS
10
1.67181
20
-6.3296
11
1.66806
21
-6.3221
0
LINE
8
BLACK
6
CONTINUOUS
10
1.66806
20
-6.3221
11
1.66806
21
-6.25461
0
LINE
8
BLACK
6
CONTINUOUS
10
1.72055
20
-6.33335
11
1.71306
21
-6.3296
0
LINE
8
BLACK
6
CONTINUOUS
10
1.71306
20
-6.3296
11
1.70931
21
-6.3221
0
LINE
8
BLACK
6
CONTINUOUS
10
1.70931
20
-6.3221
11
1.70931
21
-6.25461
0
LINE
8
BLACK
6
CONTINUOUS
10
1.81054
20
-6.33335
11
1.81054
21
-6.25461
0
LINE
8
BLACK
6
CONTINUOUS
10
1.81054
20
-6.25461
11
1.83679
21
-6.31085
0
LINE
8
BLACK
6
CONTINUOUS
10
1.83679
20
-6.31085
11
1.86304
21
-6.25461
0
LINE
8
BLACK
6
CONTINUOUS
10
1.86304
20
-6.25461
11
1.86304
21
-6.33335
0
LINE
8
BLACK
6
CONTINUOUS
10
1.93428
20
-6.33335
11
1.93428
21
-6.29211
0
LINE
8
BLACK
6
CONTINUOUS
10
1.93428
20
-6.29211
11
1.93053
21
-6.28461
0
LINE
8
BLACK
6
CONTINUOUS
10
1.93053
20
-6.28461
11
1.92303
21
-6.28086
0
LINE
8
BLACK
6
CONTINUOUS
10
1.92303
20
-6.28086
11
1.90803
21
-6.28086
0
LINE
8
BLACK
6
CONTINUOUS
10
1.90803
20
-6.28086
11
1.90053
21
-6.28461
0
LINE
8
BLACK
6
CONTINUOUS
10
1.93428
20
-6.3296
11
1.92678
21
-6.33335
0
LINE
8
BLACK
6
CONTINUOUS
10
1.92678
20
-6.33335
11
1.90803
21
-6.33335
0
LINE
8
BLACK
6
CONTINUOUS
10
1.90803
20
-6.33335
11
1.90053
21
-6.3296
0
LINE
8
BLACK
6
CONTINUOUS
10
1.90053
20
-6.3296
11
1.89678
21
-6.3221
0
LINE
8
BLACK
6
CONTINUOUS
10
1.89678
20
-6.3221
11
1.89678
21
-6.3146
0
LINE
8
BLACK
6
CONTINUOUS
10
1.89678
20
-6.3146
11
1.90053
21
-6.30711
0
LINE
8
BLACK
6
CONTINUOUS
10
1.90053
20
-6.30711
11
1.90803
21
-6.30336
0
LINE
8
BLACK
6
CONTINUOUS
10
1.90803
20
-6.30336
11
1.92678
21
-6.30336
0
LINE
8
BLACK
6
CONTINUOUS
10
1.92678
20
-6.30336
11
1.93428
21
-6.29961
0
LINE
8
BLACK
6
CONTINUOUS
10
1.97177
20
-6.28086
11
1.97177
21
-6.3596
0
LINE
8
BLACK
6
CONTINUOUS
10
1.97177
20
-6.28461
11
1.97927
21
-6.28086
0
LINE
8
BLACK
6
CONTINUOUS
10
1.97927
20
-6.28086
11
1.99427
21
-6.28086
0
LINE
8
BLACK
6
CONTINUOUS
10
1.99427
20
-6.28086
11
2.00177
21
-6.28461
0
LINE
8
BLACK
6
CONTINUOUS
10
2.00177
20
-6.28461
11
2.00552
21
-6.28836
0
LINE
8
BLACK
6
CONTINUOUS
10
2.00552
20
-6.28836
11
2.00927
21
-6.29586
0
LINE
8
BLACK
6
CONTINUOUS
10
2.00927
20
-6.29586
11
2.00927
21
-6.31835
0
LINE
8
BLACK
6
CONTINUOUS
10
2.00927
20
-6.31835
11
2.00552
21
-6.32585
0
LINE
8
BLACK
6
CONTINUOUS
10
2.00552
20
-6.32585
11
2.00177
21
-6.3296
0
LINE
8
BLACK
6
CONTINUOUS
10
2.00177
20
-6.3296
11
1.99427
21
-6.33335
0
LINE
8
BLACK
6
CONTINUOUS
10
1.99427
20
-6.33335
11
1.97927
21
-6.33335
0
LINE
8
BLACK
6
CONTINUOUS
10
1.97927
20
-6.33335
11
1.97177
21
-6.3296
0
LINE
8
BLACK
6
CONTINUOUS
10
2.04301
20
-6.32585
11
2.04676
21
-6.3296
0
LINE
8
BLACK
6
CONTINUOUS
10
2.04676
20
-6.3296
11
2.04301
21
-6.33335
0
LINE
8
BLACK
6
CONTINUOUS
10
2.04301
20
-6.33335
11
2.03926
21
-6.3296
0
LINE
8
BLACK
6
CONTINUOUS
10
2.03926
20
-6.3296
11
2.04301
21
-6.32585
0
LINE
8
BLACK
6
CONTINUOUS
10
2.04301
20
-6.32585
11
2.04301
21
-6.33335
0
LINE
8
BLACK
6
CONTINUOUS
10
2.04301
20
-6.28461
11
2.04676
21
-6.28836
0
LINE
8
BLACK
6
CONTINUOUS
10
2.04676
20
-6.28836
11
2.04301
21
-6.29211
0
LINE
8
BLACK
6
CONTINUOUS
10
2.04301
20
-6.29211
11
2.03926
21
-6.28836
0
LINE
8
BLACK
6
CONTINUOUS
10
2.03926
20
-6.28836
11
2.04301
21
-6.28461
0
LINE
8
BLACK
6
CONTINUOUS
10
2.04301
20
-6.28461
11
2.04301
21
-6.29211
0
LINE
8
BLACK
6
CONTINUOUS
10
1.36941
20
-6.44719
11
1.40041
21
-6.47819
0
LINE
8
BLACK
6
CONTINUOUS
10
1.40041
20
-6.44719
11
1.36941
21
-6.47819
0
LINE
8
BLACK
6
CONTINUOUS
10
1.51808
20
-6.41997
11
1.52558
21
-6.41997
0
LINE
8
BLACK
6
CONTINUOUS
10
1.52558
20
-6.41997
11
1.53308
21
-6.42372
0
LINE
8
BLACK
6
CONTINUOUS
10
1.53308
20
-6.42372
11
1.53683
21
-6.42747
0
LINE
8
BLACK
6
CONTINUOUS
10
1.53683
20
-6.42747
11
1.54058
21
-6.43496
0
LINE
8
BLACK
6
CONTINUOUS
10
1.54058
20
-6.43496
11
1.54433
21
-6.44996
0
LINE
8
BLACK
6
CONTINUOUS
10
1.54433
20
-6.44996
11
1.54433
21
-6.46871
0
LINE
8
BLACK
6
CONTINUOUS
10
1.54433
20
-6.46871
11
1.54058
21
-6.48371
0
LINE
8
BLACK
6
CONTINUOUS
10
1.54058
20
-6.48371
11
1.53683
21
-6.49121
0
LINE
8
BLACK
6
CONTINUOUS
10
1.53683
20
-6.49121
11
1.53308
21
-6.49496
0
LINE
8
BLACK
6
CONTINUOUS
10
1.53308
20
-6.49496
11
1.52558
21
-6.49871
0
LINE
8
BLACK
6
CONTINUOUS
10
1.52558
20
-6.49871
11
1.51808
21
-6.49871
0
LINE
8
BLACK
6
CONTINUOUS
10
1.51808
20
-6.49871
11
1.51058
21
-6.49496
0
LINE
8
BLACK
6
CONTINUOUS
10
1.51058
20
-6.49496
11
1.50683
21
-6.49121
0
LINE
8
BLACK
6
CONTINUOUS
10
1.50683
20
-6.49121
11
1.50308
21
-6.48371
0
LINE
8
BLACK
6
CONTINUOUS
10
1.50308
20
-6.48371
11
1.49933
21
-6.46871
0
LINE
8
BLACK
6
CONTINUOUS
10
1.49933
20
-6.46871
11
1.49933
21
-6.44996
0
LINE
8
BLACK
6
CONTINUOUS
10
1.49933
20
-6.44996
11
1.50308
21
-6.43496
0
LINE
8
BLACK
6
CONTINUOUS
10
1.50308
20
-6.43496
11
1.50683
21
-6.42747
0
LINE
8
BLACK
6
CONTINUOUS
10
1.50683
20
-6.42747
11
1.51058
21
-6.42372
0
LINE
8
BLACK
6
CONTINUOUS
10
1.51058
20
-6.42372
11
1.51808
21
-6.41997
0
LINE
8
BLACK
6
CONTINUOUS
10
1.57807
20
-6.49121
11
1.58182
21
-6.49496
0
LINE
8
BLACK
6
CONTINUOUS
10
1.58182
20
-6.49496
11
1.57807
21
-6.49871
0
LINE
8
BLACK
6
CONTINUOUS
10
1.57807
20
-6.49871
11
1.57432
21
-6.49496
0
LINE
8
BLACK
6
CONTINUOUS
10
1.57432
20
-6.49496
11
1.57807
21
-6.49121
0
LINE
8
BLACK
6
CONTINUOUS
10
1.57807
20
-6.49121
11
1.57807
21
-6.49871
0
LINE
8
BLACK
6
CONTINUOUS
10
1.60807
20
-6.41997
11
1.66056
21
-6.41997
0
LINE
8
BLACK
6
CONTINUOUS
10
1.66056
20
-6.41997
11
1.62682
21
-6.49871
0
LINE
8
BLACK
6
CONTINUOUS
10
1.70181
20
-6.45371
11
1.69431
21
-6.44996
0
LINE
8
BLACK
6
CONTINUOUS
10
1.69431
20
-6.44996
11
1.69056
21
-6.44621
0
LINE
8
BLACK
6
CONTINUOUS
10
1.69056
20
-6.44621
11
1.68681
21
-6.43871
0
LINE
8
BLACK
6
CONTINUOUS
10
1.68681
20
-6.43871
11
1.68681
21
-6.43496
0
LINE
8
BLACK
6
CONTINUOUS
10
1.68681
20
-6.43496
11
1.69056
21
-6.42747
0
LINE
8
BLACK
6
CONTINUOUS
10
1.69056
20
-6.42747
11
1.69431
21
-6.42372
0
LINE
8
BLACK
6
CONTINUOUS
10
1.69431
20
-6.42372
11
1.70181
21
-6.41997
0
LINE
8
BLACK
6
CONTINUOUS
10
1.70181
20
-6.41997
11
1.7168
21
-6.41997
0
LINE
8
BLACK
6
CONTINUOUS
10
1.7168
20
-6.41997
11
1.7243
21
-6.42372
0
LINE
8
BLACK
6
CONTINUOUS
10
1.7243
20
-6.42372
11
1.72805
21
-6.42747
0
LINE
8
BLACK
6
CONTINUOUS
10
1.72805
20
-6.42747
11
1.7318
21
-6.43496
0
LINE
8
BLACK
6
CONTINUOUS
10
1.7318
20
-6.43496
11
1.7318
21
-6.43871
0
LINE
8
BLACK
6
CONTINUOUS
10
1.7318
20
-6.43871
11
1.72805
21
-6.44621
0
LINE
8
BLACK
6
CONTINUOUS
10
1.72805
20
-6.44621
11
1.7243
21
-6.44996
0
LINE
8
BLACK
6
CONTINUOUS
10
1.7243
20
-6.44996
11
1.7168
21
-6.45371
0
LINE
8
BLACK
6
CONTINUOUS
10
1.7168
20
-6.45371
11
1.70181
21
-6.45371
0
LINE
8
BLACK
6
CONTINUOUS
10
1.70181
20
-6.45371
11
1.69431
21
-6.45746
0
LINE
8
BLACK
6
CONTINUOUS
10
1.69431
20
-6.45746
11
1.69056
21
-6.46121
0
LINE
8
BLACK
6
CONTINUOUS
10
1.69056
20
-6.46121
11
1.68681
21
-6.46871
0
LINE
8
BLACK
6
CONTINUOUS
10
1.68681
20
-6.46871
11
1.68681
21
-6.48371
0
LINE
8
BLACK
6
CONTINUOUS
10
1.68681
20
-6.48371
11
1.69056
21
-6.49121
0
LINE
8
BLACK
6
CONTINUOUS
10
1.69056
20
-6.49121
11
1.69431
21
-6.49496
0
LINE
8
BLACK
6
CONTINUOUS
10
1.69431
20
-6.49496
11
1.70181
21
-6.49871
0
LINE
8
BLACK
6
CONTINUOUS
10
1.70181
20
-6.49871
11
1.7168
21
-6.49871
0
LINE
8
BLACK
6
CONTINUOUS
10
1.7168
20
-6.49871
11
1.7243
21
-6.49496
0
LINE
8
BLACK
6
CONTINUOUS
10
1.7243
20
-6.49496
11
1.72805
21
-6.49121
0
LINE
8
BLACK
6
CONTINUOUS
10
1.72805
20
-6.49121
11
1.7318
21
-6.48371
0
LINE
8
BLACK
6
CONTINUOUS
10
1.7318
20
-6.48371
11
1.7318
21
-6.46871
0
LINE
8
BLACK
6
CONTINUOUS
10
1.7318
20
-6.46871
11
1.72805
21
-6.46121
0
LINE
8
BLACK
6
CONTINUOUS
10
1.72805
20
-6.46121
11
1.7243
21
-6.45746
0
LINE
8
BLACK
6
CONTINUOUS
10
1.7243
20
-6.45746
11
1.7168
21
-6.45371
0
LINE
8
BLACK
6
CONTINUOUS
10
1.75805
20
-6.41997
11
1.81054
21
-6.41997
0
LINE
8
BLACK
6
CONTINUOUS
10
1.81054
20
-6.41997
11
1.7768
21
-6.49871
0
LINE
8
BLACK
6
CONTINUOUS
10
1.84054
20
-6.49871
11
1.84054
21
-6.44621
0
LINE
8
BLACK
6
CONTINUOUS
10
1.84054
20
-6.45371
11
1.84429
21
-6.44996
0
LINE
8
BLACK
6
CONTINUOUS
10
1.84429
20
-6.44996
11
1.85179
21
-6.44621
0
LINE
8
BLACK
6
CONTINUOUS
10
1.85179
20
-6.44621
11
1.86304
21
-6.44621
0
LINE
8
BLACK
6
CONTINUOUS
10
1.86304
20
-6.44621
11
1.87054
21
-6.44996
0
LINE
8
BLACK
6
CONTINUOUS
10
1.87054
20
-6.44996
11
1.87429
21
-6.45746
0
LINE
8
BLACK
6
CONTINUOUS
10
1.87429
20
-6.45746
11
1.87429
21
-6.49871
0
LINE
8
BLACK
6
CONTINUOUS
10
1.87429
20
-6.45746
11
1.87803
21
-6.44996
0
LINE
8
BLACK
6
CONTINUOUS
10
1.87803
20
-6.44996
11
1.88553
21
-6.44621
0
LINE
8
BLACK
6
CONTINUOUS
10
1.88553
20
-6.44621
11
1.89678
21
-6.44621
0
LINE
8
BLACK
6
CONTINUOUS
10
1.89678
20
-6.44621
11
1.90428
21
-6.44996
0
LINE
8
BLACK
6
CONTINUOUS
10
1.90428
20
-6.44996
11
1.90803
21
-6.45746
0
LINE
8
BLACK
6
CONTINUOUS
10
1.90803
20
-6.45746
11
1.90803
21
-6.49871
0
LINE
8
BLACK
6
CONTINUOUS
10
1.94553
20
-6.49871
11
1.94553
21
-6.44621
0
LINE
8
BLACK
6
CONTINUOUS
10
1.94553
20
-6.45371
11
1.94928
21
-6.44996
0
LINE
8
BLACK
6
CONTINUOUS
10
1.94928
20
-6.44996
11
1.95677
21
-6.44621
0
LINE
8
BLACK
6
CONTINUOUS
10
1.95677
20
-6.44621
11
1.96802
21
-6.44621
0
LINE
8
BLACK
6
CONTINUOUS
10
1.96802
20
-6.44621
11
1.97552
21
-6.44996
0
LINE
8
BLACK
6
CONTINUOUS
10
1.97552
20
-6.44996
11
1.97927
21
-6.45746
0
LINE
8
BLACK
6
CONTINUOUS
10
1.97927
20
-6.45746
11
1.97927
21
-6.49871
0
LINE
8
BLACK
6
CONTINUOUS
10
1.97927
20
-6.45746
11
1.98302
21
-6.44996
0
LINE
8
BLACK
6
CONTINUOUS
10
1.98302
20
-6.44996
11
1.99052
21
-6.44621
0
LINE
8
BLACK
6
CONTINUOUS
10
1.99052
20
-6.44621
11
2.00177
21
-6.44621
0
LINE
8
BLACK
6
CONTINUOUS
10
2.00177
20
-6.44621
11
2.00927
21
-6.44996
0
LINE
8
BLACK
6
CONTINUOUS
10
2.00927
20
-6.44996
11
2.01302
21
-6.45746
0
LINE
8
BLACK
6
CONTINUOUS
10
2.01302
20
-6.45746
11
2.01302
21
-6.49871
0
LINE
8
BLACK
6
CONTINUOUS
10
2.16675
20
-6.41622
11
2.09926
21
-6.51745
0
LINE
8
BLACK
6
CONTINUOUS
10
2.26799
20
-6.41997
11
2.27548
21
-6.41997
0
LINE
8
BLACK
6
CONTINUOUS
10
2.27548
20
-6.41997
11
2.28298
21
-6.42372
0
LINE
8
BLACK
6
CONTINUOUS
10
2.28298
20
-6.42372
11
2.28673
21
-6.42747
0
LINE
8
BLACK
6
CONTINUOUS
10
2.28673
20
-6.42747
11
2.29048
21
-6.43496
0
LINE
8
BLACK
6
CONTINUOUS
10
2.29048
20
-6.43496
11
2.29423
21
-6.44996
0
LINE
8
BLACK
6
CONTINUOUS
10
2.29423
20
-6.44996
11
2.29423
21
-6.46871
0
LINE
8
BLACK
6
CONTINUOUS
10
2.29423
20
-6.46871
11
2.29048
21
-6.48371
0
LINE
8
BLACK
6
CONTINUOUS
10
2.29048
20
-6.48371
11
2.28673
21
-6.49121
0
LINE
8
BLACK
6
CONTINUOUS
10
2.28673
20
-6.49121
11
2.28298
21
-6.49496
0
LINE
8
BLACK
6
CONTINUOUS
10
2.28298
20
-6.49496
11
2.27548
21
-6.49871
0
LINE
8
BLACK
6
CONTINUOUS
10
2.27548
20
-6.49871
11
2.26799
21
-6.49871
0
LINE
8
BLACK
6
CONTINUOUS
10
2.26799
20
-6.49871
11
2.26049
21
-6.49496
0
LINE
8
BLACK
6
CONTINUOUS
10
2.26049
20
-6.49496
11
2.25674
21
-6.49121
0
LINE
8
BLACK
6
CONTINUOUS
10
2.25674
20
-6.49121
11
2.25299
21
-6.48371
0
LINE
8
BLACK
6
CONTINUOUS
10
2.25299
20
-6.48371
11
2.24924
21
-6.46871
0
LINE
8
BLACK
6
CONTINUOUS
10
2.24924
20
-6.46871
11
2.24924
21
-6.44996
0
LINE
8
BLACK
6
CONTINUOUS
10
2.24924
20
-6.44996
11
2.25299
21
-6.43496
0
LINE
8
BLACK
6
CONTINUOUS
10
2.25299
20
-6.43496
11
2.25674
21
-6.42747
0
LINE
8
BLACK
6
CONTINUOUS
10
2.25674
20
-6.42747
11
2.26049
21
-6.42372
0
LINE
8
BLACK
6
CONTINUOUS
10
2.26049
20
-6.42372
11
2.26799
21
-6.41997
0
LINE
8
BLACK
6
CONTINUOUS
10
2.32798
20
-6.49121
11
2.33173
21
-6.49496
0
LINE
8
BLACK
6
CONTINUOUS
10
2.33173
20
-6.49496
11
2.32798
21
-6.49871
0
LINE
8
BLACK
6
CONTINUOUS
10
2.32798
20
-6.49871
11
2.32423
21
-6.49496
0
LINE
8
BLACK
6
CONTINUOUS
10
2.32423
20
-6.49496
11
2.32798
21
-6.49121
0
LINE
8
BLACK
6
CONTINUOUS
10
2.32798
20
-6.49121
11
2.32798
21
-6.49871
0
LINE
8
BLACK
6
CONTINUOUS
10
2.38047
20
-6.41997
11
2.38797
21
-6.41997
0
LINE
8
BLACK
6
CONTINUOUS
10
2.38797
20
-6.41997
11
2.39547
21
-6.42372
0
LINE
8
BLACK
6
CONTINUOUS
10
2.39547
20
-6.42372
11
2.39922
21
-6.42747
0
LINE
8
BLACK
6
CONTINUOUS
10
2.39922
20
-6.42747
11
2.40297
21
-6.43496
0
LINE
8
BLACK
6
CONTINUOUS
10
2.40297
20
-6.43496
11
2.40672
21
-6.44996
0
LINE
8
BLACK
6
CONTINUOUS
10
2.40672
20
-6.44996
11
2.40672
21
-6.46871
0
LINE
8
BLACK
6
CONTINUOUS
10
2.40672
20
-6.46871
11
2.40297
21
-6.48371
0
LINE
8
BLACK
6
CONTINUOUS
10
2.40297
20
-6.48371
11
2.39922
21
-6.49121
0
LINE
8
BLACK
6
CONTINUOUS
10
2.39922
20
-6.49121
11
2.39547
21
-6.49496
0
LINE
8
BLACK
6
CONTINUOUS
10
2.39547
20
-6.49496
11
2.38797
21
-6.49871
0
LINE
8
BLACK
6
CONTINUOUS
10
2.38797
20
-6.49871
11
2.38047
21
-6.49871
0
LINE
8
BLACK
6
CONTINUOUS
10
2.38047
20
-6.49871
11
2.37297
21
-6.49496
0
LINE
8
BLACK
6
CONTINUOUS
10
2.37297
20
-6.49496
11
2.36922
21
-6.49121
0
LINE
8
BLACK
6
CONTINUOUS
10
2.36922
20
-6.49121
11
2.36547
21
-6.48371
0
LINE
8
BLACK
6
CONTINUOUS
10
2.36547
20
-6.48371
11
2.36172
21
-6.46871
0
LINE
8
BLACK
6
CONTINUOUS
10
2.36172
20
-6.46871
11
2.36172
21
-6.44996
0
LINE
8
BLACK
6
CONTINUOUS
10
2.36172
20
-6.44996
11
2.36547
21
-6.43496
0
LINE
8
BLACK
6
CONTINUOUS
10
2.36547
20
-6.43496
11
2.36922
21
-6.42747
0
LINE
8
BLACK
6
CONTINUOUS
10
2.36922
20
-6.42747
11
2.37297
21
-6.42372
0
LINE
8
BLACK
6
CONTINUOUS
10
2.37297
20
-6.42372
11
2.38047
21
-6.41997
0
LINE
8
BLACK
6
CONTINUOUS
10
2.43297
20
-6.41997
11
2.48171
21
-6.41997
0
LINE
8
BLACK
6
CONTINUOUS
10
2.48171
20
-6.41997
11
2.45546
21
-6.44996
0
LINE
8
BLACK
6
CONTINUOUS
10
2.45546
20
-6.44996
11
2.46671
21
-6.44996
0
LINE
8
BLACK
6
CONTINUOUS
10
2.46671
20
-6.44996
11
2.47421
21
-6.45371
0
LINE
8
BLACK
6
CONTINUOUS
10
2.47421
20
-6.45371
11
2.47796
21
-6.45746
0
LINE
8
BLACK
6
CONTINUOUS
10
2.47796
20
-6.45746
11
2.48171
21
-6.46496
0
LINE
8
BLACK
6
CONTINUOUS
10
2.48171
20
-6.46496
11
2.48171
21
-6.48371
0
LINE
8
BLACK
6
CONTINUOUS
10
2.48171
20
-6.48371
11
2.47796
21
-6.49121
0
LINE
8
BLACK
6
CONTINUOUS
10
2.47796
20
-6.49121
11
2.47421
21
-6.49496
0
LINE
8
BLACK
6
CONTINUOUS
10
2.47421
20
-6.49496
11
2.46671
21
-6.49871
0
LINE
8
BLACK
6
CONTINUOUS
10
2.46671
20
-6.49871
11
2.44421
21
-6.49871
0
LINE
8
BLACK
6
CONTINUOUS
10
2.44421
20
-6.49871
11
2.43671
21
-6.49496
0
LINE
8
BLACK
6
CONTINUOUS
10
2.43671
20
-6.49496
11
2.43297
21
-6.49121
0
LINE
8
BLACK
6
CONTINUOUS
10
2.5567
20
-6.49871
11
2.51171
21
-6.49871
0
LINE
8
BLACK
6
CONTINUOUS
10
2.5342
20
-6.49871
11
2.5342
21
-6.41997
0
LINE
8
BLACK
6
CONTINUOUS
10
2.5342
20
-6.41997
11
2.5267
21
-6.43121
0
LINE
8
BLACK
6
CONTINUOUS
10
2.5267
20
-6.43121
11
2.5192
21
-6.43871
0
LINE
8
BLACK
6
CONTINUOUS
10
2.5192
20
-6.43871
11
2.51171
21
-6.44246
0
LINE
8
BLACK
6
CONTINUOUS
10
2.60544
20
-6.41997
11
2.61294
21
-6.41997
0
LINE
8
BLACK
6
CONTINUOUS
10
2.61294
20
-6.41997
11
2.62044
21
-6.42372
0
LINE
8
BLACK
6
CONTINUOUS
10
2.62044
20
-6.42372
11
2.62419
21
-6.42747
0
LINE
8
BLACK
6
CONTINUOUS
10
2.62419
20
-6.42747
11
2.62794
21
-6.43496
0
LINE
8
BLACK
6
CONTINUOUS
10
2.62794
20
-6.43496
11
2.63169
21
-6.44996
0
LINE
8
BLACK
6
CONTINUOUS
10
2.63169
20
-6.44996
11
2.63169
21
-6.46871
0
LINE
8
BLACK
6
CONTINUOUS
10
2.63169
20
-6.46871
11
2.62794
21
-6.48371
0
LINE
8
BLACK
6
CONTINUOUS
10
2.62794
20
-6.48371
11
2.62419
21
-6.49121
0
LINE
8
BLACK
6
CONTINUOUS
10
2.62419
20
-6.49121
11
2.62044
21
-6.49496
0
LINE
8
BLACK
6
CONTINUOUS
10
2.62044
20
-6.49496
11
2.61294
21
-6.49871
0
LINE
8
BLACK
6
CONTINUOUS
10
2.61294
20
-6.49871
11
2.60544
21
-6.49871
0
LINE
8
BLACK
6
CONTINUOUS
10
2.60544
20
-6.49871
11
2.59794
21
-6.49496
0
LINE
8
BLACK
6
CONTINUOUS
10
2.59794
20
-6.49496
11
2.5942
21
-6.49121
0
LINE
8
BLACK
6
CONTINUOUS
10
2.5942
20
-6.49121
11
2.59045
21
-6.48371
0
LINE
8
BLACK
6
CONTINUOUS
10
2.59045
20
-6.48371
11
2.5867
21
-6.46871
0
LINE
8
BLACK
6
CONTINUOUS
10
2.5867
20
-6.46871
11
2.5867
21
-6.44996
0
LINE
8
BLACK
6
CONTINUOUS
10
2.5867
20
-6.44996
11
2.59045
21
-6.43496
0
LINE
8
BLACK
6
CONTINUOUS
10
2.59045
20
-6.43496
11
2.5942
21
-6.42747
0
LINE
8
BLACK
6
CONTINUOUS
10
2.5942
20
-6.42747
11
2.59794
21
-6.42372
0
LINE
8
BLACK
6
CONTINUOUS
10
2.59794
20
-6.42372
11
2.60544
21
-6.41997
0
LINE
8
BLACK
6
CONTINUOUS
10
2.66169
20
-6.41997
11
2.66169
21
-6.43496
0
LINE
8
BLACK
6
CONTINUOUS
10
2.69168
20
-6.41997
11
2.69168
21
-6.43496
0
LINE
8
BLACK
6
CONTINUOUS
10
2.80792
20
-6.5287
11
2.80417
21
-6.52495
0
LINE
8
BLACK
6
CONTINUOUS
10
2.80417
20
-6.52495
11
2.79667
21
-6.5137
0
LINE
8
BLACK
6
CONTINUOUS
10
2.79667
20
-6.5137
11
2.79292
21
-6.50621
0
LINE
8
BLACK
6
CONTINUOUS
10
2.79292
20
-6.50621
11
2.78917
21
-6.49496
0
LINE
8
BLACK
6
CONTINUOUS
10
2.78917
20
-6.49496
11
2.78542
21
-6.47621
0
LINE
8
BLACK
6
CONTINUOUS
10
2.78542
20
-6.47621
11
2.78542
21
-6.46121
0
LINE
8
BLACK
6
CONTINUOUS
10
2.78542
20
-6.46121
11
2.78917
21
-6.44246
0
LINE
8
BLACK
6
CONTINUOUS
10
2.78917
20
-6.44246
11
2.79292
21
-6.43121
0
LINE
8
BLACK
6
CONTINUOUS
10
2.79292
20
-6.43121
11
2.79667
21
-6.42372
0
LINE
8
BLACK
6
CONTINUOUS
10
2.79667
20
-6.42372
11
2.80417
21
-6.41247
0
LINE
8
BLACK
6
CONTINUOUS
10
2.80417
20
-6.41247
11
2.80792
21
-6.40872
0
LINE
8
BLACK
6
CONTINUOUS
10
2.83417
20
-6.42747
11
2.83791
21
-6.42372
0
LINE
8
BLACK
6
CONTINUOUS
10
2.83791
20
-6.42372
11
2.84541
21
-6.41997
0
LINE
8
BLACK
6
CONTINUOUS
10
2.84541
20
-6.41997
11
2.86416
21
-6.41997
0
LINE
8
BLACK
6
CONTINUOUS
10
2.86416
20
-6.41997
11
2.87166
21
-6.42372
0
LINE
8
BLACK
6
CONTINUOUS
10
2.87166
20
-6.42372
11
2.87541
21
-6.42747
0
LINE
8
BLACK
6
CONTINUOUS
10
2.87541
20
-6.42747
11
2.87916
21
-6.43496
0
LINE
8
BLACK
6
CONTINUOUS
10
2.87916
20
-6.43496
11
2.87916
21
-6.44246
0
LINE
8
BLACK
6
CONTINUOUS
10
2.87916
20
-6.44246
11
2.87541
21
-6.45371
0
LINE
8
BLACK
6
CONTINUOUS
10
2.87541
20
-6.45371
11
2.83042
21
-6.49871
0
LINE
8
BLACK
6
CONTINUOUS
10
2.83042
20
-6.49871
11
2.87916
21
-6.49871
0
LINE
8
BLACK
6
CONTINUOUS
10
2.9279
20
-6.41997
11
2.9354
21
-6.41997
0
LINE
8
BLACK
6
CONTINUOUS
10
2.9354
20
-6.41997
11
2.9429
21
-6.42372
0
LINE
8
BLACK
6
CONTINUOUS
10
2.9429
20
-6.42372
11
2.94665
21
-6.42747
0
LINE
8
BLACK
6
CONTINUOUS
10
2.94665
20
-6.42747
11
2.9504
21
-6.43496
0
LINE
8
BLACK
6
CONTINUOUS
10
2.9504
20
-6.43496
11
2.95415
21
-6.44996
0
LINE
8
BLACK
6
CONTINUOUS
10
2.95415
20
-6.44996
11
2.95415
21
-6.46871
0
LINE
8
BLACK
6
CONTINUOUS
10
2.95415
20
-6.46871
11
2.9504
21
-6.48371
0
LINE
8
BLACK
6
CONTINUOUS
10
2.9504
20
-6.48371
11
2.94665
21
-6.49121
0
LINE
8
BLACK
6
CONTINUOUS
10
2.94665
20
-6.49121
11
2.9429
21
-6.49496
0
LINE
8
BLACK
6
CONTINUOUS
10
2.9429
20
-6.49496
11
2.9354
21
-6.49871
0
LINE
8
BLACK
6
CONTINUOUS
10
2.9354
20
-6.49871
11
2.9279
21
-6.49871
0
LINE
8
BLACK
6
CONTINUOUS
10
2.9279
20
-6.49871
11
2.9204
21
-6.49496
0
LINE
8
BLACK
6
CONTINUOUS
10
2.9204
20
-6.49496
11
2.91665
21
-6.49121
0
LINE
8
BLACK
6
CONTINUOUS
10
2.91665
20
-6.49121
11
2.91291
21
-6.48371
0
LINE
8
BLACK
6
CONTINUOUS
10
2.91291
20
-6.48371
11
2.90916
21
-6.46871
0
LINE
8
BLACK
6
CONTINUOUS
10
2.90916
20
-6.46871
11
2.90916
21
-6.44996
0
LINE
8
BLACK
6
CONTINUOUS
10
2.90916
20
-6.44996
11
2.91291
21
-6.43496
0
LINE
8
BLACK
6
CONTINUOUS
10
2.91291
20
-6.43496
11
2.91665
21
-6.42747
0
LINE
8
BLACK
6
CONTINUOUS
10
2.91665
20
-6.42747
11
2.9204
21
-6.42372
0
LINE
8
BLACK
6
CONTINUOUS
10
2.9204
20
-6.42372
11
2.9279
21
-6.41997
0
LINE
8
BLACK
6
CONTINUOUS
10
3.04789
20
-6.49871
11
3.04789
21
-6.41997
0
LINE
8
BLACK
6
CONTINUOUS
10
3.08163
20
-6.49871
11
3.08163
21
-6.45746
0
LINE
8
BLACK
6
CONTINUOUS
10
3.08163
20
-6.45746
11
3.07788
21
-6.44996
0
LINE
8
BLACK
6
CONTINUOUS
10
3.07788
20
-6.44996
11
3.07039
21
-6.44621
0
LINE
8
BLACK
6
CONTINUOUS
10
3.07039
20
-6.44621
11
3.05914
21
-6.44621
0
LINE
8
BLACK
6
CONTINUOUS
10
3.05914
20
-6.44621
11
3.05164
21
-6.44996
0
LINE
8
BLACK
6
CONTINUOUS
10
3.05164
20
-6.44996
11
3.04789
21
-6.45371
0
LINE
8
BLACK
6
CONTINUOUS
10
3.13038
20
-6.49871
11
3.12288
21
-6.49496
0
LINE
8
BLACK
6
CONTINUOUS
10
3.12288
20
-6.49496
11
3.11913
21
-6.49121
0
LINE
8
BLACK
6
CONTINUOUS
10
3.11913
20
-6.49121
11
3.11538
21
-6.48371
0
LINE
8
BLACK
6
CONTINUOUS
10
3.11538
20
-6.48371
11
3.11538
21
-6.46121
0
LINE
8
BLACK
6
CONTINUOUS
10
3.11538
20
-6.46121
11
3.11913
21
-6.45371
0
LINE
8
BLACK
6
CONTINUOUS
10
3.11913
20
-6.45371
11
3.12288
21
-6.44996
0
LINE
8
BLACK
6
CONTINUOUS
10
3.12288
20
-6.44996
11
3.13038
21
-6.44621
0
LINE
8
BLACK
6
CONTINUOUS
10
3.13038
20
-6.44621
11
3.14163
21
-6.44621
0
LINE
8
BLACK
6
CONTINUOUS
10
3.14163
20
-6.44621
11
3.14913
21
-6.44996
0
LINE
8
BLACK
6
CONTINUOUS
10
3.14913
20
-6.44996
11
3.15288
21
-6.45371
0
LINE
8
BLACK
6
CONTINUOUS
10
3.15288
20
-6.45371
11
3.15662
21
-6.46121
0
LINE
8
BLACK
6
CONTINUOUS
10
3.15662
20
-6.46121
11
3.15662
21
-6.48371
0
LINE
8
BLACK
6
CONTINUOUS
10
3.15662
20
-6.48371
11
3.15288
21
-6.49121
0
LINE
8
BLACK
6
CONTINUOUS
10
3.15288
20
-6.49121
11
3.14913
21
-6.49496
0
LINE
8
BLACK
6
CONTINUOUS
10
3.14913
20
-6.49496
11
3.14163
21
-6.49871
0
LINE
8
BLACK
6
CONTINUOUS
10
3.14163
20
-6.49871
11
3.13038
21
-6.49871
0
LINE
8
BLACK
6
CONTINUOUS
10
3.20162
20
-6.49871
11
3.19412
21
-6.49496
0
LINE
8
BLACK
6
CONTINUOUS
10
3.19412
20
-6.49496
11
3.19037
21
-6.48746
0
LINE
8
BLACK
6
CONTINUOUS
10
3.19037
20
-6.48746
11
3.19037
21
-6.41997
0
LINE
8
BLACK
6
CONTINUOUS
10
3.26161
20
-6.49496
11
3.25411
21
-6.49871
0
LINE
8
BLACK
6
CONTINUOUS
10
3.25411
20
-6.49871
11
3.23911
21
-6.49871
0
LINE
8
BLACK
6
CONTINUOUS
10
3.23911
20
-6.49871
11
3.23162
21
-6.49496
0
LINE
8
BLACK
6
CONTINUOUS
10
3.23162
20
-6.49496
11
3.22787
21
-6.48746
0
LINE
8
BLACK
6
CONTINUOUS
10
3.22787
20
-6.48746
11
3.22787
21
-6.45746
0
LINE
8
BLACK
6
CONTINUOUS
10
3.22787
20
-6.45746
11
3.23162
21
-6.44996
0
LINE
8
BLACK
6
CONTINUOUS
10
3.23162
20
-6.44996
11
3.23911
21
-6.44621
0
LINE
8
BLACK
6
CONTINUOUS
10
3.23911
20
-6.44621
11
3.25411
21
-6.44621
0
LINE
8
BLACK
6
CONTINUOUS
10
3.25411
20
-6.44621
11
3.26161
21
-6.44996
0
LINE
8
BLACK
6
CONTINUOUS
10
3.26161
20
-6.44996
11
3.26536
21
-6.45746
0
LINE
8
BLACK
6
CONTINUOUS
10
3.26536
20
-6.45746
11
3.26536
21
-6.46496
0
LINE
8
BLACK
6
CONTINUOUS
10
3.26536
20
-6.46496
11
3.22787
21
-6.47246
0
LINE
8
BLACK
6
CONTINUOUS
10
3.29536
20
-6.49496
11
3.30286
21
-6.49871
0
LINE
8
BLACK
6
CONTINUOUS
10
3.30286
20
-6.49871
11
3.31785
21
-6.49871
0
LINE
8
BLACK
6
CONTINUOUS
10
3.31785
20
-6.49871
11
3.32535
21
-6.49496
0
LINE
8
BLACK
6
CONTINUOUS
10
3.32535
20
-6.49496
11
3.3291
21
-6.48746
0
LINE
8
BLACK
6
CONTINUOUS
10
3.3291
20
-6.48746
11
3.3291
21
-6.48371
0
LINE
8
BLACK
6
CONTINUOUS
10
3.3291
20
-6.48371
11
3.32535
21
-6.47621
0
LINE
8
BLACK
6
CONTINUOUS
10
3.32535
20
-6.47621
11
3.31785
21
-6.47246
0
LINE
8
BLACK
6
CONTINUOUS
10
3.31785
20
-6.47246
11
3.30661
21
-6.47246
0
LINE
8
BLACK
6
CONTINUOUS
10
3.30661
20
-6.47246
11
3.29911
21
-6.46871
0
LINE
8
BLACK
6
CONTINUOUS
10
3.29911
20
-6.46871
11
3.29536
21
-6.46121
0
LINE
8
BLACK
6
CONTINUOUS
10
3.29536
20
-6.46121
11
3.29536
21
-6.45746
0
LINE
8
BLACK
6
CONTINUOUS
10
3.29536
20
-6.45746
11
3.29911
21
-6.44996
0
LINE
8
BLACK
6
CONTINUOUS
10
3.29911
20
-6.44996
11
3.30661
21
-6.44621
0
LINE
8
BLACK
6
CONTINUOUS
10
3.30661
20
-6.44621
11
3.31785
21
-6.44621
0
LINE
8
BLACK
6
CONTINUOUS
10
3.31785
20
-6.44621
11
3.32535
21
-6.44996
0
LINE
8
BLACK
6
CONTINUOUS
10
3.35535
20
-6.5287
11
3.3591
21
-6.52495
0
LINE
8
BLACK
6
CONTINUOUS
10
3.3591
20
-6.52495
11
3.3666
21
-6.5137
0
LINE
8
BLACK
6
CONTINUOUS
10
3.3666
20
-6.5137
11
3.37035
21
-6.50621
0
LINE
8
BLACK
6
CONTINUOUS
10
3.37035
20
-6.50621
11
3.3741
21
-6.49496
0
LINE
8
BLACK
6
CONTINUOUS
10
3.3741
20
-6.49496
11
3.37785
21
-6.47621
0
LINE
8
BLACK
6
CONTINUOUS
10
3.37785
20
-6.47621
11
3.37785
21
-6.46121
0
LINE
8
BLACK
6
CONTINUOUS
10
3.37785
20
-6.46121
11
3.3741
21
-6.44246
0
LINE
8
BLACK
6
CONTINUOUS
10
3.3741
20
-6.44246
11
3.37035
21
-6.43121
0
LINE
8
BLACK
6
CONTINUOUS
10
3.37035
20
-6.43121
11
3.3666
21
-6.42372
0
LINE
8
BLACK
6
CONTINUOUS
10
3.3666
20
-6.42372
11
3.3591
21
-6.41247
0
LINE
8
BLACK
6
CONTINUOUS
10
3.3591
20
-6.41247
11
3.35535
21
-6.40872
0
LINE
8
BLACK
6
CONTINUOUS
10
3.49783
20
-6.5287
11
3.49408
21
-6.52495
0
LINE
8
BLACK
6
CONTINUOUS
10
3.49408
20
-6.52495
11
3.48658
21
-6.5137
0
LINE
8
BLACK
6
CONTINUOUS
10
3.48658
20
-6.5137
11
3.48283
21
-6.50621
0
LINE
8
BLACK
6
CONTINUOUS
10
3.48283
20
-6.50621
11
3.47908
21
-6.49496
0
LINE
8
BLACK
6
CONTINUOUS
10
3.47908
20
-6.49496
11
3.47534
21
-6.47621
0
LINE
8
BLACK
6
CONTINUOUS
10
3.47534
20
-6.47621
11
3.47534
21
-6.46121
0
LINE
8
BLACK
6
CONTINUOUS
10
3.47534
20
-6.46121
11
3.47908
21
-6.44246
0
LINE
8
BLACK
6
CONTINUOUS
10
3.47908
20
-6.44246
11
3.48283
21
-6.43121
0
LINE
8
BLACK
6
CONTINUOUS
10
3.48283
20
-6.43121
11
3.48658
21
-6.42372
0
LINE
8
BLACK
6
CONTINUOUS
10
3.48658
20
-6.42372
11
3.49408
21
-6.41247
0
LINE
8
BLACK
6
CONTINUOUS
10
3.49408
20
-6.41247
11
3.49783
21
-6.40872
0
LINE
8
BLACK
6
CONTINUOUS
10
3.52783
20
-6.44621
11
3.52783
21
-6.49871
0
LINE
8
BLACK
6
CONTINUOUS
10
3.52783
20
-6.45371
11
3.53158
21
-6.44996
0
LINE
8
BLACK
6
CONTINUOUS
10
3.53158
20
-6.44996
11
3.53908
21
-6.44621
0
LINE
8
BLACK
6
CONTINUOUS
10
3.53908
20
-6.44621
11
3.55033
21
-6.44621
0
LINE
8
BLACK
6
CONTINUOUS
10
3.55033
20
-6.44621
11
3.55782
21
-6.44996
0
LINE
8
BLACK
6
CONTINUOUS
10
3.55782
20
-6.44996
11
3.56157
21
-6.45746
0
LINE
8
BLACK
6
CONTINUOUS
10
3.56157
20
-6.45746
11
3.56157
21
-6.49871
0
LINE
8
BLACK
6
CONTINUOUS
10
3.61032
20
-6.49871
11
3.60282
21
-6.49496
0
LINE
8
BLACK
6
CONTINUOUS
10
3.60282
20
-6.49496
11
3.59907
21
-6.49121
0
LINE
8
BLACK
6
CONTINUOUS
10
3.59907
20
-6.49121
11
3.59532
21
-6.48371
0
LINE
8
BLACK
6
CONTINUOUS
10
3.59532
20
-6.48371
11
3.59532
21
-6.46121
0
LINE
8
BLACK
6
CONTINUOUS
10
3.59532
20
-6.46121
11
3.59907
21
-6.45371
0
LINE
8
BLACK
6
CONTINUOUS
10
3.59907
20
-6.45371
11
3.60282
21
-6.44996
0
LINE
8
BLACK
6
CONTINUOUS
10
3.60282
20
-6.44996
11
3.61032
21
-6.44621
0
LINE
8
BLACK
6
CONTINUOUS
10
3.61032
20
-6.44621
11
3.62157
21
-6.44621
0
LINE
8
BLACK
6
CONTINUOUS
10
3.62157
20
-6.44621
11
3.62907
21
-6.44996
0
LINE
8
BLACK
6
CONTINUOUS
10
3.62907
20
-6.44996
11
3.63282
21
-6.45371
0
LINE
8
BLACK
6
CONTINUOUS
10
3.63282
20
-6.45371
11
3.63656
21
-6.46121
0
LINE
8
BLACK
6
CONTINUOUS
10
3.63656
20
-6.46121
11
3.63656
21
-6.48371
0
LINE
8
BLACK
6
CONTINUOUS
10
3.63656
20
-6.48371
11
3.63282
21
-6.49121
0
LINE
8
BLACK
6
CONTINUOUS
10
3.63282
20
-6.49121
11
3.62907
21
-6.49496
0
LINE
8
BLACK
6
CONTINUOUS
10
3.62907
20
-6.49496
11
3.62157
21
-6.49871
0
LINE
8
BLACK
6
CONTINUOUS
10
3.62157
20
-6.49871
11
3.61032
21
-6.49871
0
LINE
8
BLACK
6
CONTINUOUS
10
3.65906
20
-6.44621
11
3.68906
21
-6.44621
0
LINE
8
BLACK
6
CONTINUOUS
10
3.67031
20
-6.41997
11
3.67031
21
-6.48746
0
LINE
8
BLACK
6
CONTINUOUS
10
3.67031
20
-6.48746
11
3.67406
21
-6.49496
0
LINE
8
BLACK
6
CONTINUOUS
10
3.67406
20
-6.49496
11
3.68156
21
-6.49871
0
LINE
8
BLACK
6
CONTINUOUS
10
3.68156
20
-6.49871
11
3.68906
21
-6.49871
0
LINE
8
BLACK
6
CONTINUOUS
10
3.7753
20
-6.44621
11
3.7753
21
-6.52495
0
LINE
8
BLACK
6
CONTINUOUS
10
3.7753
20
-6.44996
11
3.7828
21
-6.44621
0
LINE
8
BLACK
6
CONTINUOUS
10
3.7828
20
-6.44621
11
3.79779
21
-6.44621
0
LINE
8
BLACK
6
CONTINUOUS
10
3.79779
20
-6.44621
11
3.80529
21
-6.44996
0
LINE
8
BLACK
6
CONTINUOUS
10
3.80529
20
-6.44996
11
3.80904
21
-6.45371
0
LINE
8
BLACK
6
CONTINUOUS
10
3.80904
20
-6.45371
11
3.81279
21
-6.46121
0
LINE
8
BLACK
6
CONTINUOUS
10
3.81279
20
-6.46121
11
3.81279
21
-6.48371
0
LINE
8
BLACK
6
CONTINUOUS
10
3.81279
20
-6.48371
11
3.80904
21
-6.49121
0
LINE
8
BLACK
6
CONTINUOUS
10
3.80904
20
-6.49121
11
3.80529
21
-6.49496
0
LINE
8
BLACK
6
CONTINUOUS
10
3.80529
20
-6.49496
11
3.79779
21
-6.49871
0
LINE
8
BLACK
6
CONTINUOUS
10
3.79779
20
-6.49871
11
3.7828
21
-6.49871
0
LINE
8
BLACK
6
CONTINUOUS
10
3.7828
20
-6.49871
11
3.7753
21
-6.49496
0
LINE
8
BLACK
6
CONTINUOUS
10
3.85779
20
-6.49871
11
3.85029
21
-6.49496
0
LINE
8
BLACK
6
CONTINUOUS
10
3.85029
20
-6.49496
11
3.84654
21
-6.48746
0
LINE
8
BLACK
6
CONTINUOUS
10
3.84654
20
-6.48746
11
3.84654
21
-6.41997
0
LINE
8
BLACK
6
CONTINUOUS
10
3.92153
20
-6.49871
11
3.92153
21
-6.45746
0
LINE
8
BLACK
6
CONTINUOUS
10
3.92153
20
-6.45746
11
3.91778
21
-6.44996
0
LINE
8
BLACK
6
CONTINUOUS
10
3.91778
20
-6.44996
11
3.91028
21
-6.44621
0
LINE
8
BLACK
6
CONTINUOUS
10
3.91028
20
-6.44621
11
3.89528
21
-6.44621
0
LINE
8
BLACK
6
CONTINUOUS
10
3.89528
20
-6.44621
11
3.88778
21
-6.44996
0
LINE
8
BLACK
6
CONTINUOUS
10
3.92153
20
-6.49496
11
3.91403
21
-6.49871
0
LINE
8
BLACK
6
CONTINUOUS
10
3.91403
20
-6.49871
11
3.89528
21
-6.49871
0
LINE
8
BLACK
6
CONTINUOUS
10
3.89528
20
-6.49871
11
3.88778
21
-6.49496
0
LINE
8
BLACK
6
CONTINUOUS
10
3.88778
20
-6.49496
11
3.88403
21
-6.48746
0
LINE
8
BLACK
6
CONTINUOUS
10
3.88403
20
-6.48746
11
3.88403
21
-6.47996
0
LINE
8
BLACK
6
CONTINUOUS
10
3.88403
20
-6.47996
11
3.88778
21
-6.47246
0
LINE
8
BLACK
6
CONTINUOUS
10
3.88778
20
-6.47246
11
3.89528
21
-6.46871
0
LINE
8
BLACK
6
CONTINUOUS
10
3.89528
20
-6.46871
11
3.91403
21
-6.46871
0
LINE
8
BLACK
6
CONTINUOUS
10
3.91403
20
-6.46871
11
3.92153
21
-6.46496
0
LINE
8
BLACK
6
CONTINUOUS
10
3.94778
20
-6.44621
11
3.97777
21
-6.44621
0
LINE
8
BLACK
6
CONTINUOUS
10
3.95902
20
-6.41997
11
3.95902
21
-6.48746
0
LINE
8
BLACK
6
CONTINUOUS
10
3.95902
20
-6.48746
11
3.96277
21
-6.49496
0
LINE
8
BLACK
6
CONTINUOUS
10
3.96277
20
-6.49496
11
3.97027
21
-6.49871
0
LINE
8
BLACK
6
CONTINUOUS
10
3.97027
20
-6.49871
11
3.97777
21
-6.49871
0
LINE
8
BLACK
6
CONTINUOUS
10
4.03402
20
-6.49496
11
4.02652
21
-6.49871
0
LINE
8
BLACK
6
CONTINUOUS
10
4.02652
20
-6.49871
11
4.01152
21
-6.49871
0
LINE
8
BLACK
6
CONTINUOUS
10
4.01152
20
-6.49871
11
4.00402
21
-6.49496
0
LINE
8
BLACK
6
CONTINUOUS
10
4.00402
20
-6.49496
11
4.00027
21
-6.48746
0
LINE
8
BLACK
6
CONTINUOUS
10
4.00027
20
-6.48746
11
4.00027
21
-6.45746
0
LINE
8
BLACK
6
CONTINUOUS
10
4.00027
20
-6.45746
11
4.00402
21
-6.44996
0
LINE
8
BLACK
6
CONTINUOUS
10
4.00402
20
-6.44996
11
4.01152
21
-6.44621
0
LINE
8
BLACK
6
CONTINUOUS
10
4.01152
20
-6.44621
11
4.02652
21
-6.44621
0
LINE
8
BLACK
6
CONTINUOUS
10
4.02652
20
-6.44621
11
4.03402
21
-6.44996
0
LINE
8
BLACK
6
CONTINUOUS
10
4.03402
20
-6.44996
11
4.03776
21
-6.45746
0
LINE
8
BLACK
6
CONTINUOUS
10
4.03776
20
-6.45746
11
4.03776
21
-6.46496
0
LINE
8
BLACK
6
CONTINUOUS
10
4.03776
20
-6.46496
11
4.00027
21
-6.47246
0
LINE
8
BLACK
6
CONTINUOUS
10
4.10526
20
-6.49871
11
4.10526
21
-6.41997
0
LINE
8
BLACK
6
CONTINUOUS
10
4.10526
20
-6.49496
11
4.09776
21
-6.49871
0
LINE
8
BLACK
6
CONTINUOUS
10
4.09776
20
-6.49871
11
4.08276
21
-6.49871
0
LINE
8
BLACK
6
CONTINUOUS
10
4.08276
20
-6.49871
11
4.07526
21
-6.49496
0
LINE
8
BLACK
6
CONTINUOUS
10
4.07526
20
-6.49496
11
4.07151
21
-6.49121
0
LINE
8
BLACK
6
CONTINUOUS
10
4.07151
20
-6.49121
11
4.06776
21
-6.48371
0
LINE
8
BLACK
6
CONTINUOUS
10
4.06776
20
-6.48371
11
4.06776
21
-6.46121
0
LINE
8
BLACK
6
CONTINUOUS
10
4.06776
20
-6.46121
11
4.07151
21
-6.45371
0
LINE
8
BLACK
6
CONTINUOUS
10
4.07151
20
-6.45371
11
4.07526
21
-6.44996
0
LINE
8
BLACK
6
CONTINUOUS
10
4.07526
20
-6.44996
11
4.08276
21
-6.44621
0
LINE
8
BLACK
6
CONTINUOUS
10
4.08276
20
-6.44621
11
4.09776
21
-6.44621
0
LINE
8
BLACK
6
CONTINUOUS
10
4.09776
20
-6.44621
11
4.10526
21
-6.44996
0
LINE
8
BLACK
6
CONTINUOUS
10
4.13525
20
-6.5287
11
4.139
21
-6.52495
0
LINE
8
BLACK
6
CONTINUOUS
10
4.139
20
-6.52495
11
4.1465
21
-6.5137
0
LINE
8
BLACK
6
CONTINUOUS
10
4.1465
20
-6.5137
11
4.15025
21
-6.50621
0
LINE
8
BLACK
6
CONTINUOUS
10
4.15025
20
-6.50621
11
4.154
21
-6.49496
0
LINE
8
BLACK
6
CONTINUOUS
10
4.154
20
-6.49496
11
4.15775
21
-6.47621
0
LINE
8
BLACK
6
CONTINUOUS
10
4.15775
20
-6.47621
11
4.15775
21
-6.46121
0
LINE
8
BLACK
6
CONTINUOUS
10
4.15775
20
-6.46121
11
4.154
21
-6.44246
0
LINE
8
BLACK
6
CONTINUOUS
10
4.154
20
-6.44246
11
4.15025
21
-6.43121
0
LINE
8
BLACK
6
CONTINUOUS
10
4.15025
20
-6.43121
11
4.1465
21
-6.42372
0
LINE
8
BLACK
6
CONTINUOUS
10
4.1465
20
-6.42372
11
4.139
21
-6.41247
0
LINE
8
BLACK
6
CONTINUOUS
10
4.139
20
-6.41247
11
4.13525
21
-6.40872
0
CIRCLE
8
BLACK
10
1.37679
20
-6.56663
40
0.023622
0
LINE
8
BLACK
6
CONTINUOUS
10
1.54433
20
-6.60264
11
1.49933
21
-6.60264
0
LINE
8
BLACK
6
CONTINUOUS
10
1.52183
20
-6.60264
11
1.52183
21
-6.5239
0
LINE
8
BLACK
6
CONTINUOUS
10
1.52183
20
-6.5239
11
1.51433
21
-6.53515
0
LINE
8
BLACK
6
CONTINUOUS
10
1.51433
20
-6.53515
11
1.50683
21
-6.54265
0
LINE
8
BLACK
6
CONTINUOUS
10
1.50683
20
-6.54265
11
1.49933
21
-6.5464
0
LINE
8
BLACK
6
CONTINUOUS
10
1.57807
20
-6.59514
11
1.58182
21
-6.59889
0
LINE
8
BLACK
6
CONTINUOUS
10
1.58182
20
-6.59889
11
1.57807
21
-6.60264
0
LINE
8
BLACK
6
CONTINUOUS
10
1.57807
20
-6.60264
11
1.57432
21
-6.59889
0
LINE
8
BLACK
6
CONTINUOUS
10
1.57432
20
-6.59889
11
1.57807
21
-6.59514
0
LINE
8
BLACK
6
CONTINUOUS
10
1.57807
20
-6.59514
11
1.57807
21
-6.60264
0
LINE
8
BLACK
6
CONTINUOUS
10
1.61182
20
-6.5314
11
1.61557
21
-6.52765
0
LINE
8
BLACK
6
CONTINUOUS
10
1.61557
20
-6.52765
11
1.62307
21
-6.5239
0
LINE
8
BLACK
6
CONTINUOUS
10
1.62307
20
-6.5239
11
1.64181
21
-6.5239
0
LINE
8
BLACK
6
CONTINUOUS
10
1.64181
20
-6.5239
11
1.64931
21
-6.52765
0
LINE
8
BLACK
6
CONTINUOUS
10
1.64931
20
-6.52765
11
1.65306
21
-6.5314
0
LINE
8
BLACK
6
CONTINUOUS
10
1.65306
20
-6.5314
11
1.65681
21
-6.5389
0
LINE
8
BLACK
6
CONTINUOUS
10
1.65681
20
-6.5389
11
1.65681
21
-6.5464
0
LINE
8
BLACK
6
CONTINUOUS
10
1.65681
20
-6.5464
11
1.65306
21
-6.55765
0
LINE
8
BLACK
6
CONTINUOUS
10
1.65306
20
-6.55765
11
1.60807
21
-6.60264
0
LINE
8
BLACK
6
CONTINUOUS
10
1.60807
20
-6.60264
11
1.65681
21
-6.60264
0
LINE
8
BLACK
6
CONTINUOUS
10
1.70556
20
-6.5239
11
1.71306
21
-6.5239
0
LINE
8
BLACK
6
CONTINUOUS
10
1.71306
20
-6.5239
11
1.72055
21
-6.52765
0
LINE
8
BLACK
6
CONTINUOUS
10
1.72055
20
-6.52765
11
1.7243
21
-6.5314
0
LINE
8
BLACK
6
CONTINUOUS
10
1.7243
20
-6.5314
11
1.72805
21
-6.5389
0
LINE
8
BLACK
6
CONTINUOUS
10
1.72805
20
-6.5389
11
1.7318
21
-6.5539
0
LINE
8
BLACK
6
CONTINUOUS
10
1.7318
20
-6.5539
11
1.7318
21
-6.57265
0
LINE
8
BLACK
6
CONTINUOUS
10
1.7318
20
-6.57265
11
1.72805
21
-6.58765
0
LINE
8
BLACK
6
CONTINUOUS
10
1.72805
20
-6.58765
11
1.7243
21
-6.59514
0
LINE
8
BLACK
6
CONTINUOUS
10
1.7243
20
-6.59514
11
1.72055
21
-6.59889
0
LINE
8
BLACK
6
CONTINUOUS
10
1.72055
20
-6.59889
11
1.71306
21
-6.60264
0
LINE
8
BLACK
6
CONTINUOUS
10
1.71306
20
-6.60264
11
1.70556
21
-6.60264
0
LINE
8
BLACK
6
CONTINUOUS
10
1.70556
20
-6.60264
11
1.69806
21
-6.59889
0
LINE
8
BLACK
6
CONTINUOUS
10
1.69806
20
-6.59889
11
1.69431
21
-6.59514
0
LINE
8
BLACK
6
CONTINUOUS
10
1.69431
20
-6.59514
11
1.69056
21
-6.58765
0
LINE
8
BLACK
6
CONTINUOUS
10
1.69056
20
-6.58765
11
1.68681
21
-6.57265
0
LINE
8
BLACK
6
CONTINUOUS
10
1.68681
20
-6.57265
11
1.68681
21
-6.5539
0
LINE
8
BLACK
6
CONTINUOUS
10
1.68681
20
-6.5539
11
1.69056
21
-6.5389
0
LINE
8
BLACK
6
CONTINUOUS
10
1.69056
20
-6.5389
11
1.69431
21
-6.5314
0
LINE
8
BLACK
6
CONTINUOUS
10
1.69431
20
-6.5314
11
1.69806
21
-6.52765
0
LINE
8
BLACK
6
CONTINUOUS
10
1.69806
20
-6.52765
11
1.70556
21
-6.5239
0
LINE
8
BLACK
6
CONTINUOUS
10
1.78055
20
-6.5239
11
1.78805
21
-6.5239
0
LINE
8
BLACK
6
CONTINUOUS
10
1.78805
20
-6.5239
11
1.79554
21
-6.52765
0
LINE
8
BLACK
6
CONTINUOUS
10
1.79554
20
-6.52765
11
1.79929
21
-6.5314
0
LINE
8
BLACK
6
CONTINUOUS
10
1.79929
20
-6.5314
11
1.80304
21
-6.5389
0
LINE
8
BLACK
6
CONTINUOUS
10
1.80304
20
-6.5389
11
1.80679
21
-6.5539
0
LINE
8
BLACK
6
CONTINUOUS
10
1.80679
20
-6.5539
11
1.80679
21
-6.57265
0
LINE
8
BLACK
6
CONTINUOUS
10
1.80679
20
-6.57265
11
1.80304
21
-6.58765
0
LINE
8
BLACK
6
CONTINUOUS
10
1.80304
20
-6.58765
11
1.79929
21
-6.59514
0
LINE
8
BLACK
6
CONTINUOUS
10
1.79929
20
-6.59514
11
1.79554
21
-6.59889
0
LINE
8
BLACK
6
CONTINUOUS
10
1.79554
20
-6.59889
11
1.78805
21
-6.60264
0
LINE
8
BLACK
6
CONTINUOUS
10
1.78805
20
-6.60264
11
1.78055
21
-6.60264
0
LINE
8
BLACK
6
CONTINUOUS
10
1.78055
20
-6.60264
11
1.77305
21
-6.59889
0
LINE
8
BLACK
6
CONTINUOUS
10
1.77305
20
-6.59889
11
1.7693
21
-6.59514
0
LINE
8
BLACK
6
CONTINUOUS
10
1.7693
20
-6.59514
11
1.76555
21
-6.58765
0
LINE
8
BLACK
6
CONTINUOUS
10
1.76555
20
-6.58765
11
1.7618
21
-6.57265
0
LINE
8
BLACK
6
CONTINUOUS
10
1.7618
20
-6.57265
11
1.7618
21
-6.5539
0
LINE
8
BLACK
6
CONTINUOUS
10
1.7618
20
-6.5539
11
1.76555
21
-6.5389
0
LINE
8
BLACK
6
CONTINUOUS
10
1.76555
20
-6.5389
11
1.7693
21
-6.5314
0
LINE
8
BLACK
6
CONTINUOUS
10
1.7693
20
-6.5314
11
1.77305
21
-6.52765
0
LINE
8
BLACK
6
CONTINUOUS
10
1.77305
20
-6.52765
11
1.78055
21
-6.5239
0
LINE
8
BLACK
6
CONTINUOUS
10
1.84054
20
-6.60264
11
1.84054
21
-6.55015
0
LINE
8
BLACK
6
CONTINUOUS
10
1.84054
20
-6.55765
11
1.84429
21
-6.5539
0
LINE
8
BLACK
6
CONTINUOUS
10
1.84429
20
-6.5539
11
1.85179
21
-6.55015
0
LINE
8
BLACK
6
CONTINUOUS
10
1.85179
20
-6.55015
11
1.86304
21
-6.55015
0
LINE
8
BLACK
6
CONTINUOUS
10
1.86304
20
-6.55015
11
1.87054
21
-6.5539
0
LINE
8
BLACK
6
CONTINUOUS
10
1.87054
20
-6.5539
11
1.87429
21
-6.5614
0
LINE
8
BLACK
6
CONTINUOUS
10
1.87429
20
-6.5614
11
1.87429
21
-6.60264
0
LINE
8
BLACK
6
CONTINUOUS
10
1.87429
20
-6.5614
11
1.87803
21
-6.5539
0
LINE
8
BLACK
6
CONTINUOUS
10
1.87803
20
-6.5539
11
1.88553
21
-6.55015
0
LINE
8
BLACK
6
CONTINUOUS
10
1.88553
20
-6.55015
11
1.89678
21
-6.55015
0
LINE
8
BLACK
6
CONTINUOUS
10
1.89678
20
-6.55015
11
1.90428
21
-6.5539
0
LINE
8
BLACK
6
CONTINUOUS
10
1.90428
20
-6.5539
11
1.90803
21
-6.5614
0
LINE
8
BLACK
6
CONTINUOUS
10
1.90803
20
-6.5614
11
1.90803
21
-6.60264
0
LINE
8
BLACK
6
CONTINUOUS
10
1.94553
20
-6.60264
11
1.94553
21
-6.55015
0
LINE
8
BLACK
6
CONTINUOUS
10
1.94553
20
-6.55765
11
1.94928
21
-6.5539
0
LINE
8
BLACK
6
CONTINUOUS
10
1.94928
20
-6.5539
11
1.95677
21
-6.55015
0
LINE
8
BLACK
6
CONTINUOUS
10
1.95677
20
-6.55015
11
1.96802
21
-6.55015
0
LINE
8
BLACK
6
CONTINUOUS
10
1.96802
20
-6.55015
11
1.97552
21
-6.5539
0
LINE
8
BLACK
6
CONTINUOUS
10
1.97552
20
-6.5539
11
1.97927
21
-6.5614
0
LINE
8
BLACK
6
CONTINUOUS
10
1.97927
20
-6.5614
11
1.97927
21
-6.60264
0
LINE
8
BLACK
6
CONTINUOUS
10
1.97927
20
-6.5614
11
1.98302
21
-6.5539
0
LINE
8
BLACK
6
CONTINUOUS
10
1.98302
20
-6.5539
11
1.99052
21
-6.55015
0
LINE
8
BLACK
6
CONTINUOUS
10
1.99052
20
-6.55015
11
2.00177
21
-6.55015
0
LINE
8
BLACK
6
CONTINUOUS
10
2.00177
20
-6.55015
11
2.00927
21
-6.5539
0
LINE
8
BLACK
6
CONTINUOUS
10
2.00927
20
-6.5539
11
2.01302
21
-6.5614
0
LINE
8
BLACK
6
CONTINUOUS
10
2.01302
20
-6.5614
11
2.01302
21
-6.60264
0
LINE
8
BLACK
6
CONTINUOUS
10
2.16675
20
-6.52015
11
2.09926
21
-6.62139
0
LINE
8
BLACK
6
CONTINUOUS
10
2.26799
20
-6.5239
11
2.27548
21
-6.5239
0
LINE
8
BLACK
6
CONTINUOUS
10
2.27548
20
-6.5239
11
2.28298
21
-6.52765
0
LINE
8
BLACK
6
CONTINUOUS
10
2.28298
20
-6.52765
11
2.28673
21
-6.5314
0
LINE
8
BLACK
6
CONTINUOUS
10
2.28673
20
-6.5314
11
2.29048
21
-6.5389
0
LINE
8
BLACK
6
CONTINUOUS
10
2.29048
20
-6.5389
11
2.29423
21
-6.5539
0
LINE
8
BLACK
6
CONTINUOUS
10
2.29423
20
-6.5539
11
2.29423
21
-6.57265
0
LINE
8
BLACK
6
CONTINUOUS
10
2.29423
20
-6.57265
11
2.29048
21
-6.58765
0
LINE
8
BLACK
6
CONTINUOUS
10
2.29048
20
-6.58765
11
2.28673
21
-6.59514
0
LINE
8
BLACK
6
CONTINUOUS
10
2.28673
20
-6.59514
11
2.28298
21
-6.59889
0
LINE
8
BLACK
6
CONTINUOUS
10
2.28298
20
-6.59889
11
2.27548
21
-6.60264
0
LINE
8
BLACK
6
CONTINUOUS
10
2.27548
20
-6.60264
11
2.26799
21
-6.60264
0
LINE
8
BLACK
6
CONTINUOUS
10
2.26799
20
-6.60264
11
2.26049
21
-6.59889
0
LINE
8
BLACK
6
CONTINUOUS
10
2.26049
20
-6.59889
11
2.25674
21
-6.59514
0
LINE
8
BLACK
6
CONTINUOUS
10
2.25674
20
-6.59514
11
2.25299
21
-6.58765
0
LINE
8
BLACK
6
CONTINUOUS
10
2.25299
20
-6.58765
11
2.24924
21
-6.57265
0
LINE
8
BLACK
6
CONTINUOUS
10
2.24924
20
-6.57265
11
2.24924
21
-6.5539
0
LINE
8
BLACK
6
CONTINUOUS
10
2.24924
20
-6.5539
11
2.25299
21
-6.5389
0
LINE
8
BLACK
6
CONTINUOUS
10
2.25299
20
-6.5389
11
2.25674
21
-6.5314
0
LINE
8
BLACK
6
CONTINUOUS
10
2.25674
20
-6.5314
11
2.26049
21
-6.52765
0
LINE
8
BLACK
6
CONTINUOUS
10
2.26049
20
-6.52765
11
2.26799
21
-6.5239
0
LINE
8
BLACK
6
CONTINUOUS
10
2.32798
20
-6.59514
11
2.33173
21
-6.59889
0
LINE
8
BLACK
6
CONTINUOUS
10
2.33173
20
-6.59889
11
2.32798
21
-6.60264
0
LINE
8
BLACK
6
CONTINUOUS
10
2.32798
20
-6.60264
11
2.32423
21
-6.59889
0
LINE
8
BLACK
6
CONTINUOUS
10
2.32423
20
-6.59889
11
2.32798
21
-6.59514
0
LINE
8
BLACK
6
CONTINUOUS
10
2.32798
20
-6.59514
11
2.32798
21
-6.60264
0
LINE
8
BLACK
6
CONTINUOUS
10
2.38047
20
-6.5239
11
2.38797
21
-6.5239
0
LINE
8
BLACK
6
CONTINUOUS
10
2.38797
20
-6.5239
11
2.39547
21
-6.52765
0
LINE
8
BLACK
6
CONTINUOUS
10
2.39547
20
-6.52765
11
2.39922
21
-6.5314
0
LINE
8
BLACK
6
CONTINUOUS
10
2.39922
20
-6.5314
11
2.40297
21
-6.5389
0
LINE
8
BLACK
6
CONTINUOUS
10
2.40297
20
-6.5389
11
2.40672
21
-6.5539
0
LINE
8
BLACK
6
CONTINUOUS
10
2.40672
20
-6.5539
11
2.40672
21
-6.57265
0
LINE
8
BLACK
6
CONTINUOUS
10
2.40672
20
-6.57265
11
2.40297
21
-6.58765
0
LINE
8
BLACK
6
CONTINUOUS
10
2.40297
20
-6.58765
11
2.39922
21
-6.59514
0
LINE
8
BLACK
6
CONTINUOUS
10
2.39922
20
-6.59514
11
2.39547
21
-6.59889
0
LINE
8
BLACK
6
CONTINUOUS
10
2.39547
20
-6.59889
11
2.38797
21
-6.60264
0
LINE
8
BLACK
6
CONTINUOUS
10
2.38797
20
-6.60264
11
2.38047
21
-6.60264
0
LINE
8
BLACK
6
CONTINUOUS
10
2.38047
20
-6.60264
11
2.37297
21
-6.59889
0
LINE
8
BLACK
6
CONTINUOUS
10
2.37297
20
-6.59889
11
2.36922
21
-6.59514
0
LINE
8
BLACK
6
CONTINUOUS
10
2.36922
20
-6.59514
11
2.36547
21
-6.58765
0
LINE
8
BLACK
6
CONTINUOUS
10
2.36547
20
-6.58765
11
2.36172
21
-6.57265
0
LINE
8
BLACK
6
CONTINUOUS
10
2.36172
20
-6.57265
11
2.36172
21
-6.5539
0
LINE
8
BLACK
6
CONTINUOUS
10
2.36172
20
-6.5539
11
2.36547
21
-6.5389
0
LINE
8
BLACK
6
CONTINUOUS
10
2.36547
20
-6.5389
11
2.36922
21
-6.5314
0
LINE
8
BLACK
6
CONTINUOUS
10
2.36922
20
-6.5314
11
2.37297
21
-6.52765
0
LINE
8
BLACK
6
CONTINUOUS
10
2.37297
20
-6.52765
11
2.38047
21
-6.5239
0
LINE
8
BLACK
6
CONTINUOUS
10
2.47421
20
-6.55015
11
2.47421
21
-6.60264
0
LINE
8
BLACK
6
CONTINUOUS
10
2.45546
20
-6.52015
11
2.43671
21
-6.5764
0
LINE
8
BLACK
6
CONTINUOUS
10
2.43671
20
-6.5764
11
2.48546
21
-6.5764
0
LINE
8
BLACK
6
CONTINUOUS
10
2.50796
20
-6.5239
11
2.56045
21
-6.5239
0
LINE
8
BLACK
6
CONTINUOUS
10
2.56045
20
-6.5239
11
2.5267
21
-6.60264
0
LINE
8
BLACK
6
CONTINUOUS
10
2.5867
20
-6.5314
11
2.59045
21
-6.52765
0
LINE
8
BLACK
6
CONTINUOUS
10
2.59045
20
-6.52765
11
2.59794
21
-6.5239
0
LINE
8
BLACK
6
CONTINUOUS
10
2.59794
20
-6.5239
11
2.61669
21
-6.5239
0
LINE
8
BLACK
6
CONTINUOUS
10
2.61669
20
-6.5239
11
2.62419
21
-6.52765
0
LINE
8
BLACK
6
CONTINUOUS
10
2.62419
20
-6.52765
11
2.62794
21
-6.5314
0
LINE
8
BLACK
6
CONTINUOUS
10
2.62794
20
-6.5314
11
2.63169
21
-6.5389
0
LINE
8
BLACK
6
CONTINUOUS
10
2.63169
20
-6.5389
11
2.63169
21
-6.5464
0
LINE
8
BLACK
6
CONTINUOUS
10
2.63169
20
-6.5464
11
2.62794
21
-6.55765
0
LINE
8
BLACK
6
CONTINUOUS
10
2.62794
20
-6.55765
11
2.58295
21
-6.60264
0
LINE
8
BLACK
6
CONTINUOUS
10
2.58295
20
-6.60264
11
2.63169
21
-6.60264
0
LINE
8
BLACK
6
CONTINUOUS
10
2.66169
20
-6.5239
11
2.66169
21
-6.5389
0
LINE
8
BLACK
6
CONTINUOUS
10
2.69168
20
-6.5239
11
2.69168
21
-6.5389
0
LINE
8
BLACK
6
CONTINUOUS
10
2.80792
20
-6.63264
11
2.80417
21
-6.62889
0
LINE
8
BLACK
6
CONTINUOUS
10
2.80417
20
-6.62889
11
2.79667
21
-6.61764
0
LINE
8
BLACK
6
CONTINUOUS
10
2.79667
20
-6.61764
11
2.79292
21
-6.61014
0
LINE
8
BLACK
6
CONTINUOUS
10
2.79292
20
-6.61014
11
2.78917
21
-6.59889
0
LINE
8
BLACK
6
CONTINUOUS
10
2.78917
20
-6.59889
11
2.78542
21
-6.58015
0
LINE
8
BLACK
6
CONTINUOUS
10
2.78542
20
-6.58015
11
2.78542
21
-6.56515
0
LINE
8
BLACK
6
CONTINUOUS
10
2.78542
20
-6.56515
11
2.78917
21
-6.5464
0
LINE
8
BLACK
6
CONTINUOUS
10
2.78917
20
-6.5464
11
2.79292
21
-6.53515
0
LINE
8
BLACK
6
CONTINUOUS
10
2.79292
20
-6.53515
11
2.79667
21
-6.52765
0
LINE
8
BLACK
6
CONTINUOUS
10
2.79667
20
-6.52765
11
2.80417
21
-6.5164
0
LINE
8
BLACK
6
CONTINUOUS
10
2.80417
20
-6.5164
11
2.80792
21
-6.51265
0
LINE
8
BLACK
6
CONTINUOUS
10
2.87166
20
-6.55015
11
2.87166
21
-6.60264
0
LINE
8
BLACK
6
CONTINUOUS
10
2.85291
20
-6.52015
11
2.83417
21
-6.5764
0
LINE
8
BLACK
6
CONTINUOUS
10
2.83417
20
-6.5764
11
2.88291
21
-6.5764
0
LINE
8
BLACK
6
CONTINUOUS
10
2.9729
20
-6.60264
11
2.9729
21
-6.5239
0
LINE
8
BLACK
6
CONTINUOUS
10
3.00664
20
-6.60264
11
3.00664
21
-6.5614
0
LINE
8
BLACK
6
CONTINUOUS
10
3.00664
20
-6.5614
11
3.00289
21
-6.5539
0
LINE
8
BLACK
6
CONTINUOUS
10
3.00289
20
-6.5539
11
2.9954
21
-6.55015
0
LINE
8
BLACK
6
CONTINUOUS
10
2.9954
20
-6.55015
11
2.98415
21
-6.55015
0
LINE
8
BLACK
6
CONTINUOUS
10
2.98415
20
-6.55015
11
2.97665
21
-6.5539
0
LINE
8
BLACK
6
CONTINUOUS
10
2.97665
20
-6.5539
11
2.9729
21
-6.55765
0
LINE
8
BLACK
6
CONTINUOUS
10
3.05539
20
-6.60264
11
3.04789
21
-6.59889
0
LINE
8
BLACK
6
CONTINUOUS
10
3.04789
20
-6.59889
11
3.04414
21
-6.59514
0
LINE
8
BLACK
6
CONTINUOUS
10
3.04414
20
-6.59514
11
3.04039
21
-6.58765
0
LINE
8
BLACK
6
CONTINUOUS
10
3.04039
20
-6.58765
11
3.04039
21
-6.56515
0
LINE
8
BLACK
6
CONTINUOUS
10
3.04039
20
-6.56515
11
3.04414
21
-6.55765
0
LINE
8
BLACK
6
CONTINUOUS
10
3.04414
20
-6.55765
11
3.04789
21
-6.5539
0
LINE
8
BLACK
6
CONTINUOUS
10
3.04789
20
-6.5539
11
3.05539
21
-6.55015
0
LINE
8
BLACK
6
CONTINUOUS
10
3.05539
20
-6.55015
11
3.06664
21
-6.55015
0
LINE
8
BLACK
6
CONTINUOUS
10
3.06664
20
-6.55015
11
3.07414
21
-6.5539
0
LINE
8
BLACK
6
CONTINUOUS
10
3.07414
20
-6.5539
11
3.07788
21
-6.55765
0
LINE
8
BLACK
6
CONTINUOUS
10
3.07788
20
-6.55765
11
3.08163
21
-6.56515
0
LINE
8
BLACK
6
CONTINUOUS
10
3.08163
20
-6.56515
11
3.08163
21
-6.58765
0
LINE
8
BLACK
6
CONTINUOUS
10
3.08163
20
-6.58765
11
3.07788
21
-6.59514
0
LINE
8
BLACK
6
CONTINUOUS
10
3.07788
20
-6.59514
11
3.07414
21
-6.59889
0
LINE
8
BLACK
6
CONTINUOUS
10
3.07414
20
-6.59889
11
3.06664
21
-6.60264
0
LINE
8
BLACK
6
CONTINUOUS
10
3.06664
20
-6.60264
11
3.05539
21
-6.60264
0
LINE
8
BLACK
6
CONTINUOUS
10
3.12663
20
-6.60264
11
3.11913
21
-6.59889
0
LINE
8
BLACK
6
CONTINUOUS
10
3.11913
20
-6.59889
11
3.11538
21
-6.59139
0
LINE
8
BLACK
6
CONTINUOUS
10
3.11538
20
-6.59139
11
3.11538
21
-6.5239
0
LINE
8
BLACK
6
CONTINUOUS
10
3.18662
20
-6.59889
11
3.17912
21
-6.60264
0
LINE
8
BLACK
6
CONTINUOUS
10
3.17912
20
-6.60264
11
3.16412
21
-6.60264
0
LINE
8
BLACK
6
CONTINUOUS
10
3.16412
20
-6.60264
11
3.15662
21
-6.59889
0
LINE
8
BLACK
6
CONTINUOUS
10
3.15662
20
-6.59889
11
3.15288
21
-6.59139
0
LINE
8
BLACK
6
CONTINUOUS
10
3.15288
20
-6.59139
11
3.15288
21
-6.5614
0
LINE
8
BLACK
6
CONTINUOUS
10
3.15288
20
-6.5614
11
3.15662
21
-6.5539
0
LINE
8
BLACK
6
CONTINUOUS
10
3.15662
20
-6.5539
11
3.16412
21
-6.55015
0
LINE
8
BLACK
6
CONTINUOUS
10
3.16412
20
-6.55015
11
3.17912
21
-6.55015
0
LINE
8
BLACK
6
CONTINUOUS
10
3.17912
20
-6.55015
11
3.18662
21
-6.5539
0
LINE
8
BLACK
6
CONTINUOUS
10
3.18662
20
-6.5539
11
3.19037
21
-6.5614
0
LINE
8
BLACK
6
CONTINUOUS
10
3.19037
20
-6.5614
11
3.19037
21
-6.5689
0
LINE
8
BLACK
6
CONTINUOUS
10
3.19037
20
-6.5689
11
3.15288
21
-6.5764
0
LINE
8
BLACK
6
CONTINUOUS
10
3.22037
20
-6.59889
11
3.22787
21
-6.60264
0
LINE
8
BLACK
6
CONTINUOUS
10
3.22787
20
-6.60264
11
3.24286
21
-6.60264
0
LINE
8
BLACK
6
CONTINUOUS
10
3.24286
20
-6.60264
11
3.25036
21
-6.59889
0
LINE
8
BLACK
6
CONTINUOUS
10
3.25036
20
-6.59889
11
3.25411
21
-6.59139
0
LINE
8
BLACK
6
CONTINUOUS
10
3.25411
20
-6.59139
11
3.25411
21
-6.58765
0
LINE
8
BLACK
6
CONTINUOUS
10
3.25411
20
-6.58765
11
3.25036
21
-6.58015
0
LINE
8
BLACK
6
CONTINUOUS
10
3.25036
20
-6.58015
11
3.24286
21
-6.5764
0
LINE
8
BLACK
6
CONTINUOUS
10
3.24286
20
-6.5764
11
3.23162
21
-6.5764
0
LINE
8
BLACK
6
CONTINUOUS
10
3.23162
20
-6.5764
11
3.22412
21
-6.57265
0
LINE
8
BLACK
6
CONTINUOUS
10
3.22412
20
-6.57265
11
3.22037
21
-6.56515
0
LINE
8
BLACK
6
CONTINUOUS
10
3.22037
20
-6.56515
11
3.22037
21
-6.5614
0
LINE
8
BLACK
6
CONTINUOUS
10
3.22037
20
-6.5614
11
3.22412
21
-6.5539
0
LINE
8
BLACK
6
CONTINUOUS
10
3.22412
20
-6.5539
11
3.23162
21
-6.55015
0
LINE
8
BLACK
6
CONTINUOUS
10
3.23162
20
-6.55015
11
3.24286
21
-6.55015
0
LINE
8
BLACK
6
CONTINUOUS
10
3.24286
20
-6.55015
11
3.25036
21
-6.5539
0
LINE
8
BLACK
6
CONTINUOUS
10
3.28036
20
-6.63264
11
3.28411
21
-6.62889
0
LINE
8
BLACK
6
CONTINUOUS
10
3.28411
20
-6.62889
11
3.29161
21
-6.61764
0
LINE
8
BLACK
6
CONTINUOUS
10
3.29161
20
-6.61764
11
3.29536
21
-6.61014
0
LINE
8
BLACK
6
CONTINUOUS
10
3.29536
20
-6.61014
11
3.29911
21
-6.59889
0
LINE
8
BLACK
6
CONTINUOUS
10
3.29911
20
-6.59889
11
3.30286
21
-6.58015
0
LINE
8
BLACK
6
CONTINUOUS
10
3.30286
20
-6.58015
11
3.30286
21
-6.56515
0
LINE
8
BLACK
6
CONTINUOUS
10
3.30286
20
-6.56515
11
3.29911
21
-6.5464
0
LINE
8
BLACK
6
CONTINUOUS
10
3.29911
20
-6.5464
11
3.29536
21
-6.53515
0
LINE
8
BLACK
6
CONTINUOUS
10
3.29536
20
-6.53515
11
3.29161
21
-6.52765
0
LINE
8
BLACK
6
CONTINUOUS
10
3.29161
20
-6.52765
11
3.28411
21
-6.5164
0
LINE
8
BLACK
6
CONTINUOUS
10
3.28411
20
-6.5164
11
3.28036
21
-6.51265
0
LINE
8
BLACK
6
CONTINUOUS
10
3.42284
20
-6.63264
11
3.41909
21
-6.62889
0
LINE
8
BLACK
6
CONTINUOUS
10
3.41909
20
-6.62889
11
3.41159
21
-6.61764
0
LINE
8
BLACK
6
CONTINUOUS
10
3.41159
20
-6.61764
11
3.40784
21
-6.61014
0
LINE
8
BLACK
6
CONTINUOUS
10
3.40784
20
-6.61014
11
3.40409
21
-6.59889
0
LINE
8
BLACK
6
CONTINUOUS
10
3.40409
20
-6.59889
11
3.40034
21
-6.58015
0
LINE
8
BLACK
6
CONTINUOUS
10
3.40034
20
-6.58015
11
3.40034
21
-6.56515
0
LINE
8
BLACK
6
CONTINUOUS
10
3.40034
20
-6.56515
11
3.40409
21
-6.5464
0
LINE
8
BLACK
6
CONTINUOUS
10
3.40409
20
-6.5464
11
3.40784
21
-6.53515
0
LINE
8
BLACK
6
CONTINUOUS
10
3.40784
20
-6.53515
11
3.41159
21
-6.52765
0
LINE
8
BLACK
6
CONTINUOUS
10
3.41159
20
-6.52765
11
3.41909
21
-6.5164
0
LINE
8
BLACK
6
CONTINUOUS
10
3.41909
20
-6.5164
11
3.42284
21
-6.51265
0
LINE
8
BLACK
6
CONTINUOUS
10
3.45284
20
-6.55015
11
3.45284
21
-6.60264
0
LINE
8
BLACK
6
CONTINUOUS
10
3.45284
20
-6.55765
11
3.45659
21
-6.5539
0
LINE
8
BLACK
6
CONTINUOUS
10
3.45659
20
-6.5539
11
3.46409
21
-6.55015
0
LINE
8
BLACK
6
CONTINUOUS
10
3.46409
20
-6.55015
11
3.47534
21
-6.55015
0
LINE
8
BLACK
6
CONTINUOUS
10
3.47534
20
-6.55015
11
3.48283
21
-6.5539
0
LINE
8
BLACK
6
CONTINUOUS
10
3.48283
20
-6.5539
11
3.48658
21
-6.5614
0
LINE
8
BLACK
6
CONTINUOUS
10
3.48658
20
-6.5614
11
3.48658
21
-6.60264
0
LINE
8
BLACK
6
CONTINUOUS
10
3.53533
20
-6.60264
11
3.52783
21
-6.59889
0
LINE
8
BLACK
6
CONTINUOUS
10
3.52783
20
-6.59889
11
3.52408
21
-6.59514
0
LINE
8
BLACK
6
CONTINUOUS
10
3.52408
20
-6.59514
11
3.52033
21
-6.58765
0
LINE
8
BLACK
6
CONTINUOUS
10
3.52033
20
-6.58765
11
3.52033
21
-6.56515
0
LINE
8
BLACK
6
CONTINUOUS
10
3.52033
20
-6.56515
11
3.52408
21
-6.55765
0
LINE
8
BLACK
6
CONTINUOUS
10
3.52408
20
-6.55765
11
3.52783
21
-6.5539
0
LINE
8
BLACK
6
CONTINUOUS
10
3.52783
20
-6.5539
11
3.53533
21
-6.55015
0
LINE
8
BLACK
6
CONTINUOUS
10
3.53533
20
-6.55015
11
3.54658
21
-6.55015
0
LINE
8
BLACK
6
CONTINUOUS
10
3.54658
20
-6.55015
11
3.55408
21
-6.5539
0
LINE
8
BLACK
6
CONTINUOUS
10
3.55408
20
-6.5539
11
3.55782
21
-6.55765
0
LINE
8
BLACK
6
CONTINUOUS
10
3.55782
20
-6.55765
11
3.56157
21
-6.56515
0
LINE
8
BLACK
6
CONTINUOUS
10
3.56157
20
-6.56515
11
3.56157
21
-6.58765
0
LINE
8
BLACK
6
CONTINUOUS
10
3.56157
20
-6.58765
11
3.55782
21
-6.59514
0
LINE
8
BLACK
6
CONTINUOUS
10
3.55782
20
-6.59514
11
3.55408
21
-6.59889
0
LINE
8
BLACK
6
CONTINUOUS
10
3.55408
20
-6.59889
11
3.54658
21
-6.60264
0
LINE
8
BLACK
6
CONTINUOUS
10
3.54658
20
-6.60264
11
3.53533
21
-6.60264
0
LINE
8
BLACK
6
CONTINUOUS
10
3.58407
20
-6.55015
11
3.61407
21
-6.55015
0
LINE
8
BLACK
6
CONTINUOUS
10
3.59532
20
-6.5239
11
3.59532
21
-6.59139
0
LINE
8
BLACK
6
CONTINUOUS
10
3.59532
20
-6.59139
11
3.59907
21
-6.59889
0
LINE
8
BLACK
6
CONTINUOUS
10
3.59907
20
-6.59889
11
3.60657
21
-6.60264
0
LINE
8
BLACK
6
CONTINUOUS
10
3.60657
20
-6.60264
11
3.61407
21
-6.60264
0
LINE
8
BLACK
6
CONTINUOUS
10
3.70031
20
-6.55015
11
3.70031
21
-6.62889
0
LINE
8
BLACK
6
CONTINUOUS
10
3.70031
20
-6.5539
11
3.70781
21
-6.55015
0
LINE
8
BLACK
6
CONTINUOUS
10
3.70781
20
-6.55015
11
3.7228
21
-6.55015
0
LINE
8
BLACK
6
CONTINUOUS
10
3.7228
20
-6.55015
11
3.7303
21
-6.5539
0
LINE
8
BLACK
6
CONTINUOUS
10
3.7303
20
-6.5539
11
3.73405
21
-6.55765
0
LINE
8
BLACK
6
CONTINUOUS
10
3.73405
20
-6.55765
11
3.7378
21
-6.56515
0
LINE
8
BLACK
6
CONTINUOUS
10
3.7378
20
-6.56515
11
3.7378
21
-6.58765
0
LINE
8
BLACK
6
CONTINUOUS
10
3.7378
20
-6.58765
11
3.73405
21
-6.59514
0
LINE
8
BLACK
6
CONTINUOUS
10
3.73405
20
-6.59514
11
3.7303
21
-6.59889
0
LINE
8
BLACK
6
CONTINUOUS
10
3.7303
20
-6.59889
11
3.7228
21
-6.60264
0
LINE
8
BLACK
6
CONTINUOUS
10
3.7228
20
-6.60264
11
3.70781
21
-6.60264
0
LINE
8
BLACK
6
CONTINUOUS
10
3.70781
20
-6.60264
11
3.70031
21
-6.59889
0
LINE
8
BLACK
6
CONTINUOUS
10
3.7828
20
-6.60264
11
3.7753
21
-6.59889
0
LINE
8
BLACK
6
CONTINUOUS
10
3.7753
20
-6.59889
11
3.77155
21
-6.59139
0
LINE
8
BLACK
6
CONTINUOUS
10
3.77155
20
-6.59139
11
3.77155
21
-6.5239
0
LINE
8
BLACK
6
CONTINUOUS
10
3.84654
20
-6.60264
11
3.84654
21
-6.5614
0
LINE
8
BLACK
6
CONTINUOUS
10
3.84654
20
-6.5614
11
3.84279
21
-6.5539
0
LINE
8
BLACK
6
CONTINUOUS
10
3.84279
20
-6.5539
11
3.83529
21
-6.55015
0
LINE
8
BLACK
6
CONTINUOUS
10
3.83529
20
-6.55015
11
3.82029
21
-6.55015
0
LINE
8
BLACK
6
CONTINUOUS
10
3.82029
20
-6.55015
11
3.81279
21
-6.5539
0
LINE
8
BLACK
6
CONTINUOUS
10
3.84654
20
-6.59889
11
3.83904
21
-6.60264
0
LINE
8
BLACK
6
CONTINUOUS
10
3.83904
20
-6.60264
11
3.82029
21
-6.60264
0
LINE
8
BLACK
6
CONTINUOUS
10
3.82029
20
-6.60264
11
3.81279
21
-6.59889
0
LINE
8
BLACK
6
CONTINUOUS
10
3.81279
20
-6.59889
11
3.80904
21
-6.59139
0
LINE
8
BLACK
6
CONTINUOUS
10
3.80904
20
-6.59139
11
3.80904
21
-6.5839
0
LINE
8
BLACK
6
CONTINUOUS
10
3.80904
20
-6.5839
11
3.81279
21
-6.5764
0
LINE
8
BLACK
6
CONTINUOUS
10
3.81279
20
-6.5764
11
3.82029
21
-6.57265
0
LINE
8
BLACK
6
CONTINUOUS
10
3.82029
20
-6.57265
11
3.83904
21
-6.57265
0
LINE
8
BLACK
6
CONTINUOUS
10
3.83904
20
-6.57265
11
3.84654
21
-6.5689
0
LINE
8
BLACK
6
CONTINUOUS
10
3.87279
20
-6.55015
11
3.90278
21
-6.55015
0
LINE
8
BLACK
6
CONTINUOUS
10
3.88403
20
-6.5239
11
3.88403
21
-6.59139
0
LINE
8
BLACK
6
CONTINUOUS
10
3.88403
20
-6.59139
11
3.88778
21
-6.59889
0
LINE
8
BLACK
6
CONTINUOUS
10
3.88778
20
-6.59889
11
3.89528
21
-6.60264
0
LINE
8
BLACK
6
CONTINUOUS
10
3.89528
20
-6.60264
11
3.90278
21
-6.60264
0
LINE
8
BLACK
6
CONTINUOUS
10
3.95902
20
-6.59889
11
3.95153
21
-6.60264
0
LINE
8
BLACK
6
CONTINUOUS
10
3.95153
20
-6.60264
11
3.93653
21
-6.60264
0
LINE
8
BLACK
6
CONTINUOUS
10
3.93653
20
-6.60264
11
3.92903
21
-6.59889
0
LINE
8
BLACK
6
CONTINUOUS
10
3.92903
20
-6.59889
11
3.92528
21
-6.59139
0
LINE
8
BLACK
6
CONTINUOUS
10
3.92528
20
-6.59139
11
3.92528
21
-6.5614
0
LINE
8
BLACK
6
CONTINUOUS
10
3.92528
20
-6.5614
11
3.92903
21
-6.5539
0
LINE
8
BLACK
6
CONTINUOUS
10
3.92903
20
-6.5539
11
3.93653
21
-6.55015
0
LINE
8
BLACK
6
CONTINUOUS
10
3.93653
20
-6.55015
11
3.95153
21
-6.55015
0
LINE
8
BLACK
6
CONTINUOUS
10
3.95153
20
-6.55015
11
3.95902
21
-6.5539
0
LINE
8
BLACK
6
CONTINUOUS
10
3.95902
20
-6.5539
11
3.96277
21
-6.5614
0
LINE
8
BLACK
6
CONTINUOUS
10
3.96277
20
-6.5614
11
3.96277
21
-6.5689
0
LINE
8
BLACK
6
CONTINUOUS
10
3.96277
20
-6.5689
11
3.92528
21
-6.5764
0
LINE
8
BLACK
6
CONTINUOUS
10
4.03027
20
-6.60264
11
4.03027
21
-6.5239
0
LINE
8
BLACK
6
CONTINUOUS
10
4.03027
20
-6.59889
11
4.02277
21
-6.60264
0
LINE
8
BLACK
6
CONTINUOUS
10
4.02277
20
-6.60264
11
4.00777
21
-6.60264
0
LINE
8
BLACK
6
CONTINUOUS
10
4.00777
20
-6.60264
11
4.00027
21
-6.59889
0
LINE
8
BLACK
6
CONTINUOUS
10
4.00027
20
-6.59889
11
3.99652
21
-6.59514
0
LINE
8
BLACK
6
CONTINUOUS
10
3.99652
20
-6.59514
11
3.99277
21
-6.58765
0
LINE
8
BLACK
6
CONTINUOUS
10
3.99277
20
-6.58765
11
3.99277
21
-6.56515
0
LINE
8
BLACK
6
CONTINUOUS
10
3.99277
20
-6.56515
11
3.99652
21
-6.55765
0
LINE
8
BLACK
6
CONTINUOUS
10
3.99652
20
-6.55765
11
4.00027
21
-6.5539
0
LINE
8
BLACK
6
CONTINUOUS
10
4.00027
20
-6.5539
11
4.00777
21
-6.55015
0
LINE
8
BLACK
6
CONTINUOUS
10
4.00777
20
-6.55015
11
4.02277
21
-6.55015
0
LINE
8
BLACK
6
CONTINUOUS
10
4.02277
20
-6.55015
11
4.03027
21
-6.5539
0
LINE
8
BLACK
6
CONTINUOUS
10
4.06026
20
-6.63264
11
4.06401
21
-6.62889
0
LINE
8
BLACK
6
CONTINUOUS
10
4.06401
20
-6.62889
11
4.07151
21
-6.61764
0
LINE
8
BLACK
6
CONTINUOUS
10
4.07151
20
-6.61764
11
4.07526
21
-6.61014
0
LINE
8
BLACK
6
CONTINUOUS
10
4.07526
20
-6.61014
11
4.07901
21
-6.59889
0
LINE
8
BLACK
6
CONTINUOUS
10
4.07901
20
-6.59889
11
4.08276
21
-6.58015
0
LINE
8
BLACK
6
CONTINUOUS
10
4.08276
20
-6.58015
11
4.08276
21
-6.56515
0
LINE
8
BLACK
6
CONTINUOUS
10
4.08276
20
-6.56515
11
4.07901
21
-6.5464
0
LINE
8
BLACK
6
CONTINUOUS
10
4.07901
20
-6.5464
11
4.07526
21
-6.53515
0
LINE
8
BLACK
6
CONTINUOUS
10
4.07526
20
-6.53515
11
4.07151
21
-6.52765
0
LINE
8
BLACK
6
CONTINUOUS
10
4.07151
20
-6.52765
11
4.06401
21
-6.5164
0
LINE
8
BLACK
6
CONTINUOUS
10
4.06401
20
-6.5164
11
4.06026
21
-6.51265
0
LINE
8
BLACK
6
CONTINUOUS
10
1.36596
20
-6.63611
11
1.36596
21
-6.70501
0
LINE
8
BLACK
6
CONTINUOUS
10
1.33152
20
-6.67056
11
1.40041
21
-6.67056
0
LINE
8
BLACK
6
CONTINUOUS
10
1.54433
20
-6.70658
11
1.49933
21
-6.70658
0
LINE
8
BLACK
6
CONTINUOUS
10
1.52183
20
-6.70658
11
1.52183
21
-6.62784
0
LINE
8
BLACK
6
CONTINUOUS
10
1.52183
20
-6.62784
11
1.51433
21
-6.63909
0
LINE
8
BLACK
6
CONTINUOUS
10
1.51433
20
-6.63909
11
1.50683
21
-6.64659
0
LINE
8
BLACK
6
CONTINUOUS
10
1.50683
20
-6.64659
11
1.49933
21
-6.65034
0
LINE
8
BLACK
6
CONTINUOUS
10
1.57807
20
-6.69908
11
1.58182
21
-6.70283
0
LINE
8
BLACK
6
CONTINUOUS
10
1.58182
20
-6.70283
11
1.57807
21
-6.70658
0
LINE
8
BLACK
6
CONTINUOUS
10
1.57807
20
-6.70658
11
1.57432
21
-6.70283
0
LINE
8
BLACK
6
CONTINUOUS
10
1.57432
20
-6.70283
11
1.57807
21
-6.69908
0
LINE
8
BLACK
6
CONTINUOUS
10
1.57807
20
-6.69908
11
1.57807
21
-6.70658
0
LINE
8
BLACK
6
CONTINUOUS
10
1.60807
20
-6.62784
11
1.66056
21
-6.62784
0
LINE
8
BLACK
6
CONTINUOUS
10
1.66056
20
-6.62784
11
1.62682
21
-6.70658
0
LINE
8
BLACK
6
CONTINUOUS
10
1.72805
20
-6.62784
11
1.69056
21
-6.62784
0
LINE
8
BLACK
6
CONTINUOUS
10
1.69056
20
-6.62784
11
1.68681
21
-6.66534
0
LINE
8
BLACK
6
CONTINUOUS
10
1.68681
20
-6.66534
11
1.69056
21
-6.66159
0
LINE
8
BLACK
6
CONTINUOUS
10
1.69056
20
-6.66159
11
1.69806
21
-6.65784
0
LINE
8
BLACK
6
CONTINUOUS
10
1.69806
20
-6.65784
11
1.7168
21
-6.65784
0
LINE
8
BLACK
6
CONTINUOUS
10
1.7168
20
-6.65784
11
1.7243
21
-6.66159
0
LINE
8
BLACK
6
CONTINUOUS
10
1.7243
20
-6.66159
11
1.72805
21
-6.66534
0
LINE
8
BLACK
6
CONTINUOUS
10
1.72805
20
-6.66534
11
1.7318
21
-6.67283
0
LINE
8
BLACK
6
CONTINUOUS
10
1.7318
20
-6.67283
11
1.7318
21
-6.69158
0
LINE
8
BLACK
6
CONTINUOUS
10
1.7318
20
-6.69158
11
1.72805
21
-6.69908
0
LINE
8
BLACK
6
CONTINUOUS
10
1.72805
20
-6.69908
11
1.7243
21
-6.70283
0
LINE
8
BLACK
6
CONTINUOUS
10
1.7243
20
-6.70283
11
1.7168
21
-6.70658
0
LINE
8
BLACK
6
CONTINUOUS
10
1.7168
20
-6.70658
11
1.69806
21
-6.70658
0
LINE
8
BLACK
6
CONTINUOUS
10
1.69806
20
-6.70658
11
1.69056
21
-6.70283
0
LINE
8
BLACK
6
CONTINUOUS
10
1.69056
20
-6.70283
11
1.68681
21
-6.69908
0
LINE
8
BLACK
6
CONTINUOUS
10
1.78055
20
-6.62784
11
1.78805
21
-6.62784
0
LINE
8
BLACK
6
CONTINUOUS
10
1.78805
20
-6.62784
11
1.79554
21
-6.63159
0
LINE
8
BLACK
6
CONTINUOUS
10
1.79554
20
-6.63159
11
1.79929
21
-6.63534
0
LINE
8
BLACK
6
CONTINUOUS
10
1.79929
20
-6.63534
11
1.80304
21
-6.64284
0
LINE
8
BLACK
6
CONTINUOUS
10
1.80304
20
-6.64284
11
1.80679
21
-6.65784
0
LINE
8
BLACK
6
CONTINUOUS
10
1.80679
20
-6.65784
11
1.80679
21
-6.67658
0
LINE
8
BLACK
6
CONTINUOUS
10
1.80679
20
-6.67658
11
1.80304
21
-6.69158
0
LINE
8
BLACK
6
CONTINUOUS
10
1.80304
20
-6.69158
11
1.79929
21
-6.69908
0
LINE
8
BLACK
6
CONTINUOUS
10
1.79929
20
-6.69908
11
1.79554
21
-6.70283
0
LINE
8
BLACK
6
CONTINUOUS
10
1.79554
20
-6.70283
11
1.78805
21
-6.70658
0
LINE
8
BLACK
6
CONTINUOUS
10
1.78805
20
-6.70658
11
1.78055
21
-6.70658
0
LINE
8
BLACK
6
CONTINUOUS
10
1.78055
20
-6.70658
11
1.77305
21
-6.70283
0
LINE
8
BLACK
6
CONTINUOUS
10
1.77305
20
-6.70283
11
1.7693
21
-6.69908
0
LINE
8
BLACK
6
CONTINUOUS
10
1.7693
20
-6.69908
11
1.76555
21
-6.69158
0
LINE
8
BLACK
6
CONTINUOUS
10
1.76555
20
-6.69158
11
1.7618
21
-6.67658
0
LINE
8
BLACK
6
CONTINUOUS
10
1.7618
20
-6.67658
11
1.7618
21
-6.65784
0
LINE
8
BLACK
6
CONTINUOUS
10
1.7618
20
-6.65784
11
1.76555
21
-6.64284
0
LINE
8
BLACK
6
CONTINUOUS
10
1.76555
20
-6.64284
11
1.7693
21
-6.63534
0
LINE
8
BLACK
6
CONTINUOUS
10
1.7693
20
-6.63534
11
1.77305
21
-6.63159
0
LINE
8
BLACK
6
CONTINUOUS
10
1.77305
20
-6.63159
11
1.78055
21
-6.62784
0
LINE
8
BLACK
6
CONTINUOUS
10
1.84054
20
-6.70658
11
1.84054
21
-6.65409
0
LINE
8
BLACK
6
CONTINUOUS
10
1.84054
20
-6.66159
11
1.84429
21
-6.65784
0
LINE
8
BLACK
6
CONTINUOUS
10
1.84429
20
-6.65784
11
1.85179
21
-6.65409
0
LINE
8
BLACK
6
CONTINUOUS
10
1.85179
20
-6.65409
11
1.86304
21
-6.65409
0
LINE
8
BLACK
6
CONTINUOUS
10
1.86304
20
-6.65409
11
1.87054
21
-6.65784
0
LINE
8
BLACK
6
CONTINUOUS
10
1.87054
20
-6.65784
11
1.87429
21
-6.66534
0
LINE
8
BLACK
6
CONTINUOUS
10
1.87429
20
-6.66534
11
1.87429
21
-6.70658
0
LINE
8
BLACK
6
CONTINUOUS
10
1.87429
20
-6.66534
11
1.87803
21
-6.65784
0
LINE
8
BLACK
6
CONTINUOUS
10
1.87803
20
-6.65784
11
1.88553
21
-6.65409
0
LINE
8
BLACK
6
CONTINUOUS
10
1.88553
20
-6.65409
11
1.89678
21
-6.65409
0
LINE
8
BLACK
6
CONTINUOUS
10
1.89678
20
-6.65409
11
1.90428
21
-6.65784
0
LINE
8
BLACK
6
CONTINUOUS
10
1.90428
20
-6.65784
11
1.90803
21
-6.66534
0
LINE
8
BLACK
6
CONTINUOUS
10
1.90803
20
-6.66534
11
1.90803
21
-6.70658
0
LINE
8
BLACK
6
CONTINUOUS
10
1.94553
20
-6.70658
11
1.94553
21
-6.65409
0
LINE
8
BLACK
6
CONTINUOUS
10
1.94553
20
-6.66159
11
1.94928
21
-6.65784
0
LINE
8
BLACK
6
CONTINUOUS
10
1.94928
20
-6.65784
11
1.95677
21
-6.65409
0
LINE
8
BLACK
6
CONTINUOUS
10
1.95677
20
-6.65409
11
1.96802
21
-6.65409
0
LINE
8
BLACK
6
CONTINUOUS
10
1.96802
20
-6.65409
11
1.97552
21
-6.65784
0
LINE
8
BLACK
6
CONTINUOUS
10
1.97552
20
-6.65784
11
1.97927
21
-6.66534
0
LINE
8
BLACK
6
CONTINUOUS
10
1.97927
20
-6.66534
11
1.97927
21
-6.70658
0
LINE
8
BLACK
6
CONTINUOUS
10
1.97927
20
-6.66534
11
1.98302
21
-6.65784
0
LINE
8
BLACK
6
CONTINUOUS
10
1.98302
20
-6.65784
11
1.99052
21
-6.65409
0
LINE
8
BLACK
6
CONTINUOUS
10
1.99052
20
-6.65409
11
2.00177
21
-6.65409
0
LINE
8
BLACK
6
CONTINUOUS
10
2.00177
20
-6.65409
11
2.00927
21
-6.65784
0
LINE
8
BLACK
6
CONTINUOUS
10
2.00927
20
-6.65784
11
2.01302
21
-6.66534
0
LINE
8
BLACK
6
CONTINUOUS
10
2.01302
20
-6.66534
11
2.01302
21
-6.70658
0
LINE
8
BLACK
6
CONTINUOUS
10
2.16675
20
-6.62409
11
2.09926
21
-6.72533
0
LINE
8
BLACK
6
CONTINUOUS
10
2.26799
20
-6.62784
11
2.27548
21
-6.62784
0
LINE
8
BLACK
6
CONTINUOUS
10
2.27548
20
-6.62784
11
2.28298
21
-6.63159
0
LINE
8
BLACK
6
CONTINUOUS
10
2.28298
20
-6.63159
11
2.28673
21
-6.63534
0
LINE
8
BLACK
6
CONTINUOUS
10
2.28673
20
-6.63534
11
2.29048
21
-6.64284
0
LINE
8
BLACK
6
CONTINUOUS
10
2.29048
20
-6.64284
11
2.29423
21
-6.65784
0
LINE
8
BLACK
6
CONTINUOUS
10
2.29423
20
-6.65784
11
2.29423
21
-6.67658
0
LINE
8
BLACK
6
CONTINUOUS
10
2.29423
20
-6.67658
11
2.29048
21
-6.69158
0
LINE
8
BLACK
6
CONTINUOUS
10
2.29048
20
-6.69158
11
2.28673
21
-6.69908
0
LINE
8
BLACK
6
CONTINUOUS
10
2.28673
20
-6.69908
11
2.28298
21
-6.70283
0
LINE
8
BLACK
6
CONTINUOUS
10
2.28298
20
-6.70283
11
2.27548
21
-6.70658
0
LINE
8
BLACK
6
CONTINUOUS
10
2.27548
20
-6.70658
11
2.26799
21
-6.70658
0
LINE
8
BLACK
6
CONTINUOUS
10
2.26799
20
-6.70658
11
2.26049
21
-6.70283
0
LINE
8
BLACK
6
CONTINUOUS
10
2.26049
20
-6.70283
11
2.25674
21
-6.69908
0
LINE
8
BLACK
6
CONTINUOUS
10
2.25674
20
-6.69908
11
2.25299
21
-6.69158
0
LINE
8
BLACK
6
CONTINUOUS
10
2.25299
20
-6.69158
11
2.24924
21
-6.67658
0
LINE
8
BLACK
6
CONTINUOUS
10
2.24924
20
-6.67658
11
2.24924
21
-6.65784
0
LINE
8
BLACK
6
CONTINUOUS
10
2.24924
20
-6.65784
11
2.25299
21
-6.64284
0
LINE
8
BLACK
6
CONTINUOUS
10
2.25299
20
-6.64284
11
2.25674
21
-6.63534
0
LINE
8
BLACK
6
CONTINUOUS
10
2.25674
20
-6.63534
11
2.26049
21
-6.63159
0
LINE
8
BLACK
6
CONTINUOUS
10
2.26049
20
-6.63159
11
2.26799
21
-6.62784
0
LINE
8
BLACK
6
CONTINUOUS
10
2.32798
20
-6.69908
11
2.33173
21
-6.70283
0
LINE
8
BLACK
6
CONTINUOUS
10
2.33173
20
-6.70283
11
2.32798
21
-6.70658
0
LINE
8
BLACK
6
CONTINUOUS
10
2.32798
20
-6.70658
11
2.32423
21
-6.70283
0
LINE
8
BLACK
6
CONTINUOUS
10
2.32423
20
-6.70283
11
2.32798
21
-6.69908
0
LINE
8
BLACK
6
CONTINUOUS
10
2.32798
20
-6.69908
11
2.32798
21
-6.70658
0
LINE
8
BLACK
6
CONTINUOUS
10
2.38047
20
-6.62784
11
2.38797
21
-6.62784
0
LINE
8
BLACK
6
CONTINUOUS
10
2.38797
20
-6.62784
11
2.39547
21
-6.63159
0
LINE
8
BLACK
6
CONTINUOUS
10
2.39547
20
-6.63159
11
2.39922
21
-6.63534
0
LINE
8
BLACK
6
CONTINUOUS
10
2.39922
20
-6.63534
11
2.40297
21
-6.64284
0
LINE
8
BLACK
6
CONTINUOUS
10
2.40297
20
-6.64284
11
2.40672
21
-6.65784
0
LINE
8
BLACK
6
CONTINUOUS
10
2.40672
20
-6.65784
11
2.40672
21
-6.67658
0
LINE
8
BLACK
6
CONTINUOUS
10
2.40672
20
-6.67658
11
2.40297
21
-6.69158
0
LINE
8
BLACK
6
CONTINUOUS
10
2.40297
20
-6.69158
11
2.39922
21
-6.69908
0
LINE
8
BLACK
6
CONTINUOUS
10
2.39922
20
-6.69908
11
2.39547
21
-6.70283
0
LINE
8
BLACK
6
CONTINUOUS
10
2.39547
20
-6.70283
11
2.38797
21
-6.70658
0
LINE
8
BLACK
6
CONTINUOUS
10
2.38797
20
-6.70658
11
2.38047
21
-6.70658
0
LINE
8
BLACK
6
CONTINUOUS
10
2.38047
20
-6.70658
11
2.37297
21
-6.70283
0
LINE
8
BLACK
6
CONTINUOUS
10
2.37297
20
-6.70283
11
2.36922
21
-6.69908
0
LINE
8
BLACK
6
CONTINUOUS
10
2.36922
20
-6.69908
11
2.36547
21
-6.69158
0
LINE
8
BLACK
6
CONTINUOUS
10
2.36547
20
-6.69158
11
2.36172
21
-6.67658
0
LINE
8
BLACK
6
CONTINUOUS
10
2.36172
20
-6.67658
11
2.36172
21
-6.65784
0
LINE
8
BLACK
6
CONTINUOUS
10
2.36172
20
-6.65784
11
2.36547
21
-6.64284
0
LINE
8
BLACK
6
CONTINUOUS
10
2.36547
20
-6.64284
11
2.36922
21
-6.63534
0
LINE
8
BLACK
6
CONTINUOUS
10
2.36922
20
-6.63534
11
2.37297
21
-6.63159
0
LINE
8
BLACK
6
CONTINUOUS
10
2.37297
20
-6.63159
11
2.38047
21
-6.62784
0
LINE
8
BLACK
6
CONTINUOUS
10
2.47421
20
-6.62784
11
2.45921
21
-6.62784
0
LINE
8
BLACK
6
CONTINUOUS
10
2.45921
20
-6.62784
11
2.45171
21
-6.63159
0
LINE
8
BLACK
6
CONTINUOUS
10
2.45171
20
-6.63159
11
2.44796
21
-6.63534
0
LINE
8
BLACK
6
CONTINUOUS
10
2.44796
20
-6.63534
11
2.44046
21
-6.64659
0
LINE
8
BLACK
6
CONTINUOUS
10
2.44046
20
-6.64659
11
2.43671
21
-6.66159
0
LINE
8
BLACK
6
CONTINUOUS
10
2.43671
20
-6.66159
11
2.43671
21
-6.69158
0
LINE
8
BLACK
6
CONTINUOUS
10
2.43671
20
-6.69158
11
2.44046
21
-6.69908
0
LINE
8
BLACK
6
CONTINUOUS
10
2.44046
20
-6.69908
11
2.44421
21
-6.70283
0
LINE
8
BLACK
6
CONTINUOUS
10
2.44421
20
-6.70283
11
2.45171
21
-6.70658
0
LINE
8
BLACK
6
CONTINUOUS
10
2.45171
20
-6.70658
11
2.46671
21
-6.70658
0
LINE
8
BLACK
6
CONTINUOUS
10
2.46671
20
-6.70658
11
2.47421
21
-6.70283
0
LINE
8
BLACK
6
CONTINUOUS
10
2.47421
20
-6.70283
11
2.47796
21
-6.69908
0
LINE
8
BLACK
6
CONTINUOUS
10
2.47796
20
-6.69908
11
2.48171
21
-6.69158
0
LINE
8
BLACK
6
CONTINUOUS
10
2.48171
20
-6.69158
11
2.48171
21
-6.67283
0
LINE
8
BLACK
6
CONTINUOUS
10
2.48171
20
-6.67283
11
2.47796
21
-6.66534
0
LINE
8
BLACK
6
CONTINUOUS
10
2.47796
20
-6.66534
11
2.47421
21
-6.66159
0
LINE
8
BLACK
6
CONTINUOUS
10
2.47421
20
-6.66159
11
2.46671
21
-6.65784
0
LINE
8
BLACK
6
CONTINUOUS
10
2.46671
20
-6.65784
11
2.45171
21
-6.65784
0
LINE
8
BLACK
6
CONTINUOUS
10
2.45171
20
-6.65784
11
2.44421
21
-6.66159
0
LINE
8
BLACK
6
CONTINUOUS
10
2.44421
20
-6.66159
11
2.44046
21
-6.66534
0
LINE
8
BLACK
6
CONTINUOUS
10
2.44046
20
-6.66534
11
2.43671
21
-6.67283
0
LINE
8
BLACK
6
CONTINUOUS
10
2.5267
20
-6.66159
11
2.5192
21
-6.65784
0
LINE
8
BLACK
6
CONTINUOUS
10
2.5192
20
-6.65784
11
2.51545
21
-6.65409
0
LINE
8
BLACK
6
CONTINUOUS
10
2.51545
20
-6.65409
11
2.51171
21
-6.64659
0
LINE
8
BLACK
6
CONTINUOUS
10
2.51171
20
-6.64659
11
2.51171
21
-6.64284
0
LINE
8
BLACK
6
CONTINUOUS
10
2.51171
20
-6.64284
11
2.51545
21
-6.63534
0
LINE
8
BLACK
6
CONTINUOUS
10
2.51545
20
-6.63534
11
2.5192
21
-6.63159
0
LINE
8
BLACK
6
CONTINUOUS
10
2.5192
20
-6.63159
11
2.5267
21
-6.62784
0
LINE
8
BLACK
6
CONTINUOUS
10
2.5267
20
-6.62784
11
2.5417
21
-6.62784
0
LINE
8
BLACK
6
CONTINUOUS
10
2.5417
20
-6.62784
11
2.5492
21
-6.63159
0
LINE
8
BLACK
6
CONTINUOUS
10
2.5492
20
-6.63159
11
2.55295
21
-6.63534
0
LINE
8
BLACK
6
CONTINUOUS
10
2.55295
20
-6.63534
11
2.5567
21
-6.64284
0
LINE
8
BLACK
6
CONTINUOUS
10
2.5567
20
-6.64284
11
2.5567
21
-6.64659
0
LINE
8
BLACK
6
CONTINUOUS
10
2.5567
20
-6.64659
11
2.55295
21
-6.65409
0
LINE
8
BLACK
6
CONTINUOUS
10
2.55295
20
-6.65409
11
2.5492
21
-6.65784
0
LINE
8
BLACK
6
CONTINUOUS
10
2.5492
20
-6.65784
11
2.5417
21
-6.66159
0
LINE
8
BLACK
6
CONTINUOUS
10
2.5417
20
-6.66159
11
2.5267
21
-6.66159
0
LINE
8
BLACK
6
CONTINUOUS
10
2.5267
20
-6.66159
11
2.5192
21
-6.66534
0
LINE
8
BLACK
6
CONTINUOUS
10
2.5192
20
-6.66534
11
2.51545
21
-6.66908
0
LINE
8
BLACK
6
CONTINUOUS
10
2.51545
20
-6.66908
11
2.51171
21
-6.67658
0
LINE
8
BLACK
6
CONTINUOUS
10
2.51171
20
-6.67658
11
2.51171
21
-6.69158
0
LINE
8
BLACK
6
CONTINUOUS
10
2.51171
20
-6.69158
11
2.51545
21
-6.69908
0
LINE
8
BLACK
6
CONTINUOUS
10
2.51545
20
-6.69908
11
2.5192
21
-6.70283
0
LINE
8
BLACK
6
CONTINUOUS
10
2.5192
20
-6.70283
11
2.5267
21
-6.70658
0
LINE
8
BLACK
6
CONTINUOUS
10
2.5267
20
-6.70658
11
2.5417
21
-6.70658
0
LINE
8
BLACK
6
CONTINUOUS
10
2.5417
20
-6.70658
11
2.5492
21
-6.70283
0
LINE
8
BLACK
6
CONTINUOUS
10
2.5492
20
-6.70283
11
2.55295
21
-6.69908
0
LINE
8
BLACK
6
CONTINUOUS
10
2.55295
20
-6.69908
11
2.5567
21
-6.69158
0
LINE
8
BLACK
6
CONTINUOUS
10
2.5567
20
-6.69158
11
2.5567
21
-6.67658
0
LINE
8
BLACK
6
CONTINUOUS
10
2.5567
20
-6.67658
11
2.55295
21
-6.66908
0
LINE
8
BLACK
6
CONTINUOUS
10
2.55295
20
-6.66908
11
2.5492
21
-6.66534
0
LINE
8
BLACK
6
CONTINUOUS
10
2.5492
20
-6.66534
11
2.5417
21
-6.66159
0
LINE
8
BLACK
6
CONTINUOUS
10
2.5942
20
-6.70658
11
2.60919
21
-6.70658
0
LINE
8
BLACK
6
CONTINUOUS
10
2.60919
20
-6.70658
11
2.61669
21
-6.70283
0
LINE
8
BLACK
6
CONTINUOUS
10
2.61669
20
-6.70283
11
2.62044
21
-6.69908
0
LINE
8
BLACK
6
CONTINUOUS
10
2.62044
20
-6.69908
11
2.62794
21
-6.68783
0
LINE
8
BLACK
6
CONTINUOUS
10
2.62794
20
-6.68783
11
2.63169
21
-6.67283
0
LINE
8
BLACK
6
CONTINUOUS
10
2.63169
20
-6.67283
11
2.63169
21
-6.64284
0
LINE
8
BLACK
6
CONTINUOUS
10
2.63169
20
-6.64284
11
2.62794
21
-6.63534
0
LINE
8
BLACK
6
CONTINUOUS
10
2.62794
20
-6.63534
11
2.62419
21
-6.63159
0
LINE
8
BLACK
6
CONTINUOUS
10
2.62419
20
-6.63159
11
2.61669
21
-6.62784
0
LINE
8
BLACK
6
CONTINUOUS
10
2.61669
20
-6.62784
11
2.60169
21
-6.62784
0
LINE
8
BLACK
6
CONTINUOUS
10
2.60169
20
-6.62784
11
2.5942
21
-6.63159
0
LINE
8
BLACK
6
CONTINUOUS
10
2.5942
20
-6.63159
11
2.59045
21
-6.63534
0
LINE
8
BLACK
6
CONTINUOUS
10
2.59045
20
-6.63534
11
2.5867
21
-6.64284
0
LINE
8
BLACK
6
CONTINUOUS
10
2.5867
20
-6.64284
11
2.5867
21
-6.66159
0
LINE
8
BLACK
6
CONTINUOUS
10
2.5867
20
-6.66159
11
2.59045
21
-6.66908
0
LINE
8
BLACK
6
CONTINUOUS
10
2.59045
20
-6.66908
11
2.5942
21
-6.67283
0
LINE
8
BLACK
6
CONTINUOUS
10
2.5942
20
-6.67283
11
2.60169
21
-6.67658
0
LINE
8
BLACK
6
CONTINUOUS
10
2.60169
20
-6.67658
11
2.61669
21
-6.67658
0
LINE
8
BLACK
6
CONTINUOUS
10
2.61669
20
-6.67658
11
2.62419
21
-6.67283
0
LINE
8
BLACK
6
CONTINUOUS
10
2.62419
20
-6.67283
11
2.62794
21
-6.66908
0
LINE
8
BLACK
6
CONTINUOUS
10
2.62794
20
-6.66908
11
2.63169
21
-6.66159
0
LINE
8
BLACK
6
CONTINUOUS
10
2.66169
20
-6.62784
11
2.66169
21
-6.64284
0
LINE
8
BLACK
6
CONTINUOUS
10
2.69168
20
-6.62784
11
2.69168
21
-6.64284
0
LINE
8
BLACK
6
CONTINUOUS
10
2.80792
20
-6.73658
11
2.80417
21
-6.73283
0
LINE
8
BLACK
6
CONTINUOUS
10
2.80417
20
-6.73283
11
2.79667
21
-6.72158
0
LINE
8
BLACK
6
CONTINUOUS
10
2.79667
20
-6.72158
11
2.79292
21
-6.71408
0
LINE
8
BLACK
6
CONTINUOUS
10
2.79292
20
-6.71408
11
2.78917
21
-6.70283
0
LINE
8
BLACK
6
CONTINUOUS
10
2.78917
20
-6.70283
11
2.78542
21
-6.68408
0
LINE
8
BLACK
6
CONTINUOUS
10
2.78542
20
-6.68408
11
2.78542
21
-6.66908
0
LINE
8
BLACK
6
CONTINUOUS
10
2.78542
20
-6.66908
11
2.78917
21
-6.65034
0
LINE
8
BLACK
6
CONTINUOUS
10
2.78917
20
-6.65034
11
2.79292
21
-6.63909
0
LINE
8
BLACK
6
CONTINUOUS
10
2.79292
20
-6.63909
11
2.79667
21
-6.63159
0
LINE
8
BLACK
6
CONTINUOUS
10
2.79667
20
-6.63159
11
2.80417
21
-6.62034
0
LINE
8
BLACK
6
CONTINUOUS
10
2.80417
20
-6.62034
11
2.80792
21
-6.61659
0
LINE
8
BLACK
6
CONTINUOUS
10
2.83042
20
-6.62784
11
2.88291
21
-6.62784
0
LINE
8
BLACK
6
CONTINUOUS
10
2.88291
20
-6.62784
11
2.84916
21
-6.70658
0
LINE
8
BLACK
6
CONTINUOUS
10
2.90916
20
-6.63534
11
2.91291
21
-6.63159
0
LINE
8
BLACK
6
CONTINUOUS
10
2.91291
20
-6.63159
11
2.9204
21
-6.62784
0
LINE
8
BLACK
6
CONTINUOUS
10
2.9204
20
-6.62784
11
2.93915
21
-6.62784
0
LINE
8
BLACK
6
CONTINUOUS
10
2.93915
20
-6.62784
11
2.94665
21
-6.63159
0
LINE
8
BLACK
6
CONTINUOUS
10
2.94665
20
-6.63159
11
2.9504
21
-6.63534
0
LINE
8
BLACK
6
CONTINUOUS
10
2.9504
20
-6.63534
11
2.95415
21
-6.64284
0
LINE
8
BLACK
6
CONTINUOUS
10
2.95415
20
-6.64284
11
2.95415
21
-6.65034
0
LINE
8
BLACK
6
CONTINUOUS
10
2.95415
20
-6.65034
11
2.9504
21
-6.66159
0
LINE
8
BLACK
6
CONTINUOUS
10
2.9504
20
-6.66159
11
2.90541
21
-6.70658
0
LINE
8
BLACK
6
CONTINUOUS
10
2.90541
20
-6.70658
11
2.95415
21
-6.70658
0
LINE
8
BLACK
6
CONTINUOUS
10
3.04789
20
-6.70658
11
3.04789
21
-6.62784
0
LINE
8
BLACK
6
CONTINUOUS
10
3.08163
20
-6.70658
11
3.08163
21
-6.66534
0
LINE
8
BLACK
6
CONTINUOUS
10
3.08163
20
-6.66534
11
3.07788
21
-6.65784
0
LINE
8
BLACK
6
CONTINUOUS
10
3.07788
20
-6.65784
11
3.07039
21
-6.65409
0
LINE
8
BLACK
6
CONTINUOUS
10
3.07039
20
-6.65409
11
3.05914
21
-6.65409
0
LINE
8
BLACK
6
CONTINUOUS
10
3.05914
20
-6.65409
11
3.05164
21
-6.65784
0
LINE
8
BLACK
6
CONTINUOUS
10
3.05164
20
-6.65784
11
3.04789
21
-6.66159
0
LINE
8
BLACK
6
CONTINUOUS
10
3.13038
20
-6.70658
11
3.12288
21
-6.70283
0
LINE
8
BLACK
6
CONTINUOUS
10
3.12288
20
-6.70283
11
3.11913
21
-6.69908
0
LINE
8
BLACK
6
CONTINUOUS
10
3.11913
20
-6.69908
11
3.11538
21
-6.69158
0
LINE
8
BLACK
6
CONTINUOUS
10
3.11538
20
-6.69158
11
3.11538
21
-6.66908
0
LINE
8
BLACK
6
CONTINUOUS
10
3.11538
20
-6.66908
11
3.11913
21
-6.66159
0
LINE
8
BLACK
6
CONTINUOUS
10
3.11913
20
-6.66159
11
3.12288
21
-6.65784
0
LINE
8
BLACK
6
CONTINUOUS
10
3.12288
20
-6.65784
11
3.13038
21
-6.65409
0
LINE
8
BLACK
6
CONTINUOUS
10
3.13038
20
-6.65409
11
3.14163
21
-6.65409
0
LINE
8
BLACK
6
CONTINUOUS
10
3.14163
20
-6.65409
11
3.14913
21
-6.65784
0
LINE
8
BLACK
6
CONTINUOUS
10
3.14913
20
-6.65784
11
3.15288
21
-6.66159
0
LINE
8
BLACK
6
CONTINUOUS
10
3.15288
20
-6.66159
11
3.15662
21
-6.66908
0
LINE
8
BLACK
6
CONTINUOUS
10
3.15662
20
-6.66908
11
3.15662
21
-6.69158
0
LINE
8
BLACK
6
CONTINUOUS
10
3.15662
20
-6.69158
11
3.15288
21
-6.69908
0
LINE
8
BLACK
6
CONTINUOUS
10
3.15288
20
-6.69908
11
3.14913
21
-6.70283
0
LINE
8
BLACK
6
CONTINUOUS
10
3.14913
20
-6.70283
11
3.14163
21
-6.70658
0
LINE
8
BLACK
6
CONTINUOUS
10
3.14163
20
-6.70658
11
3.13038
21
-6.70658
0
LINE
8
BLACK
6
CONTINUOUS
10
3.20162
20
-6.70658
11
3.19412
21
-6.70283
0
LINE
8
BLACK
6
CONTINUOUS
10
3.19412
20
-6.70283
11
3.19037
21
-6.69533
0
LINE
8
BLACK
6
CONTINUOUS
10
3.19037
20
-6.69533
11
3.19037
21
-6.62784
0
LINE
8
BLACK
6
CONTINUOUS
10
3.26161
20
-6.70283
11
3.25411
21
-6.70658
0
LINE
8
BLACK
6
CONTINUOUS
10
3.25411
20
-6.70658
11
3.23911
21
-6.70658
0
LINE
8
BLACK
6
CONTINUOUS
10
3.23911
20
-6.70658
11
3.23162
21
-6.70283
0
LINE
8
BLACK
6
CONTINUOUS
10
3.23162
20
-6.70283
11
3.22787
21
-6.69533
0
LINE
8
BLACK
6
CONTINUOUS
10
3.22787
20
-6.69533
11
3.22787
21
-6.66534
0
LINE
8
BLACK
6
CONTINUOUS
10
3.22787
20
-6.66534
11
3.23162
21
-6.65784
0
LINE
8
BLACK
6
CONTINUOUS
10
3.23162
20
-6.65784
11
3.23911
21
-6.65409
0
LINE
8
BLACK
6
CONTINUOUS
10
3.23911
20
-6.65409
11
3.25411
21
-6.65409
0
LINE
8
BLACK
6
CONTINUOUS
10
3.25411
20
-6.65409
11
3.26161
21
-6.65784
0
LINE
8
BLACK
6
CONTINUOUS
10
3.26161
20
-6.65784
11
3.26536
21
-6.66534
0
LINE
8
BLACK
6
CONTINUOUS
10
3.26536
20
-6.66534
11
3.26536
21
-6.67283
0
LINE
8
BLACK
6
CONTINUOUS
10
3.26536
20
-6.67283
11
3.22787
21
-6.68033
0
LINE
8
BLACK
6
CONTINUOUS
10
3.29536
20
-6.70283
11
3.30286
21
-6.70658
0
LINE
8
BLACK
6
CONTINUOUS
10
3.30286
20
-6.70658
11
3.31785
21
-6.70658
0
LINE
8
BLACK
6
CONTINUOUS
10
3.31785
20
-6.70658
11
3.32535
21
-6.70283
0
LINE
8
BLACK
6
CONTINUOUS
10
3.32535
20
-6.70283
11
3.3291
21
-6.69533
0
LINE
8
BLACK
6
CONTINUOUS
10
3.3291
20
-6.69533
11
3.3291
21
-6.69158
0
LINE
8
BLACK
6
CONTINUOUS
10
3.3291
20
-6.69158
11
3.32535
21
-6.68408
0
LINE
8
BLACK
6
CONTINUOUS
10
3.32535
20
-6.68408
11
3.31785
21
-6.68033
0
LINE
8
BLACK
6
CONTINUOUS
10
3.31785
20
-6.68033
11
3.30661
21
-6.68033
0
LINE
8
BLACK
6
CONTINUOUS
10
3.30661
20
-6.68033
11
3.29911
21
-6.67658
0
LINE
8
BLACK
6
CONTINUOUS
10
3.29911
20
-6.67658
11
3.29536
21
-6.66908
0
LINE
8
BLACK
6
CONTINUOUS
10
3.29536
20
-6.66908
11
3.29536
21
-6.66534
0
LINE
8
BLACK
6
CONTINUOUS
10
3.29536
20
-6.66534
11
3.29911
21
-6.65784
0
LINE
8
BLACK
6
CONTINUOUS
10
3.29911
20
-6.65784
11
3.30661
21
-6.65409
0
LINE
8
BLACK
6
CONTINUOUS
10
3.30661
20
-6.65409
11
3.31785
21
-6.65409
0
LINE
8
BLACK
6
CONTINUOUS
10
3.31785
20
-6.65409
11
3.32535
21
-6.65784
0
LINE
8
BLACK
6
CONTINUOUS
10
3.35535
20
-6.73658
11
3.3591
21
-6.73283
0
LINE
8
BLACK
6
CONTINUOUS
10
3.3591
20
-6.73283
11
3.3666
21
-6.72158
0
LINE
8
BLACK
6
CONTINUOUS
10
3.3666
20
-6.72158
11
3.37035
21
-6.71408
0
LINE
8
BLACK
6
CONTINUOUS
10
3.37035
20
-6.71408
11
3.3741
21
-6.70283
0
LINE
8
BLACK
6
CONTINUOUS
10
3.3741
20
-6.70283
11
3.37785
21
-6.68408
0
LINE
8
BLACK
6
CONTINUOUS
10
3.37785
20
-6.68408
11
3.37785
21
-6.66908
0
LINE
8
BLACK
6
CONTINUOUS
10
3.37785
20
-6.66908
11
3.3741
21
-6.65034
0
LINE
8
BLACK
6
CONTINUOUS
10
3.3741
20
-6.65034
11
3.37035
21
-6.63909
0
LINE
8
BLACK
6
CONTINUOUS
10
3.37035
20
-6.63909
11
3.3666
21
-6.63159
0
LINE
8
BLACK
6
CONTINUOUS
10
3.3666
20
-6.63159
11
3.3591
21
-6.62034
0
LINE
8
BLACK
6
CONTINUOUS
10
3.3591
20
-6.62034
11
3.35535
21
-6.61659
0
LINE
8
BLACK
6
CONTINUOUS
10
3.49783
20
-6.73658
11
3.49408
21
-6.73283
0
LINE
8
BLACK
6
CONTINUOUS
10
3.49408
20
-6.73283
11
3.48658
21
-6.72158
0
LINE
8
BLACK
6
CONTINUOUS
10
3.48658
20
-6.72158
11
3.48283
21
-6.71408
0
LINE
8
BLACK
6
CONTINUOUS
10
3.48283
20
-6.71408
11
3.47908
21
-6.70283
0
LINE
8
BLACK
6
CONTINUOUS
10
3.47908
20
-6.70283
11
3.47534
21
-6.68408
0
LINE
8
BLACK
6
CONTINUOUS
10
3.47534
20
-6.68408
11
3.47534
21
-6.66908
0
LINE
8
BLACK
6
CONTINUOUS
10
3.47534
20
-6.66908
11
3.47908
21
-6.65034
0
LINE
8
BLACK
6
CONTINUOUS
10
3.47908
20
-6.65034
11
3.48283
21
-6.63909
0
LINE
8
BLACK
6
CONTINUOUS
10
3.48283
20
-6.63909
11
3.48658
21
-6.63159
0
LINE
8
BLACK
6
CONTINUOUS
10
3.48658
20
-6.63159
11
3.49408
21
-6.62034
0
LINE
8
BLACK
6
CONTINUOUS
10
3.49408
20
-6.62034
11
3.49783
21
-6.61659
0
LINE
8
BLACK
6
CONTINUOUS
10
3.52783
20
-6.65409
11
3.52783
21
-6.70658
0
LINE
8
BLACK
6
CONTINUOUS
10
3.52783
20
-6.66159
11
3.53158
21
-6.65784
0
LINE
8
BLACK
6
CONTINUOUS
10
3.53158
20
-6.65784
11
3.53908
21
-6.65409
0
LINE
8
BLACK
6
CONTINUOUS
10
3.53908
20
-6.65409
11
3.55033
21
-6.65409
0
LINE
8
BLACK
6
CONTINUOUS
10
3.55033
20
-6.65409
11
3.55782
21
-6.65784
0
LINE
8
BLACK
6
CONTINUOUS
10
3.55782
20
-6.65784
11
3.56157
21
-6.66534
0
LINE
8
BLACK
6
CONTINUOUS
10
3.56157
20
-6.66534
11
3.56157
21
-6.70658
0
LINE
8
BLACK
6
CONTINUOUS
10
3.61032
20
-6.70658
11
3.60282
21
-6.70283
0
LINE
8
BLACK
6
CONTINUOUS
10
3.60282
20
-6.70283
11
3.59907
21
-6.69908
0
LINE
8
BLACK
6
CONTINUOUS
10
3.59907
20
-6.69908
11
3.59532
21
-6.69158
0
LINE
8
BLACK
6
CONTINUOUS
10
3.59532
20
-6.69158
11
3.59532
21
-6.66908
0
LINE
8
BLACK
6
CONTINUOUS
10
3.59532
20
-6.66908
11
3.59907
21
-6.66159
0
LINE
8
BLACK
6
CONTINUOUS
10
3.59907
20
-6.66159
11
3.60282
21
-6.65784
0
LINE
8
BLACK
6
CONTINUOUS
10
3.60282
20
-6.65784
11
3.61032
21
-6.65409
0
LINE
8
BLACK
6
CONTINUOUS
10
3.61032
20
-6.65409
11
3.62157
21
-6.65409
0
LINE
8
BLACK
6
CONTINUOUS
10
3.62157
20
-6.65409
11
3.62907
21
-6.65784
0
LINE
8
BLACK
6
CONTINUOUS
10
3.62907
20
-6.65784
11
3.63282
21
-6.66159
0
LINE
8
BLACK
6
CONTINUOUS
10
3.63282
20
-6.66159
11
3.63656
21
-6.66908
0
LINE
8
BLACK
6
CONTINUOUS
10
3.63656
20
-6.66908
11
3.63656
21
-6.69158
0
LINE
8
BLACK
6
CONTINUOUS
10
3.63656
20
-6.69158
11
3.63282
21
-6.69908
0
LINE
8
BLACK
6
CONTINUOUS
10
3.63282
20
-6.69908
11
3.62907
21
-6.70283
0
LINE
8
BLACK
6
CONTINUOUS
10
3.62907
20
-6.70283
11
3.62157
21
-6.70658
0
LINE
8
BLACK
6
CONTINUOUS
10
3.62157
20
-6.70658
11
3.61032
21
-6.70658
0
LINE
8
BLACK
6
CONTINUOUS
10
3.65906
20
-6.65409
11
3.68906
21
-6.65409
0
LINE
8
BLACK
6
CONTINUOUS
10
3.67031
20
-6.62784
11
3.67031
21
-6.69533
0
LINE
8
BLACK
6
CONTINUOUS
10
3.67031
20
-6.69533
11
3.67406
21
-6.70283
0
LINE
8
BLACK
6
CONTINUOUS
10
3.67406
20
-6.70283
11
3.68156
21
-6.70658
0
LINE
8
BLACK
6
CONTINUOUS
10
3.68156
20
-6.70658
11
3.68906
21
-6.70658
0
LINE
8
BLACK
6
CONTINUOUS
10
3.7753
20
-6.65409
11
3.7753
21
-6.73283
0
LINE
8
BLACK
6
CONTINUOUS
10
3.7753
20
-6.65784
11
3.7828
21
-6.65409
0
LINE
8
BLACK
6
CONTINUOUS
10
3.7828
20
-6.65409
11
3.79779
21
-6.65409
0
LINE
8
BLACK
6
CONTINUOUS
10
3.79779
20
-6.65409
11
3.80529
21
-6.65784
0
LINE
8
BLACK
6
CONTINUOUS
10
3.80529
20
-6.65784
11
3.80904
21
-6.66159
0
LINE
8
BLACK
6
CONTINUOUS
10
3.80904
20
-6.66159
11
3.81279
21
-6.66908
0
LINE
8
BLACK
6
CONTINUOUS
10
3.81279
20
-6.66908
11
3.81279
21
-6.69158
0
LINE
8
BLACK
6
CONTINUOUS
10
3.81279
20
-6.69158
11
3.80904
21
-6.69908
0
LINE
8
BLACK
6
CONTINUOUS
10
3.80904
20
-6.69908
11
3.80529
21
-6.70283
0
LINE
8
BLACK
6
CONTINUOUS
10
3.80529
20
-6.70283
11
3.79779
21
-6.70658
0
LINE
8
BLACK
6
CONTINUOUS
10
3.79779
20
-6.70658
11
3.7828
21
-6.70658
0
LINE
8
BLACK
6
CONTINUOUS
10
3.7828
20
-6.70658
11
3.7753
21
-6.70283
0
LINE
8
BLACK
6
CONTINUOUS
10
3.85779
20
-6.70658
11
3.85029
21
-6.70283
0
LINE
8
BLACK
6
CONTINUOUS
10
3.85029
20
-6.70283
11
3.84654
21
-6.69533
0
LINE
8
BLACK
6
CONTINUOUS
10
3.84654
20
-6.69533
11
3.84654
21
-6.62784
0
LINE
8
BLACK
6
CONTINUOUS
10
3.92153
20
-6.70658
11
3.92153
21
-6.66534
0
LINE
8
BLACK
6
CONTINUOUS
10
3.92153
20
-6.66534
11
3.91778
21
-6.65784
0
LINE
8
BLACK
6
CONTINUOUS
10
3.91778
20
-6.65784
11
3.91028
21
-6.65409
0
LINE
8
BLACK
6
CONTINUOUS
10
3.91028
20
-6.65409
11
3.89528
21
-6.65409
0
LINE
8
BLACK
6
CONTINUOUS
10
3.89528
20
-6.65409
11
3.88778
21
-6.65784
0
LINE
8
BLACK
6
CONTINUOUS
10
3.92153
20
-6.70283
11
3.91403
21
-6.70658
0
LINE
8
BLACK
6
CONTINUOUS
10
3.91403
20
-6.70658
11
3.89528
21
-6.70658
0
LINE
8
BLACK
6
CONTINUOUS
10
3.89528
20
-6.70658
11
3.88778
21
-6.70283
0
LINE
8
BLACK
6
CONTINUOUS
10
3.88778
20
-6.70283
11
3.88403
21
-6.69533
0
LINE
8
BLACK
6
CONTINUOUS
10
3.88403
20
-6.69533
11
3.88403
21
-6.68783
0
LINE
8
BLACK
6
CONTINUOUS
10
3.88403
20
-6.68783
11
3.88778
21
-6.68033
0
LINE
8
BLACK
6
CONTINUOUS
10
3.88778
20
-6.68033
11
3.89528
21
-6.67658
0
LINE
8
BLACK
6
CONTINUOUS
10
3.89528
20
-6.67658
11
3.91403
21
-6.67658
0
LINE
8
BLACK
6
CONTINUOUS
10
3.91403
20
-6.67658
11
3.92153
21
-6.67283
0
LINE
8
BLACK
6
CONTINUOUS
10
3.94778
20
-6.65409
11
3.97777
21
-6.65409
0
LINE
8
BLACK
6
CONTINUOUS
10
3.95902
20
-6.62784
11
3.95902
21
-6.69533
0
LINE
8
BLACK
6
CONTINUOUS
10
3.95902
20
-6.69533
11
3.96277
21
-6.70283
0
LINE
8
BLACK
6
CONTINUOUS
10
3.96277
20
-6.70283
11
3.97027
21
-6.70658
0
LINE
8
BLACK
6
CONTINUOUS
10
3.97027
20
-6.70658
11
3.97777
21
-6.70658
0
LINE
8
BLACK
6
CONTINUOUS
10
4.03402
20
-6.70283
11
4.02652
21
-6.70658
0
LINE
8
BLACK
6
CONTINUOUS
10
4.02652
20
-6.70658
11
4.01152
21
-6.70658
0
LINE
8
BLACK
6
CONTINUOUS
10
4.01152
20
-6.70658
11
4.00402
21
-6.70283
0
LINE
8
BLACK
6
CONTINUOUS
10
4.00402
20
-6.70283
11
4.00027
21
-6.69533
0
LINE
8
BLACK
6
CONTINUOUS
10
4.00027
20
-6.69533
11
4.00027
21
-6.66534
0
LINE
8
BLACK
6
CONTINUOUS
10
4.00027
20
-6.66534
11
4.00402
21
-6.65784
0
LINE
8
BLACK
6
CONTINUOUS
10
4.00402
20
-6.65784
11
4.01152
21
-6.65409
0
LINE
8
BLACK
6
CONTINUOUS
10
4.01152
20
-6.65409
11
4.02652
21
-6.65409
0
LINE
8
BLACK
6
CONTINUOUS
10
4.02652
20
-6.65409
11
4.03402
21
-6.65784
0
LINE
8
BLACK
6
CONTINUOUS
10
4.03402
20
-6.65784
11
4.03776
21
-6.66534
0
LINE
8
BLACK
6
CONTINUOUS
10
4.03776
20
-6.66534
11
4.03776
21
-6.67283
0
LINE
8
BLACK
6
CONTINUOUS
10
4.03776
20
-6.67283
11
4.00027
21
-6.68033
0
LINE
8
BLACK
6
CONTINUOUS
10
4.10526
20
-6.70658
11
4.10526
21
-6.62784
0
LINE
8
BLACK
6
CONTINUOUS
10
4.10526
20
-6.70283
11
4.09776
21
-6.70658
0
LINE
8
BLACK
6
CONTINUOUS
10
4.09776
20
-6.70658
11
4.08276
21
-6.70658
0
LINE
8
BLACK
6
CONTINUOUS
10
4.08276
20
-6.70658
11
4.07526
21
-6.70283
0
LINE
8
BLACK
6
CONTINUOUS
10
4.07526
20
-6.70283
11
4.07151
21
-6.69908
0
LINE
8
BLACK
6
CONTINUOUS
10
4.07151
20
-6.69908
11
4.06776
21
-6.69158
0
LINE
8
BLACK
6
CONTINUOUS
10
4.06776
20
-6.69158
11
4.06776
21
-6.66908
0
LINE
8
BLACK
6
CONTINUOUS
10
4.06776
20
-6.66908
11
4.07151
21
-6.66159
0
LINE
8
BLACK
6
CONTINUOUS
10
4.07151
20
-6.66159
11
4.07526
21
-6.65784
0
LINE
8
BLACK
6
CONTINUOUS
10
4.07526
20
-6.65784
11
4.08276
21
-6.65409
0
LINE
8
BLACK
6
CONTINUOUS
10
4.08276
20
-6.65409
11
4.09776
21
-6.65409
0
LINE
8
BLACK
6
CONTINUOUS
10
4.09776
20
-6.65409
11
4.10526
21
-6.65784
0
LINE
8
BLACK
6
CONTINUOUS
10
4.13525
20
-6.73658
11
4.139
21
-6.73283
0
LINE
8
BLACK
6
CONTINUOUS
10
4.139
20
-6.73283
11
4.1465
21
-6.72158
0
LINE
8
BLACK
6
CONTINUOUS
10
4.1465
20
-6.72158
11
4.15025
21
-6.71408
0
LINE
8
BLACK
6
CONTINUOUS
10
4.15025
20
-6.71408
11
4.154
21
-6.70283
0
LINE
8
BLACK
6
CONTINUOUS
10
4.154
20
-6.70283
11
4.15775
21
-6.68408
0
LINE
8
BLACK
6
CONTINUOUS
10
4.15775
20
-6.68408
11
4.15775
21
-6.66908
0
LINE
8
BLACK
6
CONTINUOUS
10
4.15775
20
-6.66908
11
4.154
21
-6.65034
0
LINE
8
BLACK
6
CONTINUOUS
10
4.154
20
-6.65034
11
4.15025
21
-6.63909
0
LINE
8
BLACK
6
CONTINUOUS
10
4.15025
20
-6.63909
11
4.1465
21
-6.63159
0
LINE
8
BLACK
6
CONTINUOUS
10
4.1465
20
-6.63159
11
4.139
21
-6.62034
0
LINE
8
BLACK
6
CONTINUOUS
10
4.139
20
-6.62034
11
4.13525
21
-6.61659
0
LINE
8
BLACK
6
CONTINUOUS
10
1.38888
20
-6.81454
11
1.38888
21
-6.75887
0
LINE
8
BLACK
6
CONTINUOUS
10
1.38888
20
-6.75887
11
1.3332
21
-6.75887
0
LINE
8
BLACK
6
CONTINUOUS
10
1.3332
20
-6.75887
11
1.3332
21
-6.81454
0
LINE
8
BLACK
6
CONTINUOUS
10
1.3332
20
-6.81454
11
1.38888
21
-6.81454
0
LINE
8
BLACK
6
CONTINUOUS
10
1.49933
20
-6.75148
11
1.50308
21
-6.74773
0
LINE
8
BLACK
6
CONTINUOUS
10
1.50308
20
-6.74773
11
1.51058
21
-6.74398
0
LINE
8
BLACK
6
CONTINUOUS
10
1.51058
20
-6.74398
11
1.52933
21
-6.74398
0
LINE
8
BLACK
6
CONTINUOUS
10
1.52933
20
-6.74398
11
1.53683
21
-6.74773
0
LINE
8
BLACK
6
CONTINUOUS
10
1.53683
20
-6.74773
11
1.54058
21
-6.75148
0
LINE
8
BLACK
6
CONTINUOUS
10
1.54058
20
-6.75148
11
1.54433
21
-6.75898
0
LINE
8
BLACK
6
CONTINUOUS
10
1.54433
20
-6.75898
11
1.54433
21
-6.76648
0
LINE
8
BLACK
6
CONTINUOUS
10
1.54433
20
-6.76648
11
1.54058
21
-6.77773
0
LINE
8
BLACK
6
CONTINUOUS
10
1.54058
20
-6.77773
11
1.49558
21
-6.82272
0
LINE
8
BLACK
6
CONTINUOUS
10
1.49558
20
-6.82272
11
1.54433
21
-6.82272
0
LINE
8
BLACK
6
CONTINUOUS
10
1.57807
20
-6.81522
11
1.58182
21
-6.81897
0
LINE
8
BLACK
6
CONTINUOUS
10
1.58182
20
-6.81897
11
1.57807
21
-6.82272
0
LINE
8
BLACK
6
CONTINUOUS
10
1.57807
20
-6.82272
11
1.57432
21
-6.81897
0
LINE
8
BLACK
6
CONTINUOUS
10
1.57432
20
-6.81897
11
1.57807
21
-6.81522
0
LINE
8
BLACK
6
CONTINUOUS
10
1.57807
20
-6.81522
11
1.57807
21
-6.82272
0
LINE
8
BLACK
6
CONTINUOUS
10
1.61182
20
-6.75148
11
1.61557
21
-6.74773
0
LINE
8
BLACK
6
CONTINUOUS
10
1.61557
20
-6.74773
11
1.62307
21
-6.74398
0
LINE
8
BLACK
6
CONTINUOUS
10
1.62307
20
-6.74398
11
1.64181
21
-6.74398
0
LINE
8
BLACK
6
CONTINUOUS
10
1.64181
20
-6.74398
11
1.64931
21
-6.74773
0
LINE
8
BLACK
6
CONTINUOUS
10
1.64931
20
-6.74773
11
1.65306
21
-6.75148
0
LINE
8
BLACK
6
CONTINUOUS
10
1.65306
20
-6.75148
11
1.65681
21
-6.75898
0
LINE
8
BLACK
6
CONTINUOUS
10
1.65681
20
-6.75898
11
1.65681
21
-6.76648
0
LINE
8
BLACK
6
CONTINUOUS
10
1.65681
20
-6.76648
11
1.65306
21
-6.77773
0
LINE
8
BLACK
6
CONTINUOUS
10
1.65306
20
-6.77773
11
1.60807
21
-6.82272
0
LINE
8
BLACK
6
CONTINUOUS
10
1.60807
20
-6.82272
11
1.65681
21
-6.82272
0
LINE
8
BLACK
6
CONTINUOUS
10
1.70556
20
-6.74398
11
1.71306
21
-6.74398
0
LINE
8
BLACK
6
CONTINUOUS
10
1.71306
20
-6.74398
11
1.72055
21
-6.74773
0
LINE
8
BLACK
6
CONTINUOUS
10
1.72055
20
-6.74773
11
1.7243
21
-6.75148
0
LINE
8
BLACK
6
CONTINUOUS
10
1.7243
20
-6.75148
11
1.72805
21
-6.75898
0
LINE
8
BLACK
6
CONTINUOUS
10
1.72805
20
-6.75898
11
1.7318
21
-6.77398
0
LINE
8
BLACK
6
CONTINUOUS
10
1.7318
20
-6.77398
11
1.7318
21
-6.79273
0
LINE
8
BLACK
6
CONTINUOUS
10
1.7318
20
-6.79273
11
1.72805
21
-6.80772
0
LINE
8
BLACK
6
CONTINUOUS
10
1.72805
20
-6.80772
11
1.7243
21
-6.81522
0
LINE
8
BLACK
6
CONTINUOUS
10
1.7243
20
-6.81522
11
1.72055
21
-6.81897
0
LINE
8
BLACK
6
CONTINUOUS
10
1.72055
20
-6.81897
11
1.71306
21
-6.82272
0
LINE
8
BLACK
6
CONTINUOUS
10
1.71306
20
-6.82272
11
1.70556
21
-6.82272
0
LINE
8
BLACK
6
CONTINUOUS
10
1.70556
20
-6.82272
11
1.69806
21
-6.81897
0
LINE
8
BLACK
6
CONTINUOUS
10
1.69806
20
-6.81897
11
1.69431
21
-6.81522
0
LINE
8
BLACK
6
CONTINUOUS
10
1.69431
20
-6.81522
11
1.69056
21
-6.80772
0
LINE
8
BLACK
6
CONTINUOUS
10
1.69056
20
-6.80772
11
1.68681
21
-6.79273
0
LINE
8
BLACK
6
CONTINUOUS
10
1.68681
20
-6.79273
11
1.68681
21
-6.77398
0
LINE
8
BLACK
6
CONTINUOUS
10
1.68681
20
-6.77398
11
1.69056
21
-6.75898
0
LINE
8
BLACK
6
CONTINUOUS
10
1.69056
20
-6.75898
11
1.69431
21
-6.75148
0
LINE
8
BLACK
6
CONTINUOUS
10
1.69431
20
-6.75148
11
1.69806
21
-6.74773
0
LINE
8
BLACK
6
CONTINUOUS
10
1.69806
20
-6.74773
11
1.70556
21
-6.74398
0
LINE
8
BLACK
6
CONTINUOUS
10
1.78055
20
-6.74398
11
1.78805
21
-6.74398
0
LINE
8
BLACK
6
CONTINUOUS
10
1.78805
20
-6.74398
11
1.79554
21
-6.74773
0
LINE
8
BLACK
6
CONTINUOUS
10
1.79554
20
-6.74773
11
1.79929
21
-6.75148
0
LINE
8
BLACK
6
CONTINUOUS
10
1.79929
20
-6.75148
11
1.80304
21
-6.75898
0
LINE
8
BLACK
6
CONTINUOUS
10
1.80304
20
-6.75898
11
1.80679
21
-6.77398
0
LINE
8
BLACK
6
CONTINUOUS
10
1.80679
20
-6.77398
11
1.80679
21
-6.79273
0
LINE
8
BLACK
6
CONTINUOUS
10
1.80679
20
-6.79273
11
1.80304
21
-6.80772
0
LINE
8
BLACK
6
CONTINUOUS
10
1.80304
20
-6.80772
11
1.79929
21
-6.81522
0
LINE
8
BLACK
6
CONTINUOUS
10
1.79929
20
-6.81522
11
1.79554
21
-6.81897
0
LINE
8
BLACK
6
CONTINUOUS
10
1.79554
20
-6.81897
11
1.78805
21
-6.82272
0
LINE
8
BLACK
6
CONTINUOUS
10
1.78805
20
-6.82272
11
1.78055
21
-6.82272
0
LINE
8
BLACK
6
CONTINUOUS
10
1.78055
20
-6.82272
11
1.77305
21
-6.81897
0
LINE
8
BLACK
6
CONTINUOUS
10
1.77305
20
-6.81897
11
1.7693
21
-6.81522
0
LINE
8
BLACK
6
CONTINUOUS
10
1.7693
20
-6.81522
11
1.76555
21
-6.80772
0
LINE
8
BLACK
6
CONTINUOUS
10
1.76555
20
-6.80772
11
1.7618
21
-6.79273
0
LINE
8
BLACK
6
CONTINUOUS
10
1.7618
20
-6.79273
11
1.7618
21
-6.77398
0
LINE
8
BLACK
6
CONTINUOUS
10
1.7618
20
-6.77398
11
1.76555
21
-6.75898
0
LINE
8
BLACK
6
CONTINUOUS
10
1.76555
20
-6.75898
11
1.7693
21
-6.75148
0
LINE
8
BLACK
6
CONTINUOUS
10
1.7693
20
-6.75148
11
1.77305
21
-6.74773
0
LINE
8
BLACK
6
CONTINUOUS
10
1.77305
20
-6.74773
11
1.78055
21
-6.74398
0
LINE
8
BLACK
6
CONTINUOUS
10
1.84054
20
-6.82272
11
1.84054
21
-6.77023
0
LINE
8
BLACK
6
CONTINUOUS
10
1.84054
20
-6.77773
11
1.84429
21
-6.77398
0
LINE
8
BLACK
6
CONTINUOUS
10
1.84429
20
-6.77398
11
1.85179
21
-6.77023
0
LINE
8
BLACK
6
CONTINUOUS
10
1.85179
20
-6.77023
11
1.86304
21
-6.77023
0
LINE
8
BLACK
6
CONTINUOUS
10
1.86304
20
-6.77023
11
1.87054
21
-6.77398
0
LINE
8
BLACK
6
CONTINUOUS
10
1.87054
20
-6.77398
11
1.87429
21
-6.78148
0
LINE
8
BLACK
6
CONTINUOUS
10
1.87429
20
-6.78148
11
1.87429
21
-6.82272
0
LINE
8
BLACK
6
CONTINUOUS
10
1.87429
20
-6.78148
11
1.87803
21
-6.77398
0
LINE
8
BLACK
6
CONTINUOUS
10
1.87803
20
-6.77398
11
1.88553
21
-6.77023
0
LINE
8
BLACK
6
CONTINUOUS
10
1.88553
20
-6.77023
11
1.89678
21
-6.77023
0
LINE
8
BLACK
6
CONTINUOUS
10
1.89678
20
-6.77023
11
1.90428
21
-6.77398
0
LINE
8
BLACK
6
CONTINUOUS
10
1.90428
20
-6.77398
11
1.90803
21
-6.78148
0
LINE
8
BLACK
6
CONTINUOUS
10
1.90803
20
-6.78148
11
1.90803
21
-6.82272
0
LINE
8
BLACK
6
CONTINUOUS
10
1.94553
20
-6.82272
11
1.94553
21
-6.77023
0
LINE
8
BLACK
6
CONTINUOUS
10
1.94553
20
-6.77773
11
1.94928
21
-6.77398
0
LINE
8
BLACK
6
CONTINUOUS
10
1.94928
20
-6.77398
11
1.95677
21
-6.77023
0
LINE
8
BLACK
6
CONTINUOUS
10
1.95677
20
-6.77023
11
1.96802
21
-6.77023
0
LINE
8
BLACK
6
CONTINUOUS
10
1.96802
20
-6.77023
11
1.97552
21
-6.77398
0
LINE
8
BLACK
6
CONTINUOUS
10
1.97552
20
-6.77398
11
1.97927
21
-6.78148
0
LINE
8
BLACK
6
CONTINUOUS
10
1.97927
20
-6.78148
11
1.97927
21
-6.82272
0
LINE
8
BLACK
6
CONTINUOUS
10
1.97927
20
-6.78148
11
1.98302
21
-6.77398
0
LINE
8
BLACK
6
CONTINUOUS
10
1.98302
20
-6.77398
11
1.99052
21
-6.77023
0
LINE
8
BLACK
6
CONTINUOUS
10
1.99052
20
-6.77023
11
2.00177
21
-6.77023
0
LINE
8
BLACK
6
CONTINUOUS
10
2.00177
20
-6.77023
11
2.00927
21
-6.77398
0
LINE
8
BLACK
6
CONTINUOUS
10
2.00927
20
-6.77398
11
2.01302
21
-6.78148
0
LINE
8
BLACK
6
CONTINUOUS
10
2.01302
20
-6.78148
11
2.01302
21
-6.82272
0
LINE
8
BLACK
6
CONTINUOUS
10
2.16675
20
-6.74023
11
2.09926
21
-6.84147
0
LINE
8
BLACK
6
CONTINUOUS
10
2.26799
20
-6.74398
11
2.27548
21
-6.74398
0
LINE
8
BLACK
6
CONTINUOUS
10
2.27548
20
-6.74398
11
2.28298
21
-6.74773
0
LINE
8
BLACK
6
CONTINUOUS
10
2.28298
20
-6.74773
11
2.28673
21
-6.75148
0
LINE
8
BLACK
6
CONTINUOUS
10
2.28673
20
-6.75148
11
2.29048
21
-6.75898
0
LINE
8
BLACK
6
CONTINUOUS
10
2.29048
20
-6.75898
11
2.29423
21
-6.77398
0
LINE
8
BLACK
6
CONTINUOUS
10
2.29423
20
-6.77398
11
2.29423
21
-6.79273
0
LINE
8
BLACK
6
CONTINUOUS
10
2.29423
20
-6.79273
11
2.29048
21
-6.80772
0
LINE
8
BLACK
6
CONTINUOUS
10
2.29048
20
-6.80772
11
2.28673
21
-6.81522
0
LINE
8
BLACK
6
CONTINUOUS
10
2.28673
20
-6.81522
11
2.28298
21
-6.81897
0
LINE
8
BLACK
6
CONTINUOUS
10
2.28298
20
-6.81897
11
2.27548
21
-6.82272
0
LINE
8
BLACK
6
CONTINUOUS
10
2.27548
20
-6.82272
11
2.26799
21
-6.82272
0
LINE
8
BLACK
6
CONTINUOUS
10
2.26799
20
-6.82272
11
2.26049
21
-6.81897
0
LINE
8
BLACK
6
CONTINUOUS
10
2.26049
20
-6.81897
11
2.25674
21
-6.81522
0
LINE
8
BLACK
6
CONTINUOUS
10
2.25674
20
-6.81522
11
2.25299
21
-6.80772
0
LINE
8
BLACK
6
CONTINUOUS
10
2.25299
20
-6.80772
11
2.24924
21
-6.79273
0
LINE
8
BLACK
6
CONTINUOUS
10
2.24924
20
-6.79273
11
2.24924
21
-6.77398
0
LINE
8
BLACK
6
CONTINUOUS
10
2.24924
20
-6.77398
11
2.25299
21
-6.75898
0
LINE
8
BLACK
6
CONTINUOUS
10
2.25299
20
-6.75898
11
2.25674
21
-6.75148
0
LINE
8
BLACK
6
CONTINUOUS
10
2.25674
20
-6.75148
11
2.26049
21
-6.74773
0
LINE
8
BLACK
6
CONTINUOUS
10
2.26049
20
-6.74773
11
2.26799
21
-6.74398
0
LINE
8
BLACK
6
CONTINUOUS
10
2.32798
20
-6.81522
11
2.33173
21
-6.81897
0
LINE
8
BLACK
6
CONTINUOUS
10
2.33173
20
-6.81897
11
2.32798
21
-6.82272
0
LINE
8
BLACK
6
CONTINUOUS
10
2.32798
20
-6.82272
11
2.32423
21
-6.81897
0
LINE
8
BLACK
6
CONTINUOUS
10
2.32423
20
-6.81897
11
2.32798
21
-6.81522
0
LINE
8
BLACK
6
CONTINUOUS
10
2.32798
20
-6.81522
11
2.32798
21
-6.82272
0
LINE
8
BLACK
6
CONTINUOUS
10
2.38047
20
-6.74398
11
2.38797
21
-6.74398
0
LINE
8
BLACK
6
CONTINUOUS
10
2.38797
20
-6.74398
11
2.39547
21
-6.74773
0
LINE
8
BLACK
6
CONTINUOUS
10
2.39547
20
-6.74773
11
2.39922
21
-6.75148
0
LINE
8
BLACK
6
CONTINUOUS
10
2.39922
20
-6.75148
11
2.40297
21
-6.75898
0
LINE
8
BLACK
6
CONTINUOUS
10
2.40297
20
-6.75898
11
2.40672
21
-6.77398
0
LINE
8
BLACK
6
CONTINUOUS
10
2.40672
20
-6.77398
11
2.40672
21
-6.79273
0
LINE
8
BLACK
6
CONTINUOUS
10
2.40672
20
-6.79273
11
2.40297
21
-6.80772
0
LINE
8
BLACK
6
CONTINUOUS
10
2.40297
20
-6.80772
11
2.39922
21
-6.81522
0
LINE
8
BLACK
6
CONTINUOUS
10
2.39922
20
-6.81522
11
2.39547
21
-6.81897
0
LINE
8
BLACK
6
CONTINUOUS
10
2.39547
20
-6.81897
11
2.38797
21
-6.82272
0
LINE
8
BLACK
6
CONTINUOUS
10
2.38797
20
-6.82272
11
2.38047
21
-6.82272
0
LINE
8
BLACK
6
CONTINUOUS
10
2.38047
20
-6.82272
11
2.37297
21
-6.81897
0
LINE
8
BLACK
6
CONTINUOUS
10
2.37297
20
-6.81897
11
2.36922
21
-6.81522
0
LINE
8
BLACK
6
CONTINUOUS
10
2.36922
20
-6.81522
11
2.36547
21
-6.80772
0
LINE
8
BLACK
6
CONTINUOUS
10
2.36547
20
-6.80772
11
2.36172
21
-6.79273
0
LINE
8
BLACK
6
CONTINUOUS
10
2.36172
20
-6.79273
11
2.36172
21
-6.77398
0
LINE
8
BLACK
6
CONTINUOUS
10
2.36172
20
-6.77398
11
2.36547
21
-6.75898
0
LINE
8
BLACK
6
CONTINUOUS
10
2.36547
20
-6.75898
11
2.36922
21
-6.75148
0
LINE
8
BLACK
6
CONTINUOUS
10
2.36922
20
-6.75148
11
2.37297
21
-6.74773
0
LINE
8
BLACK
6
CONTINUOUS
10
2.37297
20
-6.74773
11
2.38047
21
-6.74398
0
LINE
8
BLACK
6
CONTINUOUS
10
2.45171
20
-6.77773
11
2.44421
21
-6.77398
0
LINE
8
BLACK
6
CONTINUOUS
10
2.44421
20
-6.77398
11
2.44046
21
-6.77023
0
LINE
8
BLACK
6
CONTINUOUS
10
2.44046
20
-6.77023
11
2.43671
21
-6.76273
0
LINE
8
BLACK
6
CONTINUOUS
10
2.43671
20
-6.76273
11
2.43671
21
-6.75898
0
LINE
8
BLACK
6
CONTINUOUS
10
2.43671
20
-6.75898
11
2.44046
21
-6.75148
0
LINE
8
BLACK
6
CONTINUOUS
10
2.44046
20
-6.75148
11
2.44421
21
-6.74773
0
LINE
8
BLACK
6
CONTINUOUS
10
2.44421
20
-6.74773
11
2.45171
21
-6.74398
0
LINE
8
BLACK
6
CONTINUOUS
10
2.45171
20
-6.74398
11
2.46671
21
-6.74398
0
LINE
8
BLACK
6
CONTINUOUS
10
2.46671
20
-6.74398
11
2.47421
21
-6.74773
0
LINE
8
BLACK
6
CONTINUOUS
10
2.47421
20
-6.74773
11
2.47796
21
-6.75148
0
LINE
8
BLACK
6
CONTINUOUS
10
2.47796
20
-6.75148
11
2.48171
21
-6.75898
0
LINE
8
BLACK
6
CONTINUOUS
10
2.48171
20
-6.75898
11
2.48171
21
-6.76273
0
LINE
8
BLACK
6
CONTINUOUS
10
2.48171
20
-6.76273
11
2.47796
21
-6.77023
0
LINE
8
BLACK
6
CONTINUOUS
10
2.47796
20
-6.77023
11
2.47421
21
-6.77398
0
LINE
8
BLACK
6
CONTINUOUS
10
2.47421
20
-6.77398
11
2.46671
21
-6.77773
0
LINE
8
BLACK
6
CONTINUOUS
10
2.46671
20
-6.77773
11
2.45171
21
-6.77773
0
LINE
8
BLACK
6
CONTINUOUS
10
2.45171
20
-6.77773
11
2.44421
21
-6.78148
0
LINE
8
BLACK
6
CONTINUOUS
10
2.44421
20
-6.78148
11
2.44046
21
-6.78523
0
LINE
8
BLACK
6
CONTINUOUS
10
2.44046
20
-6.78523
11
2.43671
21
-6.79273
0
LINE
8
BLACK
6
CONTINUOUS
10
2.43671
20
-6.79273
11
2.43671
21
-6.80772
0
LINE
8
BLACK
6
CONTINUOUS
10
2.43671
20
-6.80772
11
2.44046
21
-6.81522
0
LINE
8
BLACK
6
CONTINUOUS
10
2.44046
20
-6.81522
11
2.44421
21
-6.81897
0
LINE
8
BLACK
6
CONTINUOUS
10
2.44421
20
-6.81897
11
2.45171
21
-6.82272
0
LINE
8
BLACK
6
CONTINUOUS
10
2.45171
20
-6.82272
11
2.46671
21
-6.82272
0
LINE
8
BLACK
6
CONTINUOUS
10
2.46671
20
-6.82272
11
2.47421
21
-6.81897
0
LINE
8
BLACK
6
CONTINUOUS
10
2.47421
20
-6.81897
11
2.47796
21
-6.81522
0
LINE
8
BLACK
6
CONTINUOUS
10
2.47796
20
-6.81522
11
2.48171
21
-6.80772
0
LINE
8
BLACK
6
CONTINUOUS
10
2.48171
20
-6.80772
11
2.48171
21
-6.79273
0
LINE
8
BLACK
6
CONTINUOUS
10
2.48171
20
-6.79273
11
2.47796
21
-6.78523
0
LINE
8
BLACK
6
CONTINUOUS
10
2.47796
20
-6.78523
11
2.47421
21
-6.78148
0
LINE
8
BLACK
6
CONTINUOUS
10
2.47421
20
-6.78148
11
2.46671
21
-6.77773
0
LINE
8
BLACK
6
CONTINUOUS
10
2.5492
20
-6.74398
11
2.5342
21
-6.74398
0
LINE
8
BLACK
6
CONTINUOUS
10
2.5342
20
-6.74398
11
2.5267
21
-6.74773
0
LINE
8
BLACK
6
CONTINUOUS
10
2.5267
20
-6.74773
11
2.52295
21
-6.75148
0
LINE
8
BLACK
6
CONTINUOUS
10
2.52295
20
-6.75148
11
2.51545
21
-6.76273
0
LINE
8
BLACK
6
CONTINUOUS
10
2.51545
20
-6.76273
11
2.51171
21
-6.77773
0
LINE
8
BLACK
6
CONTINUOUS
10
2.51171
20
-6.77773
11
2.51171
21
-6.80772
0
LINE
8
BLACK
6
CONTINUOUS
10
2.51171
20
-6.80772
11
2.51545
21
-6.81522
0
LINE
8
BLACK
6
CONTINUOUS
10
2.51545
20
-6.81522
11
2.5192
21
-6.81897
0
LINE
8
BLACK
6
CONTINUOUS
10
2.5192
20
-6.81897
11
2.5267
21
-6.82272
0
LINE
8
BLACK
6
CONTINUOUS
10
2.5267
20
-6.82272
11
2.5417
21
-6.82272
0
LINE
8
BLACK
6
CONTINUOUS
10
2.5417
20
-6.82272
11
2.5492
21
-6.81897
0
LINE
8
BLACK
6
CONTINUOUS
10
2.5492
20
-6.81897
11
2.55295
21
-6.81522
0
LINE
8
BLACK
6
CONTINUOUS
10
2.55295
20
-6.81522
11
2.5567
21
-6.80772
0
LINE
8
BLACK
6
CONTINUOUS
10
2.5567
20
-6.80772
11
2.5567
21
-6.78898
0
LINE
8
BLACK
6
CONTINUOUS
10
2.5567
20
-6.78898
11
2.55295
21
-6.78148
0
LINE
8
BLACK
6
CONTINUOUS
10
2.55295
20
-6.78148
11
2.5492
21
-6.77773
0
LINE
8
BLACK
6
CONTINUOUS
10
2.5492
20
-6.77773
11
2.5417
21
-6.77398
0
LINE
8
BLACK
6
CONTINUOUS
10
2.5417
20
-6.77398
11
2.5267
21
-6.77398
0
LINE
8
BLACK
6
CONTINUOUS
10
2.5267
20
-6.77398
11
2.5192
21
-6.77773
0
LINE
8
BLACK
6
CONTINUOUS
10
2.5192
20
-6.77773
11
2.51545
21
-6.78148
0
LINE
8
BLACK
6
CONTINUOUS
10
2.51545
20
-6.78148
11
2.51171
21
-6.78898
0
LINE
8
BLACK
6
CONTINUOUS
10
2.62419
20
-6.74398
11
2.60919
21
-6.74398
0
LINE
8
BLACK
6
CONTINUOUS
10
2.60919
20
-6.74398
11
2.60169
21
-6.74773
0
LINE
8
BLACK
6
CONTINUOUS
10
2.60169
20
-6.74773
11
2.59794
21
-6.75148
0
LINE
8
BLACK
6
CONTINUOUS
10
2.59794
20
-6.75148
11
2.59045
21
-6.76273
0
LINE
8
BLACK
6
CONTINUOUS
10
2.59045
20
-6.76273
11
2.5867
21
-6.77773
0
LINE
8
BLACK
6
CONTINUOUS
10
2.5867
20
-6.77773
11
2.5867
21
-6.80772
0
LINE
8
BLACK
6
CONTINUOUS
10
2.5867
20
-6.80772
11
2.59045
21
-6.81522
0
LINE
8
BLACK
6
CONTINUOUS
10
2.59045
20
-6.81522
11
2.5942
21
-6.81897
0
LINE
8
BLACK
6
CONTINUOUS
10
2.5942
20
-6.81897
11
2.60169
21
-6.82272
0
LINE
8
BLACK
6
CONTINUOUS
10
2.60169
20
-6.82272
11
2.61669
21
-6.82272
0
LINE
8
BLACK
6
CONTINUOUS
10
2.61669
20
-6.82272
11
2.62419
21
-6.81897
0
LINE
8
BLACK
6
CONTINUOUS
10
2.62419
20
-6.81897
11
2.62794
21
-6.81522
0
LINE
8
BLACK
6
CONTINUOUS
10
2.62794
20
-6.81522
11
2.63169
21
-6.80772
0
LINE
8
BLACK
6
CONTINUOUS
10
2.63169
20
-6.80772
11
2.63169
21
-6.78898
0
LINE
8
BLACK
6
CONTINUOUS
10
2.63169
20
-6.78898
11
2.62794
21
-6.78148
0
LINE
8
BLACK
6
CONTINUOUS
10
2.62794
20
-6.78148
11
2.62419
21
-6.77773
0
LINE
8
BLACK
6
CONTINUOUS
10
2.62419
20
-6.77773
11
2.61669
21
-6.77398
0
LINE
8
BLACK
6
CONTINUOUS
10
2.61669
20
-6.77398
11
2.60169
21
-6.77398
0
LINE
8
BLACK
6
CONTINUOUS
10
2.60169
20
-6.77398
11
2.5942
21
-6.77773
0
LINE
8
BLACK
6
CONTINUOUS
10
2.5942
20
-6.77773
11
2.59045
21
-6.78148
0
LINE
8
BLACK
6
CONTINUOUS
10
2.59045
20
-6.78148
11
2.5867
21
-6.78898
0
LINE
8
BLACK
6
CONTINUOUS
10
2.66169
20
-6.74398
11
2.66169
21
-6.75898
0
LINE
8
BLACK
6
CONTINUOUS
10
2.69168
20
-6.74398
11
2.69168
21
-6.75898
0
LINE
8
BLACK
6
CONTINUOUS
10
2.80792
20
-6.85272
11
2.80417
21
-6.84897
0
LINE
8
BLACK
6
CONTINUOUS
10
2.80417
20
-6.84897
11
2.79667
21
-6.83772
0
LINE
8
BLACK
6
CONTINUOUS
10
2.79667
20
-6.83772
11
2.79292
21
-6.83022
0
LINE
8
BLACK
6
CONTINUOUS
10
2.79292
20
-6.83022
11
2.78917
21
-6.81897
0
LINE
8
BLACK
6
CONTINUOUS
10
2.78917
20
-6.81897
11
2.78542
21
-6.80022
0
LINE
8
BLACK
6
CONTINUOUS
10
2.78542
20
-6.80022
11
2.78542
21
-6.78523
0
LINE
8
BLACK
6
CONTINUOUS
10
2.78542
20
-6.78523
11
2.78917
21
-6.76648
0
LINE
8
BLACK
6
CONTINUOUS
10
2.78917
20
-6.76648
11
2.79292
21
-6.75523
0
LINE
8
BLACK
6
CONTINUOUS
10
2.79292
20
-6.75523
11
2.79667
21
-6.74773
0
LINE
8
BLACK
6
CONTINUOUS
10
2.79667
20
-6.74773
11
2.80417
21
-6.73648
0
LINE
8
BLACK
6
CONTINUOUS
10
2.80417
20
-6.73648
11
2.80792
21
-6.73273
0
LINE
8
BLACK
6
CONTINUOUS
10
2.87916
20
-6.82272
11
2.83417
21
-6.82272
0
LINE
8
BLACK
6
CONTINUOUS
10
2.85666
20
-6.82272
11
2.85666
21
-6.74398
0
LINE
8
BLACK
6
CONTINUOUS
10
2.85666
20
-6.74398
11
2.84916
21
-6.75523
0
LINE
8
BLACK
6
CONTINUOUS
10
2.84916
20
-6.75523
11
2.84166
21
-6.76273
0
LINE
8
BLACK
6
CONTINUOUS
10
2.84166
20
-6.76273
11
2.83417
21
-6.76648
0
LINE
8
BLACK
6
CONTINUOUS
10
2.94665
20
-6.77023
11
2.94665
21
-6.82272
0
LINE
8
BLACK
6
CONTINUOUS
10
2.9279
20
-6.74023
11
2.90916
21
-6.79648
0
LINE
8
BLACK
6
CONTINUOUS
10
2.90916
20
-6.79648
11
2.9579
21
-6.79648
0
LINE
8
BLACK
6
CONTINUOUS
10
3.04789
20
-6.82272
11
3.04789
21
-6.74398
0
LINE
8
BLACK
6
CONTINUOUS
10
3.08163
20
-6.82272
11
3.08163
21
-6.78148
0
LINE
8
BLACK
6
CONTINUOUS
10
3.08163
20
-6.78148
11
3.07788
21
-6.77398
0
LINE
8
BLACK
6
CONTINUOUS
10
3.07788
20
-6.77398
11
3.07039
21
-6.77023
0
LINE
8
BLACK
6
CONTINUOUS
10
3.07039
20
-6.77023
11
3.05914
21
-6.77023
0
LINE
8
BLACK
6
CONTINUOUS
10
3.05914
20
-6.77023
11
3.05164
21
-6.77398
0
LINE
8
BLACK
6
CONTINUOUS
10
3.05164
20
-6.77398
11
3.04789
21
-6.77773
0
LINE
8
BLACK
6
CONTINUOUS
10
3.13038
20
-6.82272
11
3.12288
21
-6.81897
0
LINE
8
BLACK
6
CONTINUOUS
10
3.12288
20
-6.81897
11
3.11913
21
-6.81522
0
LINE
8
BLACK
6
CONTINUOUS
10
3.11913
20
-6.81522
11
3.11538
21
-6.80772
0
LINE
8
BLACK
6
CONTINUOUS
10
3.11538
20
-6.80772
11
3.11538
21
-6.78523
0
LINE
8
BLACK
6
CONTINUOUS
10
3.11538
20
-6.78523
11
3.11913
21
-6.77773
0
LINE
8
BLACK
6
CONTINUOUS
10
3.11913
20
-6.77773
11
3.12288
21
-6.77398
0
LINE
8
BLACK
6
CONTINUOUS
10
3.12288
20
-6.77398
11
3.13038
21
-6.77023
0
LINE
8
BLACK
6
CONTINUOUS
10
3.13038
20
-6.77023
11
3.14163
21
-6.77023
0
LINE
8
BLACK
6
CONTINUOUS
10
3.14163
20
-6.77023
11
3.14913
21
-6.77398
0
LINE
8
BLACK
6
CONTINUOUS
10
3.14913
20
-6.77398
11
3.15288
21
-6.77773
0
LINE
8
BLACK
6
CONTINUOUS
10
3.15288
20
-6.77773
11
3.15662
21
-6.78523
0
LINE
8
BLACK
6
CONTINUOUS
10
3.15662
20
-6.78523
11
3.15662
21
-6.80772
0
LINE
8
BLACK
6
CONTINUOUS
10
3.15662
20
-6.80772
11
3.15288
21
-6.81522
0
LINE
8
BLACK
6
CONTINUOUS
10
3.15288
20
-6.81522
11
3.14913
21
-6.81897
0
LINE
8
BLACK
6
CONTINUOUS
10
3.14913
20
-6.81897
11
3.14163
21
-6.82272
0
LINE
8
BLACK
6
CONTINUOUS
10
3.14163
20
-6.82272
11
3.13038
21
-6.82272
0
LINE
8
BLACK
6
CONTINUOUS
10
3.20162
20
-6.82272
11
3.19412
21
-6.81897
0
LINE
8
BLACK
6
CONTINUOUS
10
3.19412
20
-6.81897
11
3.19037
21
-6.81147
0
LINE
8
BLACK
6
CONTINUOUS
10
3.19037
20
-6.81147
11
3.19037
21
-6.74398
0
LINE
8
BLACK
6
CONTINUOUS
10
3.26161
20
-6.81897
11
3.25411
21
-6.82272
0
LINE
8
BLACK
6
CONTINUOUS
10
3.25411
20
-6.82272
11
3.23911
21
-6.82272
0
LINE
8
BLACK
6
CONTINUOUS
10
3.23911
20
-6.82272
11
3.23162
21
-6.81897
0
LINE
8
BLACK
6
CONTINUOUS
10
3.23162
20
-6.81897
11
3.22787
21
-6.81147
0
LINE
8
BLACK
6
CONTINUOUS
10
3.22787
20
-6.81147
11
3.22787
21
-6.78148
0
LINE
8
BLACK
6
CONTINUOUS
10
3.22787
20
-6.78148
11
3.23162
21
-6.77398
0
LINE
8
BLACK
6
CONTINUOUS
10
3.23162
20
-6.77398
11
3.23911
21
-6.77023
0
LINE
8
BLACK
6
CONTINUOUS
10
3.23911
20
-6.77023
11
3.25411
21
-6.77023
0
LINE
8
BLACK
6
CONTINUOUS
10
3.25411
20
-6.77023
11
3.26161
21
-6.77398
0
LINE
8
BLACK
6
CONTINUOUS
10
3.26161
20
-6.77398
11
3.26536
21
-6.78148
0
LINE
8
BLACK
6
CONTINUOUS
10
3.26536
20
-6.78148
11
3.26536
21
-6.78898
0
LINE
8
BLACK
6
CONTINUOUS
10
3.26536
20
-6.78898
11
3.22787
21
-6.79648
0
LINE
8
BLACK
6
CONTINUOUS
10
3.29536
20
-6.81897
11
3.30286
21
-6.82272
0
LINE
8
BLACK
6
CONTINUOUS
10
3.30286
20
-6.82272
11
3.31785
21
-6.82272
0
LINE
8
BLACK
6
CONTINUOUS
10
3.31785
20
-6.82272
11
3.32535
21
-6.81897
0
LINE
8
BLACK
6
CONTINUOUS
10
3.32535
20
-6.81897
11
3.3291
21
-6.81147
0
LINE
8
BLACK
6
CONTINUOUS
10
3.3291
20
-6.81147
11
3.3291
21
-6.80772
0
LINE
8
BLACK
6
CONTINUOUS
10
3.3291
20
-6.80772
11
3.32535
21
-6.80022
0
LINE
8
BLACK
6
CONTINUOUS
10
3.32535
20
-6.80022
11
3.31785
21
-6.79648
0
LINE
8
BLACK
6
CONTINUOUS
10
3.31785
20
-6.79648
11
3.30661
21
-6.79648
0
LINE
8
BLACK
6
CONTINUOUS
10
3.30661
20
-6.79648
11
3.29911
21
-6.79273
0
LINE
8
BLACK
6
CONTINUOUS
10
3.29911
20
-6.79273
11
3.29536
21
-6.78523
0
LINE
8
BLACK
6
CONTINUOUS
10
3.29536
20
-6.78523
11
3.29536
21
-6.78148
0
LINE
8
BLACK
6
CONTINUOUS
10
3.29536
20
-6.78148
11
3.29911
21
-6.77398
0
LINE
8
BLACK
6
CONTINUOUS
10
3.29911
20
-6.77398
11
3.30661
21
-6.77023
0
LINE
8
BLACK
6
CONTINUOUS
10
3.30661
20
-6.77023
11
3.31785
21
-6.77023
0
LINE
8
BLACK
6
CONTINUOUS
10
3.31785
20
-6.77023
11
3.32535
21
-6.77398
0
LINE
8
BLACK
6
CONTINUOUS
10
3.35535
20
-6.85272
11
3.3591
21
-6.84897
0
LINE
8
BLACK
6
CONTINUOUS
10
3.3591
20
-6.84897
11
3.3666
21
-6.83772
0
LINE
8
BLACK
6
CONTINUOUS
10
3.3666
20
-6.83772
11
3.37035
21
-6.83022
0
LINE
8
BLACK
6
CONTINUOUS
10
3.37035
20
-6.83022
11
3.3741
21
-6.81897
0
LINE
8
BLACK
6
CONTINUOUS
10
3.3741
20
-6.81897
11
3.37785
21
-6.80022
0
LINE
8
BLACK
6
CONTINUOUS
10
3.37785
20
-6.80022
11
3.37785
21
-6.78523
0
LINE
8
BLACK
6
CONTINUOUS
10
3.37785
20
-6.78523
11
3.3741
21
-6.76648
0
LINE
8
BLACK
6
CONTINUOUS
10
3.3741
20
-6.76648
11
3.37035
21
-6.75523
0
LINE
8
BLACK
6
CONTINUOUS
10
3.37035
20
-6.75523
11
3.3666
21
-6.74773
0
LINE
8
BLACK
6
CONTINUOUS
10
3.3666
20
-6.74773
11
3.3591
21
-6.73648
0
LINE
8
BLACK
6
CONTINUOUS
10
3.3591
20
-6.73648
11
3.35535
21
-6.73273
0
LINE
8
BLACK
6
CONTINUOUS
10
3.49783
20
-6.85272
11
3.49408
21
-6.84897
0
LINE
8
BLACK
6
CONTINUOUS
10
3.49408
20
-6.84897
11
3.48658
21
-6.83772
0
LINE
8
BLACK
6
CONTINUOUS
10
3.48658
20
-6.83772
11
3.48283
21
-6.83022
0
LINE
8
BLACK
6
CONTINUOUS
10
3.48283
20
-6.83022
11
3.47908
21
-6.81897
0
LINE
8
BLACK
6
CONTINUOUS
10
3.47908
20
-6.81897
11
3.47534
21
-6.80022
0
LINE
8
BLACK
6
CONTINUOUS
10
3.47534
20
-6.80022
11
3.47534
21
-6.78523
0
LINE
8
BLACK
6
CONTINUOUS
10
3.47534
20
-6.78523
11
3.47908
21
-6.76648
0
LINE
8
BLACK
6
CONTINUOUS
10
3.47908
20
-6.76648
11
3.48283
21
-6.75523
0
LINE
8
BLACK
6
CONTINUOUS
10
3.48283
20
-6.75523
11
3.48658
21
-6.74773
0
LINE
8
BLACK
6
CONTINUOUS
10
3.48658
20
-6.74773
11
3.49408
21
-6.73648
0
LINE
8
BLACK
6
CONTINUOUS
10
3.49408
20
-6.73648
11
3.49783
21
-6.73273
0
LINE
8
BLACK
6
CONTINUOUS
10
3.52783
20
-6.77023
11
3.52783
21
-6.82272
0
LINE
8
BLACK
6
CONTINUOUS
10
3.52783
20
-6.77773
11
3.53158
21
-6.77398
0
LINE
8
BLACK
6
CONTINUOUS
10
3.53158
20
-6.77398
11
3.53908
21
-6.77023
0
LINE
8
BLACK
6
CONTINUOUS
10
3.53908
20
-6.77023
11
3.55033
21
-6.77023
0
LINE
8
BLACK
6
CONTINUOUS
10
3.55033
20
-6.77023
11
3.55782
21
-6.77398
0
LINE
8
BLACK
6
CONTINUOUS
10
3.55782
20
-6.77398
11
3.56157
21
-6.78148
0
LINE
8
BLACK
6
CONTINUOUS
10
3.56157
20
-6.78148
11
3.56157
21
-6.82272
0
LINE
8
BLACK
6
CONTINUOUS
10
3.61032
20
-6.82272
11
3.60282
21
-6.81897
0
LINE
8
BLACK
6
CONTINUOUS
10
3.60282
20
-6.81897
11
3.59907
21
-6.81522
0
LINE
8
BLACK
6
CONTINUOUS
10
3.59907
20
-6.81522
11
3.59532
21
-6.80772
0
LINE
8
BLACK
6
CONTINUOUS
10
3.59532
20
-6.80772
11
3.59532
21
-6.78523
0
LINE
8
BLACK
6
CONTINUOUS
10
3.59532
20
-6.78523
11
3.59907
21
-6.77773
0
LINE
8
BLACK
6
CONTINUOUS
10
3.59907
20
-6.77773
11
3.60282
21
-6.77398
0
LINE
8
BLACK
6
CONTINUOUS
10
3.60282
20
-6.77398
11
3.61032
21
-6.77023
0
LINE
8
BLACK
6
CONTINUOUS
10
3.61032
20
-6.77023
11
3.62157
21
-6.77023
0
LINE
8
BLACK
6
CONTINUOUS
10
3.62157
20
-6.77023
11
3.62907
21
-6.77398
0
LINE
8
BLACK
6
CONTINUOUS
10
3.62907
20
-6.77398
11
3.63282
21
-6.77773
0
LINE
8
BLACK
6
CONTINUOUS
10
3.63282
20
-6.77773
11
3.63656
21
-6.78523
0
LINE
8
BLACK
6
CONTINUOUS
10
3.63656
20
-6.78523
11
3.63656
21
-6.80772
0
LINE
8
BLACK
6
CONTINUOUS
10
3.63656
20
-6.80772
11
3.63282
21
-6.81522
0
LINE
8
BLACK
6
CONTINUOUS
10
3.63282
20
-6.81522
11
3.62907
21
-6.81897
0
LINE
8
BLACK
6
CONTINUOUS
10
3.62907
20
-6.81897
11
3.62157
21
-6.82272
0
LINE
8
BLACK
6
CONTINUOUS
10
3.62157
20
-6.82272
11
3.61032
21
-6.82272
0
LINE
8
BLACK
6
CONTINUOUS
10
3.65906
20
-6.77023
11
3.68906
21
-6.77023
0
LINE
8
BLACK
6
CONTINUOUS
10
3.67031
20
-6.74398
11
3.67031
21
-6.81147
0
LINE
8
BLACK
6
CONTINUOUS
10
3.67031
20
-6.81147
11
3.67406
21
-6.81897
0
LINE
8
BLACK
6
CONTINUOUS
10
3.67406
20
-6.81897
11
3.68156
21
-6.82272
0
LINE
8
BLACK
6
CONTINUOUS
10
3.68156
20
-6.82272
11
3.68906
21
-6.82272
0
LINE
8
BLACK
6
CONTINUOUS
10
3.7753
20
-6.77023
11
3.7753
21
-6.84897
0
LINE
8
BLACK
6
CONTINUOUS
10
3.7753
20
-6.77398
11
3.7828
21
-6.77023
0
LINE
8
BLACK
6
CONTINUOUS
10
3.7828
20
-6.77023
11
3.79779
21
-6.77023
0
LINE
8
BLACK
6
CONTINUOUS
10
3.79779
20
-6.77023
11
3.80529
21
-6.77398
0
LINE
8
BLACK
6
CONTINUOUS
10
3.80529
20
-6.77398
11
3.80904
21
-6.77773
0
LINE
8
BLACK
6
CONTINUOUS
10
3.80904
20
-6.77773
11
3.81279
21
-6.78523
0
LINE
8
BLACK
6
CONTINUOUS
10
3.81279
20
-6.78523
11
3.81279
21
-6.80772
0
LINE
8
BLACK
6
CONTINUOUS
10
3.81279
20
-6.80772
11
3.80904
21
-6.81522
0
LINE
8
BLACK
6
CONTINUOUS
10
3.80904
20
-6.81522
11
3.80529
21
-6.81897
0
LINE
8
BLACK
6
CONTINUOUS
10
3.80529
20
-6.81897
11
3.79779
21
-6.82272
0
LINE
8
BLACK
6
CONTINUOUS
10
3.79779
20
-6.82272
11
3.7828
21
-6.82272
0
LINE
8
BLACK
6
CONTINUOUS
10
3.7828
20
-6.82272
11
3.7753
21
-6.81897
0
LINE
8
BLACK
6
CONTINUOUS
10
3.85779
20
-6.82272
11
3.85029
21
-6.81897
0
LINE
8
BLACK
6
CONTINUOUS
10
3.85029
20
-6.81897
11
3.84654
21
-6.81147
0
LINE
8
BLACK
6
CONTINUOUS
10
3.84654
20
-6.81147
11
3.84654
21
-6.74398
0
LINE
8
BLACK
6
CONTINUOUS
10
3.92153
20
-6.82272
11
3.92153
21
-6.78148
0
LINE
8
BLACK
6
CONTINUOUS
10
3.92153
20
-6.78148
11
3.91778
21
-6.77398
0
LINE
8
BLACK
6
CONTINUOUS
10
3.91778
20
-6.77398
11
3.91028
21
-6.77023
0
LINE
8
BLACK
6
CONTINUOUS
10
3.91028
20
-6.77023
11
3.89528
21
-6.77023
0
LINE
8
BLACK
6
CONTINUOUS
10
3.89528
20
-6.77023
11
3.88778
21
-6.77398
0
LINE
8
BLACK
6
CONTINUOUS
10
3.92153
20
-6.81897
11
3.91403
21
-6.82272
0
LINE
8
BLACK
6
CONTINUOUS
10
3.91403
20
-6.82272
11
3.89528
21
-6.82272
0
LINE
8
BLACK
6
CONTINUOUS
10
3.89528
20
-6.82272
11
3.88778
21
-6.81897
0
LINE
8
BLACK
6
CONTINUOUS
10
3.88778
20
-6.81897
11
3.88403
21
-6.81147
0
LINE
8
BLACK
6
CONTINUOUS
10
3.88403
20
-6.81147
11
3.88403
21
-6.80397
0
LINE
8
BLACK
6
CONTINUOUS
10
3.88403
20
-6.80397
11
3.88778
21
-6.79648
0
LINE
8
BLACK
6
CONTINUOUS
10
3.88778
20
-6.79648
11
3.89528
21
-6.79273
0
LINE
8
BLACK
6
CONTINUOUS
10
3.89528
20
-6.79273
11
3.91403
21
-6.79273
0
LINE
8
BLACK
6
CONTINUOUS
10
3.91403
20
-6.79273
11
3.92153
21
-6.78898
0
LINE
8
BLACK
6
CONTINUOUS
10
3.94778
20
-6.77023
11
3.97777
21
-6.77023
0
LINE
8
BLACK
6
CONTINUOUS
10
3.95902
20
-6.74398
11
3.95902
21
-6.81147
0
LINE
8
BLACK
6
CONTINUOUS
10
3.95902
20
-6.81147
11
3.96277
21
-6.81897
0
LINE
8
BLACK
6
CONTINUOUS
10
3.96277
20
-6.81897
11
3.97027
21
-6.82272
0
LINE
8
BLACK
6
CONTINUOUS
10
3.97027
20
-6.82272
11
3.97777
21
-6.82272
0
LINE
8
BLACK
6
CONTINUOUS
10
4.03402
20
-6.81897
11
4.02652
21
-6.82272
0
LINE
8
BLACK
6
CONTINUOUS
10
4.02652
20
-6.82272
11
4.01152
21
-6.82272
0
LINE
8
BLACK
6
CONTINUOUS
10
4.01152
20
-6.82272
11
4.00402
21
-6.81897
0
LINE
8
BLACK
6
CONTINUOUS
10
4.00402
20
-6.81897
11
4.00027
21
-6.81147
0
LINE
8
BLACK
6
CONTINUOUS
10
4.00027
20
-6.81147
11
4.00027
21
-6.78148
0
LINE
8
BLACK
6
CONTINUOUS
10
4.00027
20
-6.78148
11
4.00402
21
-6.77398
0
LINE
8
BLACK
6
CONTINUOUS
10
4.00402
20
-6.77398
11
4.01152
21
-6.77023
0
LINE
8
BLACK
6
CONTINUOUS
10
4.01152
20
-6.77023
11
4.02652
21
-6.77023
0
LINE
8
BLACK
6
CONTINUOUS
10
4.02652
20
-6.77023
11
4.03402
21
-6.77398
0
LINE
8
BLACK
6
CONTINUOUS
10
4.03402
20
-6.77398
11
4.03776
21
-6.78148
0
LINE
8
BLACK
6
CONTINUOUS
10
4.03776
20
-6.78148
11
4.03776
21
-6.78898
0
LINE
8
BLACK
6
CONTINUOUS
10
4.03776
20
-6.78898
11
4.00027
21
-6.79648
0
LINE
8
BLACK
6
CONTINUOUS
10
4.10526
20
-6.82272
11
4.10526
21
-6.74398
0
LINE
8
BLACK
6
CONTINUOUS
10
4.10526
20
-6.81897
11
4.09776
21
-6.82272
0
LINE
8
BLACK
6
CONTINUOUS
10
4.09776
20
-6.82272
11
4.08276
21
-6.82272
0
LINE
8
BLACK
6
CONTINUOUS
10
4.08276
20
-6.82272
11
4.07526
21
-6.81897
0
LINE
8
BLACK
6
CONTINUOUS
10
4.07526
20
-6.81897
11
4.07151
21
-6.81522
0
LINE
8
BLACK
6
CONTINUOUS
10
4.07151
20
-6.81522
11
4.06776
21
-6.80772
0
LINE
8
BLACK
6
CONTINUOUS
10
4.06776
20
-6.80772
11
4.06776
21
-6.78523
0
LINE
8
BLACK
6
CONTINUOUS
10
4.06776
20
-6.78523
11
4.07151
21
-6.77773
0
LINE
8
BLACK
6
CONTINUOUS
10
4.07151
20
-6.77773
11
4.07526
21
-6.77398
0
LINE
8
BLACK
6
CONTINUOUS
10
4.07526
20
-6.77398
11
4.08276
21
-6.77023
0
LINE
8
BLACK
6
CONTINUOUS
10
4.08276
20
-6.77023
11
4.09776
21
-6.77023
0
LINE
8
BLACK
6
CONTINUOUS
10
4.09776
20
-6.77023
11
4.10526
21
-6.77398
0
LINE
8
BLACK
6
CONTINUOUS
10
4.13525
20
-6.85272
11
4.139
21
-6.84897
0
LINE
8
BLACK
6
CONTINUOUS
10
4.139
20
-6.84897
11
4.1465
21
-6.83772
0
LINE
8
BLACK
6
CONTINUOUS
10
4.1465
20
-6.83772
11
4.15025
21
-6.83022
0
LINE
8
BLACK
6
CONTINUOUS
10
4.15025
20
-6.83022
11
4.154
21
-6.81897
0
LINE
8
BLACK
6
CONTINUOUS
10
4.154
20
-6.81897
11
4.15775
21
-6.80022
0
LINE
8
BLACK
6
CONTINUOUS
10
4.15775
20
-6.80022
11
4.15775
21
-6.78523
0
LINE
8
BLACK
6
CONTINUOUS
10
4.15775
20
-6.78523
11
4.154
21
-6.76648
0
LINE
8
BLACK
6
CONTINUOUS
10
4.154
20
-6.76648
11
4.15025
21
-6.75523
0
LINE
8
BLACK
6
CONTINUOUS
10
4.15025
20
-6.75523
11
4.1465
21
-6.74773
0
LINE
8
BLACK
6
CONTINUOUS
10
4.1465
20
-6.74773
11
4.139
21
-6.73648
0
LINE
8
BLACK
6
CONTINUOUS
10
4.139
20
-6.73648
11
4.13525
21
-6.73273
0
LINE
8
BLACK
6
CONTINUOUS
10
1.36104
20
-6.95206
11
1.40041
21
-6.91269
0
LINE
8
BLACK
6
CONTINUOUS
10
1.40041
20
-6.91269
11
1.36104
21
-6.87332
0
LINE
8
BLACK
6
CONTINUOUS
10
1.36104
20
-6.87332
11
1.32167
21
-6.91269
0
LINE
8
BLACK
6
CONTINUOUS
10
1.32167
20
-6.91269
11
1.36104
21
-6.95206
0
LINE
8
BLACK
6
CONTINUOUS
10
1.49558
20
-6.86997
11
1.54433
21
-6.86997
0
LINE
8
BLACK
6
CONTINUOUS
10
1.54433
20
-6.86997
11
1.51808
21
-6.89996
0
LINE
8
BLACK
6
CONTINUOUS
10
1.51808
20
-6.89996
11
1.52933
21
-6.89996
0
LINE
8
BLACK
6
CONTINUOUS
10
1.52933
20
-6.89996
11
1.53683
21
-6.90371
0
LINE
8
BLACK
6
CONTINUOUS
10
1.53683
20
-6.90371
11
1.54058
21
-6.90746
0
LINE
8
BLACK
6
CONTINUOUS
10
1.54058
20
-6.90746
11
1.54433
21
-6.91496
0
LINE
8
BLACK
6
CONTINUOUS
10
1.54433
20
-6.91496
11
1.54433
21
-6.93371
0
LINE
8
BLACK
6
CONTINUOUS
10
1.54433
20
-6.93371
11
1.54058
21
-6.94121
0
LINE
8
BLACK
6
CONTINUOUS
10
1.54058
20
-6.94121
11
1.53683
21
-6.94496
0
LINE
8
BLACK
6
CONTINUOUS
10
1.53683
20
-6.94496
11
1.52933
21
-6.94871
0
LINE
8
BLACK
6
CONTINUOUS
10
1.52933
20
-6.94871
11
1.50683
21
-6.94871
0
LINE
8
BLACK
6
CONTINUOUS
10
1.50683
20
-6.94871
11
1.49933
21
-6.94496
0
LINE
8
BLACK
6
CONTINUOUS
10
1.49933
20
-6.94496
11
1.49558
21
-6.94121
0
LINE
8
BLACK
6
CONTINUOUS
10
1.57807
20
-6.94121
11
1.58182
21
-6.94496
0
LINE
8
BLACK
6
CONTINUOUS
10
1.58182
20
-6.94496
11
1.57807
21
-6.94871
0
LINE
8
BLACK
6
CONTINUOUS
10
1.57807
20
-6.94871
11
1.57432
21
-6.94496
0
LINE
8
BLACK
6
CONTINUOUS
10
1.57432
20
-6.94496
11
1.57807
21
-6.94121
0
LINE
8
BLACK
6
CONTINUOUS
10
1.57807
20
-6.94121
11
1.57807
21
-6.94871
0
LINE
8
BLACK
6
CONTINUOUS
10
1.61932
20
-6.94871
11
1.63432
21
-6.94871
0
LINE
8
BLACK
6
CONTINUOUS
10
1.63432
20
-6.94871
11
1.64181
21
-6.94496
0
LINE
8
BLACK
6
CONTINUOUS
10
1.64181
20
-6.94496
11
1.64556
21
-6.94121
0
LINE
8
BLACK
6
CONTINUOUS
10
1.64556
20
-6.94121
11
1.65306
21
-6.92996
0
LINE
8
BLACK
6
CONTINUOUS
10
1.65306
20
-6.92996
11
1.65681
21
-6.91496
0
LINE
8
BLACK
6
CONTINUOUS
10
1.65681
20
-6.91496
11
1.65681
21
-6.88496
0
LINE
8
BLACK
6
CONTINUOUS
10
1.65681
20
-6.88496
11
1.65306
21
-6.87747
0
LINE
8
BLACK
6
CONTINUOUS
10
1.65306
20
-6.87747
11
1.64931
21
-6.87372
0
LINE
8
BLACK
6
CONTINUOUS
10
1.64931
20
-6.87372
11
1.64181
21
-6.86997
0
LINE
8
BLACK
6
CONTINUOUS
10
1.64181
20
-6.86997
11
1.62682
21
-6.86997
0
LINE
8
BLACK
6
CONTINUOUS
10
1.62682
20
-6.86997
11
1.61932
21
-6.87372
0
LINE
8
BLACK
6
CONTINUOUS
10
1.61932
20
-6.87372
11
1.61557
21
-6.87747
0
LINE
8
BLACK
6
CONTINUOUS
10
1.61557
20
-6.87747
11
1.61182
21
-6.88496
0
LINE
8
BLACK
6
CONTINUOUS
10
1.61182
20
-6.88496
11
1.61182
21
-6.90371
0
LINE
8
BLACK
6
CONTINUOUS
10
1.61182
20
-6.90371
11
1.61557
21
-6.91121
0
LINE
8
BLACK
6
CONTINUOUS
10
1.61557
20
-6.91121
11
1.61932
21
-6.91496
0
LINE
8
BLACK
6
CONTINUOUS
10
1.61932
20
-6.91496
11
1.62682
21
-6.91871
0
LINE
8
BLACK
6
CONTINUOUS
10
1.62682
20
-6.91871
11
1.64181
21
-6.91871
0
LINE
8
BLACK
6
CONTINUOUS
10
1.64181
20
-6.91871
11
1.64931
21
-6.91496
0
LINE
8
BLACK
6
CONTINUOUS
10
1.64931
20
-6.91496
11
1.65306
21
-6.91121
0
LINE
8
BLACK
6
CONTINUOUS
10
1.65306
20
-6.91121
11
1.65681
21
-6.90371
0
LINE
8
BLACK
6
CONTINUOUS
10
1.70181
20
-6.90371
11
1.69431
21
-6.89996
0
LINE
8
BLACK
6
CONTINUOUS
10
1.69431
20
-6.89996
11
1.69056
21
-6.89621
0
LINE
8
BLACK
6
CONTINUOUS
10
1.69056
20
-6.89621
11
1.68681
21
-6.88871
0
LINE
8
BLACK
6
CONTINUOUS
10
1.68681
20
-6.88871
11
1.68681
21
-6.88496
0
LINE
8
BLACK
6
CONTINUOUS
10
1.68681
20
-6.88496
11
1.69056
21
-6.87747
0
LINE
8
BLACK
6
CONTINUOUS
10
1.69056
20
-6.87747
11
1.69431
21
-6.87372
0
LINE
8
BLACK
6
CONTINUOUS
10
1.69431
20
-6.87372
11
1.70181
21
-6.86997
0
LINE
8
BLACK
6
CONTINUOUS
10
1.70181
20
-6.86997
11
1.7168
21
-6.86997
0
LINE
8
BLACK
6
CONTINUOUS
10
1.7168
20
-6.86997
11
1.7243
21
-6.87372
0
LINE
8
BLACK
6
CONTINUOUS
10
1.7243
20
-6.87372
11
1.72805
21
-6.87747
0
LINE
8
BLACK
6
CONTINUOUS
10
1.72805
20
-6.87747
11
1.7318
21
-6.88496
0
LINE
8
BLACK
6
CONTINUOUS
10
1.7318
20
-6.88496
11
1.7318
21
-6.88871
0
LINE
8
BLACK
6
CONTINUOUS
10
1.7318
20
-6.88871
11
1.72805
21
-6.89621
0
LINE
8
BLACK
6
CONTINUOUS
10
1.72805
20
-6.89621
11
1.7243
21
-6.89996
0
LINE
8
BLACK
6
CONTINUOUS
10
1.7243
20
-6.89996
11
1.7168
21
-6.90371
0
LINE
8
BLACK
6
CONTINUOUS
10
1.7168
20
-6.90371
11
1.70181
21
-6.90371
0
LINE
8
BLACK
6
CONTINUOUS
10
1.70181
20
-6.90371
11
1.69431
21
-6.90746
0
LINE
8
BLACK
6
CONTINUOUS
10
1.69431
20
-6.90746
11
1.69056
21
-6.91121
0
LINE
8
BLACK
6
CONTINUOUS
10
1.69056
20
-6.91121
11
1.68681
21
-6.91871
0
LINE
8
BLACK
6
CONTINUOUS
10
1.68681
20
-6.91871
11
1.68681
21
-6.93371
0
LINE
8
BLACK
6
CONTINUOUS
10
1.68681
20
-6.93371
11
1.69056
21
-6.94121
0
LINE
8
BLACK
6
CONTINUOUS
10
1.69056
20
-6.94121
11
1.69431
21
-6.94496
0
LINE
8
BLACK
6
CONTINUOUS
10
1.69431
20
-6.94496
11
1.70181
21
-6.94871
0
LINE
8
BLACK
6
CONTINUOUS
10
1.70181
20
-6.94871
11
1.7168
21
-6.94871
0
LINE
8
BLACK
6
CONTINUOUS
10
1.7168
20
-6.94871
11
1.7243
21
-6.94496
0
LINE
8
BLACK
6
CONTINUOUS
10
1.7243
20
-6.94496
11
1.72805
21
-6.94121
0
LINE
8
BLACK
6
CONTINUOUS
10
1.72805
20
-6.94121
11
1.7318
21
-6.93371
0
LINE
8
BLACK
6
CONTINUOUS
10
1.7318
20
-6.93371
11
1.7318
21
-6.91871
0
LINE
8
BLACK
6
CONTINUOUS
10
1.7318
20
-6.91871
11
1.72805
21
-6.91121
0
LINE
8
BLACK
6
CONTINUOUS
10
1.72805
20
-6.91121
11
1.7243
21
-6.90746
0
LINE
8
BLACK
6
CONTINUOUS
10
1.7243
20
-6.90746
11
1.7168
21
-6.90371
0
LINE
8
BLACK
6
CONTINUOUS
10
1.7768
20
-6.90371
11
1.7693
21
-6.89996
0
LINE
8
BLACK
6
CONTINUOUS
10
1.7693
20
-6.89996
11
1.76555
21
-6.89621
0
LINE
8
BLACK
6
CONTINUOUS
10
1.76555
20
-6.89621
11
1.7618
21
-6.88871
0
LINE
8
BLACK
6
CONTINUOUS
10
1.7618
20
-6.88871
11
1.7618
21
-6.88496
0
LINE
8
BLACK
6
CONTINUOUS
10
1.7618
20
-6.88496
11
1.76555
21
-6.87747
0
LINE
8
BLACK
6
CONTINUOUS
10
1.76555
20
-6.87747
11
1.7693
21
-6.87372
0
LINE
8
BLACK
6
CONTINUOUS
10
1.7693
20
-6.87372
11
1.7768
21
-6.86997
0
LINE
8
BLACK
6
CONTINUOUS
10
1.7768
20
-6.86997
11
1.7918
21
-6.86997
0
LINE
8
BLACK
6
CONTINUOUS
10
1.7918
20
-6.86997
11
1.79929
21
-6.87372
0
LINE
8
BLACK
6
CONTINUOUS
10
1.79929
20
-6.87372
11
1.80304
21
-6.87747
0
LINE
8
BLACK
6
CONTINUOUS
10
1.80304
20
-6.87747
11
1.80679
21
-6.88496
0
LINE
8
BLACK
6
CONTINUOUS
10
1.80679
20
-6.88496
11
1.80679
21
-6.88871
0
LINE
8
BLACK
6
CONTINUOUS
10
1.80679
20
-6.88871
11
1.80304
21
-6.89621
0
LINE
8
BLACK
6
CONTINUOUS
10
1.80304
20
-6.89621
11
1.79929
21
-6.89996
0
LINE
8
BLACK
6
CONTINUOUS
10
1.79929
20
-6.89996
11
1.7918
21
-6.90371
0
LINE
8
BLACK
6
CONTINUOUS
10
1.7918
20
-6.90371
11
1.7768
21
-6.90371
0
LINE
8
BLACK
6
CONTINUOUS
10
1.7768
20
-6.90371
11
1.7693
21
-6.90746
0
LINE
8
BLACK
6
CONTINUOUS
10
1.7693
20
-6.90746
11
1.76555
21
-6.91121
0
LINE
8
BLACK
6
CONTINUOUS
10
1.76555
20
-6.91121
11
1.7618
21
-6.91871
0
LINE
8
BLACK
6
CONTINUOUS
10
1.7618
20
-6.91871
11
1.7618
21
-6.93371
0
LINE
8
BLACK
6
CONTINUOUS
10
1.7618
20
-6.93371
11
1.76555
21
-6.94121
0
LINE
8
BLACK
6
CONTINUOUS
10
1.76555
20
-6.94121
11
1.7693
21
-6.94496
0
LINE
8
BLACK
6
CONTINUOUS
10
1.7693
20
-6.94496
11
1.7768
21
-6.94871
0
LINE
8
BLACK
6
CONTINUOUS
10
1.7768
20
-6.94871
11
1.7918
21
-6.94871
0
LINE
8
BLACK
6
CONTINUOUS
10
1.7918
20
-6.94871
11
1.79929
21
-6.94496
0
LINE
8
BLACK
6
CONTINUOUS
10
1.79929
20
-6.94496
11
1.80304
21
-6.94121
0
LINE
8
BLACK
6
CONTINUOUS
10
1.80304
20
-6.94121
11
1.80679
21
-6.93371
0
LINE
8
BLACK
6
CONTINUOUS
10
1.80679
20
-6.93371
11
1.80679
21
-6.91871
0
LINE
8
BLACK
6
CONTINUOUS
10
1.80679
20
-6.91871
11
1.80304
21
-6.91121
0
LINE
8
BLACK
6
CONTINUOUS
10
1.80304
20
-6.91121
11
1.79929
21
-6.90746
0
LINE
8
BLACK
6
CONTINUOUS
10
1.79929
20
-6.90746
11
1.7918
21
-6.90371
0
LINE
8
BLACK
6
CONTINUOUS
10
1.84054
20
-6.94871
11
1.84054
21
-6.89621
0
LINE
8
BLACK
6
CONTINUOUS
10
1.84054
20
-6.90371
11
1.84429
21
-6.89996
0
LINE
8
BLACK
6
CONTINUOUS
10
1.84429
20
-6.89996
11
1.85179
21
-6.89621
0
LINE
8
BLACK
6
CONTINUOUS
10
1.85179
20
-6.89621
11
1.86304
21
-6.89621
0
LINE
8
BLACK
6
CONTINUOUS
10
1.86304
20
-6.89621
11
1.87054
21
-6.89996
0
LINE
8
BLACK
6
CONTINUOUS
10
1.87054
20
-6.89996
11
1.87429
21
-6.90746
0
LINE
8
BLACK
6
CONTINUOUS
10
1.87429
20
-6.90746
11
1.87429
21
-6.94871
0
LINE
8
BLACK
6
CONTINUOUS
10
1.87429
20
-6.90746
11
1.87803
21
-6.89996
0
LINE
8
BLACK
6
CONTINUOUS
10
1.87803
20
-6.89996
11
1.88553
21
-6.89621
0
LINE
8
BLACK
6
CONTINUOUS
10
1.88553
20
-6.89621
11
1.89678
21
-6.89621
0
LINE
8
BLACK
6
CONTINUOUS
10
1.89678
20
-6.89621
11
1.90428
21
-6.89996
0
LINE
8
BLACK
6
CONTINUOUS
10
1.90428
20
-6.89996
11
1.90803
21
-6.90746
0
LINE
8
BLACK
6
CONTINUOUS
10
1.90803
20
-6.90746
11
1.90803
21
-6.94871
0
LINE
8
BLACK
6
CONTINUOUS
10
1.94553
20
-6.94871
11
1.94553
21
-6.89621
0
LINE
8
BLACK
6
CONTINUOUS
10
1.94553
20
-6.90371
11
1.94928
21
-6.89996
0
LINE
8
BLACK
6
CONTINUOUS
10
1.94928
20
-6.89996
11
1.95677
21
-6.89621
0
LINE
8
BLACK
6
CONTINUOUS
10
1.95677
20
-6.89621
11
1.96802
21
-6.89621
0
LINE
8
BLACK
6
CONTINUOUS
10
1.96802
20
-6.89621
11
1.97552
21
-6.89996
0
LINE
8
BLACK
6
CONTINUOUS
10
1.97552
20
-6.89996
11
1.97927
21
-6.90746
0
LINE
8
BLACK
6
CONTINUOUS
10
1.97927
20
-6.90746
11
1.97927
21
-6.94871
0
LINE
8
BLACK
6
CONTINUOUS
10
1.97927
20
-6.90746
11
1.98302
21
-6.89996
0
LINE
8
BLACK
6
CONTINUOUS
10
1.98302
20
-6.89996
11
1.99052
21
-6.89621
0
LINE
8
BLACK
6
CONTINUOUS
10
1.99052
20
-6.89621
11
2.00177
21
-6.89621
0
LINE
8
BLACK
6
CONTINUOUS
10
2.00177
20
-6.89621
11
2.00927
21
-6.89996
0
LINE
8
BLACK
6
CONTINUOUS
10
2.00927
20
-6.89996
11
2.01302
21
-6.90746
0
LINE
8
BLACK
6
CONTINUOUS
10
2.01302
20
-6.90746
11
2.01302
21
-6.94871
0
LINE
8
BLACK
6
CONTINUOUS
10
2.16675
20
-6.86622
11
2.09926
21
-6.96745
0
LINE
8
BLACK
6
CONTINUOUS
10
2.26799
20
-6.86997
11
2.27548
21
-6.86997
0
LINE
8
BLACK
6
CONTINUOUS
10
2.27548
20
-6.86997
11
2.28298
21
-6.87372
0
LINE
8
BLACK
6
CONTINUOUS
10
2.28298
20
-6.87372
11
2.28673
21
-6.87747
0
LINE
8
BLACK
6
CONTINUOUS
10
2.28673
20
-6.87747
11
2.29048
21
-6.88496
0
LINE
8
BLACK
6
CONTINUOUS
10
2.29048
20
-6.88496
11
2.29423
21
-6.89996
0
LINE
8
BLACK
6
CONTINUOUS
10
2.29423
20
-6.89996
11
2.29423
21
-6.91871
0
LINE
8
BLACK
6
CONTINUOUS
10
2.29423
20
-6.91871
11
2.29048
21
-6.93371
0
LINE
8
BLACK
6
CONTINUOUS
10
2.29048
20
-6.93371
11
2.28673
21
-6.94121
0
LINE
8
BLACK
6
CONTINUOUS
10
2.28673
20
-6.94121
11
2.28298
21
-6.94496
0
LINE
8
BLACK
6
CONTINUOUS
10
2.28298
20
-6.94496
11
2.27548
21
-6.94871
0
LINE
8
BLACK
6
CONTINUOUS
10
2.27548
20
-6.94871
11
2.26799
21
-6.94871
0
LINE
8
BLACK
6
CONTINUOUS
10
2.26799
20
-6.94871
11
2.26049
21
-6.94496
0
LINE
8
BLACK
6
CONTINUOUS
10
2.26049
20
-6.94496
11
2.25674
21
-6.94121
0
LINE
8
BLACK
6
CONTINUOUS
10
2.25674
20
-6.94121
11
2.25299
21
-6.93371
0
LINE
8
BLACK
6
CONTINUOUS
10
2.25299
20
-6.93371
11
2.24924
21
-6.91871
0
LINE
8
BLACK
6
CONTINUOUS
10
2.24924
20
-6.91871
11
2.24924
21
-6.89996
0
LINE
8
BLACK
6
CONTINUOUS
10
2.24924
20
-6.89996
11
2.25299
21
-6.88496
0
LINE
8
BLACK
6
CONTINUOUS
10
2.25299
20
-6.88496
11
2.25674
21
-6.87747
0
LINE
8
BLACK
6
CONTINUOUS
10
2.25674
20
-6.87747
11
2.26049
21
-6.87372
0
LINE
8
BLACK
6
CONTINUOUS
10
2.26049
20
-6.87372
11
2.26799
21
-6.86997
0
LINE
8
BLACK
6
CONTINUOUS
10
2.32798
20
-6.94121
11
2.33173
21
-6.94496
0
LINE
8
BLACK
6
CONTINUOUS
10
2.33173
20
-6.94496
11
2.32798
21
-6.94871
0
LINE
8
BLACK
6
CONTINUOUS
10
2.32798
20
-6.94871
11
2.32423
21
-6.94496
0
LINE
8
BLACK
6
CONTINUOUS
10
2.32423
20
-6.94496
11
2.32798
21
-6.94121
0
LINE
8
BLACK
6
CONTINUOUS
10
2.32798
20
-6.94121
11
2.32798
21
-6.94871
0
LINE
8
BLACK
6
CONTINUOUS
10
2.40672
20
-6.94871
11
2.36172
21
-6.94871
0
LINE
8
BLACK
6
CONTINUOUS
10
2.38422
20
-6.94871
11
2.38422
21
-6.86997
0
LINE
8
BLACK
6
CONTINUOUS
10
2.38422
20
-6.86997
11
2.37672
21
-6.88121
0
LINE
8
BLACK
6
CONTINUOUS
10
2.37672
20
-6.88121
11
2.36922
21
-6.88871
0
LINE
8
BLACK
6
CONTINUOUS
10
2.36922
20
-6.88871
11
2.36172
21
-6.89246
0
LINE
8
BLACK
6
CONTINUOUS
10
2.47796
20
-6.86997
11
2.44046
21
-6.86997
0
LINE
8
BLACK
6
CONTINUOUS
10
2.44046
20
-6.86997
11
2.43671
21
-6.90746
0
LINE
8
BLACK
6
CONTINUOUS
10
2.43671
20
-6.90746
11
2.44046
21
-6.90371
0
LINE
8
BLACK
6
CONTINUOUS
10
2.44046
20
-6.90371
11
2.44796
21
-6.89996
0
LINE
8
BLACK
6
CONTINUOUS
10
2.44796
20
-6.89996
11
2.46671
21
-6.89996
0
LINE
8
BLACK
6
CONTINUOUS
10
2.46671
20
-6.89996
11
2.47421
21
-6.90371
0
LINE
8
BLACK
6
CONTINUOUS
10
2.47421
20
-6.90371
11
2.47796
21
-6.90746
0
LINE
8
BLACK
6
CONTINUOUS
10
2.47796
20
-6.90746
11
2.48171
21
-6.91496
0
LINE
8
BLACK
6
CONTINUOUS
10
2.48171
20
-6.91496
11
2.48171
21
-6.93371
0
LINE
8
BLACK
6
CONTINUOUS
10
2.48171
20
-6.93371
11
2.47796
21
-6.94121
0
LINE
8
BLACK
6
CONTINUOUS
10
2.47796
20
-6.94121
11
2.47421
21
-6.94496
0
LINE
8
BLACK
6
CONTINUOUS
10
2.47421
20
-6.94496
11
2.46671
21
-6.94871
0
LINE
8
BLACK
6
CONTINUOUS
10
2.46671
20
-6.94871
11
2.44796
21
-6.94871
0
LINE
8
BLACK
6
CONTINUOUS
10
2.44796
20
-6.94871
11
2.44046
21
-6.94496
0
LINE
8
BLACK
6
CONTINUOUS
10
2.44046
20
-6.94496
11
2.43671
21
-6.94121
0
LINE
8
BLACK
6
CONTINUOUS
10
2.50796
20
-6.86997
11
2.56045
21
-6.86997
0
LINE
8
BLACK
6
CONTINUOUS
10
2.56045
20
-6.86997
11
2.5267
21
-6.94871
0
LINE
8
BLACK
6
CONTINUOUS
10
2.60544
20
-6.86997
11
2.61294
21
-6.86997
0
LINE
8
BLACK
6
CONTINUOUS
10
2.61294
20
-6.86997
11
2.62044
21
-6.87372
0
LINE
8
BLACK
6
CONTINUOUS
10
2.62044
20
-6.87372
11
2.62419
21
-6.87747
0
LINE
8
BLACK
6
CONTINUOUS
10
2.62419
20
-6.87747
11
2.62794
21
-6.88496
0
LINE
8
BLACK
6
CONTINUOUS
10
2.62794
20
-6.88496
11
2.63169
21
-6.89996
0
LINE
8
BLACK
6
CONTINUOUS
10
2.63169
20
-6.89996
11
2.63169
21
-6.91871
0
LINE
8
BLACK
6
CONTINUOUS
10
2.63169
20
-6.91871
11
2.62794
21
-6.93371
0
LINE
8
BLACK
6
CONTINUOUS
10
2.62794
20
-6.93371
11
2.62419
21
-6.94121
0
LINE
8
BLACK
6
CONTINUOUS
10
2.62419
20
-6.94121
11
2.62044
21
-6.94496
0
LINE
8
BLACK
6
CONTINUOUS
10
2.62044
20
-6.94496
11
2.61294
21
-6.94871
0
LINE
8
BLACK
6
CONTINUOUS
10
2.61294
20
-6.94871
11
2.60544
21
-6.94871
0
LINE
8
BLACK
6
CONTINUOUS
10
2.60544
20
-6.94871
11
2.59794
21
-6.94496
0
LINE
8
BLACK
6
CONTINUOUS
10
2.59794
20
-6.94496
11
2.5942
21
-6.94121
0
LINE
8
BLACK
6
CONTINUOUS
10
2.5942
20
-6.94121
11
2.59045
21
-6.93371
0
LINE
8
BLACK
6
CONTINUOUS
10
2.59045
20
-6.93371
11
2.5867
21
-6.91871
0
LINE
8
BLACK
6
CONTINUOUS
10
2.5867
20
-6.91871
11
2.5867
21
-6.89996
0
LINE
8
BLACK
6
CONTINUOUS
10
2.5867
20
-6.89996
11
2.59045
21
-6.88496
0
LINE
8
BLACK
6
CONTINUOUS
10
2.59045
20
-6.88496
11
2.5942
21
-6.87747
0
LINE
8
BLACK
6
CONTINUOUS
10
2.5942
20
-6.87747
11
2.59794
21
-6.87372
0
LINE
8
BLACK
6
CONTINUOUS
10
2.59794
20
-6.87372
11
2.60544
21
-6.86997
0
LINE
8
BLACK
6
CONTINUOUS
10
2.66169
20
-6.86997
11
2.66169
21
-6.88496
0
LINE
8
BLACK
6
CONTINUOUS
10
2.69168
20
-6.86997
11
2.69168
21
-6.88496
0
LINE
8
BLACK
6
CONTINUOUS
10
2.80792
20
-6.9787
11
2.80417
21
-6.97495
0
LINE
8
BLACK
6
CONTINUOUS
10
2.80417
20
-6.97495
11
2.79667
21
-6.9637
0
LINE
8
BLACK
6
CONTINUOUS
10
2.79667
20
-6.9637
11
2.79292
21
-6.95621
0
LINE
8
BLACK
6
CONTINUOUS
10
2.79292
20
-6.95621
11
2.78917
21
-6.94496
0
LINE
8
BLACK
6
CONTINUOUS
10
2.78917
20
-6.94496
11
2.78542
21
-6.92621
0
LINE
8
BLACK
6
CONTINUOUS
10
2.78542
20
-6.92621
11
2.78542
21
-6.91121
0
LINE
8
BLACK
6
CONTINUOUS
10
2.78542
20
-6.91121
11
2.78917
21
-6.89246
0
LINE
8
BLACK
6
CONTINUOUS
10
2.78917
20
-6.89246
11
2.79292
21
-6.88121
0
LINE
8
BLACK
6
CONTINUOUS
10
2.79292
20
-6.88121
11
2.79667
21
-6.87372
0
LINE
8
BLACK
6
CONTINUOUS
10
2.79667
20
-6.87372
11
2.80417
21
-6.86247
0
LINE
8
BLACK
6
CONTINUOUS
10
2.80417
20
-6.86247
11
2.80792
21
-6.85872
0
LINE
8
BLACK
6
CONTINUOUS
10
2.83042
20
-6.86997
11
2.87916
21
-6.86997
0
LINE
8
BLACK
6
CONTINUOUS
10
2.87916
20
-6.86997
11
2.85291
21
-6.89996
0
LINE
8
BLACK
6
CONTINUOUS
10
2.85291
20
-6.89996
11
2.86416
21
-6.89996
0
LINE
8
BLACK
6
CONTINUOUS
10
2.86416
20
-6.89996
11
2.87166
21
-6.90371
0
LINE
8
BLACK
6
CONTINUOUS
10
2.87166
20
-6.90371
11
2.87541
21
-6.90746
0
LINE
8
BLACK
6
CONTINUOUS
10
2.87541
20
-6.90746
11
2.87916
21
-6.91496
0
LINE
8
BLACK
6
CONTINUOUS
10
2.87916
20
-6.91496
11
2.87916
21
-6.93371
0
LINE
8
BLACK
6
CONTINUOUS
10
2.87916
20
-6.93371
11
2.87541
21
-6.94121
0
LINE
8
BLACK
6
CONTINUOUS
10
2.87541
20
-6.94121
11
2.87166
21
-6.94496
0
LINE
8
BLACK
6
CONTINUOUS
10
2.87166
20
-6.94496
11
2.86416
21
-6.94871
0
LINE
8
BLACK
6
CONTINUOUS
10
2.86416
20
-6.94871
11
2.84166
21
-6.94871
0
LINE
8
BLACK
6
CONTINUOUS
10
2.84166
20
-6.94871
11
2.83417
21
-6.94496
0
LINE
8
BLACK
6
CONTINUOUS
10
2.83417
20
-6.94496
11
2.83042
21
-6.94121
0
LINE
8
BLACK
6
CONTINUOUS
10
2.94665
20
-6.86997
11
2.93165
21
-6.86997
0
LINE
8
BLACK
6
CONTINUOUS
10
2.93165
20
-6.86997
11
2.92415
21
-6.87372
0
LINE
8
BLACK
6
CONTINUOUS
10
2.92415
20
-6.87372
11
2.9204
21
-6.87747
0
LINE
8
BLACK
6
CONTINUOUS
10
2.9204
20
-6.87747
11
2.91291
21
-6.88871
0
LINE
8
BLACK
6
CONTINUOUS
10
2.91291
20
-6.88871
11
2.90916
21
-6.90371
0
LINE
8
BLACK
6
CONTINUOUS
10
2.90916
20
-6.90371
11
2.90916
21
-6.93371
0
LINE
8
BLACK
6
CONTINUOUS
10
2.90916
20
-6.93371
11
2.91291
21
-6.94121
0
LINE
8
BLACK
6
CONTINUOUS
10
2.91291
20
-6.94121
11
2.91665
21
-6.94496
0
LINE
8
BLACK
6
CONTINUOUS
10
2.91665
20
-6.94496
11
2.92415
21
-6.94871
0
LINE
8
BLACK
6
CONTINUOUS
10
2.92415
20
-6.94871
11
2.93915
21
-6.94871
0
LINE
8
BLACK
6
CONTINUOUS
10
2.93915
20
-6.94871
11
2.94665
21
-6.94496
0
LINE
8
BLACK
6
CONTINUOUS
10
2.94665
20
-6.94496
11
2.9504
21
-6.94121
0
LINE
8
BLACK
6
CONTINUOUS
10
2.9504
20
-6.94121
11
2.95415
21
-6.93371
0
LINE
8
BLACK
6
CONTINUOUS
10
2.95415
20
-6.93371
11
2.95415
21
-6.91496
0
LINE
8
BLACK
6
CONTINUOUS
10
2.95415
20
-6.91496
11
2.9504
21
-6.90746
0
LINE
8
BLACK
6
CONTINUOUS
10
2.9504
20
-6.90746
11
2.94665
21
-6.90371
0
LINE
8
BLACK
6
CONTINUOUS
10
2.94665
20
-6.90371
11
2.93915
21
-6.89996
0
LINE
8
BLACK
6
CONTINUOUS
10
2.93915
20
-6.89996
11
2.92415
21
-6.89996
0
LINE
8
BLACK
6
CONTINUOUS
10
2.92415
20
-6.89996
11
2.91665
21
-6.90371
0
LINE
8
BLACK
6
CONTINUOUS
10
2.91665
20
-6.90371
11
2.91291
21
-6.90746
0
LINE
8
BLACK
6
CONTINUOUS
10
2.91291
20
-6.90746
11
2.90916
21
-6.91496
0
LINE
8
BLACK
6
CONTINUOUS
10
3.04789
20
-6.94871
11
3.04789
21
-6.86997
0
LINE
8
BLACK
6
CONTINUOUS
10
3.08163
20
-6.94871
11
3.08163
21
-6.90746
0
LINE
8
BLACK
6
CONTINUOUS
10
3.08163
20
-6.90746
11
3.07788
21
-6.89996
0
LINE
8
BLACK
6
CONTINUOUS
10
3.07788
20
-6.89996
11
3.07039
21
-6.89621
0
LINE
8
BLACK
6
CONTINUOUS
10
3.07039
20
-6.89621
11
3.05914
21
-6.89621
0
LINE
8
BLACK
6
CONTINUOUS
10
3.05914
20
-6.89621
11
3.05164
21
-6.89996
0
LINE
8
BLACK
6
CONTINUOUS
10
3.05164
20
-6.89996
11
3.04789
21
-6.90371
0
LINE
8
BLACK
6
CONTINUOUS
10
3.13038
20
-6.94871
11
3.12288
21
-6.94496
0
LINE
8
BLACK
6
CONTINUOUS
10
3.12288
20
-6.94496
11
3.11913
21
-6.94121
0
LINE
8
BLACK
6
CONTINUOUS
10
3.11913
20
-6.94121
11
3.11538
21
-6.93371
0
LINE
8
BLACK
6
CONTINUOUS
10
3.11538
20
-6.93371
11
3.11538
21
-6.91121
0
LINE
8
BLACK
6
CONTINUOUS
10
3.11538
20
-6.91121
11
3.11913
21
-6.90371
0
LINE
8
BLACK
6
CONTINUOUS
10
3.11913
20
-6.90371
11
3.12288
21
-6.89996
0
LINE
8
BLACK
6
CONTINUOUS
10
3.12288
20
-6.89996
11
3.13038
21
-6.89621
0
LINE
8
BLACK
6
CONTINUOUS
10
3.13038
20
-6.89621
11
3.14163
21
-6.89621
0
LINE
8
BLACK
6
CONTINUOUS
10
3.14163
20
-6.89621
11
3.14913
21
-6.89996
0
LINE
8
BLACK
6
CONTINUOUS
10
3.14913
20
-6.89996
11
3.15288
21
-6.90371
0
LINE
8
BLACK
6
CONTINUOUS
10
3.15288
20
-6.90371
11
3.15662
21
-6.91121
0
LINE
8
BLACK
6
CONTINUOUS
10
3.15662
20
-6.91121
11
3.15662
21
-6.93371
0
LINE
8
BLACK
6
CONTINUOUS
10
3.15662
20
-6.93371
11
3.15288
21
-6.94121
0
LINE
8
BLACK
6
CONTINUOUS
10
3.15288
20
-6.94121
11
3.14913
21
-6.94496
0
LINE
8
BLACK
6
CONTINUOUS
10
3.14913
20
-6.94496
11
3.14163
21
-6.94871
0
LINE
8
BLACK
6
CONTINUOUS
10
3.14163
20
-6.94871
11
3.13038
21
-6.94871
0
LINE
8
BLACK
6
CONTINUOUS
10
3.20162
20
-6.94871
11
3.19412
21
-6.94496
0
LINE
8
BLACK
6
CONTINUOUS
10
3.19412
20
-6.94496
11
3.19037
21
-6.93746
0
LINE
8
BLACK
6
CONTINUOUS
10
3.19037
20
-6.93746
11
3.19037
21
-6.86997
0
LINE
8
BLACK
6
CONTINUOUS
10
3.26161
20
-6.94496
11
3.25411
21
-6.94871
0
LINE
8
BLACK
6
CONTINUOUS
10
3.25411
20
-6.94871
11
3.23911
21
-6.94871
0
LINE
8
BLACK
6
CONTINUOUS
10
3.23911
20
-6.94871
11
3.23162
21
-6.94496
0
LINE
8
BLACK
6
CONTINUOUS
10
3.23162
20
-6.94496
11
3.22787
21
-6.93746
0
LINE
8
BLACK
6
CONTINUOUS
10
3.22787
20
-6.93746
11
3.22787
21
-6.90746
0
LINE
8
BLACK
6
CONTINUOUS
10
3.22787
20
-6.90746
11
3.23162
21
-6.89996
0
LINE
8
BLACK
6
CONTINUOUS
10
3.23162
20
-6.89996
11
3.23911
21
-6.89621
0
LINE
8
BLACK
6
CONTINUOUS
10
3.23911
20
-6.89621
11
3.25411
21
-6.89621
0
LINE
8
BLACK
6
CONTINUOUS
10
3.25411
20
-6.89621
11
3.26161
21
-6.89996
0
LINE
8
BLACK
6
CONTINUOUS
10
3.26161
20
-6.89996
11
3.26536
21
-6.90746
0
LINE
8
BLACK
6
CONTINUOUS
10
3.26536
20
-6.90746
11
3.26536
21
-6.91496
0
LINE
8
BLACK
6
CONTINUOUS
10
3.26536
20
-6.91496
11
3.22787
21
-6.92246
0
LINE
8
BLACK
6
CONTINUOUS
10
3.29536
20
-6.94496
11
3.30286
21
-6.94871
0
LINE
8
BLACK
6
CONTINUOUS
10
3.30286
20
-6.94871
11
3.31785
21
-6.94871
0
LINE
8
BLACK
6
CONTINUOUS
10
3.31785
20
-6.94871
11
3.32535
21
-6.94496
0
LINE
8
BLACK
6
CONTINUOUS
10
3.32535
20
-6.94496
11
3.3291
21
-6.93746
0
LINE
8
BLACK
6
CONTINUOUS
10
3.3291
20
-6.93746
11
3.3291
21
-6.93371
0
LINE
8
BLACK
6
CONTINUOUS
10
3.3291
20
-6.93371
11
3.32535
21
-6.92621
0
LINE
8
BLACK
6
CONTINUOUS
10
3.32535
20
-6.92621
11
3.31785
21
-6.92246
0
LINE
8
BLACK
6
CONTINUOUS
10
3.31785
20
-6.92246
11
3.30661
21
-6.92246
0
LINE
8
BLACK
6
CONTINUOUS
10
3.30661
20
-6.92246
11
3.29911
21
-6.91871
0
LINE
8
BLACK
6
CONTINUOUS
10
3.29911
20
-6.91871
11
3.29536
21
-6.91121
0
LINE
8
BLACK
6
CONTINUOUS
10
3.29536
20
-6.91121
11
3.29536
21
-6.90746
0
LINE
8
BLACK
6
CONTINUOUS
10
3.29536
20
-6.90746
11
3.29911
21
-6.89996
0
LINE
8
BLACK
6
CONTINUOUS
10
3.29911
20
-6.89996
11
3.30661
21
-6.89621
0
LINE
8
BLACK
6
CONTINUOUS
10
3.30661
20
-6.89621
11
3.31785
21
-6.89621
0
LINE
8
BLACK
6
CONTINUOUS
10
3.31785
20
-6.89621
11
3.32535
21
-6.89996
0
LINE
8
BLACK
6
CONTINUOUS
10
3.35535
20
-6.9787
11
3.3591
21
-6.97495
0
LINE
8
BLACK
6
CONTINUOUS
10
3.3591
20
-6.97495
11
3.3666
21
-6.9637
0
LINE
8
BLACK
6
CONTINUOUS
10
3.3666
20
-6.9637
11
3.37035
21
-6.95621
0
LINE
8
BLACK
6
CONTINUOUS
10
3.37035
20
-6.95621
11
3.3741
21
-6.94496
0
LINE
8
BLACK
6
CONTINUOUS
10
3.3741
20
-6.94496
11
3.37785
21
-6.92621
0
LINE
8
BLACK
6
CONTINUOUS
10
3.37785
20
-6.92621
11
3.37785
21
-6.91121
0
LINE
8
BLACK
6
CONTINUOUS
10
3.37785
20
-6.91121
11
3.3741
21
-6.89246
0
LINE
8
BLACK
6
CONTINUOUS
10
3.3741
20
-6.89246
11
3.37035
21
-6.88121
0
LINE
8
BLACK
6
CONTINUOUS
10
3.37035
20
-6.88121
11
3.3666
21
-6.87372
0
LINE
8
BLACK
6
CONTINUOUS
10
3.3666
20
-6.87372
11
3.3591
21
-6.86247
0
LINE
8
BLACK
6
CONTINUOUS
10
3.3591
20
-6.86247
11
3.35535
21
-6.85872
0
LINE
8
BLACK
6
CONTINUOUS
10
3.49783
20
-6.9787
11
3.49408
21
-6.97495
0
LINE
8
BLACK
6
CONTINUOUS
10
3.49408
20
-6.97495
11
3.48658
21
-6.9637
0
LINE
8
BLACK
6
CONTINUOUS
10
3.48658
20
-6.9637
11
3.48283
21
-6.95621
0
LINE
8
BLACK
6
CONTINUOUS
10
3.48283
20
-6.95621
11
3.47908
21
-6.94496
0
LINE
8
BLACK
6
CONTINUOUS
10
3.47908
20
-6.94496
11
3.47534
21
-6.92621
0
LINE
8
BLACK
6
CONTINUOUS
10
3.47534
20
-6.92621
11
3.47534
21
-6.91121
0
LINE
8
BLACK
6
CONTINUOUS
10
3.47534
20
-6.91121
11
3.47908
21
-6.89246
0
LINE
8
BLACK
6
CONTINUOUS
10
3.47908
20
-6.89246
11
3.48283
21
-6.88121
0
LINE
8
BLACK
6
CONTINUOUS
10
3.48283
20
-6.88121
11
3.48658
21
-6.87372
0
LINE
8
BLACK
6
CONTINUOUS
10
3.48658
20
-6.87372
11
3.49408
21
-6.86247
0
LINE
8
BLACK
6
CONTINUOUS
10
3.49408
20
-6.86247
11
3.49783
21
-6.85872
0
LINE
8
BLACK
6
CONTINUOUS
10
3.52783
20
-6.89621
11
3.52783
21
-6.94871
0
LINE
8
BLACK
6
CONTINUOUS
10
3.52783
20
-6.90371
11
3.53158
21
-6.89996
0
LINE
8
BLACK
6
CONTINUOUS
10
3.53158
20
-6.89996
11
3.53908
21
-6.89621
0
LINE
8
BLACK
6
CONTINUOUS
10
3.53908
20
-6.89621
11
3.55033
21
-6.89621
0
LINE
8
BLACK
6
CONTINUOUS
10
3.55033
20
-6.89621
11
3.55782
21
-6.89996
0
LINE
8
BLACK
6
CONTINUOUS
10
3.55782
20
-6.89996
11
3.56157
21
-6.90746
0
LINE
8
BLACK
6
CONTINUOUS
10
3.56157
20
-6.90746
11
3.56157
21
-6.94871
0
LINE
8
BLACK
6
CONTINUOUS
10
3.61032
20
-6.94871
11
3.60282
21
-6.94496
0
LINE
8
BLACK
6
CONTINUOUS
10
3.60282
20
-6.94496
11
3.59907
21
-6.94121
0
LINE
8
BLACK
6
CONTINUOUS
10
3.59907
20
-6.94121
11
3.59532
21
-6.93371
0
LINE
8
BLACK
6
CONTINUOUS
10
3.59532
20
-6.93371
11
3.59532
21
-6.91121
0
LINE
8
BLACK
6
CONTINUOUS
10
3.59532
20
-6.91121
11
3.59907
21
-6.90371
0
LINE
8
BLACK
6
CONTINUOUS
10
3.59907
20
-6.90371
11
3.60282
21
-6.89996
0
LINE
8
BLACK
6
CONTINUOUS
10
3.60282
20
-6.89996
11
3.61032
21
-6.89621
0
LINE
8
BLACK
6
CONTINUOUS
10
3.61032
20
-6.89621
11
3.62157
21
-6.89621
0
LINE
8
BLACK
6
CONTINUOUS
10
3.62157
20
-6.89621
11
3.62907
21
-6.89996
0
LINE
8
BLACK
6
CONTINUOUS
10
3.62907
20
-6.89996
11
3.63282
21
-6.90371
0
LINE
8
BLACK
6
CONTINUOUS
10
3.63282
20
-6.90371
11
3.63656
21
-6.91121
0
LINE
8
BLACK
6
CONTINUOUS
10
3.63656
20
-6.91121
11
3.63656
21
-6.93371
0
LINE
8
BLACK
6
CONTINUOUS
10
3.63656
20
-6.93371
11
3.63282
21
-6.94121
0
LINE
8
BLACK
6
CONTINUOUS
10
3.63282
20
-6.94121
11
3.62907
21
-6.94496
0
LINE
8
BLACK
6
CONTINUOUS
10
3.62907
20
-6.94496
11
3.62157
21
-6.94871
0
LINE
8
BLACK
6
CONTINUOUS
10
3.62157
20
-6.94871
11
3.61032
21
-6.94871
0
LINE
8
BLACK
6
CONTINUOUS
10
3.65906
20
-6.89621
11
3.68906
21
-6.89621
0
LINE
8
BLACK
6
CONTINUOUS
10
3.67031
20
-6.86997
11
3.67031
21
-6.93746
0
LINE
8
BLACK
6
CONTINUOUS
10
3.67031
20
-6.93746
11
3.67406
21
-6.94496
0
LINE
8
BLACK
6
CONTINUOUS
10
3.67406
20
-6.94496
11
3.68156
21
-6.94871
0
LINE
8
BLACK
6
CONTINUOUS
10
3.68156
20
-6.94871
11
3.68906
21
-6.94871
0
LINE
8
BLACK
6
CONTINUOUS
10
3.7753
20
-6.89621
11
3.7753
21
-6.97495
0
LINE
8
BLACK
6
CONTINUOUS
10
3.7753
20
-6.89996
11
3.7828
21
-6.89621
0
LINE
8
BLACK
6
CONTINUOUS
10
3.7828
20
-6.89621
11
3.79779
21
-6.89621
0
LINE
8
BLACK
6
CONTINUOUS
10
3.79779
20
-6.89621
11
3.80529
21
-6.89996
0
LINE
8
BLACK
6
CONTINUOUS
10
3.80529
20
-6.89996
11
3.80904
21
-6.90371
0
LINE
8
BLACK
6
CONTINUOUS
10
3.80904
20
-6.90371
11
3.81279
21
-6.91121
0
LINE
8
BLACK
6
CONTINUOUS
10
3.81279
20
-6.91121
11
3.81279
21
-6.93371
0
LINE
8
BLACK
6
CONTINUOUS
10
3.81279
20
-6.93371
11
3.80904
21
-6.94121
0
LINE
8
BLACK
6
CONTINUOUS
10
3.80904
20
-6.94121
11
3.80529
21
-6.94496
0
LINE
8
BLACK
6
CONTINUOUS
10
3.80529
20
-6.94496
11
3.79779
21
-6.94871
0
LINE
8
BLACK
6
CONTINUOUS
10
3.79779
20
-6.94871
11
3.7828
21
-6.94871
0
LINE
8
BLACK
6
CONTINUOUS
10
3.7828
20
-6.94871
11
3.7753
21
-6.94496
0
LINE
8
BLACK
6
CONTINUOUS
10
3.85779
20
-6.94871
11
3.85029
21
-6.94496
0
LINE
8
BLACK
6
CONTINUOUS
10
3.85029
20
-6.94496
11
3.84654
21
-6.93746
0
LINE
8
BLACK
6
CONTINUOUS
10
3.84654
20
-6.93746
11
3.84654
21
-6.86997
0
LINE
8
BLACK
6
CONTINUOUS
10
3.92153
20
-6.94871
11
3.92153
21
-6.90746
0
LINE
8
BLACK
6
CONTINUOUS
10
3.92153
20
-6.90746
11
3.91778
21
-6.89996
0
LINE
8
BLACK
6
CONTINUOUS
10
3.91778
20
-6.89996
11
3.91028
21
-6.89621
0
LINE
8
BLACK
6
CONTINUOUS
10
3.91028
20
-6.89621
11
3.89528
21
-6.89621
0
LINE
8
BLACK
6
CONTINUOUS
10
3.89528
20
-6.89621
11
3.88778
21
-6.89996
0
LINE
8
BLACK
6
CONTINUOUS
10
3.92153
20
-6.94496
11
3.91403
21
-6.94871
0
LINE
8
BLACK
6
CONTINUOUS
10
3.91403
20
-6.94871
11
3.89528
21
-6.94871
0
LINE
8
BLACK
6
CONTINUOUS
10
3.89528
20
-6.94871
11
3.88778
21
-6.94496
0
LINE
8
BLACK
6
CONTINUOUS
10
3.88778
20
-6.94496
11
3.88403
21
-6.93746
0
LINE
8
BLACK
6
CONTINUOUS
10
3.88403
20
-6.93746
11
3.88403
21
-6.92996
0
LINE
8
BLACK
6
CONTINUOUS
10
3.88403
20
-6.92996
11
3.88778
21
-6.92246
0
LINE
8
BLACK
6
CONTINUOUS
10
3.88778
20
-6.92246
11
3.89528
21
-6.91871
0
LINE
8
BLACK
6
CONTINUOUS
10
3.89528
20
-6.91871
11
3.91403
21
-6.91871
0
LINE
8
BLACK
6
CONTINUOUS
10
3.91403
20
-6.91871
11
3.92153
21
-6.91496
0
LINE
8
BLACK
6
CONTINUOUS
10
3.94778
20
-6.89621
11
3.97777
21
-6.89621
0
LINE
8
BLACK
6
CONTINUOUS
10
3.95902
20
-6.86997
11
3.95902
21
-6.93746
0
LINE
8
BLACK
6
CONTINUOUS
10
3.95902
20
-6.93746
11
3.96277
21
-6.94496
0
LINE
8
BLACK
6
CONTINUOUS
10
3.96277
20
-6.94496
11
3.97027
21
-6.94871
0
LINE
8
BLACK
6
CONTINUOUS
10
3.97027
20
-6.94871
11
3.97777
21
-6.94871
0
LINE
8
BLACK
6
CONTINUOUS
10
4.03402
20
-6.94496
11
4.02652
21
-6.94871
0
LINE
8
BLACK
6
CONTINUOUS
10
4.02652
20
-6.94871
11
4.01152
21
-6.94871
0
LINE
8
BLACK
6
CONTINUOUS
10
4.01152
20
-6.94871
11
4.00402
21
-6.94496
0
LINE
8
BLACK
6
CONTINUOUS
10
4.00402
20
-6.94496
11
4.00027
21
-6.93746
0
LINE
8
BLACK
6
CONTINUOUS
10
4.00027
20
-6.93746
11
4.00027
21
-6.90746
0
LINE
8
BLACK
6
CONTINUOUS
10
4.00027
20
-6.90746
11
4.00402
21
-6.89996
0
LINE
8
BLACK
6
CONTINUOUS
10
4.00402
20
-6.89996
11
4.01152
21
-6.89621
0
LINE
8
BLACK
6
CONTINUOUS
10
4.01152
20
-6.89621
11
4.02652
21
-6.89621
0
LINE
8
BLACK
6
CONTINUOUS
10
4.02652
20
-6.89621
11
4.03402
21
-6.89996
0
LINE
8
BLACK
6
CONTINUOUS
10
4.03402
20
-6.89996
11
4.03776
21
-6.90746
0
LINE
8
BLACK
6
CONTINUOUS
10
4.03776
20
-6.90746
11
4.03776
21
-6.91496
0
LINE
8
BLACK
6
CONTINUOUS
10
4.03776
20
-6.91496
11
4.00027
21
-6.92246
0
LINE
8
BLACK
6
CONTINUOUS
10
4.10526
20
-6.94871
11
4.10526
21
-6.86997
0
LINE
8
BLACK
6
CONTINUOUS
10
4.10526
20
-6.94496
11
4.09776
21
-6.94871
0
LINE
8
BLACK
6
CONTINUOUS
10
4.09776
20
-6.94871
11
4.08276
21
-6.94871
0
LINE
8
BLACK
6
CONTINUOUS
10
4.08276
20
-6.94871
11
4.07526
21
-6.94496
0
LINE
8
BLACK
6
CONTINUOUS
10
4.07526
20
-6.94496
11
4.07151
21
-6.94121
0
LINE
8
BLACK
6
CONTINUOUS
10
4.07151
20
-6.94121
11
4.06776
21
-6.93371
0
LINE
8
BLACK
6
CONTINUOUS
10
4.06776
20
-6.93371
11
4.06776
21
-6.91121
0
LINE
8
BLACK
6
CONTINUOUS
10
4.06776
20
-6.91121
11
4.07151
21
-6.90371
0
LINE
8
BLACK
6
CONTINUOUS
10
4.07151
20
-6.90371
11
4.07526
21
-6.89996
0
LINE
8
BLACK
6
CONTINUOUS
10
4.07526
20
-6.89996
11
4.08276
21
-6.89621
0
LINE
8
BLACK
6
CONTINUOUS
10
4.08276
20
-6.89621
11
4.09776
21
-6.89621
0
LINE
8
BLACK
6
CONTINUOUS
10
4.09776
20
-6.89621
11
4.10526
21
-6.89996
0
LINE
8
BLACK
6
CONTINUOUS
10
4.13525
20
-6.9787
11
4.139
21
-6.97495
0
LINE
8
BLACK
6
CONTINUOUS
10
4.139
20
-6.97495
11
4.1465
21
-6.9637
0
LINE
8
BLACK
6
CONTINUOUS
10
4.1465
20
-6.9637
11
4.15025
21
-6.95621
0
LINE
8
BLACK
6
CONTINUOUS
10
4.15025
20
-6.95621
11
4.154
21
-6.94496
0
LINE
8
BLACK
6
CONTINUOUS
10
4.154
20
-6.94496
11
4.15775
21
-6.92621
0
LINE
8
BLACK
6
CONTINUOUS
10
4.15775
20
-6.92621
11
4.15775
21
-6.91121
0
LINE
8
BLACK
6
CONTINUOUS
10
4.15775
20
-6.91121
11
4.154
21
-6.89246
0
LINE
8
BLACK
6
CONTINUOUS
10
4.154
20
-6.89246
11
4.15025
21
-6.88121
0
LINE
8
BLACK
6
CONTINUOUS
10
4.15025
20
-6.88121
11
4.1465
21
-6.87372
0
LINE
8
BLACK
6
CONTINUOUS
10
4.1465
20
-6.87372
11
4.139
21
-6.86247
0
LINE
8
BLACK
6
CONTINUOUS
10
4.139
20
-6.86247
11
4.13525
21
-6.85872
  0
ENDSEC
  0
EOF
