%TF.GenerationSoftware,KiCad,Pcbnew,7.0.7-7.0.7~ubuntu22.04.1*%
%TF.CreationDate,2023-09-08T11:00:04+02:00*%
%TF.ProjectId,abomination,61626f6d-696e-4617-9469-6f6e2e6b6963,rev?*%
%TF.SameCoordinates,Original*%
%TF.FileFunction,Legend,Top*%
%TF.FilePolarity,Positive*%
%FSLAX46Y46*%
G04 Gerber Fmt 4.6, Leading zero omitted, Abs format (unit mm)*
G04 Created by KiCad (PCBNEW 7.0.7-7.0.7~ubuntu22.04.1) date 2023-09-08 11:00:04*
%MOMM*%
%LPD*%
G01*
G04 APERTURE LIST*
%ADD10C,0.150000*%
%ADD11C,0.120000*%
G04 APERTURE END LIST*
D10*
X174780951Y-69054819D02*
X174780951Y-69769104D01*
X174780951Y-69769104D02*
X174733332Y-69911961D01*
X174733332Y-69911961D02*
X174638094Y-70007200D01*
X174638094Y-70007200D02*
X174495237Y-70054819D01*
X174495237Y-70054819D02*
X174399999Y-70054819D01*
X175733332Y-70054819D02*
X175257142Y-70054819D01*
X175257142Y-70054819D02*
X175257142Y-69054819D01*
X176638094Y-69959580D02*
X176590475Y-70007200D01*
X176590475Y-70007200D02*
X176447618Y-70054819D01*
X176447618Y-70054819D02*
X176352380Y-70054819D01*
X176352380Y-70054819D02*
X176209523Y-70007200D01*
X176209523Y-70007200D02*
X176114285Y-69911961D01*
X176114285Y-69911961D02*
X176066666Y-69816723D01*
X176066666Y-69816723D02*
X176019047Y-69626247D01*
X176019047Y-69626247D02*
X176019047Y-69483390D01*
X176019047Y-69483390D02*
X176066666Y-69292914D01*
X176066666Y-69292914D02*
X176114285Y-69197676D01*
X176114285Y-69197676D02*
X176209523Y-69102438D01*
X176209523Y-69102438D02*
X176352380Y-69054819D01*
X176352380Y-69054819D02*
X176447618Y-69054819D01*
X176447618Y-69054819D02*
X176590475Y-69102438D01*
X176590475Y-69102438D02*
X176638094Y-69150057D01*
X177352380Y-69054819D02*
X177352380Y-69769104D01*
X177352380Y-69769104D02*
X177304761Y-69911961D01*
X177304761Y-69911961D02*
X177209523Y-70007200D01*
X177209523Y-70007200D02*
X177066666Y-70054819D01*
X177066666Y-70054819D02*
X176971428Y-70054819D01*
X178304761Y-70054819D02*
X177828571Y-70054819D01*
X177828571Y-70054819D02*
X177828571Y-69054819D01*
X179209523Y-69959580D02*
X179161904Y-70007200D01*
X179161904Y-70007200D02*
X179019047Y-70054819D01*
X179019047Y-70054819D02*
X178923809Y-70054819D01*
X178923809Y-70054819D02*
X178780952Y-70007200D01*
X178780952Y-70007200D02*
X178685714Y-69911961D01*
X178685714Y-69911961D02*
X178638095Y-69816723D01*
X178638095Y-69816723D02*
X178590476Y-69626247D01*
X178590476Y-69626247D02*
X178590476Y-69483390D01*
X178590476Y-69483390D02*
X178638095Y-69292914D01*
X178638095Y-69292914D02*
X178685714Y-69197676D01*
X178685714Y-69197676D02*
X178780952Y-69102438D01*
X178780952Y-69102438D02*
X178923809Y-69054819D01*
X178923809Y-69054819D02*
X179019047Y-69054819D01*
X179019047Y-69054819D02*
X179161904Y-69102438D01*
X179161904Y-69102438D02*
X179209523Y-69150057D01*
X179923809Y-69054819D02*
X179923809Y-69769104D01*
X179923809Y-69769104D02*
X179876190Y-69911961D01*
X179876190Y-69911961D02*
X179780952Y-70007200D01*
X179780952Y-70007200D02*
X179638095Y-70054819D01*
X179638095Y-70054819D02*
X179542857Y-70054819D01*
X180876190Y-70054819D02*
X180400000Y-70054819D01*
X180400000Y-70054819D02*
X180400000Y-69054819D01*
X181780952Y-69959580D02*
X181733333Y-70007200D01*
X181733333Y-70007200D02*
X181590476Y-70054819D01*
X181590476Y-70054819D02*
X181495238Y-70054819D01*
X181495238Y-70054819D02*
X181352381Y-70007200D01*
X181352381Y-70007200D02*
X181257143Y-69911961D01*
X181257143Y-69911961D02*
X181209524Y-69816723D01*
X181209524Y-69816723D02*
X181161905Y-69626247D01*
X181161905Y-69626247D02*
X181161905Y-69483390D01*
X181161905Y-69483390D02*
X181209524Y-69292914D01*
X181209524Y-69292914D02*
X181257143Y-69197676D01*
X181257143Y-69197676D02*
X181352381Y-69102438D01*
X181352381Y-69102438D02*
X181495238Y-69054819D01*
X181495238Y-69054819D02*
X181590476Y-69054819D01*
X181590476Y-69054819D02*
X181733333Y-69102438D01*
X181733333Y-69102438D02*
X181780952Y-69150057D01*
X182495238Y-69054819D02*
X182495238Y-69769104D01*
X182495238Y-69769104D02*
X182447619Y-69911961D01*
X182447619Y-69911961D02*
X182352381Y-70007200D01*
X182352381Y-70007200D02*
X182209524Y-70054819D01*
X182209524Y-70054819D02*
X182114286Y-70054819D01*
X183447619Y-70054819D02*
X182971429Y-70054819D01*
X182971429Y-70054819D02*
X182971429Y-69054819D01*
X184352381Y-69959580D02*
X184304762Y-70007200D01*
X184304762Y-70007200D02*
X184161905Y-70054819D01*
X184161905Y-70054819D02*
X184066667Y-70054819D01*
X184066667Y-70054819D02*
X183923810Y-70007200D01*
X183923810Y-70007200D02*
X183828572Y-69911961D01*
X183828572Y-69911961D02*
X183780953Y-69816723D01*
X183780953Y-69816723D02*
X183733334Y-69626247D01*
X183733334Y-69626247D02*
X183733334Y-69483390D01*
X183733334Y-69483390D02*
X183780953Y-69292914D01*
X183780953Y-69292914D02*
X183828572Y-69197676D01*
X183828572Y-69197676D02*
X183923810Y-69102438D01*
X183923810Y-69102438D02*
X184066667Y-69054819D01*
X184066667Y-69054819D02*
X184161905Y-69054819D01*
X184161905Y-69054819D02*
X184304762Y-69102438D01*
X184304762Y-69102438D02*
X184352381Y-69150057D01*
X151883596Y-60372117D02*
X151883596Y-61181640D01*
X151883596Y-61181640D02*
X151931215Y-61276878D01*
X151931215Y-61276878D02*
X151978834Y-61324498D01*
X151978834Y-61324498D02*
X152074072Y-61372117D01*
X152074072Y-61372117D02*
X152264548Y-61372117D01*
X152264548Y-61372117D02*
X152359786Y-61324498D01*
X152359786Y-61324498D02*
X152407405Y-61276878D01*
X152407405Y-61276878D02*
X152455024Y-61181640D01*
X152455024Y-61181640D02*
X152455024Y-60372117D01*
X152883596Y-61324498D02*
X153026453Y-61372117D01*
X153026453Y-61372117D02*
X153264548Y-61372117D01*
X153264548Y-61372117D02*
X153359786Y-61324498D01*
X153359786Y-61324498D02*
X153407405Y-61276878D01*
X153407405Y-61276878D02*
X153455024Y-61181640D01*
X153455024Y-61181640D02*
X153455024Y-61086402D01*
X153455024Y-61086402D02*
X153407405Y-60991164D01*
X153407405Y-60991164D02*
X153359786Y-60943545D01*
X153359786Y-60943545D02*
X153264548Y-60895926D01*
X153264548Y-60895926D02*
X153074072Y-60848307D01*
X153074072Y-60848307D02*
X152978834Y-60800688D01*
X152978834Y-60800688D02*
X152931215Y-60753069D01*
X152931215Y-60753069D02*
X152883596Y-60657831D01*
X152883596Y-60657831D02*
X152883596Y-60562593D01*
X152883596Y-60562593D02*
X152931215Y-60467355D01*
X152931215Y-60467355D02*
X152978834Y-60419736D01*
X152978834Y-60419736D02*
X153074072Y-60372117D01*
X153074072Y-60372117D02*
X153312167Y-60372117D01*
X153312167Y-60372117D02*
X153455024Y-60419736D01*
X154216929Y-60848307D02*
X154359786Y-60895926D01*
X154359786Y-60895926D02*
X154407405Y-60943545D01*
X154407405Y-60943545D02*
X154455024Y-61038783D01*
X154455024Y-61038783D02*
X154455024Y-61181640D01*
X154455024Y-61181640D02*
X154407405Y-61276878D01*
X154407405Y-61276878D02*
X154359786Y-61324498D01*
X154359786Y-61324498D02*
X154264548Y-61372117D01*
X154264548Y-61372117D02*
X153883596Y-61372117D01*
X153883596Y-61372117D02*
X153883596Y-60372117D01*
X153883596Y-60372117D02*
X154216929Y-60372117D01*
X154216929Y-60372117D02*
X154312167Y-60419736D01*
X154312167Y-60419736D02*
X154359786Y-60467355D01*
X154359786Y-60467355D02*
X154407405Y-60562593D01*
X154407405Y-60562593D02*
X154407405Y-60657831D01*
X154407405Y-60657831D02*
X154359786Y-60753069D01*
X154359786Y-60753069D02*
X154312167Y-60800688D01*
X154312167Y-60800688D02*
X154216929Y-60848307D01*
X154216929Y-60848307D02*
X153883596Y-60848307D01*
X161051215Y-62402117D02*
X160479787Y-62402117D01*
X160765501Y-62402117D02*
X160765501Y-61402117D01*
X160765501Y-61402117D02*
X160670263Y-61544974D01*
X160670263Y-61544974D02*
X160575025Y-61640212D01*
X160575025Y-61640212D02*
X160479787Y-61687831D01*
X149859787Y-62105450D02*
X150240739Y-62105450D01*
X150002644Y-61772117D02*
X150002644Y-62629259D01*
X150002644Y-62629259D02*
X150050263Y-62724498D01*
X150050263Y-62724498D02*
X150145501Y-62772117D01*
X150145501Y-62772117D02*
X150240739Y-62772117D01*
X150716930Y-62772117D02*
X150621692Y-62724498D01*
X150621692Y-62724498D02*
X150574073Y-62676878D01*
X150574073Y-62676878D02*
X150526454Y-62581640D01*
X150526454Y-62581640D02*
X150526454Y-62295926D01*
X150526454Y-62295926D02*
X150574073Y-62200688D01*
X150574073Y-62200688D02*
X150621692Y-62153069D01*
X150621692Y-62153069D02*
X150716930Y-62105450D01*
X150716930Y-62105450D02*
X150859787Y-62105450D01*
X150859787Y-62105450D02*
X150955025Y-62153069D01*
X150955025Y-62153069D02*
X151002644Y-62200688D01*
X151002644Y-62200688D02*
X151050263Y-62295926D01*
X151050263Y-62295926D02*
X151050263Y-62581640D01*
X151050263Y-62581640D02*
X151002644Y-62676878D01*
X151002644Y-62676878D02*
X150955025Y-62724498D01*
X150955025Y-62724498D02*
X150859787Y-62772117D01*
X150859787Y-62772117D02*
X150716930Y-62772117D01*
X151383597Y-62105450D02*
X151574073Y-62772117D01*
X151574073Y-62772117D02*
X151764549Y-62295926D01*
X151764549Y-62295926D02*
X151955025Y-62772117D01*
X151955025Y-62772117D02*
X152145501Y-62105450D01*
X152526454Y-62676878D02*
X152574073Y-62724498D01*
X152574073Y-62724498D02*
X152526454Y-62772117D01*
X152526454Y-62772117D02*
X152478835Y-62724498D01*
X152478835Y-62724498D02*
X152526454Y-62676878D01*
X152526454Y-62676878D02*
X152526454Y-62772117D01*
X153764549Y-62772117D02*
X153764549Y-61772117D01*
X153764549Y-61772117D02*
X154145501Y-61772117D01*
X154145501Y-61772117D02*
X154240739Y-61819736D01*
X154240739Y-61819736D02*
X154288358Y-61867355D01*
X154288358Y-61867355D02*
X154335977Y-61962593D01*
X154335977Y-61962593D02*
X154335977Y-62105450D01*
X154335977Y-62105450D02*
X154288358Y-62200688D01*
X154288358Y-62200688D02*
X154240739Y-62248307D01*
X154240739Y-62248307D02*
X154145501Y-62295926D01*
X154145501Y-62295926D02*
X153764549Y-62295926D01*
X155335977Y-62676878D02*
X155288358Y-62724498D01*
X155288358Y-62724498D02*
X155145501Y-62772117D01*
X155145501Y-62772117D02*
X155050263Y-62772117D01*
X155050263Y-62772117D02*
X154907406Y-62724498D01*
X154907406Y-62724498D02*
X154812168Y-62629259D01*
X154812168Y-62629259D02*
X154764549Y-62534021D01*
X154764549Y-62534021D02*
X154716930Y-62343545D01*
X154716930Y-62343545D02*
X154716930Y-62200688D01*
X154716930Y-62200688D02*
X154764549Y-62010212D01*
X154764549Y-62010212D02*
X154812168Y-61914974D01*
X154812168Y-61914974D02*
X154907406Y-61819736D01*
X154907406Y-61819736D02*
X155050263Y-61772117D01*
X155050263Y-61772117D02*
X155145501Y-61772117D01*
X155145501Y-61772117D02*
X155288358Y-61819736D01*
X155288358Y-61819736D02*
X155335977Y-61867355D01*
X156097882Y-62248307D02*
X156240739Y-62295926D01*
X156240739Y-62295926D02*
X156288358Y-62343545D01*
X156288358Y-62343545D02*
X156335977Y-62438783D01*
X156335977Y-62438783D02*
X156335977Y-62581640D01*
X156335977Y-62581640D02*
X156288358Y-62676878D01*
X156288358Y-62676878D02*
X156240739Y-62724498D01*
X156240739Y-62724498D02*
X156145501Y-62772117D01*
X156145501Y-62772117D02*
X155764549Y-62772117D01*
X155764549Y-62772117D02*
X155764549Y-61772117D01*
X155764549Y-61772117D02*
X156097882Y-61772117D01*
X156097882Y-61772117D02*
X156193120Y-61819736D01*
X156193120Y-61819736D02*
X156240739Y-61867355D01*
X156240739Y-61867355D02*
X156288358Y-61962593D01*
X156288358Y-61962593D02*
X156288358Y-62057831D01*
X156288358Y-62057831D02*
X156240739Y-62153069D01*
X156240739Y-62153069D02*
X156193120Y-62200688D01*
X156193120Y-62200688D02*
X156097882Y-62248307D01*
X156097882Y-62248307D02*
X155764549Y-62248307D01*
X164296096Y-69207116D02*
X164867524Y-69207116D01*
X164581810Y-70207116D02*
X164581810Y-69207116D01*
X165772286Y-70207116D02*
X165438953Y-69730925D01*
X165200858Y-70207116D02*
X165200858Y-69207116D01*
X165200858Y-69207116D02*
X165581810Y-69207116D01*
X165581810Y-69207116D02*
X165677048Y-69254735D01*
X165677048Y-69254735D02*
X165724667Y-69302354D01*
X165724667Y-69302354D02*
X165772286Y-69397592D01*
X165772286Y-69397592D02*
X165772286Y-69540449D01*
X165772286Y-69540449D02*
X165724667Y-69635687D01*
X165724667Y-69635687D02*
X165677048Y-69683306D01*
X165677048Y-69683306D02*
X165581810Y-69730925D01*
X165581810Y-69730925D02*
X165200858Y-69730925D01*
X166772286Y-70207116D02*
X166438953Y-69730925D01*
X166200858Y-70207116D02*
X166200858Y-69207116D01*
X166200858Y-69207116D02*
X166581810Y-69207116D01*
X166581810Y-69207116D02*
X166677048Y-69254735D01*
X166677048Y-69254735D02*
X166724667Y-69302354D01*
X166724667Y-69302354D02*
X166772286Y-69397592D01*
X166772286Y-69397592D02*
X166772286Y-69540449D01*
X166772286Y-69540449D02*
X166724667Y-69635687D01*
X166724667Y-69635687D02*
X166677048Y-69683306D01*
X166677048Y-69683306D02*
X166581810Y-69730925D01*
X166581810Y-69730925D02*
X166200858Y-69730925D01*
X167153239Y-70159497D02*
X167296096Y-70207116D01*
X167296096Y-70207116D02*
X167534191Y-70207116D01*
X167534191Y-70207116D02*
X167629429Y-70159497D01*
X167629429Y-70159497D02*
X167677048Y-70111877D01*
X167677048Y-70111877D02*
X167724667Y-70016639D01*
X167724667Y-70016639D02*
X167724667Y-69921401D01*
X167724667Y-69921401D02*
X167677048Y-69826163D01*
X167677048Y-69826163D02*
X167629429Y-69778544D01*
X167629429Y-69778544D02*
X167534191Y-69730925D01*
X167534191Y-69730925D02*
X167343715Y-69683306D01*
X167343715Y-69683306D02*
X167248477Y-69635687D01*
X167248477Y-69635687D02*
X167200858Y-69588068D01*
X167200858Y-69588068D02*
X167153239Y-69492830D01*
X167153239Y-69492830D02*
X167153239Y-69397592D01*
X167153239Y-69397592D02*
X167200858Y-69302354D01*
X167200858Y-69302354D02*
X167248477Y-69254735D01*
X167248477Y-69254735D02*
X167343715Y-69207116D01*
X167343715Y-69207116D02*
X167581810Y-69207116D01*
X167581810Y-69207116D02*
X167724667Y-69254735D01*
X217600321Y-127857062D02*
X217124130Y-128190395D01*
X217600321Y-128428490D02*
X216600321Y-128428490D01*
X216600321Y-128428490D02*
X216600321Y-128047538D01*
X216600321Y-128047538D02*
X216647940Y-127952300D01*
X216647940Y-127952300D02*
X216695559Y-127904681D01*
X216695559Y-127904681D02*
X216790797Y-127857062D01*
X216790797Y-127857062D02*
X216933654Y-127857062D01*
X216933654Y-127857062D02*
X217028892Y-127904681D01*
X217028892Y-127904681D02*
X217076511Y-127952300D01*
X217076511Y-127952300D02*
X217124130Y-128047538D01*
X217124130Y-128047538D02*
X217124130Y-128428490D01*
X217695559Y-127666586D02*
X217695559Y-126904681D01*
X217600321Y-126095157D02*
X217124130Y-126428490D01*
X217600321Y-126666585D02*
X216600321Y-126666585D01*
X216600321Y-126666585D02*
X216600321Y-126285633D01*
X216600321Y-126285633D02*
X216647940Y-126190395D01*
X216647940Y-126190395D02*
X216695559Y-126142776D01*
X216695559Y-126142776D02*
X216790797Y-126095157D01*
X216790797Y-126095157D02*
X216933654Y-126095157D01*
X216933654Y-126095157D02*
X217028892Y-126142776D01*
X217028892Y-126142776D02*
X217076511Y-126190395D01*
X217076511Y-126190395D02*
X217124130Y-126285633D01*
X217124130Y-126285633D02*
X217124130Y-126666585D01*
X217552702Y-125714204D02*
X217600321Y-125571347D01*
X217600321Y-125571347D02*
X217600321Y-125333252D01*
X217600321Y-125333252D02*
X217552702Y-125238014D01*
X217552702Y-125238014D02*
X217505082Y-125190395D01*
X217505082Y-125190395D02*
X217409844Y-125142776D01*
X217409844Y-125142776D02*
X217314606Y-125142776D01*
X217314606Y-125142776D02*
X217219368Y-125190395D01*
X217219368Y-125190395D02*
X217171749Y-125238014D01*
X217171749Y-125238014D02*
X217124130Y-125333252D01*
X217124130Y-125333252D02*
X217076511Y-125523728D01*
X217076511Y-125523728D02*
X217028892Y-125618966D01*
X217028892Y-125618966D02*
X216981273Y-125666585D01*
X216981273Y-125666585D02*
X216886035Y-125714204D01*
X216886035Y-125714204D02*
X216790797Y-125714204D01*
X216790797Y-125714204D02*
X216695559Y-125666585D01*
X216695559Y-125666585D02*
X216647940Y-125618966D01*
X216647940Y-125618966D02*
X216600321Y-125523728D01*
X216600321Y-125523728D02*
X216600321Y-125285633D01*
X216600321Y-125285633D02*
X216647940Y-125142776D01*
X216600321Y-124857061D02*
X216600321Y-124285633D01*
X217600321Y-124571347D02*
X216600321Y-124571347D01*
X217600321Y-123428490D02*
X217600321Y-123999918D01*
X217600321Y-123714204D02*
X216600321Y-123714204D01*
X216600321Y-123714204D02*
X216743178Y-123809442D01*
X216743178Y-123809442D02*
X216838416Y-123904680D01*
X216838416Y-123904680D02*
X216886035Y-123999918D01*
X212117822Y-105035633D02*
X212832107Y-105035633D01*
X212832107Y-105035633D02*
X212974964Y-105083252D01*
X212974964Y-105083252D02*
X213070203Y-105178490D01*
X213070203Y-105178490D02*
X213117822Y-105321347D01*
X213117822Y-105321347D02*
X213117822Y-105416585D01*
X212117822Y-104654680D02*
X212117822Y-104035633D01*
X212117822Y-104035633D02*
X212498774Y-104368966D01*
X212498774Y-104368966D02*
X212498774Y-104226109D01*
X212498774Y-104226109D02*
X212546393Y-104130871D01*
X212546393Y-104130871D02*
X212594012Y-104083252D01*
X212594012Y-104083252D02*
X212689250Y-104035633D01*
X212689250Y-104035633D02*
X212927345Y-104035633D01*
X212927345Y-104035633D02*
X213022583Y-104083252D01*
X213022583Y-104083252D02*
X213070203Y-104130871D01*
X213070203Y-104130871D02*
X213117822Y-104226109D01*
X213117822Y-104226109D02*
X213117822Y-104511823D01*
X213117822Y-104511823D02*
X213070203Y-104607061D01*
X213070203Y-104607061D02*
X213022583Y-104654680D01*
X202471597Y-69539620D02*
X203043025Y-69539620D01*
X202757311Y-70539620D02*
X202757311Y-69539620D01*
X203947787Y-70539620D02*
X203614454Y-70063429D01*
X203376359Y-70539620D02*
X203376359Y-69539620D01*
X203376359Y-69539620D02*
X203757311Y-69539620D01*
X203757311Y-69539620D02*
X203852549Y-69587239D01*
X203852549Y-69587239D02*
X203900168Y-69634858D01*
X203900168Y-69634858D02*
X203947787Y-69730096D01*
X203947787Y-69730096D02*
X203947787Y-69872953D01*
X203947787Y-69872953D02*
X203900168Y-69968191D01*
X203900168Y-69968191D02*
X203852549Y-70015810D01*
X203852549Y-70015810D02*
X203757311Y-70063429D01*
X203757311Y-70063429D02*
X203376359Y-70063429D01*
X204947787Y-70539620D02*
X204614454Y-70063429D01*
X204376359Y-70539620D02*
X204376359Y-69539620D01*
X204376359Y-69539620D02*
X204757311Y-69539620D01*
X204757311Y-69539620D02*
X204852549Y-69587239D01*
X204852549Y-69587239D02*
X204900168Y-69634858D01*
X204900168Y-69634858D02*
X204947787Y-69730096D01*
X204947787Y-69730096D02*
X204947787Y-69872953D01*
X204947787Y-69872953D02*
X204900168Y-69968191D01*
X204900168Y-69968191D02*
X204852549Y-70015810D01*
X204852549Y-70015810D02*
X204757311Y-70063429D01*
X204757311Y-70063429D02*
X204376359Y-70063429D01*
X205328740Y-70492001D02*
X205471597Y-70539620D01*
X205471597Y-70539620D02*
X205709692Y-70539620D01*
X205709692Y-70539620D02*
X205804930Y-70492001D01*
X205804930Y-70492001D02*
X205852549Y-70444381D01*
X205852549Y-70444381D02*
X205900168Y-70349143D01*
X205900168Y-70349143D02*
X205900168Y-70253905D01*
X205900168Y-70253905D02*
X205852549Y-70158667D01*
X205852549Y-70158667D02*
X205804930Y-70111048D01*
X205804930Y-70111048D02*
X205709692Y-70063429D01*
X205709692Y-70063429D02*
X205519216Y-70015810D01*
X205519216Y-70015810D02*
X205423978Y-69968191D01*
X205423978Y-69968191D02*
X205376359Y-69920572D01*
X205376359Y-69920572D02*
X205328740Y-69825334D01*
X205328740Y-69825334D02*
X205328740Y-69730096D01*
X205328740Y-69730096D02*
X205376359Y-69634858D01*
X205376359Y-69634858D02*
X205423978Y-69587239D01*
X205423978Y-69587239D02*
X205519216Y-69539620D01*
X205519216Y-69539620D02*
X205757311Y-69539620D01*
X205757311Y-69539620D02*
X205900168Y-69587239D01*
X211704912Y-97342121D02*
X211704912Y-98151644D01*
X211704912Y-98151644D02*
X211752531Y-98246882D01*
X211752531Y-98246882D02*
X211800150Y-98294502D01*
X211800150Y-98294502D02*
X211895388Y-98342121D01*
X211895388Y-98342121D02*
X212085864Y-98342121D01*
X212085864Y-98342121D02*
X212181102Y-98294502D01*
X212181102Y-98294502D02*
X212228721Y-98246882D01*
X212228721Y-98246882D02*
X212276340Y-98151644D01*
X212276340Y-98151644D02*
X212276340Y-97342121D01*
X212704912Y-97437359D02*
X212752531Y-97389740D01*
X212752531Y-97389740D02*
X212847769Y-97342121D01*
X212847769Y-97342121D02*
X213085864Y-97342121D01*
X213085864Y-97342121D02*
X213181102Y-97389740D01*
X213181102Y-97389740D02*
X213228721Y-97437359D01*
X213228721Y-97437359D02*
X213276340Y-97532597D01*
X213276340Y-97532597D02*
X213276340Y-97627835D01*
X213276340Y-97627835D02*
X213228721Y-97770692D01*
X213228721Y-97770692D02*
X212657293Y-98342121D01*
X212657293Y-98342121D02*
X213276340Y-98342121D01*
X215359787Y-65780454D02*
X215740739Y-65780454D01*
X215502644Y-65447121D02*
X215502644Y-66304263D01*
X215502644Y-66304263D02*
X215550263Y-66399502D01*
X215550263Y-66399502D02*
X215645501Y-66447121D01*
X215645501Y-66447121D02*
X215740739Y-66447121D01*
X216216930Y-66447121D02*
X216121692Y-66399502D01*
X216121692Y-66399502D02*
X216074073Y-66351882D01*
X216074073Y-66351882D02*
X216026454Y-66256644D01*
X216026454Y-66256644D02*
X216026454Y-65970930D01*
X216026454Y-65970930D02*
X216074073Y-65875692D01*
X216074073Y-65875692D02*
X216121692Y-65828073D01*
X216121692Y-65828073D02*
X216216930Y-65780454D01*
X216216930Y-65780454D02*
X216359787Y-65780454D01*
X216359787Y-65780454D02*
X216455025Y-65828073D01*
X216455025Y-65828073D02*
X216502644Y-65875692D01*
X216502644Y-65875692D02*
X216550263Y-65970930D01*
X216550263Y-65970930D02*
X216550263Y-66256644D01*
X216550263Y-66256644D02*
X216502644Y-66351882D01*
X216502644Y-66351882D02*
X216455025Y-66399502D01*
X216455025Y-66399502D02*
X216359787Y-66447121D01*
X216359787Y-66447121D02*
X216216930Y-66447121D01*
X216883597Y-65780454D02*
X217074073Y-66447121D01*
X217074073Y-66447121D02*
X217264549Y-65970930D01*
X217264549Y-65970930D02*
X217455025Y-66447121D01*
X217455025Y-66447121D02*
X217645501Y-65780454D01*
X218026454Y-66351882D02*
X218074073Y-66399502D01*
X218074073Y-66399502D02*
X218026454Y-66447121D01*
X218026454Y-66447121D02*
X217978835Y-66399502D01*
X217978835Y-66399502D02*
X218026454Y-66351882D01*
X218026454Y-66351882D02*
X218026454Y-66447121D01*
X219264549Y-66447121D02*
X219264549Y-65447121D01*
X219264549Y-65447121D02*
X219645501Y-65447121D01*
X219645501Y-65447121D02*
X219740739Y-65494740D01*
X219740739Y-65494740D02*
X219788358Y-65542359D01*
X219788358Y-65542359D02*
X219835977Y-65637597D01*
X219835977Y-65637597D02*
X219835977Y-65780454D01*
X219835977Y-65780454D02*
X219788358Y-65875692D01*
X219788358Y-65875692D02*
X219740739Y-65923311D01*
X219740739Y-65923311D02*
X219645501Y-65970930D01*
X219645501Y-65970930D02*
X219264549Y-65970930D01*
X220835977Y-66351882D02*
X220788358Y-66399502D01*
X220788358Y-66399502D02*
X220645501Y-66447121D01*
X220645501Y-66447121D02*
X220550263Y-66447121D01*
X220550263Y-66447121D02*
X220407406Y-66399502D01*
X220407406Y-66399502D02*
X220312168Y-66304263D01*
X220312168Y-66304263D02*
X220264549Y-66209025D01*
X220264549Y-66209025D02*
X220216930Y-66018549D01*
X220216930Y-66018549D02*
X220216930Y-65875692D01*
X220216930Y-65875692D02*
X220264549Y-65685216D01*
X220264549Y-65685216D02*
X220312168Y-65589978D01*
X220312168Y-65589978D02*
X220407406Y-65494740D01*
X220407406Y-65494740D02*
X220550263Y-65447121D01*
X220550263Y-65447121D02*
X220645501Y-65447121D01*
X220645501Y-65447121D02*
X220788358Y-65494740D01*
X220788358Y-65494740D02*
X220835977Y-65542359D01*
X221597882Y-65923311D02*
X221740739Y-65970930D01*
X221740739Y-65970930D02*
X221788358Y-66018549D01*
X221788358Y-66018549D02*
X221835977Y-66113787D01*
X221835977Y-66113787D02*
X221835977Y-66256644D01*
X221835977Y-66256644D02*
X221788358Y-66351882D01*
X221788358Y-66351882D02*
X221740739Y-66399502D01*
X221740739Y-66399502D02*
X221645501Y-66447121D01*
X221645501Y-66447121D02*
X221264549Y-66447121D01*
X221264549Y-66447121D02*
X221264549Y-65447121D01*
X221264549Y-65447121D02*
X221597882Y-65447121D01*
X221597882Y-65447121D02*
X221693120Y-65494740D01*
X221693120Y-65494740D02*
X221740739Y-65542359D01*
X221740739Y-65542359D02*
X221788358Y-65637597D01*
X221788358Y-65637597D02*
X221788358Y-65732835D01*
X221788358Y-65732835D02*
X221740739Y-65828073D01*
X221740739Y-65828073D02*
X221693120Y-65875692D01*
X221693120Y-65875692D02*
X221597882Y-65923311D01*
X221597882Y-65923311D02*
X221264549Y-65923311D01*
X217383596Y-64047121D02*
X217383596Y-64856644D01*
X217383596Y-64856644D02*
X217431215Y-64951882D01*
X217431215Y-64951882D02*
X217478834Y-64999502D01*
X217478834Y-64999502D02*
X217574072Y-65047121D01*
X217574072Y-65047121D02*
X217764548Y-65047121D01*
X217764548Y-65047121D02*
X217859786Y-64999502D01*
X217859786Y-64999502D02*
X217907405Y-64951882D01*
X217907405Y-64951882D02*
X217955024Y-64856644D01*
X217955024Y-64856644D02*
X217955024Y-64047121D01*
X218383596Y-64999502D02*
X218526453Y-65047121D01*
X218526453Y-65047121D02*
X218764548Y-65047121D01*
X218764548Y-65047121D02*
X218859786Y-64999502D01*
X218859786Y-64999502D02*
X218907405Y-64951882D01*
X218907405Y-64951882D02*
X218955024Y-64856644D01*
X218955024Y-64856644D02*
X218955024Y-64761406D01*
X218955024Y-64761406D02*
X218907405Y-64666168D01*
X218907405Y-64666168D02*
X218859786Y-64618549D01*
X218859786Y-64618549D02*
X218764548Y-64570930D01*
X218764548Y-64570930D02*
X218574072Y-64523311D01*
X218574072Y-64523311D02*
X218478834Y-64475692D01*
X218478834Y-64475692D02*
X218431215Y-64428073D01*
X218431215Y-64428073D02*
X218383596Y-64332835D01*
X218383596Y-64332835D02*
X218383596Y-64237597D01*
X218383596Y-64237597D02*
X218431215Y-64142359D01*
X218431215Y-64142359D02*
X218478834Y-64094740D01*
X218478834Y-64094740D02*
X218574072Y-64047121D01*
X218574072Y-64047121D02*
X218812167Y-64047121D01*
X218812167Y-64047121D02*
X218955024Y-64094740D01*
X219716929Y-64523311D02*
X219859786Y-64570930D01*
X219859786Y-64570930D02*
X219907405Y-64618549D01*
X219907405Y-64618549D02*
X219955024Y-64713787D01*
X219955024Y-64713787D02*
X219955024Y-64856644D01*
X219955024Y-64856644D02*
X219907405Y-64951882D01*
X219907405Y-64951882D02*
X219859786Y-64999502D01*
X219859786Y-64999502D02*
X219764548Y-65047121D01*
X219764548Y-65047121D02*
X219383596Y-65047121D01*
X219383596Y-65047121D02*
X219383596Y-64047121D01*
X219383596Y-64047121D02*
X219716929Y-64047121D01*
X219716929Y-64047121D02*
X219812167Y-64094740D01*
X219812167Y-64094740D02*
X219859786Y-64142359D01*
X219859786Y-64142359D02*
X219907405Y-64237597D01*
X219907405Y-64237597D02*
X219907405Y-64332835D01*
X219907405Y-64332835D02*
X219859786Y-64428073D01*
X219859786Y-64428073D02*
X219812167Y-64475692D01*
X219812167Y-64475692D02*
X219716929Y-64523311D01*
X219716929Y-64523311D02*
X219383596Y-64523311D01*
X226551215Y-66077121D02*
X225979787Y-66077121D01*
X226265501Y-66077121D02*
X226265501Y-65077121D01*
X226265501Y-65077121D02*
X226170263Y-65219978D01*
X226170263Y-65219978D02*
X226075025Y-65315216D01*
X226075025Y-65315216D02*
X225979787Y-65362835D01*
%TO.C,U1*%
X143875501Y-59922298D02*
X143875501Y-92822298D01*
X144375501Y-93322298D02*
X161915501Y-93322298D01*
X149595501Y-63502298D02*
X149595501Y-59922298D01*
X156695501Y-63502298D02*
X149595501Y-63502298D01*
X156695501Y-63502298D02*
X156695501Y-59922298D01*
X162415501Y-59922298D02*
X143875501Y-59922298D01*
X162415501Y-92822298D02*
X162415501Y-59922298D01*
X143875501Y-92822298D02*
G75*
G03*
X144375501Y-93322298I500001J1D01*
G01*
X161915501Y-93322298D02*
G75*
G03*
X162415501Y-92822298I0J500000D01*
G01*
D11*
%TO.C,SW19*%
X159329601Y-119134097D02*
X159329601Y-120634097D01*
X160579601Y-123134097D02*
X165079601Y-123134097D01*
X160879601Y-117234097D02*
X164879601Y-117234097D01*
X165079601Y-116634097D02*
X160579601Y-116634097D01*
X166329601Y-120634097D02*
X166329601Y-119134097D01*
D10*
%TO.C,J1*%
X163908001Y-63452297D02*
X169708001Y-63452297D01*
X163908001Y-75202297D02*
X163908001Y-63452297D01*
X169708001Y-63452297D02*
X169708001Y-75202297D01*
X169708001Y-75202297D02*
X163908001Y-75202297D01*
D11*
%TO.C,SW11*%
X145043000Y-106434098D02*
X145043000Y-107934098D01*
X146293000Y-110434098D02*
X150793000Y-110434098D01*
X146593000Y-104534098D02*
X150593000Y-104534098D01*
X150793000Y-103934098D02*
X146293000Y-103934098D01*
X152043000Y-107934098D02*
X152043000Y-106434098D01*
%TO.C,R_RST1*%
X209895502Y-127602300D02*
X209895502Y-119802300D01*
X213575502Y-127602300D02*
X209895502Y-127602300D01*
X214195502Y-125952300D02*
X214195502Y-121452300D01*
X213575502Y-119802300D02*
X209895502Y-119802300D01*
%TO.C,J3*%
X213663003Y-106032300D02*
X213663003Y-104702300D01*
X214993003Y-106032300D02*
X213663003Y-106032300D01*
X216263003Y-106032300D02*
X223943003Y-106032300D01*
X216263003Y-106032300D02*
X216263003Y-103372300D01*
X223943003Y-106032300D02*
X223943003Y-103372300D01*
X216263003Y-103372300D02*
X223943003Y-103372300D01*
D10*
%TO.C,J2*%
X202083502Y-63784801D02*
X207883502Y-63784801D01*
X202083502Y-75534801D02*
X202083502Y-63784801D01*
X207883502Y-63784801D02*
X207883502Y-75534801D01*
X207883502Y-75534801D02*
X202083502Y-75534801D01*
D11*
%TO.C,L_RST1*%
X170145501Y-80302298D02*
X170145501Y-88102298D01*
X166465501Y-80302298D02*
X170145501Y-80302298D01*
X165845501Y-81952298D02*
X165845501Y-86452298D01*
X166465501Y-88102298D02*
X170145501Y-88102298D01*
%TO.C,SW18*%
X145043000Y-119134098D02*
X145043000Y-120634098D01*
X146293000Y-123134098D02*
X150793000Y-123134098D01*
X146593000Y-117234098D02*
X150593000Y-117234098D01*
X150793000Y-116634098D02*
X146293000Y-116634098D01*
X152043000Y-120634098D02*
X152043000Y-119134098D01*
%TO.C,L_ROT1*%
X96290302Y-123351398D02*
X96290302Y-123951398D01*
X95990302Y-123651398D02*
X96290302Y-123351398D01*
X96290302Y-123951398D02*
X95990302Y-123651398D01*
X98490302Y-124451398D02*
X95990302Y-124451398D01*
X85890302Y-124451398D02*
X88690302Y-124451398D01*
X98490302Y-129251398D02*
X98490302Y-124451398D01*
X85890302Y-129351398D02*
X85890302Y-124451398D01*
X92190302Y-130651398D02*
X92190302Y-131651398D01*
X92690302Y-131151398D02*
X91690302Y-131151398D01*
X98490302Y-132951398D02*
X98490302Y-137851398D01*
X98490302Y-137851398D02*
X85890302Y-137851398D01*
X85890302Y-137851398D02*
X85890302Y-132951398D01*
X95190302Y-131151398D02*
G75*
G03*
X95190302Y-131151398I-3000000J0D01*
G01*
%TO.C,SW12*%
X159329600Y-106434097D02*
X159329600Y-107934097D01*
X160579600Y-110434097D02*
X165079600Y-110434097D01*
X160879600Y-104534097D02*
X164879600Y-104534097D01*
X165079600Y-103934097D02*
X160579600Y-103934097D01*
X166329600Y-107934097D02*
X166329600Y-106434097D01*
D10*
%TO.C,U2*%
X209375501Y-63597302D02*
X209375501Y-96497302D01*
X209875501Y-96997302D02*
X227415501Y-96997302D01*
X215095501Y-67177302D02*
X215095501Y-63597302D01*
X222195501Y-67177302D02*
X215095501Y-67177302D01*
X222195501Y-67177302D02*
X222195501Y-63597302D01*
X227915501Y-63597302D02*
X209375501Y-63597302D01*
X227915501Y-96497302D02*
X227915501Y-63597302D01*
X209375501Y-96497302D02*
G75*
G03*
X209875501Y-96997302I500001J1D01*
G01*
X227415501Y-96997302D02*
G75*
G03*
X227915501Y-96497302I0J500000D01*
G01*
%TD*%
M02*
