%TF.GenerationSoftware,KiCad,Pcbnew,7.0.7-7.0.7~ubuntu22.04.1*%
%TF.CreationDate,2023-09-08T11:00:04+02:00*%
%TF.ProjectId,abomination,61626f6d-696e-4617-9469-6f6e2e6b6963,rev?*%
%TF.SameCoordinates,Original*%
%TF.FileFunction,Profile,NP*%
%FSLAX46Y46*%
G04 Gerber Fmt 4.6, Leading zero omitted, Abs format (unit mm)*
G04 Created by KiCad (PCBNEW 7.0.7-7.0.7~ubuntu22.04.1) date 2023-09-08 11:00:04*
%MOMM*%
%LPD*%
G01*
G04 APERTURE LIST*
%TA.AperFunction,Profile*%
%ADD10C,0.100000*%
%TD*%
%TA.AperFunction,Profile*%
%ADD11C,0.150000*%
%TD*%
G04 APERTURE END LIST*
D10*
X333645500Y-141702294D02*
G75*
G03*
X219645501Y-157702303I-12284200J-326599906D01*
G01*
X170645500Y-106355800D02*
X170645500Y-74607800D01*
X170645500Y-62702300D02*
X170645500Y-68258200D01*
X209645576Y-146702308D02*
G75*
G03*
X219645501Y-157702301I10295624J-685792D01*
G01*
X171439200Y-114292800D02*
X190488000Y-114292800D01*
X160645503Y-157702299D02*
G75*
G03*
X46645501Y-141702299I-101715723J-310599511D01*
G01*
X334645500Y-140702300D02*
X344645501Y-82702300D01*
X170645500Y-74607800D02*
X171439200Y-74607800D01*
X191645500Y-112705400D02*
X191645500Y-114702300D01*
X171439200Y-112705400D02*
X171439200Y-114292800D01*
X170645500Y-112705400D02*
X170645502Y-146702297D01*
X209645499Y-62702299D02*
X193645501Y-62702300D01*
X209645501Y-146702303D02*
X209645501Y-116702300D01*
X333645500Y-141702300D02*
G75*
G03*
X334645500Y-140702300I0J1000000D01*
G01*
X190488000Y-112705400D02*
X191645500Y-112705400D01*
D11*
X344645503Y-82702297D02*
G75*
G03*
X209645499Y-62702300I-83756013J-99728093D01*
G01*
D10*
X171439200Y-62702300D02*
X190488000Y-62702300D01*
X191645500Y-64702300D02*
X191645500Y-68258200D01*
X190488000Y-62702300D02*
X190488000Y-68258200D01*
X170645500Y-112705400D02*
X171439200Y-112705400D01*
X45645502Y-140702298D02*
G75*
G03*
X46645501Y-141702298I999998J-2D01*
G01*
D11*
X170645499Y-62702301D02*
G75*
G03*
X35645501Y-82702298I-51243989J-119728079D01*
G01*
D10*
X190488000Y-114292800D02*
X190488000Y-112705400D01*
X160645502Y-157702272D02*
G75*
G03*
X170645501Y-146702297I-295702J10314272D01*
G01*
X35645501Y-82702298D02*
X45645504Y-140702298D01*
X190488000Y-74608200D02*
X191645500Y-74608200D01*
X209645501Y-116702300D02*
X193645501Y-116702299D01*
X171439200Y-106355800D02*
X170645500Y-106355800D01*
X171439200Y-68258200D02*
X171439200Y-62702300D01*
X190488000Y-68258200D02*
X191645500Y-68258200D01*
X190488000Y-106355800D02*
X191645500Y-106355800D01*
X191645500Y-74608200D02*
X191645500Y-106355800D01*
X190488000Y-74608200D02*
X190488000Y-106355800D01*
X193645501Y-62702300D02*
G75*
G03*
X191645500Y-64702300I-1J-2000000D01*
G01*
X171439200Y-74607800D02*
X171439200Y-106355800D01*
X170645500Y-68258200D02*
X171439200Y-68258200D01*
X191645501Y-114702300D02*
G75*
G03*
X193645501Y-116702299I1999999J0D01*
G01*
M02*
