  0
SECTION
  2
HEADER
  9
$ANGBASE
  50
0.0
  9
$ANGDIR
  70
1
  9
$MEASUREMENT
  70
0
  0
ENDSEC
  0
SECTION
  2
TABLES
  0
TABLE
  2
LTYPE
  70
4
  0
LTYPE
  5
40F
  2
CONTINUOUS
  70
0
  3
Solid line
  72
65
  73
0
  40
0.0
  0
LTYPE
  5
410
  2
DASHDOT
 70
0
  3
Dash Dot ____ _ ____ _
 72
65
 73
4
 40
2.0
 49
1.25
 49
-0.25
 49
0.25
 49
-0.25
  0
LTYPE
  5
411
  2
DASHED
 70
0
  3
Dashed __ __ __ __ __
 72
65
 73
2
 40
0.75
 49
0.5
 49
-0.25
  0
LTYPE
  5
43B
  2
DOTTED
 70
0
  3
Dotted .  .  .  .
 72
65
 73
2
 40
0.2
 49
0.0
 49
-0.2
  0
ENDTAB
  0
TABLE
  2
STYLE
  70
4
  0
STYLE
  2
KICAD
  70
0
  40
0
  41
1
  42
1
  50
0
  71
0
  3
isocp.shx
  0
STYLE
  2
KICADB
  70
0
  40
0
  41
1
  42
1
  50
0
  71
0
  3
isocp.shx
  0
STYLE
  2
KICADI
  70
0
  40
0
  41
1
  42
1
  50
15
  71
0
  3
isocp.shx
  0
STYLE
  2
KICADBI
  70
0
  40
0
  41
1
  42
1
  50
15
  71
0
  3
isocp.shx
  0
ENDTAB
  0
TABLE
  2
LAYER
  70
1
  0
LAYER
  2
BLACK
  70
0
  62
7
  6
CONTINUOUS
  0
ENDTAB
  0
ENDSEC
  0
SECTION
  2
ENTITIES
0
ARC
8
BLACK
10
12.652
20
-18.4371
40
12.8674
50
87.846
51
108.133
0
LINE
8
BLACK
6
CONTINUOUS
10
6.71833
20
-4.18724
11
6.71833
21
-2.93731
0
LINE
8
BLACK
6
CONTINUOUS
10
6.71833
20
-2.46859
11
6.71833
21
-2.68733
0
ARC
8
BLACK
10
8.6591
20
-5.80268
40
0.406238
50
-183.811
51
-91.6422
0
LINE
8
BLACK
6
CONTINUOUS
10
6.74957
20
-4.49972
11
7.49953
21
-4.49972
0
ARC
8
BLACK
10
2.32007
20
-18.4371
40
12.8673
50
71.8673
51
92.154
0
LINE
8
BLACK
6
CONTINUOUS
10
13.175
20
-5.53946
11
13.5687
21
-3.256
0
LINE
8
BLACK
6
CONTINUOUS
10
6.71833
20
-2.93731
11
6.74957
21
-2.93731
0
LINE
8
BLACK
6
CONTINUOUS
10
7.5451
20
-4.43722
11
7.5451
21
-4.51584
0
LINE
8
BLACK
6
CONTINUOUS
10
6.74957
20
-4.43722
11
6.74957
21
-4.49972
0
LINE
8
BLACK
6
CONTINUOUS
10
6.71833
20
-4.43722
11
6.71833
21
-5.77568
0
LINE
8
BLACK
6
CONTINUOUS
10
8.25376
20
-2.46859
11
7.62384
21
-2.46859
0
LINE
8
BLACK
6
CONTINUOUS
10
8.25376
20
-5.77568
11
8.25376
21
-4.59458
0
ARC
8
BLACK
10
13.1356
20
-5.53946
40
0.0393701
50
-90
51
-0
0
LINE
8
BLACK
6
CONTINUOUS
10
7.49953
20
-4.43722
11
7.5451
21
-4.43722
0
ARC
8
BLACK
10
10.2712
20
-7.1823
40
5.1273
50
49.975
51
113.171
0
LINE
8
BLACK
6
CONTINUOUS
10
6.74957
20
-2.46859
11
7.49953
21
-2.46859
0
LINE
8
BLACK
6
CONTINUOUS
10
7.5451
20
-2.54733
11
7.5451
21
-2.68733
0
LINE
8
BLACK
6
CONTINUOUS
10
7.49953
20
-2.46859
11
7.49953
21
-2.68733
0
LINE
8
BLACK
6
CONTINUOUS
10
6.71833
20
-4.43722
11
6.74957
21
-4.43722
0
ARC
8
BLACK
10
1.83644
20
-5.53946
40
0.03937
50
-180
51
-89.9999
0
ARC
8
BLACK
10
4.70085
20
-7.1823
40
5.1273
50
66.8289
51
130.025
0
LINE
8
BLACK
6
CONTINUOUS
10
7.49953
20
-4.49972
11
7.49953
21
-4.43722
0
ARC
8
BLACK
10
6.31298
20
-5.80268
40
0.406241
50
-88.3578
51
3.81032
0
LINE
8
BLACK
6
CONTINUOUS
10
1.40337
20
-3.256
11
1.79707
21
-5.53946
0
LINE
8
BLACK
6
CONTINUOUS
10
7.49953
20
-2.93733
11
7.5451
21
-2.93733
0
LINE
8
BLACK
6
CONTINUOUS
10
8.25376
20
-4.59458
11
7.62384
21
-4.59458
0
LINE
8
BLACK
6
CONTINUOUS
10
6.74957
20
-4.18724
11
6.71833
21
-4.18724
0
LINE
8
BLACK
6
CONTINUOUS
10
6.74957
20
-2.68733
11
6.74957
21
-2.46859
0
LINE
8
BLACK
6
CONTINUOUS
10
7.49953
20
-2.68733
11
7.5451
21
-2.68733
0
LINE
8
BLACK
6
CONTINUOUS
10
7.49953
20
-4.18724
11
7.5451
21
-4.18724
0
LINE
8
BLACK
6
CONTINUOUS
10
7.5451
20
-2.93733
11
7.5451
21
-4.18724
0
LINE
8
BLACK
6
CONTINUOUS
10
7.49953
20
-2.93733
11
7.49953
21
-4.18724
0
ARC
8
BLACK
10
7.62384
20
-2.54733
40
0.0787402
50
90
51
180
0
LINE
8
BLACK
6
CONTINUOUS
10
6.74957
20
-2.93731
11
6.74957
21
-4.18724
0
LINE
8
BLACK
6
CONTINUOUS
10
6.71833
20
-2.68733
11
6.74957
21
-2.68733
0
ARC
8
BLACK
10
7.62384
20
-4.51584
40
0.0787401
50
-180
51
-90
0
LINE
8
BLACK
6
CONTINUOUS
10
2.17831
20
-3.52333
11
2.19406
21
-3.53908
0
LINE
8
BLACK
6
CONTINUOUS
10
2.19406
20
-3.52333
11
2.17831
21
-3.53908
0
LINE
8
BLACK
6
CONTINUOUS
10
2.20835
20
-3.68278
11
2.2241
21
-3.69852
0
LINE
8
BLACK
6
CONTINUOUS
10
2.2241
20
-3.68278
11
2.20835
21
-3.69852
0
LINE
8
BLACK
6
CONTINUOUS
10
2.3109
20
-4.26436
11
2.32665
21
-4.2801
0
LINE
8
BLACK
6
CONTINUOUS
10
2.32665
20
-4.26436
11
2.3109
21
-4.2801
0
LINE
8
BLACK
6
CONTINUOUS
10
2.33824
20
-4.41944
11
2.35399
21
-4.43519
0
LINE
8
BLACK
6
CONTINUOUS
10
2.35399
20
-4.41944
11
2.33824
21
-4.43519
0
LINE
8
BLACK
6
CONTINUOUS
10
2.44079
20
-5.00102
11
2.45654
21
-5.01677
0
LINE
8
BLACK
6
CONTINUOUS
10
2.45654
20
-5.00102
11
2.44079
21
-5.01677
0
LINE
8
BLACK
6
CONTINUOUS
10
3.04445
20
-2.97215
11
3.0602
21
-2.9879
0
LINE
8
BLACK
6
CONTINUOUS
10
3.0602
20
-2.97215
11
3.04445
21
-2.9879
0
LINE
8
BLACK
6
CONTINUOUS
10
3.05424
20
-3.16354
11
3.06999
21
-3.17929
0
LINE
8
BLACK
6
CONTINUOUS
10
3.06999
20
-3.16354
11
3.05424
21
-3.17929
0
LINE
8
BLACK
6
CONTINUOUS
10
3.10228
20
-3.71263
11
3.11803
21
-3.72837
0
LINE
8
BLACK
6
CONTINUOUS
10
3.11803
20
-3.71263
11
3.10228
21
-3.72837
0
LINE
8
BLACK
6
CONTINUOUS
10
3.11944
20
-3.90873
11
3.13519
21
-3.92448
0
LINE
8
BLACK
6
CONTINUOUS
10
3.13519
20
-3.90873
11
3.11944
21
-3.92448
0
LINE
8
BLACK
6
CONTINUOUS
10
3.16748
20
-4.45781
11
3.18323
21
-4.47356
0
LINE
8
BLACK
6
CONTINUOUS
10
3.18323
20
-4.45781
11
3.16748
21
-4.47356
0
LINE
8
BLACK
6
CONTINUOUS
10
3.635
20
-4.98003
11
3.65075
21
-4.99578
0
LINE
8
BLACK
6
CONTINUOUS
10
3.65075
20
-4.98003
11
3.635
21
-4.99578
0
LINE
8
BLACK
6
CONTINUOUS
10
3.90115
20
-2.79502
11
3.9169
21
-2.81077
0
LINE
8
BLACK
6
CONTINUOUS
10
3.9169
20
-2.79502
11
3.90115
21
-2.81077
0
LINE
8
BLACK
6
CONTINUOUS
10
3.90115
20
-3.38558
11
3.9169
21
-3.40132
0
LINE
8
BLACK
6
CONTINUOUS
10
3.9169
20
-3.38558
11
3.90115
21
-3.40132
0
LINE
8
BLACK
6
CONTINUOUS
10
3.90115
20
-3.54306
11
3.9169
21
-3.5588
0
LINE
8
BLACK
6
CONTINUOUS
10
3.9169
20
-3.54306
11
3.90115
21
-3.5588
0
LINE
8
BLACK
6
CONTINUOUS
10
3.90115
20
-4.13361
11
3.9169
21
-4.14936
0
LINE
8
BLACK
6
CONTINUOUS
10
3.9169
20
-4.13361
11
3.90115
21
-4.14936
0
LINE
8
BLACK
6
CONTINUOUS
10
3.91059
20
-2.61782
11
3.92634
21
-2.63357
0
LINE
8
BLACK
6
CONTINUOUS
10
3.92634
20
-2.61782
11
3.91059
21
-2.63357
0
LINE
8
BLACK
6
CONTINUOUS
10
4.64919
20
-3.73991
11
4.66493
21
-3.75565
0
LINE
8
BLACK
6
CONTINUOUS
10
4.66493
20
-3.73991
11
4.64919
21
-3.75565
0
LINE
8
BLACK
6
CONTINUOUS
10
4.64919
20
-2.99187
11
4.66493
21
-3.00762
0
LINE
8
BLACK
6
CONTINUOUS
10
4.66493
20
-2.99187
11
4.64919
21
-3.00762
0
LINE
8
BLACK
6
CONTINUOUS
10
4.64919
20
-3.58243
11
4.66493
21
-3.59817
0
LINE
8
BLACK
6
CONTINUOUS
10
4.66493
20
-3.58243
11
4.64919
21
-3.59817
0
LINE
8
BLACK
6
CONTINUOUS
10
4.64919
20
-4.33046
11
4.66493
21
-4.34621
0
LINE
8
BLACK
6
CONTINUOUS
10
4.66493
20
-4.33046
11
4.64919
21
-4.34621
0
LINE
8
BLACK
6
CONTINUOUS
10
4.65863
20
-2.81467
11
4.67437
21
-2.83042
0
LINE
8
BLACK
6
CONTINUOUS
10
4.67437
20
-2.81467
11
4.65863
21
-2.83042
0
LINE
8
BLACK
6
CONTINUOUS
10
4.81652
20
-5.21695
11
4.83227
21
-5.2327
0
LINE
8
BLACK
6
CONTINUOUS
10
4.83227
20
-5.21695
11
4.81652
21
-5.2327
0
LINE
8
BLACK
6
CONTINUOUS
10
5.3677
20
-4.58703
11
5.38345
21
-4.60278
0
LINE
8
BLACK
6
CONTINUOUS
10
5.38345
20
-4.58703
11
5.3677
21
-4.60278
0
LINE
8
BLACK
6
CONTINUOUS
10
5.39722
20
-3.81865
11
5.41297
21
-3.83439
0
LINE
8
BLACK
6
CONTINUOUS
10
5.41297
20
-3.81865
11
5.39722
21
-3.83439
0
LINE
8
BLACK
6
CONTINUOUS
10
5.39722
20
-3.07062
11
5.41297
21
-3.08636
0
LINE
8
BLACK
6
CONTINUOUS
10
5.41297
20
-3.07062
11
5.39722
21
-3.08636
0
LINE
8
BLACK
6
CONTINUOUS
10
5.39722
20
-4.4092
11
5.41297
21
-4.42495
0
LINE
8
BLACK
6
CONTINUOUS
10
5.41297
20
-4.4092
11
5.39722
21
-4.42495
0
LINE
8
BLACK
6
CONTINUOUS
10
5.39722
20
-3.66117
11
5.41297
21
-3.67691
0
LINE
8
BLACK
6
CONTINUOUS
10
5.41297
20
-3.66117
11
5.39722
21
-3.67691
0
LINE
8
BLACK
6
CONTINUOUS
10
5.40666
20
-2.89341
11
5.42241
21
-2.90916
0
LINE
8
BLACK
6
CONTINUOUS
10
5.42241
20
-2.89341
11
5.40666
21
-2.90916
0
LINE
8
BLACK
6
CONTINUOUS
10
5.56414
20
-4.46822
11
5.57989
21
-4.48396
0
LINE
8
BLACK
6
CONTINUOUS
10
5.57989
20
-4.46822
11
5.56414
21
-4.48396
0
LINE
8
BLACK
6
CONTINUOUS
10
5.56414
20
-4.70444
11
5.57989
21
-4.72019
0
LINE
8
BLACK
6
CONTINUOUS
10
5.57989
20
-4.70444
11
5.56414
21
-4.72019
0
LINE
8
BLACK
6
CONTINUOUS
10
5.60351
20
-4.90129
11
5.61926
21
-4.91704
0
LINE
8
BLACK
6
CONTINUOUS
10
5.61926
20
-4.90129
11
5.60351
21
-4.91704
0
LINE
8
BLACK
6
CONTINUOUS
10
5.64329
20
-5.37443
11
5.65904
21
-5.39018
0
LINE
8
BLACK
6
CONTINUOUS
10
5.65904
20
-5.37443
11
5.64329
21
-5.39018
0
LINE
8
BLACK
6
CONTINUOUS
10
5.8791
20
-2.7753
11
5.89485
21
-2.79105
0
LINE
8
BLACK
6
CONTINUOUS
10
5.89485
20
-2.7753
11
5.8791
21
-2.79105
0
LINE
8
BLACK
6
CONTINUOUS
10
5.8791
20
-3.169
11
5.89485
21
-3.18475
0
LINE
8
BLACK
6
CONTINUOUS
10
5.89485
20
-3.169
11
5.8791
21
-3.18475
0
LINE
8
BLACK
6
CONTINUOUS
10
5.8791
20
-4.54696
11
5.89485
21
-4.5627
0
LINE
8
BLACK
6
CONTINUOUS
10
5.89485
20
-4.54696
11
5.8791
21
-4.5627
0
LINE
8
BLACK
6
CONTINUOUS
10
6.47006
20
-5.76813
11
6.48581
21
-5.78388
0
LINE
8
BLACK
6
CONTINUOUS
10
6.48581
20
-5.76813
11
6.47006
21
-5.78388
0
LINE
8
BLACK
6
CONTINUOUS
10
6.58776
20
-3.87767
11
6.60351
21
-3.89341
0
LINE
8
BLACK
6
CONTINUOUS
10
6.60351
20
-3.87767
11
6.58776
21
-3.89341
0
LINE
8
BLACK
6
CONTINUOUS
10
8.04445
20
-3.09026
11
8.0602
21
-3.10601
0
LINE
8
BLACK
6
CONTINUOUS
10
8.0602
20
-3.09026
11
8.04445
21
-3.10601
0
LINE
8
BLACK
6
CONTINUOUS
10
8.35941
20
-3.95641
11
8.37516
21
-3.97215
0
LINE
8
BLACK
6
CONTINUOUS
10
8.37516
20
-3.95641
11
8.35941
21
-3.97215
0
LINE
8
BLACK
6
CONTINUOUS
10
9.14723
20
-5.53191
11
9.16298
21
-5.54766
0
LINE
8
BLACK
6
CONTINUOUS
10
9.16298
20
-5.53191
11
9.14723
21
-5.54766
0
LINE
8
BLACK
6
CONTINUOUS
10
9.974
20
-5.29569
11
9.98975
21
-5.31144
0
LINE
8
BLACK
6
CONTINUOUS
10
9.98975
20
-5.29569
11
9.974
21
-5.31144
0
LINE
8
BLACK
6
CONTINUOUS
10
10.0134
20
-4.66577
11
10.0291
21
-4.68152
0
LINE
8
BLACK
6
CONTINUOUS
10
10.0291
20
-4.66577
11
10.0134
21
-4.68152
0
LINE
8
BLACK
6
CONTINUOUS
10
10.1216
20
-3.66117
11
10.1374
21
-3.67691
0
LINE
8
BLACK
6
CONTINUOUS
10
10.1374
20
-3.66117
11
10.1216
21
-3.67691
0
LINE
8
BLACK
6
CONTINUOUS
10
10.1216
20
-4.4092
11
10.1374
21
-4.42495
0
LINE
8
BLACK
6
CONTINUOUS
10
10.1374
20
-4.4092
11
10.1216
21
-4.42495
0
LINE
8
BLACK
6
CONTINUOUS
10
10.1216
20
-3.10999
11
10.1374
21
-3.12573
0
LINE
8
BLACK
6
CONTINUOUS
10
10.1374
20
-3.10999
11
10.1216
21
-3.12573
0
LINE
8
BLACK
6
CONTINUOUS
10
10.1216
20
-3.85802
11
10.1374
21
-3.87376
0
LINE
8
BLACK
6
CONTINUOUS
10
10.1374
20
-3.85802
11
10.1216
21
-3.87376
0
LINE
8
BLACK
6
CONTINUOUS
10
10.1311
20
-2.89341
11
10.1468
21
-2.90916
0
LINE
8
BLACK
6
CONTINUOUS
10
10.1468
20
-2.89341
11
10.1311
21
-2.90916
0
LINE
8
BLACK
6
CONTINUOUS
10
10.7614
20
-4.54766
11
10.7771
21
-4.56341
0
LINE
8
BLACK
6
CONTINUOUS
10
10.7771
20
-4.54766
11
10.7614
21
-4.56341
0
LINE
8
BLACK
6
CONTINUOUS
10
10.7614
20
-5.21695
11
10.7771
21
-5.2327
0
LINE
8
BLACK
6
CONTINUOUS
10
10.7771
20
-5.21695
11
10.7614
21
-5.2327
0
LINE
8
BLACK
6
CONTINUOUS
10
10.8697
20
-4.33046
11
10.8854
21
-4.34621
0
LINE
8
BLACK
6
CONTINUOUS
10
10.8854
20
-4.33046
11
10.8697
21
-4.34621
0
LINE
8
BLACK
6
CONTINUOUS
10
10.8697
20
-2.99188
11
10.8854
21
-3.00762
0
LINE
8
BLACK
6
CONTINUOUS
10
10.8854
20
-2.99188
11
10.8697
21
-3.00762
0
LINE
8
BLACK
6
CONTINUOUS
10
10.8697
20
-3.58243
11
10.8854
21
-3.59817
0
LINE
8
BLACK
6
CONTINUOUS
10
10.8854
20
-3.58243
11
10.8697
21
-3.59817
0
LINE
8
BLACK
6
CONTINUOUS
10
10.8697
20
-3.73991
11
10.8854
21
-3.75565
0
LINE
8
BLACK
6
CONTINUOUS
10
10.8854
20
-3.73991
11
10.8697
21
-3.75565
0
LINE
8
BLACK
6
CONTINUOUS
10
10.8791
20
-2.81467
11
10.8948
21
-2.83042
0
LINE
8
BLACK
6
CONTINUOUS
10
10.8948
20
-2.81467
11
10.8791
21
-2.83042
0
LINE
8
BLACK
6
CONTINUOUS
10
11.6177
20
-2.79502
11
11.6334
21
-2.81077
0
LINE
8
BLACK
6
CONTINUOUS
10
11.6334
20
-2.79502
11
11.6177
21
-2.81077
0
LINE
8
BLACK
6
CONTINUOUS
10
11.6177
20
-3.38558
11
11.6334
21
-3.40132
0
LINE
8
BLACK
6
CONTINUOUS
10
11.6334
20
-3.38558
11
11.6177
21
-3.40132
0
LINE
8
BLACK
6
CONTINUOUS
10
11.6177
20
-3.54306
11
11.6334
21
-3.5588
0
LINE
8
BLACK
6
CONTINUOUS
10
11.6334
20
-3.54306
11
11.6177
21
-3.5588
0
LINE
8
BLACK
6
CONTINUOUS
10
11.6177
20
-4.13361
11
11.6334
21
-4.14936
0
LINE
8
BLACK
6
CONTINUOUS
10
11.6334
20
-4.13361
11
11.6177
21
-4.14936
0
LINE
8
BLACK
6
CONTINUOUS
10
11.6271
20
-2.61782
11
11.6429
21
-2.63357
0
LINE
8
BLACK
6
CONTINUOUS
10
11.6429
20
-2.61782
11
11.6271
21
-2.63357
0
LINE
8
BLACK
6
CONTINUOUS
10
11.6275
20
-4.31144
11
11.6433
21
-4.32719
0
LINE
8
BLACK
6
CONTINUOUS
10
11.6433
20
-4.31144
11
11.6275
21
-4.32719
0
LINE
8
BLACK
6
CONTINUOUS
10
12.3885
20
-4.50639
11
12.4042
21
-4.52214
0
LINE
8
BLACK
6
CONTINUOUS
10
12.4042
20
-4.50639
11
12.3885
21
-4.52214
0
LINE
8
BLACK
6
CONTINUOUS
10
12.4365
20
-3.9573
11
12.4523
21
-3.97305
0
LINE
8
BLACK
6
CONTINUOUS
10
12.4523
20
-3.9573
11
12.4365
21
-3.97305
0
LINE
8
BLACK
6
CONTINUOUS
10
12.4537
20
-3.7612
11
12.4694
21
-3.77695
0
LINE
8
BLACK
6
CONTINUOUS
10
12.4694
20
-3.7612
11
12.4537
21
-3.77695
0
LINE
8
BLACK
6
CONTINUOUS
10
12.4933
20
-3.01152
11
12.509
21
-3.02727
0
LINE
8
BLACK
6
CONTINUOUS
10
12.509
20
-3.01152
11
12.4933
21
-3.02727
0
LINE
8
BLACK
6
CONTINUOUS
10
12.5017
20
-3.21212
11
12.5175
21
-3.22787
0
LINE
8
BLACK
6
CONTINUOUS
10
12.5175
20
-3.21212
11
12.5017
21
-3.22787
0
LINE
8
BLACK
6
CONTINUOUS
10
13.1045
20
-5.09796
11
13.1203
21
-5.11371
0
LINE
8
BLACK
6
CONTINUOUS
10
13.1203
20
-5.09796
11
13.1045
21
-5.11371
0
LINE
8
BLACK
6
CONTINUOUS
10
13.2003
20
-4.55516
11
13.216
21
-4.5709
0
LINE
8
BLACK
6
CONTINUOUS
10
13.216
20
-4.55516
11
13.2003
21
-4.5709
0
LINE
8
BLACK
6
CONTINUOUS
10
13.2344
20
-4.3613
11
13.2502
21
-4.37704
0
LINE
8
BLACK
6
CONTINUOUS
10
13.2502
20
-4.3613
11
13.2344
21
-4.37704
0
LINE
8
BLACK
6
CONTINUOUS
10
13.337
20
-3.77972
11
13.3527
21
-3.79546
0
LINE
8
BLACK
6
CONTINUOUS
10
13.3527
20
-3.77972
11
13.337
21
-3.79546
0
LINE
8
BLACK
6
CONTINUOUS
10
13.3594
20
-3.60208
11
13.3752
21
-3.61782
0
LINE
8
BLACK
6
CONTINUOUS
10
13.3752
20
-3.60208
11
13.3594
21
-3.61782
0
CIRCLE
8
BLACK
10
3.53111
20
-4.86817
40
0.019685
0
CIRCLE
8
BLACK
10
3.62954
20
-4.86817
40
0.019685
0
CIRCLE
8
BLACK
10
3.72796
20
-4.86817
40
0.019685
0
CIRCLE
8
BLACK
10
5.72935
20
-2.50915
40
0.019685
0
CIRCLE
8
BLACK
10
5.72935
20
-2.60915
40
0.019685
0
CIRCLE
8
BLACK
10
5.72935
20
-2.70915
40
0.019685
0
CIRCLE
8
BLACK
10
5.72935
20
-2.80915
40
0.019685
0
CIRCLE
8
BLACK
10
5.72935
20
-2.90915
40
0.019685
0
CIRCLE
8
BLACK
10
5.72935
20
-3.00915
40
0.019685
0
CIRCLE
8
BLACK
10
5.72935
20
-3.10915
40
0.019685
0
CIRCLE
8
BLACK
10
5.72935
20
-3.20915
40
0.019685
0
CIRCLE
8
BLACK
10
5.72935
20
-3.30915
40
0.019685
0
CIRCLE
8
BLACK
10
5.72935
20
-3.40915
40
0.019685
0
CIRCLE
8
BLACK
10
5.72935
20
-3.50915
40
0.019685
0
CIRCLE
8
BLACK
10
5.72935
20
-3.60915
40
0.019685
0
CIRCLE
8
BLACK
10
5.82935
20
-3.60915
40
0.019685
0
CIRCLE
8
BLACK
10
5.92935
20
-3.60915
40
0.019685
0
CIRCLE
8
BLACK
10
6.02935
20
-3.60915
40
0.019685
0
CIRCLE
8
BLACK
10
6.12935
20
-3.60915
40
0.019685
0
CIRCLE
8
BLACK
10
6.22935
20
-3.60915
40
0.019685
0
CIRCLE
8
BLACK
10
6.32935
20
-2.50915
40
0.019685
0
CIRCLE
8
BLACK
10
6.32935
20
-2.60915
40
0.019685
0
CIRCLE
8
BLACK
10
6.32935
20
-2.70915
40
0.019685
0
CIRCLE
8
BLACK
10
6.32935
20
-2.80915
40
0.019685
0
CIRCLE
8
BLACK
10
6.32935
20
-2.90915
40
0.019685
0
CIRCLE
8
BLACK
10
6.32935
20
-3.00915
40
0.019685
0
CIRCLE
8
BLACK
10
6.32935
20
-3.10915
40
0.019685
0
CIRCLE
8
BLACK
10
6.32935
20
-3.20915
40
0.019685
0
CIRCLE
8
BLACK
10
6.32935
20
-3.30915
40
0.019685
0
CIRCLE
8
BLACK
10
6.32935
20
-3.40915
40
0.019685
0
CIRCLE
8
BLACK
10
6.32935
20
-3.50915
40
0.019685
0
CIRCLE
8
BLACK
10
6.32935
20
-3.60915
40
0.019685
0
CIRCLE
8
BLACK
10
6.48457
20
-2.95678
40
0.019685
0
LINE
8
BLACK
6
CONTINUOUS
10
6.46488
20
-2.94694
11
6.46488
21
-2.96663
0
ARC
8
BLACK
10
6.48457
20
-2.96663
40
0.019685
50
180
51
360
0
LINE
8
BLACK
6
CONTINUOUS
10
6.50425
20
-2.96663
11
6.50425
21
-2.94694
0
ARC
8
BLACK
10
6.48457
20
-2.94694
40
0.019685
50
0
51
180
0
CIRCLE
8
BLACK
10
6.60022
20
-3.21663
40
0.019685
0
CIRCLE
8
BLACK
10
6.60022
20
-3.41348
40
0.019685
0
CIRCLE
8
BLACK
10
6.64992
20
-2.62214
40
0.019685
0
LINE
8
BLACK
6
CONTINUOUS
10
6.63024
20
-2.6123
11
6.63024
21
-2.63198
0
ARC
8
BLACK
10
6.64992
20
-2.63198
40
0.019685
50
180
51
360
0
LINE
8
BLACK
6
CONTINUOUS
10
6.66961
20
-2.63198
11
6.66961
21
-2.6123
0
ARC
8
BLACK
10
6.64992
20
-2.6123
40
0.019685
50
0
51
180
0
CIRCLE
8
BLACK
10
6.64992
20
-2.74025
40
0.019685
0
LINE
8
BLACK
6
CONTINUOUS
10
6.63024
20
-2.73041
11
6.63024
21
-2.75009
0
ARC
8
BLACK
10
6.64992
20
-2.75009
40
0.019685
50
180
51
360
0
LINE
8
BLACK
6
CONTINUOUS
10
6.66961
20
-2.75009
11
6.66961
21
-2.73041
0
ARC
8
BLACK
10
6.64992
20
-2.73041
40
0.019685
50
0
51
180
0
CIRCLE
8
BLACK
10
6.64992
20
-2.89773
40
0.019685
0
LINE
8
BLACK
6
CONTINUOUS
10
6.63024
20
-2.88789
11
6.63024
21
-2.90757
0
ARC
8
BLACK
10
6.64992
20
-2.90757
40
0.019685
50
180
51
360
0
LINE
8
BLACK
6
CONTINUOUS
10
6.66961
20
-2.90757
11
6.66961
21
-2.88789
0
ARC
8
BLACK
10
6.64992
20
-2.88789
40
0.019685
50
0
51
180
0
CIRCLE
8
BLACK
10
7.98754
20
-2.96987
40
0.019685
0
LINE
8
BLACK
6
CONTINUOUS
10
7.96785
20
-2.96003
11
7.96785
21
-2.97972
0
ARC
8
BLACK
10
7.98754
20
-2.97972
40
0.019685
50
180
51
360
0
LINE
8
BLACK
6
CONTINUOUS
10
8.00722
20
-2.97972
11
8.00722
21
-2.96003
0
ARC
8
BLACK
10
7.98754
20
-2.96003
40
0.019685
50
0
51
180
0
CIRCLE
8
BLACK
10
8.15289
20
-2.63523
40
0.019685
0
LINE
8
BLACK
6
CONTINUOUS
10
8.13321
20
-2.62539
11
8.13321
21
-2.64507
0
ARC
8
BLACK
10
8.15289
20
-2.64507
40
0.019685
50
180
51
360
0
LINE
8
BLACK
6
CONTINUOUS
10
8.17258
20
-2.64507
11
8.17258
21
-2.62539
0
ARC
8
BLACK
10
8.15289
20
-2.62539
40
0.019685
50
0
51
180
0
CIRCLE
8
BLACK
10
8.15289
20
-2.75334
40
0.019685
0
LINE
8
BLACK
6
CONTINUOUS
10
8.13321
20
-2.7435
11
8.13321
21
-2.76318
0
ARC
8
BLACK
10
8.15289
20
-2.76318
40
0.019685
50
180
51
360
0
LINE
8
BLACK
6
CONTINUOUS
10
8.17258
20
-2.76318
11
8.17258
21
-2.7435
0
ARC
8
BLACK
10
8.15289
20
-2.7435
40
0.019685
50
0
51
180
0
CIRCLE
8
BLACK
10
8.15289
20
-2.91082
40
0.019685
0
LINE
8
BLACK
6
CONTINUOUS
10
8.13321
20
-2.90098
11
8.13321
21
-2.92066
0
ARC
8
BLACK
10
8.15289
20
-2.92066
40
0.019685
50
180
51
360
0
LINE
8
BLACK
6
CONTINUOUS
10
8.17258
20
-2.92066
11
8.17258
21
-2.90098
0
ARC
8
BLACK
10
8.15289
20
-2.90098
40
0.019685
50
0
51
180
0
CIRCLE
8
BLACK
10
8.30809
20
-2.65383
40
0.019685
0
CIRCLE
8
BLACK
10
8.30809
20
-2.75383
40
0.019685
0
CIRCLE
8
BLACK
10
8.30809
20
-2.85383
40
0.019685
0
CIRCLE
8
BLACK
10
8.30809
20
-2.95383
40
0.019685
0
CIRCLE
8
BLACK
10
8.30809
20
-3.05383
40
0.019685
0
CIRCLE
8
BLACK
10
8.30809
20
-3.15383
40
0.019685
0
CIRCLE
8
BLACK
10
8.30809
20
-3.25383
40
0.019685
0
CIRCLE
8
BLACK
10
8.30809
20
-3.35383
40
0.019685
0
CIRCLE
8
BLACK
10
8.30809
20
-3.45383
40
0.019685
0
CIRCLE
8
BLACK
10
8.30809
20
-3.55383
40
0.019685
0
CIRCLE
8
BLACK
10
8.30809
20
-3.65383
40
0.019685
0
CIRCLE
8
BLACK
10
8.30809
20
-3.75383
40
0.019685
0
CIRCLE
8
BLACK
10
8.36203
20
-4.77174
40
0.019685
0
CIRCLE
8
BLACK
10
8.36203
20
-4.96859
40
0.019685
0
CIRCLE
8
BLACK
10
8.40809
20
-3.75383
40
0.019685
0
CIRCLE
8
BLACK
10
8.46429
20
-4.12214
40
0.019685
0
CIRCLE
8
BLACK
10
8.50809
20
-3.75383
40
0.019685
0
CIRCLE
8
BLACK
10
8.56429
20
-4.12214
40
0.019685
0
CIRCLE
8
BLACK
10
8.60809
20
-3.75383
40
0.019685
0
CIRCLE
8
BLACK
10
8.66429
20
-4.12214
40
0.019685
0
CIRCLE
8
BLACK
10
8.70809
20
-3.75383
40
0.019685
0
CIRCLE
8
BLACK
10
8.76429
20
-4.12214
40
0.019685
0
CIRCLE
8
BLACK
10
8.80809
20
-3.75383
40
0.019685
0
CIRCLE
8
BLACK
10
8.90809
20
-2.65383
40
0.019685
0
CIRCLE
8
BLACK
10
8.90809
20
-2.75383
40
0.019685
0
CIRCLE
8
BLACK
10
8.90809
20
-2.85383
40
0.019685
0
CIRCLE
8
BLACK
10
8.90809
20
-2.95383
40
0.019685
0
CIRCLE
8
BLACK
10
8.90809
20
-3.05383
40
0.019685
0
CIRCLE
8
BLACK
10
8.90809
20
-3.15383
40
0.019685
0
CIRCLE
8
BLACK
10
8.90809
20
-3.25383
40
0.019685
0
CIRCLE
8
BLACK
10
8.90809
20
-3.35383
40
0.019685
0
CIRCLE
8
BLACK
10
8.90809
20
-3.45383
40
0.019685
0
CIRCLE
8
BLACK
10
8.90809
20
-3.55383
40
0.019685
0
CIRCLE
8
BLACK
10
8.90809
20
-3.65383
40
0.019685
0
CIRCLE
8
BLACK
10
8.90809
20
-3.75383
40
0.019685
0
LINE
8
BLACK
6
CONTINUOUS
10
5.7202
20
-4.10961
11
5.7202
21
-4.15292
0
LINE
8
BLACK
6
CONTINUOUS
10
5.69854
20
-4.13126
11
5.74185
21
-4.13126
0
LINE
8
BLACK
6
CONTINUOUS
10
5.7202
20
-4.28678
11
5.7202
21
-4.33008
0
LINE
8
BLACK
6
CONTINUOUS
10
5.69854
20
-4.30843
11
5.74185
21
-4.30843
0
LINE
8
BLACK
6
CONTINUOUS
10
5.7202
20
-4.60961
11
5.7202
21
-4.65292
0
LINE
8
BLACK
6
CONTINUOUS
10
5.69854
20
-4.63126
11
5.74185
21
-4.63126
0
LINE
8
BLACK
6
CONTINUOUS
10
5.7202
20
-4.78678
11
5.7202
21
-4.83008
0
LINE
8
BLACK
6
CONTINUOUS
10
5.69854
20
-4.80843
11
5.74185
21
-4.80843
0
LINE
8
BLACK
6
CONTINUOUS
10
5.9761
20
-4.10961
11
5.9761
21
-4.15292
0
LINE
8
BLACK
6
CONTINUOUS
10
5.95445
20
-4.13126
11
5.99776
21
-4.13126
0
LINE
8
BLACK
6
CONTINUOUS
10
5.9761
20
-4.28678
11
5.9761
21
-4.33008
0
LINE
8
BLACK
6
CONTINUOUS
10
5.95445
20
-4.30843
11
5.99776
21
-4.30843
0
LINE
8
BLACK
6
CONTINUOUS
10
5.9761
20
-4.60961
11
5.9761
21
-4.65292
0
LINE
8
BLACK
6
CONTINUOUS
10
5.95445
20
-4.63126
11
5.99776
21
-4.63126
0
LINE
8
BLACK
6
CONTINUOUS
10
5.9761
20
-4.78678
11
5.9761
21
-4.83008
0
LINE
8
BLACK
6
CONTINUOUS
10
5.95445
20
-4.80843
11
5.99776
21
-4.80843
0
LINE
8
BLACK
6
CONTINUOUS
10
6.28266
20
-4.10961
11
6.28266
21
-4.15292
0
LINE
8
BLACK
6
CONTINUOUS
10
6.26101
20
-4.13126
11
6.30431
21
-4.13126
0
LINE
8
BLACK
6
CONTINUOUS
10
6.28266
20
-4.28678
11
6.28266
21
-4.33008
0
LINE
8
BLACK
6
CONTINUOUS
10
6.26101
20
-4.30843
11
6.30431
21
-4.30843
0
LINE
8
BLACK
6
CONTINUOUS
10
6.28266
20
-4.60961
11
6.28266
21
-4.65292
0
LINE
8
BLACK
6
CONTINUOUS
10
6.26101
20
-4.63126
11
6.30431
21
-4.63126
0
LINE
8
BLACK
6
CONTINUOUS
10
6.28266
20
-4.78678
11
6.28266
21
-4.83008
0
LINE
8
BLACK
6
CONTINUOUS
10
6.26101
20
-4.80843
11
6.30431
21
-4.80843
0
LINE
8
BLACK
6
CONTINUOUS
10
6.53857
20
-4.10961
11
6.53857
21
-4.15292
0
LINE
8
BLACK
6
CONTINUOUS
10
6.51691
20
-4.13126
11
6.56022
21
-4.13126
0
LINE
8
BLACK
6
CONTINUOUS
10
6.53857
20
-4.28678
11
6.53857
21
-4.33008
0
LINE
8
BLACK
6
CONTINUOUS
10
6.51691
20
-4.30843
11
6.56022
21
-4.30843
0
LINE
8
BLACK
6
CONTINUOUS
10
6.53857
20
-4.60961
11
6.53857
21
-4.65292
0
LINE
8
BLACK
6
CONTINUOUS
10
6.51691
20
-4.63126
11
6.56022
21
-4.63126
0
LINE
8
BLACK
6
CONTINUOUS
10
6.53857
20
-4.78678
11
6.53857
21
-4.83008
0
LINE
8
BLACK
6
CONTINUOUS
10
6.51691
20
-4.80843
11
6.56022
21
-4.80843
0
LINE
8
BLACK
6
CONTINUOUS
10
6.51989
20
-3.19535
11
6.51989
21
-3.15916
0
LINE
8
BLACK
6
CONTINUOUS
10
6.51989
20
-3.15916
11
6.4837
21
-3.15916
0
LINE
8
BLACK
6
CONTINUOUS
10
6.4837
20
-3.15916
11
6.4837
21
-3.19535
0
LINE
8
BLACK
6
CONTINUOUS
10
6.4837
20
-3.19535
11
6.51989
21
-3.19535
0
LINE
8
BLACK
6
CONTINUOUS
10
6.51989
20
-3.47094
11
6.51989
21
-3.43475
0
LINE
8
BLACK
6
CONTINUOUS
10
6.51989
20
-3.43475
11
6.4837
21
-3.43475
0
LINE
8
BLACK
6
CONTINUOUS
10
6.4837
20
-3.43475
11
6.4837
21
-3.47094
0
LINE
8
BLACK
6
CONTINUOUS
10
6.4837
20
-3.47094
11
6.51989
21
-3.47094
0
LINE
8
BLACK
6
CONTINUOUS
10
8.47855
20
-4.75047
11
8.47855
21
-4.71428
0
LINE
8
BLACK
6
CONTINUOUS
10
8.47855
20
-4.71428
11
8.44236
21
-4.71428
0
LINE
8
BLACK
6
CONTINUOUS
10
8.44236
20
-4.71428
11
8.44236
21
-4.75047
0
LINE
8
BLACK
6
CONTINUOUS
10
8.44236
20
-4.75047
11
8.47855
21
-4.75047
0
LINE
8
BLACK
6
CONTINUOUS
10
8.47855
20
-5.02606
11
8.47855
21
-4.98987
0
LINE
8
BLACK
6
CONTINUOUS
10
8.47855
20
-4.98987
11
8.44236
21
-4.98987
0
LINE
8
BLACK
6
CONTINUOUS
10
8.44236
20
-4.98987
11
8.44236
21
-5.02606
0
LINE
8
BLACK
6
CONTINUOUS
10
8.44236
20
-5.02606
11
8.47855
21
-5.02606
0
LINE
8
BLACK
6
CONTINUOUS
10
3.40907
20
-5.20281
11
3.44844
21
-5.16344
0
LINE
8
BLACK
6
CONTINUOUS
10
3.44844
20
-5.16344
11
3.40907
21
-5.12407
0
LINE
8
BLACK
6
CONTINUOUS
10
3.40907
20
-5.12407
11
3.3697
21
-5.16344
0
LINE
8
BLACK
6
CONTINUOUS
10
3.3697
20
-5.16344
11
3.40907
21
-5.20281
0
LINE
8
BLACK
6
CONTINUOUS
10
3.3697
20
-5.1536
11
3.3697
21
-5.17328
0
ARC
8
BLACK
10
3.40907
20
-5.17328
40
0.0393701
50
540
51
720
0
LINE
8
BLACK
6
CONTINUOUS
10
3.44844
20
-5.17328
11
3.44844
21
-5.1536
0
ARC
8
BLACK
10
3.40907
20
-5.1536
40
0.0393701
50
360
51
540
0
LINE
8
BLACK
6
CONTINUOUS
10
3.85001
20
-5.20281
11
3.88938
21
-5.16344
0
LINE
8
BLACK
6
CONTINUOUS
10
3.88938
20
-5.16344
11
3.85001
21
-5.12407
0
LINE
8
BLACK
6
CONTINUOUS
10
3.85001
20
-5.12407
11
3.81064
21
-5.16344
0
LINE
8
BLACK
6
CONTINUOUS
10
3.81064
20
-5.16344
11
3.85001
21
-5.20281
0
LINE
8
BLACK
6
CONTINUOUS
10
3.81064
20
-5.1536
11
3.81064
21
-5.17328
0
ARC
8
BLACK
10
3.85001
20
-5.17328
40
0.0393701
50
540
51
720
0
LINE
8
BLACK
6
CONTINUOUS
10
3.88938
20
-5.17328
11
3.88938
21
-5.1536
0
ARC
8
BLACK
10
3.85001
20
-5.1536
40
0.0393701
50
360
51
540
0
LINE
8
BLACK
6
CONTINUOUS
10
1.76426
20
-3.72146
11
1.88237
21
-3.83957
0
LINE
8
BLACK
6
CONTINUOUS
10
1.88237
20
-3.72146
11
1.76426
21
-3.83957
0
CIRCLE
8
BLACK
10
1.82332
20
-3.78052
40
0.0590551
0
LINE
8
BLACK
6
CONTINUOUS
10
1.8945
20
-4.46007
11
2.01261
21
-4.57818
0
LINE
8
BLACK
6
CONTINUOUS
10
2.01261
20
-4.46007
11
1.8945
21
-4.57818
0
CIRCLE
8
BLACK
10
1.95355
20
-4.51913
40
0.0590551
0
LINE
8
BLACK
6
CONTINUOUS
10
1.9931
20
-3.57957
11
2.11121
21
-3.69768
0
LINE
8
BLACK
6
CONTINUOUS
10
2.11121
20
-3.57957
11
1.9931
21
-3.69768
0
CIRCLE
8
BLACK
10
2.05215
20
-3.63863
40
0.0590551
0
LINE
8
BLACK
6
CONTINUOUS
10
2.02473
20
-5.19868
11
2.14284
21
-5.31679
0
LINE
8
BLACK
6
CONTINUOUS
10
2.14284
20
-5.19868
11
2.02473
21
-5.31679
0
CIRCLE
8
BLACK
10
2.08379
20
-5.25773
40
0.0590551
0
LINE
8
BLACK
6
CONTINUOUS
10
2.12333
20
-4.31818
11
2.24144
21
-4.43629
0
LINE
8
BLACK
6
CONTINUOUS
10
2.24144
20
-4.31818
11
2.12333
21
-4.43629
0
CIRCLE
8
BLACK
10
2.18239
20
-4.37723
40
0.0590551
0
LINE
8
BLACK
6
CONTINUOUS
10
2.25357
20
-5.05678
11
2.37168
21
-5.17489
0
LINE
8
BLACK
6
CONTINUOUS
10
2.37168
20
-5.05678
11
2.25357
21
-5.17489
0
CIRCLE
8
BLACK
10
2.31263
20
-5.11584
40
0.0590551
0
LINE
8
BLACK
6
CONTINUOUS
10
2.59834
20
-3.14411
11
2.71645
21
-3.26222
0
LINE
8
BLACK
6
CONTINUOUS
10
2.71645
20
-3.14411
11
2.59834
21
-3.26222
0
CIRCLE
8
BLACK
10
2.6574
20
-3.20316
40
0.0590551
0
LINE
8
BLACK
6
CONTINUOUS
10
2.66371
20
-3.89125
11
2.78182
21
-4.00936
0
LINE
8
BLACK
6
CONTINUOUS
10
2.78182
20
-3.89125
11
2.66371
21
-4.00936
0
CIRCLE
8
BLACK
10
2.72277
20
-3.95031
40
0.0590551
0
LINE
8
BLACK
6
CONTINUOUS
10
2.72908
20
-4.6384
11
2.84719
21
-4.75651
0
LINE
8
BLACK
6
CONTINUOUS
10
2.84719
20
-4.6384
11
2.72908
21
-4.75651
0
CIRCLE
8
BLACK
10
2.78813
20
-4.69746
40
0.0590551
0
LINE
8
BLACK
6
CONTINUOUS
10
2.83868
20
-3.0227
11
2.95679
21
-3.14081
0
LINE
8
BLACK
6
CONTINUOUS
10
2.95679
20
-3.0227
11
2.83868
21
-3.14081
0
CIRCLE
8
BLACK
10
2.89773
20
-3.08175
40
0.0590551
0
LINE
8
BLACK
6
CONTINUOUS
10
2.90404
20
-3.76985
11
3.02215
21
-3.88796
0
LINE
8
BLACK
6
CONTINUOUS
10
3.02215
20
-3.76985
11
2.90404
21
-3.88796
0
CIRCLE
8
BLACK
10
2.9631
20
-3.8289
40
0.0590551
0
LINE
8
BLACK
6
CONTINUOUS
10
2.96941
20
-4.51699
11
3.08752
21
-4.6351
0
LINE
8
BLACK
6
CONTINUOUS
10
3.08752
20
-4.51699
11
2.96941
21
-4.6351
0
CIRCLE
8
BLACK
10
3.02847
20
-4.57605
40
0.0590551
0
LINE
8
BLACK
6
CONTINUOUS
10
3.47069
20
-2.768
11
3.5888
21
-2.88611
0
LINE
8
BLACK
6
CONTINUOUS
10
3.5888
20
-2.768
11
3.47069
21
-2.88611
0
CIRCLE
8
BLACK
10
3.52974
20
-2.82706
40
0.0590551
0
LINE
8
BLACK
6
CONTINUOUS
10
3.47069
20
-4.268
11
3.5888
21
-4.38611
0
LINE
8
BLACK
6
CONTINUOUS
10
3.5888
20
-4.268
11
3.47069
21
-4.38611
0
CIRCLE
8
BLACK
10
3.52974
20
-4.32706
40
0.0590551
0
LINE
8
BLACK
6
CONTINUOUS
10
3.47069
20
-3.518
11
3.5888
21
-3.63611
0
LINE
8
BLACK
6
CONTINUOUS
10
3.5888
20
-3.518
11
3.47069
21
-3.63611
0
CIRCLE
8
BLACK
10
3.52974
20
-3.57706
40
0.0590551
0
LINE
8
BLACK
6
CONTINUOUS
10
3.72069
20
-2.668
11
3.8388
21
-2.78611
0
LINE
8
BLACK
6
CONTINUOUS
10
3.8388
20
-2.668
11
3.72069
21
-2.78611
0
CIRCLE
8
BLACK
10
3.77974
20
-2.72706
40
0.0590551
0
LINE
8
BLACK
6
CONTINUOUS
10
3.72069
20
-4.168
11
3.8388
21
-4.28611
0
LINE
8
BLACK
6
CONTINUOUS
10
3.8388
20
-4.168
11
3.72069
21
-4.28611
0
CIRCLE
8
BLACK
10
3.77974
20
-4.22706
40
0.0590551
0
LINE
8
BLACK
6
CONTINUOUS
10
3.72069
20
-3.418
11
3.8388
21
-3.53611
0
LINE
8
BLACK
6
CONTINUOUS
10
3.8388
20
-3.418
11
3.72069
21
-3.53611
0
CIRCLE
8
BLACK
10
3.77974
20
-3.47706
40
0.0590551
0
LINE
8
BLACK
6
CONTINUOUS
10
4.22069
20
-2.95501
11
4.3388
21
-3.07312
0
LINE
8
BLACK
6
CONTINUOUS
10
4.3388
20
-2.95501
11
4.22069
21
-3.07312
0
CIRCLE
8
BLACK
10
4.27974
20
-3.01407
40
0.0590551
0
LINE
8
BLACK
6
CONTINUOUS
10
4.22069
20
-3.70501
11
4.3388
21
-3.82312
0
LINE
8
BLACK
6
CONTINUOUS
10
4.3388
20
-3.70501
11
4.22069
21
-3.82312
0
CIRCLE
8
BLACK
10
4.27974
20
-3.76407
40
0.0590551
0
LINE
8
BLACK
6
CONTINUOUS
10
4.22069
20
-4.45501
11
4.3388
21
-4.57312
0
LINE
8
BLACK
6
CONTINUOUS
10
4.3388
20
-4.45501
11
4.22069
21
-4.57312
0
CIRCLE
8
BLACK
10
4.27974
20
-4.51407
40
0.0590551
0
LINE
8
BLACK
6
CONTINUOUS
10
4.35061
20
-5.36052
11
4.46872
21
-5.47863
0
LINE
8
BLACK
6
CONTINUOUS
10
4.46872
20
-5.36052
11
4.35061
21
-5.47863
0
CIRCLE
8
BLACK
10
4.40967
20
-5.41958
40
0.0590551
0
LINE
8
BLACK
6
CONTINUOUS
10
4.47069
20
-2.85501
11
4.5888
21
-2.97312
0
LINE
8
BLACK
6
CONTINUOUS
10
4.5888
20
-2.85501
11
4.47069
21
-2.97312
0
CIRCLE
8
BLACK
10
4.52974
20
-2.91407
40
0.0590551
0
LINE
8
BLACK
6
CONTINUOUS
10
4.47069
20
-3.60501
11
4.5888
21
-3.72312
0
LINE
8
BLACK
6
CONTINUOUS
10
4.5888
20
-3.60501
11
4.47069
21
-3.72312
0
CIRCLE
8
BLACK
10
4.52974
20
-3.66407
40
0.0590551
0
LINE
8
BLACK
6
CONTINUOUS
10
4.47069
20
-4.35501
11
4.5888
21
-4.47312
0
LINE
8
BLACK
6
CONTINUOUS
10
4.5888
20
-4.35501
11
4.47069
21
-4.47312
0
CIRCLE
8
BLACK
10
4.52974
20
-4.41407
40
0.0590551
0
LINE
8
BLACK
6
CONTINUOUS
10
4.60061
20
-5.26052
11
4.71872
21
-5.37863
0
LINE
8
BLACK
6
CONTINUOUS
10
4.71872
20
-5.26052
11
4.60061
21
-5.37863
0
CIRCLE
8
BLACK
10
4.65967
20
-5.31958
40
0.0590551
0
LINE
8
BLACK
6
CONTINUOUS
10
4.97069
20
-3.79852
11
5.0888
21
-3.91663
0
LINE
8
BLACK
6
CONTINUOUS
10
5.0888
20
-3.79852
11
4.97069
21
-3.91663
0
CIRCLE
8
BLACK
10
5.02974
20
-3.85757
40
0.0590551
0
LINE
8
BLACK
6
CONTINUOUS
10
4.97069
20
-4.54852
11
5.0888
21
-4.66663
0
LINE
8
BLACK
6
CONTINUOUS
10
5.0888
20
-4.54852
11
4.97069
21
-4.66663
0
CIRCLE
8
BLACK
10
5.02974
20
-4.60757
40
0.0590551
0
LINE
8
BLACK
6
CONTINUOUS
10
4.97069
20
-3.04852
11
5.0888
21
-3.16663
0
LINE
8
BLACK
6
CONTINUOUS
10
5.0888
20
-3.04852
11
4.97069
21
-3.16663
0
CIRCLE
8
BLACK
10
5.02974
20
-3.10757
40
0.0590551
0
LINE
8
BLACK
6
CONTINUOUS
10
5.1684
20
-5.44594
11
5.28651
21
-5.56405
0
LINE
8
BLACK
6
CONTINUOUS
10
5.28651
20
-5.44594
11
5.1684
21
-5.56405
0
CIRCLE
8
BLACK
10
5.22745
20
-5.50499
40
0.0590551
0
LINE
8
BLACK
6
CONTINUOUS
10
5.22069
20
-3.69852
11
5.3388
21
-3.81663
0
LINE
8
BLACK
6
CONTINUOUS
10
5.3388
20
-3.69852
11
5.22069
21
-3.81663
0
CIRCLE
8
BLACK
10
5.27974
20
-3.75757
40
0.0590551
0
LINE
8
BLACK
6
CONTINUOUS
10
5.22069
20
-4.44852
11
5.3388
21
-4.56663
0
LINE
8
BLACK
6
CONTINUOUS
10
5.3388
20
-4.44852
11
5.22069
21
-4.56663
0
CIRCLE
8
BLACK
10
5.27974
20
-4.50757
40
0.0590551
0
LINE
8
BLACK
6
CONTINUOUS
10
5.22069
20
-2.94852
11
5.3388
21
-3.06663
0
LINE
8
BLACK
6
CONTINUOUS
10
5.3388
20
-2.94852
11
5.22069
21
-3.06663
0
CIRCLE
8
BLACK
10
5.27974
20
-3.00757
40
0.0590551
0
LINE
8
BLACK
6
CONTINUOUS
10
5.43576
20
-5.41405
11
5.55387
21
-5.53216
0
LINE
8
BLACK
6
CONTINUOUS
10
5.55387
20
-5.41405
11
5.43576
21
-5.53216
0
CIRCLE
8
BLACK
10
5.49481
20
-5.4731
40
0.0590551
0
LINE
8
BLACK
6
CONTINUOUS
10
5.93724
20
-5.73648
11
6.05535
21
-5.85459
0
LINE
8
BLACK
6
CONTINUOUS
10
6.05535
20
-5.73648
11
5.93724
21
-5.85459
0
CIRCLE
8
BLACK
10
5.99629
20
-5.79554
40
0.0590551
0
LINE
8
BLACK
6
CONTINUOUS
10
6.20374
20
-5.77488
11
6.32185
21
-5.89299
0
LINE
8
BLACK
6
CONTINUOUS
10
6.32185
20
-5.77488
11
6.20374
21
-5.89299
0
CIRCLE
8
BLACK
10
6.2628
20
-5.83394
40
0.0590551
0
LINE
8
BLACK
6
CONTINUOUS
10
8.74352
20
-5.83646
11
8.86163
21
-5.95458
0
LINE
8
BLACK
6
CONTINUOUS
10
8.86163
20
-5.83646
11
8.74352
21
-5.95458
0
CIRCLE
8
BLACK
10
8.80257
20
-5.89552
40
0.0590551
0
LINE
8
BLACK
6
CONTINUOUS
10
8.91002
20
-5.62486
11
9.02813
21
-5.74297
0
LINE
8
BLACK
6
CONTINUOUS
10
9.02813
20
-5.62486
11
8.91002
21
-5.74297
0
CIRCLE
8
BLACK
10
8.96908
20
-5.68392
40
0.0590551
0
LINE
8
BLACK
6
CONTINUOUS
10
9.49238
20
-5.49768
11
9.61049
21
-5.61579
0
LINE
8
BLACK
6
CONTINUOUS
10
9.61049
20
-5.49768
11
9.49238
21
-5.61579
0
CIRCLE
8
BLACK
10
9.55143
20
-5.55674
40
0.0590551
0
LINE
8
BLACK
6
CONTINUOUS
10
9.68327
20
-3.0485
11
9.80138
21
-3.16661
0
LINE
8
BLACK
6
CONTINUOUS
10
9.80138
20
-3.0485
11
9.68327
21
-3.16661
0
CIRCLE
8
BLACK
10
9.74232
20
-3.10755
40
0.0590551
0
LINE
8
BLACK
6
CONTINUOUS
10
9.68327
20
-3.7985
11
9.80138
21
-3.91661
0
LINE
8
BLACK
6
CONTINUOUS
10
9.80138
20
-3.7985
11
9.68327
21
-3.91661
0
CIRCLE
8
BLACK
10
9.74232
20
-3.85755
40
0.0590551
0
LINE
8
BLACK
6
CONTINUOUS
10
9.68327
20
-4.5485
11
9.80138
21
-4.66661
0
LINE
8
BLACK
6
CONTINUOUS
10
9.80138
20
-4.5485
11
9.68327
21
-4.66661
0
CIRCLE
8
BLACK
10
9.74232
20
-4.60755
40
0.0590551
0
LINE
8
BLACK
6
CONTINUOUS
10
9.70798
20
-5.33638
11
9.82609
21
-5.45449
0
LINE
8
BLACK
6
CONTINUOUS
10
9.82609
20
-5.33638
11
9.70798
21
-5.45449
0
CIRCLE
8
BLACK
10
9.76703
20
-5.39544
40
0.0590551
0
LINE
8
BLACK
6
CONTINUOUS
10
9.93327
20
-2.9485
11
10.0514
21
-3.06661
0
LINE
8
BLACK
6
CONTINUOUS
10
10.0514
20
-2.9485
11
9.93327
21
-3.06661
0
CIRCLE
8
BLACK
10
9.99232
20
-3.00755
40
0.0590551
0
LINE
8
BLACK
6
CONTINUOUS
10
9.93327
20
-3.6985
11
10.0514
21
-3.81661
0
LINE
8
BLACK
6
CONTINUOUS
10
10.0514
20
-3.6985
11
9.93327
21
-3.81661
0
CIRCLE
8
BLACK
10
9.99232
20
-3.75755
40
0.0590551
0
LINE
8
BLACK
6
CONTINUOUS
10
9.93327
20
-4.4485
11
10.0514
21
-4.56661
0
LINE
8
BLACK
6
CONTINUOUS
10
10.0514
20
-4.4485
11
9.93327
21
-4.56661
0
CIRCLE
8
BLACK
10
9.99232
20
-4.50755
40
0.0590551
0
LINE
8
BLACK
6
CONTINUOUS
10
10.3033
20
-5.3605
11
10.4215
21
-5.47861
0
LINE
8
BLACK
6
CONTINUOUS
10
10.4215
20
-5.3605
11
10.3033
21
-5.47861
0
CIRCLE
8
BLACK
10
10.3624
20
-5.41956
40
0.0590551
0
LINE
8
BLACK
6
CONTINUOUS
10
10.4333
20
-2.95499
11
10.5514
21
-3.0731
0
LINE
8
BLACK
6
CONTINUOUS
10
10.5514
20
-2.95499
11
10.4333
21
-3.0731
0
CIRCLE
8
BLACK
10
10.4923
20
-3.01405
40
0.0590551
0
LINE
8
BLACK
6
CONTINUOUS
10
10.4333
20
-3.70499
11
10.5514
21
-3.8231
0
LINE
8
BLACK
6
CONTINUOUS
10
10.5514
20
-3.70499
11
10.4333
21
-3.8231
0
CIRCLE
8
BLACK
10
10.4923
20
-3.76405
40
0.0590551
0
LINE
8
BLACK
6
CONTINUOUS
10
10.4333
20
-4.45499
11
10.5514
21
-4.5731
0
LINE
8
BLACK
6
CONTINUOUS
10
10.5514
20
-4.45499
11
10.4333
21
-4.5731
0
CIRCLE
8
BLACK
10
10.4923
20
-4.51405
40
0.0590551
0
LINE
8
BLACK
6
CONTINUOUS
10
10.5533
20
-5.2605
11
10.6715
21
-5.37861
0
LINE
8
BLACK
6
CONTINUOUS
10
10.6715
20
-5.2605
11
10.5533
21
-5.37861
0
CIRCLE
8
BLACK
10
10.6124
20
-5.31956
40
0.0590551
0
LINE
8
BLACK
6
CONTINUOUS
10
10.6833
20
-2.85499
11
10.8014
21
-2.9731
0
LINE
8
BLACK
6
CONTINUOUS
10
10.8014
20
-2.85499
11
10.6833
21
-2.9731
0
CIRCLE
8
BLACK
10
10.7423
20
-2.91405
40
0.0590551
0
LINE
8
BLACK
6
CONTINUOUS
10
10.6833
20
-3.60499
11
10.8014
21
-3.7231
0
LINE
8
BLACK
6
CONTINUOUS
10
10.8014
20
-3.60499
11
10.6833
21
-3.7231
0
CIRCLE
8
BLACK
10
10.7423
20
-3.66405
40
0.0590551
0
LINE
8
BLACK
6
CONTINUOUS
10
10.6833
20
-4.35499
11
10.8014
21
-4.4731
0
LINE
8
BLACK
6
CONTINUOUS
10
10.8014
20
-4.35499
11
10.6833
21
-4.4731
0
CIRCLE
8
BLACK
10
10.7423
20
-4.41405
40
0.0590551
0
LINE
8
BLACK
6
CONTINUOUS
10
11.1833
20
-3.51798
11
11.3014
21
-3.63609
0
LINE
8
BLACK
6
CONTINUOUS
10
11.3014
20
-3.51798
11
11.1833
21
-3.63609
0
CIRCLE
8
BLACK
10
11.2423
20
-3.57704
40
0.0590551
0
LINE
8
BLACK
6
CONTINUOUS
10
11.1833
20
-4.26798
11
11.3014
21
-4.38609
0
LINE
8
BLACK
6
CONTINUOUS
10
11.3014
20
-4.26798
11
11.1833
21
-4.38609
0
CIRCLE
8
BLACK
10
11.2423
20
-4.32704
40
0.0590551
0
LINE
8
BLACK
6
CONTINUOUS
10
11.1833
20
-2.76798
11
11.3014
21
-2.88609
0
LINE
8
BLACK
6
CONTINUOUS
10
11.3014
20
-2.76798
11
11.1833
21
-2.88609
0
CIRCLE
8
BLACK
10
11.2423
20
-2.82704
40
0.0590551
0
LINE
8
BLACK
6
CONTINUOUS
10
11.4333
20
-3.41798
11
11.5514
21
-3.53609
0
LINE
8
BLACK
6
CONTINUOUS
10
11.5514
20
-3.41798
11
11.4333
21
-3.53609
0
CIRCLE
8
BLACK
10
11.4923
20
-3.47704
40
0.0590551
0
LINE
8
BLACK
6
CONTINUOUS
10
11.4333
20
-4.16798
11
11.5514
21
-4.28609
0
LINE
8
BLACK
6
CONTINUOUS
10
11.5514
20
-4.16798
11
11.4333
21
-4.28609
0
CIRCLE
8
BLACK
10
11.4923
20
-4.22704
40
0.0590551
0
LINE
8
BLACK
6
CONTINUOUS
10
11.4333
20
-2.66798
11
11.5514
21
-2.78609
0
LINE
8
BLACK
6
CONTINUOUS
10
11.5514
20
-2.66798
11
11.4333
21
-2.78609
0
CIRCLE
8
BLACK
10
11.4923
20
-2.72704
40
0.0590551
0
LINE
8
BLACK
6
CONTINUOUS
10
11.9256
20
-4.62095
11
12.0438
21
-4.73906
0
LINE
8
BLACK
6
CONTINUOUS
10
12.0438
20
-4.62095
11
11.9256
21
-4.73906
0
CIRCLE
8
BLACK
10
11.9847
20
-4.68
40
0.0590551
0
LINE
8
BLACK
6
CONTINUOUS
10
11.991
20
-3.8738
11
12.1091
21
-3.99191
0
LINE
8
BLACK
6
CONTINUOUS
10
12.1091
20
-3.8738
11
11.991
21
-3.99191
0
CIRCLE
8
BLACK
10
12.0501
20
-3.93286
40
0.0590551
0
LINE
8
BLACK
6
CONTINUOUS
10
12.0564
20
-3.12666
11
12.1745
21
-3.24477
0
LINE
8
BLACK
6
CONTINUOUS
10
12.1745
20
-3.12666
11
12.0564
21
-3.24477
0
CIRCLE
8
BLACK
10
12.1154
20
-3.18571
40
0.0590551
0
LINE
8
BLACK
6
CONTINUOUS
10
12.1834
20
-4.54312
11
12.3015
21
-4.66123
0
LINE
8
BLACK
6
CONTINUOUS
10
12.3015
20
-4.54312
11
12.1834
21
-4.66123
0
CIRCLE
8
BLACK
10
12.2425
20
-4.60217
40
0.0590551
0
LINE
8
BLACK
6
CONTINUOUS
10
12.2488
20
-3.79597
11
12.3669
21
-3.91408
0
LINE
8
BLACK
6
CONTINUOUS
10
12.3669
20
-3.79597
11
12.2488
21
-3.91408
0
CIRCLE
8
BLACK
10
12.3078
20
-3.85503
40
0.0590551
0
LINE
8
BLACK
6
CONTINUOUS
10
12.3141
20
-3.04883
11
12.4322
21
-3.16694
0
LINE
8
BLACK
6
CONTINUOUS
10
12.4322
20
-3.04883
11
12.3141
21
-3.16694
0
CIRCLE
8
BLACK
10
12.3732
20
-3.10788
40
0.0590551
0
LINE
8
BLACK
6
CONTINUOUS
10
12.6323
20
-5.16393
11
12.7504
21
-5.28204
0
LINE
8
BLACK
6
CONTINUOUS
10
12.7504
20
-5.16393
11
12.6323
21
-5.28204
0
CIRCLE
8
BLACK
10
12.6913
20
-5.22298
40
0.0590551
0
LINE
8
BLACK
6
CONTINUOUS
10
12.7625
20
-4.42532
11
12.8806
21
-4.54343
0
LINE
8
BLACK
6
CONTINUOUS
10
12.8806
20
-4.42532
11
12.7625
21
-4.54343
0
CIRCLE
8
BLACK
10
12.8216
20
-4.48438
40
0.0590551
0
LINE
8
BLACK
6
CONTINUOUS
10
12.8927
20
-3.68671
11
13.0108
21
-3.80483
0
LINE
8
BLACK
6
CONTINUOUS
10
13.0108
20
-3.68671
11
12.8927
21
-3.80483
0
CIRCLE
8
BLACK
10
12.9518
20
-3.74577
40
0.0590551
0
LINE
8
BLACK
6
CONTINUOUS
10
12.8958
20
-5.10886
11
13.0139
21
-5.22697
0
LINE
8
BLACK
6
CONTINUOUS
10
13.0139
20
-5.10886
11
12.8958
21
-5.22697
0
CIRCLE
8
BLACK
10
12.9549
20
-5.16791
40
0.0590551
0
LINE
8
BLACK
6
CONTINUOUS
10
13.0261
20
-4.37025
11
13.1442
21
-4.48836
0
LINE
8
BLACK
6
CONTINUOUS
10
13.1442
20
-4.37025
11
13.0261
21
-4.48836
0
CIRCLE
8
BLACK
10
13.0851
20
-4.42931
40
0.0590551
0
LINE
8
BLACK
6
CONTINUOUS
10
13.1563
20
-3.63165
11
13.2744
21
-3.74976
0
LINE
8
BLACK
6
CONTINUOUS
10
13.2744
20
-3.63165
11
13.1563
21
-3.74976
0
CIRCLE
8
BLACK
10
13.2154
20
-3.6907
40
0.0590551
0
LINE
8
BLACK
6
CONTINUOUS
10
1.50308
20
-6.33335
11
1.50308
21
-6.25461
0
LINE
8
BLACK
6
CONTINUOUS
10
1.50308
20
-6.25461
11
1.52183
21
-6.25461
0
LINE
8
BLACK
6
CONTINUOUS
10
1.52183
20
-6.25461
11
1.53308
21
-6.25836
0
LINE
8
BLACK
6
CONTINUOUS
10
1.53308
20
-6.25836
11
1.54058
21
-6.26586
0
LINE
8
BLACK
6
CONTINUOUS
10
1.54058
20
-6.26586
11
1.54433
21
-6.27336
0
LINE
8
BLACK
6
CONTINUOUS
10
1.54433
20
-6.27336
11
1.54808
21
-6.28836
0
LINE
8
BLACK
6
CONTINUOUS
10
1.54808
20
-6.28836
11
1.54808
21
-6.29961
0
LINE
8
BLACK
6
CONTINUOUS
10
1.54808
20
-6.29961
11
1.54433
21
-6.3146
0
LINE
8
BLACK
6
CONTINUOUS
10
1.54433
20
-6.3146
11
1.54058
21
-6.3221
0
LINE
8
BLACK
6
CONTINUOUS
10
1.54058
20
-6.3221
11
1.53308
21
-6.3296
0
LINE
8
BLACK
6
CONTINUOUS
10
1.53308
20
-6.3296
11
1.52183
21
-6.33335
0
LINE
8
BLACK
6
CONTINUOUS
10
1.52183
20
-6.33335
11
1.50308
21
-6.33335
0
LINE
8
BLACK
6
CONTINUOUS
10
1.58182
20
-6.33335
11
1.58182
21
-6.28086
0
LINE
8
BLACK
6
CONTINUOUS
10
1.58182
20
-6.29586
11
1.58557
21
-6.28836
0
LINE
8
BLACK
6
CONTINUOUS
10
1.58557
20
-6.28836
11
1.58932
21
-6.28461
0
LINE
8
BLACK
6
CONTINUOUS
10
1.58932
20
-6.28461
11
1.59682
21
-6.28086
0
LINE
8
BLACK
6
CONTINUOUS
10
1.59682
20
-6.28086
11
1.60432
21
-6.28086
0
LINE
8
BLACK
6
CONTINUOUS
10
1.63057
20
-6.33335
11
1.63057
21
-6.28086
0
LINE
8
BLACK
6
CONTINUOUS
10
1.63057
20
-6.25461
11
1.62682
21
-6.25836
0
LINE
8
BLACK
6
CONTINUOUS
10
1.62682
20
-6.25836
11
1.63057
21
-6.26211
0
LINE
8
BLACK
6
CONTINUOUS
10
1.63057
20
-6.26211
11
1.63432
21
-6.25836
0
LINE
8
BLACK
6
CONTINUOUS
10
1.63432
20
-6.25836
11
1.63057
21
-6.25461
0
LINE
8
BLACK
6
CONTINUOUS
10
1.63057
20
-6.25461
11
1.63057
21
-6.26211
0
LINE
8
BLACK
6
CONTINUOUS
10
1.67931
20
-6.33335
11
1.67181
21
-6.3296
0
LINE
8
BLACK
6
CONTINUOUS
10
1.67181
20
-6.3296
11
1.66806
21
-6.3221
0
LINE
8
BLACK
6
CONTINUOUS
10
1.66806
20
-6.3221
11
1.66806
21
-6.25461
0
LINE
8
BLACK
6
CONTINUOUS
10
1.72055
20
-6.33335
11
1.71306
21
-6.3296
0
LINE
8
BLACK
6
CONTINUOUS
10
1.71306
20
-6.3296
11
1.70931
21
-6.3221
0
LINE
8
BLACK
6
CONTINUOUS
10
1.70931
20
-6.3221
11
1.70931
21
-6.25461
0
LINE
8
BLACK
6
CONTINUOUS
10
1.81054
20
-6.33335
11
1.81054
21
-6.25461
0
LINE
8
BLACK
6
CONTINUOUS
10
1.81054
20
-6.25461
11
1.83679
21
-6.31085
0
LINE
8
BLACK
6
CONTINUOUS
10
1.83679
20
-6.31085
11
1.86304
21
-6.25461
0
LINE
8
BLACK
6
CONTINUOUS
10
1.86304
20
-6.25461
11
1.86304
21
-6.33335
0
LINE
8
BLACK
6
CONTINUOUS
10
1.93428
20
-6.33335
11
1.93428
21
-6.29211
0
LINE
8
BLACK
6
CONTINUOUS
10
1.93428
20
-6.29211
11
1.93053
21
-6.28461
0
LINE
8
BLACK
6
CONTINUOUS
10
1.93053
20
-6.28461
11
1.92303
21
-6.28086
0
LINE
8
BLACK
6
CONTINUOUS
10
1.92303
20
-6.28086
11
1.90803
21
-6.28086
0
LINE
8
BLACK
6
CONTINUOUS
10
1.90803
20
-6.28086
11
1.90053
21
-6.28461
0
LINE
8
BLACK
6
CONTINUOUS
10
1.93428
20
-6.3296
11
1.92678
21
-6.33335
0
LINE
8
BLACK
6
CONTINUOUS
10
1.92678
20
-6.33335
11
1.90803
21
-6.33335
0
LINE
8
BLACK
6
CONTINUOUS
10
1.90803
20
-6.33335
11
1.90053
21
-6.3296
0
LINE
8
BLACK
6
CONTINUOUS
10
1.90053
20
-6.3296
11
1.89678
21
-6.3221
0
LINE
8
BLACK
6
CONTINUOUS
10
1.89678
20
-6.3221
11
1.89678
21
-6.3146
0
LINE
8
BLACK
6
CONTINUOUS
10
1.89678
20
-6.3146
11
1.90053
21
-6.30711
0
LINE
8
BLACK
6
CONTINUOUS
10
1.90053
20
-6.30711
11
1.90803
21
-6.30336
0
LINE
8
BLACK
6
CONTINUOUS
10
1.90803
20
-6.30336
11
1.92678
21
-6.30336
0
LINE
8
BLACK
6
CONTINUOUS
10
1.92678
20
-6.30336
11
1.93428
21
-6.29961
0
LINE
8
BLACK
6
CONTINUOUS
10
1.97177
20
-6.28086
11
1.97177
21
-6.3596
0
LINE
8
BLACK
6
CONTINUOUS
10
1.97177
20
-6.28461
11
1.97927
21
-6.28086
0
LINE
8
BLACK
6
CONTINUOUS
10
1.97927
20
-6.28086
11
1.99427
21
-6.28086
0
LINE
8
BLACK
6
CONTINUOUS
10
1.99427
20
-6.28086
11
2.00177
21
-6.28461
0
LINE
8
BLACK
6
CONTINUOUS
10
2.00177
20
-6.28461
11
2.00552
21
-6.28836
0
LINE
8
BLACK
6
CONTINUOUS
10
2.00552
20
-6.28836
11
2.00927
21
-6.29586
0
LINE
8
BLACK
6
CONTINUOUS
10
2.00927
20
-6.29586
11
2.00927
21
-6.31835
0
LINE
8
BLACK
6
CONTINUOUS
10
2.00927
20
-6.31835
11
2.00552
21
-6.32585
0
LINE
8
BLACK
6
CONTINUOUS
10
2.00552
20
-6.32585
11
2.00177
21
-6.3296
0
LINE
8
BLACK
6
CONTINUOUS
10
2.00177
20
-6.3296
11
1.99427
21
-6.33335
0
LINE
8
BLACK
6
CONTINUOUS
10
1.99427
20
-6.33335
11
1.97927
21
-6.33335
0
LINE
8
BLACK
6
CONTINUOUS
10
1.97927
20
-6.33335
11
1.97177
21
-6.3296
0
LINE
8
BLACK
6
CONTINUOUS
10
2.04301
20
-6.32585
11
2.04676
21
-6.3296
0
LINE
8
BLACK
6
CONTINUOUS
10
2.04676
20
-6.3296
11
2.04301
21
-6.33335
0
LINE
8
BLACK
6
CONTINUOUS
10
2.04301
20
-6.33335
11
2.03926
21
-6.3296
0
LINE
8
BLACK
6
CONTINUOUS
10
2.03926
20
-6.3296
11
2.04301
21
-6.32585
0
LINE
8
BLACK
6
CONTINUOUS
10
2.04301
20
-6.32585
11
2.04301
21
-6.33335
0
LINE
8
BLACK
6
CONTINUOUS
10
2.04301
20
-6.28461
11
2.04676
21
-6.28836
0
LINE
8
BLACK
6
CONTINUOUS
10
2.04676
20
-6.28836
11
2.04301
21
-6.29211
0
LINE
8
BLACK
6
CONTINUOUS
10
2.04301
20
-6.29211
11
2.03926
21
-6.28836
0
LINE
8
BLACK
6
CONTINUOUS
10
2.03926
20
-6.28836
11
2.04301
21
-6.28461
0
LINE
8
BLACK
6
CONTINUOUS
10
2.04301
20
-6.28461
11
2.04301
21
-6.29211
0
LINE
8
BLACK
6
CONTINUOUS
10
1.38467
20
-6.45482
11
1.40041
21
-6.47056
0
LINE
8
BLACK
6
CONTINUOUS
10
1.40041
20
-6.45482
11
1.38467
21
-6.47056
0
LINE
8
BLACK
6
CONTINUOUS
10
1.51808
20
-6.41997
11
1.52558
21
-6.41997
0
LINE
8
BLACK
6
CONTINUOUS
10
1.52558
20
-6.41997
11
1.53308
21
-6.42372
0
LINE
8
BLACK
6
CONTINUOUS
10
1.53308
20
-6.42372
11
1.53683
21
-6.42747
0
LINE
8
BLACK
6
CONTINUOUS
10
1.53683
20
-6.42747
11
1.54058
21
-6.43496
0
LINE
8
BLACK
6
CONTINUOUS
10
1.54058
20
-6.43496
11
1.54433
21
-6.44996
0
LINE
8
BLACK
6
CONTINUOUS
10
1.54433
20
-6.44996
11
1.54433
21
-6.46871
0
LINE
8
BLACK
6
CONTINUOUS
10
1.54433
20
-6.46871
11
1.54058
21
-6.48371
0
LINE
8
BLACK
6
CONTINUOUS
10
1.54058
20
-6.48371
11
1.53683
21
-6.49121
0
LINE
8
BLACK
6
CONTINUOUS
10
1.53683
20
-6.49121
11
1.53308
21
-6.49496
0
LINE
8
BLACK
6
CONTINUOUS
10
1.53308
20
-6.49496
11
1.52558
21
-6.49871
0
LINE
8
BLACK
6
CONTINUOUS
10
1.52558
20
-6.49871
11
1.51808
21
-6.49871
0
LINE
8
BLACK
6
CONTINUOUS
10
1.51808
20
-6.49871
11
1.51058
21
-6.49496
0
LINE
8
BLACK
6
CONTINUOUS
10
1.51058
20
-6.49496
11
1.50683
21
-6.49121
0
LINE
8
BLACK
6
CONTINUOUS
10
1.50683
20
-6.49121
11
1.50308
21
-6.48371
0
LINE
8
BLACK
6
CONTINUOUS
10
1.50308
20
-6.48371
11
1.49933
21
-6.46871
0
LINE
8
BLACK
6
CONTINUOUS
10
1.49933
20
-6.46871
11
1.49933
21
-6.44996
0
LINE
8
BLACK
6
CONTINUOUS
10
1.49933
20
-6.44996
11
1.50308
21
-6.43496
0
LINE
8
BLACK
6
CONTINUOUS
10
1.50308
20
-6.43496
11
1.50683
21
-6.42747
0
LINE
8
BLACK
6
CONTINUOUS
10
1.50683
20
-6.42747
11
1.51058
21
-6.42372
0
LINE
8
BLACK
6
CONTINUOUS
10
1.51058
20
-6.42372
11
1.51808
21
-6.41997
0
LINE
8
BLACK
6
CONTINUOUS
10
1.57807
20
-6.49121
11
1.58182
21
-6.49496
0
LINE
8
BLACK
6
CONTINUOUS
10
1.58182
20
-6.49496
11
1.57807
21
-6.49871
0
LINE
8
BLACK
6
CONTINUOUS
10
1.57807
20
-6.49871
11
1.57432
21
-6.49496
0
LINE
8
BLACK
6
CONTINUOUS
10
1.57432
20
-6.49496
11
1.57807
21
-6.49121
0
LINE
8
BLACK
6
CONTINUOUS
10
1.57807
20
-6.49121
11
1.57807
21
-6.49871
0
LINE
8
BLACK
6
CONTINUOUS
10
1.64931
20
-6.44621
11
1.64931
21
-6.49871
0
LINE
8
BLACK
6
CONTINUOUS
10
1.63057
20
-6.41622
11
1.61182
21
-6.47246
0
LINE
8
BLACK
6
CONTINUOUS
10
1.61182
20
-6.47246
11
1.66056
21
-6.47246
0
LINE
8
BLACK
6
CONTINUOUS
10
1.70556
20
-6.41997
11
1.71306
21
-6.41997
0
LINE
8
BLACK
6
CONTINUOUS
10
1.71306
20
-6.41997
11
1.72055
21
-6.42372
0
LINE
8
BLACK
6
CONTINUOUS
10
1.72055
20
-6.42372
11
1.7243
21
-6.42747
0
LINE
8
BLACK
6
CONTINUOUS
10
1.7243
20
-6.42747
11
1.72805
21
-6.43496
0
LINE
8
BLACK
6
CONTINUOUS
10
1.72805
20
-6.43496
11
1.7318
21
-6.44996
0
LINE
8
BLACK
6
CONTINUOUS
10
1.7318
20
-6.44996
11
1.7318
21
-6.46871
0
LINE
8
BLACK
6
CONTINUOUS
10
1.7318
20
-6.46871
11
1.72805
21
-6.48371
0
LINE
8
BLACK
6
CONTINUOUS
10
1.72805
20
-6.48371
11
1.7243
21
-6.49121
0
LINE
8
BLACK
6
CONTINUOUS
10
1.7243
20
-6.49121
11
1.72055
21
-6.49496
0
LINE
8
BLACK
6
CONTINUOUS
10
1.72055
20
-6.49496
11
1.71306
21
-6.49871
0
LINE
8
BLACK
6
CONTINUOUS
10
1.71306
20
-6.49871
11
1.70556
21
-6.49871
0
LINE
8
BLACK
6
CONTINUOUS
10
1.70556
20
-6.49871
11
1.69806
21
-6.49496
0
LINE
8
BLACK
6
CONTINUOUS
10
1.69806
20
-6.49496
11
1.69431
21
-6.49121
0
LINE
8
BLACK
6
CONTINUOUS
10
1.69431
20
-6.49121
11
1.69056
21
-6.48371
0
LINE
8
BLACK
6
CONTINUOUS
10
1.69056
20
-6.48371
11
1.68681
21
-6.46871
0
LINE
8
BLACK
6
CONTINUOUS
10
1.68681
20
-6.46871
11
1.68681
21
-6.44996
0
LINE
8
BLACK
6
CONTINUOUS
10
1.68681
20
-6.44996
11
1.69056
21
-6.43496
0
LINE
8
BLACK
6
CONTINUOUS
10
1.69056
20
-6.43496
11
1.69431
21
-6.42747
0
LINE
8
BLACK
6
CONTINUOUS
10
1.69431
20
-6.42747
11
1.69806
21
-6.42372
0
LINE
8
BLACK
6
CONTINUOUS
10
1.69806
20
-6.42372
11
1.70556
21
-6.41997
0
LINE
8
BLACK
6
CONTINUOUS
10
1.78055
20
-6.41997
11
1.78805
21
-6.41997
0
LINE
8
BLACK
6
CONTINUOUS
10
1.78805
20
-6.41997
11
1.79554
21
-6.42372
0
LINE
8
BLACK
6
CONTINUOUS
10
1.79554
20
-6.42372
11
1.79929
21
-6.42747
0
LINE
8
BLACK
6
CONTINUOUS
10
1.79929
20
-6.42747
11
1.80304
21
-6.43496
0
LINE
8
BLACK
6
CONTINUOUS
10
1.80304
20
-6.43496
11
1.80679
21
-6.44996
0
LINE
8
BLACK
6
CONTINUOUS
10
1.80679
20
-6.44996
11
1.80679
21
-6.46871
0
LINE
8
BLACK
6
CONTINUOUS
10
1.80679
20
-6.46871
11
1.80304
21
-6.48371
0
LINE
8
BLACK
6
CONTINUOUS
10
1.80304
20
-6.48371
11
1.79929
21
-6.49121
0
LINE
8
BLACK
6
CONTINUOUS
10
1.79929
20
-6.49121
11
1.79554
21
-6.49496
0
LINE
8
BLACK
6
CONTINUOUS
10
1.79554
20
-6.49496
11
1.78805
21
-6.49871
0
LINE
8
BLACK
6
CONTINUOUS
10
1.78805
20
-6.49871
11
1.78055
21
-6.49871
0
LINE
8
BLACK
6
CONTINUOUS
10
1.78055
20
-6.49871
11
1.77305
21
-6.49496
0
LINE
8
BLACK
6
CONTINUOUS
10
1.77305
20
-6.49496
11
1.7693
21
-6.49121
0
LINE
8
BLACK
6
CONTINUOUS
10
1.7693
20
-6.49121
11
1.76555
21
-6.48371
0
LINE
8
BLACK
6
CONTINUOUS
10
1.76555
20
-6.48371
11
1.7618
21
-6.46871
0
LINE
8
BLACK
6
CONTINUOUS
10
1.7618
20
-6.46871
11
1.7618
21
-6.44996
0
LINE
8
BLACK
6
CONTINUOUS
10
1.7618
20
-6.44996
11
1.76555
21
-6.43496
0
LINE
8
BLACK
6
CONTINUOUS
10
1.76555
20
-6.43496
11
1.7693
21
-6.42747
0
LINE
8
BLACK
6
CONTINUOUS
10
1.7693
20
-6.42747
11
1.77305
21
-6.42372
0
LINE
8
BLACK
6
CONTINUOUS
10
1.77305
20
-6.42372
11
1.78055
21
-6.41997
0
LINE
8
BLACK
6
CONTINUOUS
10
1.84054
20
-6.49871
11
1.84054
21
-6.44621
0
LINE
8
BLACK
6
CONTINUOUS
10
1.84054
20
-6.45371
11
1.84429
21
-6.44996
0
LINE
8
BLACK
6
CONTINUOUS
10
1.84429
20
-6.44996
11
1.85179
21
-6.44621
0
LINE
8
BLACK
6
CONTINUOUS
10
1.85179
20
-6.44621
11
1.86304
21
-6.44621
0
LINE
8
BLACK
6
CONTINUOUS
10
1.86304
20
-6.44621
11
1.87054
21
-6.44996
0
LINE
8
BLACK
6
CONTINUOUS
10
1.87054
20
-6.44996
11
1.87429
21
-6.45746
0
LINE
8
BLACK
6
CONTINUOUS
10
1.87429
20
-6.45746
11
1.87429
21
-6.49871
0
LINE
8
BLACK
6
CONTINUOUS
10
1.87429
20
-6.45746
11
1.87803
21
-6.44996
0
LINE
8
BLACK
6
CONTINUOUS
10
1.87803
20
-6.44996
11
1.88553
21
-6.44621
0
LINE
8
BLACK
6
CONTINUOUS
10
1.88553
20
-6.44621
11
1.89678
21
-6.44621
0
LINE
8
BLACK
6
CONTINUOUS
10
1.89678
20
-6.44621
11
1.90428
21
-6.44996
0
LINE
8
BLACK
6
CONTINUOUS
10
1.90428
20
-6.44996
11
1.90803
21
-6.45746
0
LINE
8
BLACK
6
CONTINUOUS
10
1.90803
20
-6.45746
11
1.90803
21
-6.49871
0
LINE
8
BLACK
6
CONTINUOUS
10
1.94553
20
-6.49871
11
1.94553
21
-6.44621
0
LINE
8
BLACK
6
CONTINUOUS
10
1.94553
20
-6.45371
11
1.94928
21
-6.44996
0
LINE
8
BLACK
6
CONTINUOUS
10
1.94928
20
-6.44996
11
1.95677
21
-6.44621
0
LINE
8
BLACK
6
CONTINUOUS
10
1.95677
20
-6.44621
11
1.96802
21
-6.44621
0
LINE
8
BLACK
6
CONTINUOUS
10
1.96802
20
-6.44621
11
1.97552
21
-6.44996
0
LINE
8
BLACK
6
CONTINUOUS
10
1.97552
20
-6.44996
11
1.97927
21
-6.45746
0
LINE
8
BLACK
6
CONTINUOUS
10
1.97927
20
-6.45746
11
1.97927
21
-6.49871
0
LINE
8
BLACK
6
CONTINUOUS
10
1.97927
20
-6.45746
11
1.98302
21
-6.44996
0
LINE
8
BLACK
6
CONTINUOUS
10
1.98302
20
-6.44996
11
1.99052
21
-6.44621
0
LINE
8
BLACK
6
CONTINUOUS
10
1.99052
20
-6.44621
11
2.00177
21
-6.44621
0
LINE
8
BLACK
6
CONTINUOUS
10
2.00177
20
-6.44621
11
2.00927
21
-6.44996
0
LINE
8
BLACK
6
CONTINUOUS
10
2.00927
20
-6.44996
11
2.01302
21
-6.45746
0
LINE
8
BLACK
6
CONTINUOUS
10
2.01302
20
-6.45746
11
2.01302
21
-6.49871
0
LINE
8
BLACK
6
CONTINUOUS
10
2.16675
20
-6.41622
11
2.09926
21
-6.51745
0
LINE
8
BLACK
6
CONTINUOUS
10
2.26799
20
-6.41997
11
2.27548
21
-6.41997
0
LINE
8
BLACK
6
CONTINUOUS
10
2.27548
20
-6.41997
11
2.28298
21
-6.42372
0
LINE
8
BLACK
6
CONTINUOUS
10
2.28298
20
-6.42372
11
2.28673
21
-6.42747
0
LINE
8
BLACK
6
CONTINUOUS
10
2.28673
20
-6.42747
11
2.29048
21
-6.43496
0
LINE
8
BLACK
6
CONTINUOUS
10
2.29048
20
-6.43496
11
2.29423
21
-6.44996
0
LINE
8
BLACK
6
CONTINUOUS
10
2.29423
20
-6.44996
11
2.29423
21
-6.46871
0
LINE
8
BLACK
6
CONTINUOUS
10
2.29423
20
-6.46871
11
2.29048
21
-6.48371
0
LINE
8
BLACK
6
CONTINUOUS
10
2.29048
20
-6.48371
11
2.28673
21
-6.49121
0
LINE
8
BLACK
6
CONTINUOUS
10
2.28673
20
-6.49121
11
2.28298
21
-6.49496
0
LINE
8
BLACK
6
CONTINUOUS
10
2.28298
20
-6.49496
11
2.27548
21
-6.49871
0
LINE
8
BLACK
6
CONTINUOUS
10
2.27548
20
-6.49871
11
2.26799
21
-6.49871
0
LINE
8
BLACK
6
CONTINUOUS
10
2.26799
20
-6.49871
11
2.26049
21
-6.49496
0
LINE
8
BLACK
6
CONTINUOUS
10
2.26049
20
-6.49496
11
2.25674
21
-6.49121
0
LINE
8
BLACK
6
CONTINUOUS
10
2.25674
20
-6.49121
11
2.25299
21
-6.48371
0
LINE
8
BLACK
6
CONTINUOUS
10
2.25299
20
-6.48371
11
2.24924
21
-6.46871
0
LINE
8
BLACK
6
CONTINUOUS
10
2.24924
20
-6.46871
11
2.24924
21
-6.44996
0
LINE
8
BLACK
6
CONTINUOUS
10
2.24924
20
-6.44996
11
2.25299
21
-6.43496
0
LINE
8
BLACK
6
CONTINUOUS
10
2.25299
20
-6.43496
11
2.25674
21
-6.42747
0
LINE
8
BLACK
6
CONTINUOUS
10
2.25674
20
-6.42747
11
2.26049
21
-6.42372
0
LINE
8
BLACK
6
CONTINUOUS
10
2.26049
20
-6.42372
11
2.26799
21
-6.41997
0
LINE
8
BLACK
6
CONTINUOUS
10
2.32798
20
-6.49121
11
2.33173
21
-6.49496
0
LINE
8
BLACK
6
CONTINUOUS
10
2.33173
20
-6.49496
11
2.32798
21
-6.49871
0
LINE
8
BLACK
6
CONTINUOUS
10
2.32798
20
-6.49871
11
2.32423
21
-6.49496
0
LINE
8
BLACK
6
CONTINUOUS
10
2.32423
20
-6.49496
11
2.32798
21
-6.49121
0
LINE
8
BLACK
6
CONTINUOUS
10
2.32798
20
-6.49121
11
2.32798
21
-6.49871
0
LINE
8
BLACK
6
CONTINUOUS
10
2.38047
20
-6.41997
11
2.38797
21
-6.41997
0
LINE
8
BLACK
6
CONTINUOUS
10
2.38797
20
-6.41997
11
2.39547
21
-6.42372
0
LINE
8
BLACK
6
CONTINUOUS
10
2.39547
20
-6.42372
11
2.39922
21
-6.42747
0
LINE
8
BLACK
6
CONTINUOUS
10
2.39922
20
-6.42747
11
2.40297
21
-6.43496
0
LINE
8
BLACK
6
CONTINUOUS
10
2.40297
20
-6.43496
11
2.40672
21
-6.44996
0
LINE
8
BLACK
6
CONTINUOUS
10
2.40672
20
-6.44996
11
2.40672
21
-6.46871
0
LINE
8
BLACK
6
CONTINUOUS
10
2.40672
20
-6.46871
11
2.40297
21
-6.48371
0
LINE
8
BLACK
6
CONTINUOUS
10
2.40297
20
-6.48371
11
2.39922
21
-6.49121
0
LINE
8
BLACK
6
CONTINUOUS
10
2.39922
20
-6.49121
11
2.39547
21
-6.49496
0
LINE
8
BLACK
6
CONTINUOUS
10
2.39547
20
-6.49496
11
2.38797
21
-6.49871
0
LINE
8
BLACK
6
CONTINUOUS
10
2.38797
20
-6.49871
11
2.38047
21
-6.49871
0
LINE
8
BLACK
6
CONTINUOUS
10
2.38047
20
-6.49871
11
2.37297
21
-6.49496
0
LINE
8
BLACK
6
CONTINUOUS
10
2.37297
20
-6.49496
11
2.36922
21
-6.49121
0
LINE
8
BLACK
6
CONTINUOUS
10
2.36922
20
-6.49121
11
2.36547
21
-6.48371
0
LINE
8
BLACK
6
CONTINUOUS
10
2.36547
20
-6.48371
11
2.36172
21
-6.46871
0
LINE
8
BLACK
6
CONTINUOUS
10
2.36172
20
-6.46871
11
2.36172
21
-6.44996
0
LINE
8
BLACK
6
CONTINUOUS
10
2.36172
20
-6.44996
11
2.36547
21
-6.43496
0
LINE
8
BLACK
6
CONTINUOUS
10
2.36547
20
-6.43496
11
2.36922
21
-6.42747
0
LINE
8
BLACK
6
CONTINUOUS
10
2.36922
20
-6.42747
11
2.37297
21
-6.42372
0
LINE
8
BLACK
6
CONTINUOUS
10
2.37297
20
-6.42372
11
2.38047
21
-6.41997
0
LINE
8
BLACK
6
CONTINUOUS
10
2.48171
20
-6.49871
11
2.43671
21
-6.49871
0
LINE
8
BLACK
6
CONTINUOUS
10
2.45921
20
-6.49871
11
2.45921
21
-6.41997
0
LINE
8
BLACK
6
CONTINUOUS
10
2.45921
20
-6.41997
11
2.45171
21
-6.43121
0
LINE
8
BLACK
6
CONTINUOUS
10
2.45171
20
-6.43121
11
2.44421
21
-6.43871
0
LINE
8
BLACK
6
CONTINUOUS
10
2.44421
20
-6.43871
11
2.43671
21
-6.44246
0
LINE
8
BLACK
6
CONTINUOUS
10
2.55295
20
-6.41997
11
2.51545
21
-6.41997
0
LINE
8
BLACK
6
CONTINUOUS
10
2.51545
20
-6.41997
11
2.51171
21
-6.45746
0
LINE
8
BLACK
6
CONTINUOUS
10
2.51171
20
-6.45746
11
2.51545
21
-6.45371
0
LINE
8
BLACK
6
CONTINUOUS
10
2.51545
20
-6.45371
11
2.52295
21
-6.44996
0
LINE
8
BLACK
6
CONTINUOUS
10
2.52295
20
-6.44996
11
2.5417
21
-6.44996
0
LINE
8
BLACK
6
CONTINUOUS
10
2.5417
20
-6.44996
11
2.5492
21
-6.45371
0
LINE
8
BLACK
6
CONTINUOUS
10
2.5492
20
-6.45371
11
2.55295
21
-6.45746
0
LINE
8
BLACK
6
CONTINUOUS
10
2.55295
20
-6.45746
11
2.5567
21
-6.46496
0
LINE
8
BLACK
6
CONTINUOUS
10
2.5567
20
-6.46496
11
2.5567
21
-6.48371
0
LINE
8
BLACK
6
CONTINUOUS
10
2.5567
20
-6.48371
11
2.55295
21
-6.49121
0
LINE
8
BLACK
6
CONTINUOUS
10
2.55295
20
-6.49121
11
2.5492
21
-6.49496
0
LINE
8
BLACK
6
CONTINUOUS
10
2.5492
20
-6.49496
11
2.5417
21
-6.49871
0
LINE
8
BLACK
6
CONTINUOUS
10
2.5417
20
-6.49871
11
2.52295
21
-6.49871
0
LINE
8
BLACK
6
CONTINUOUS
10
2.52295
20
-6.49871
11
2.51545
21
-6.49496
0
LINE
8
BLACK
6
CONTINUOUS
10
2.51545
20
-6.49496
11
2.51171
21
-6.49121
0
LINE
8
BLACK
6
CONTINUOUS
10
2.58295
20
-6.41997
11
2.63544
21
-6.41997
0
LINE
8
BLACK
6
CONTINUOUS
10
2.63544
20
-6.41997
11
2.60169
21
-6.49871
0
LINE
8
BLACK
6
CONTINUOUS
10
2.66169
20
-6.41997
11
2.66169
21
-6.43496
0
LINE
8
BLACK
6
CONTINUOUS
10
2.69168
20
-6.41997
11
2.69168
21
-6.43496
0
LINE
8
BLACK
6
CONTINUOUS
10
2.80792
20
-6.5287
11
2.80417
21
-6.52495
0
LINE
8
BLACK
6
CONTINUOUS
10
2.80417
20
-6.52495
11
2.79667
21
-6.5137
0
LINE
8
BLACK
6
CONTINUOUS
10
2.79667
20
-6.5137
11
2.79292
21
-6.50621
0
LINE
8
BLACK
6
CONTINUOUS
10
2.79292
20
-6.50621
11
2.78917
21
-6.49496
0
LINE
8
BLACK
6
CONTINUOUS
10
2.78917
20
-6.49496
11
2.78542
21
-6.47621
0
LINE
8
BLACK
6
CONTINUOUS
10
2.78542
20
-6.47621
11
2.78542
21
-6.46121
0
LINE
8
BLACK
6
CONTINUOUS
10
2.78542
20
-6.46121
11
2.78917
21
-6.44246
0
LINE
8
BLACK
6
CONTINUOUS
10
2.78917
20
-6.44246
11
2.79292
21
-6.43121
0
LINE
8
BLACK
6
CONTINUOUS
10
2.79292
20
-6.43121
11
2.79667
21
-6.42372
0
LINE
8
BLACK
6
CONTINUOUS
10
2.79667
20
-6.42372
11
2.80417
21
-6.41247
0
LINE
8
BLACK
6
CONTINUOUS
10
2.80417
20
-6.41247
11
2.80792
21
-6.40872
0
LINE
8
BLACK
6
CONTINUOUS
10
2.83042
20
-6.41997
11
2.88291
21
-6.41997
0
LINE
8
BLACK
6
CONTINUOUS
10
2.88291
20
-6.41997
11
2.84916
21
-6.49871
0
LINE
8
BLACK
6
CONTINUOUS
10
2.9279
20
-6.41997
11
2.9354
21
-6.41997
0
LINE
8
BLACK
6
CONTINUOUS
10
2.9354
20
-6.41997
11
2.9429
21
-6.42372
0
LINE
8
BLACK
6
CONTINUOUS
10
2.9429
20
-6.42372
11
2.94665
21
-6.42747
0
LINE
8
BLACK
6
CONTINUOUS
10
2.94665
20
-6.42747
11
2.9504
21
-6.43496
0
LINE
8
BLACK
6
CONTINUOUS
10
2.9504
20
-6.43496
11
2.95415
21
-6.44996
0
LINE
8
BLACK
6
CONTINUOUS
10
2.95415
20
-6.44996
11
2.95415
21
-6.46871
0
LINE
8
BLACK
6
CONTINUOUS
10
2.95415
20
-6.46871
11
2.9504
21
-6.48371
0
LINE
8
BLACK
6
CONTINUOUS
10
2.9504
20
-6.48371
11
2.94665
21
-6.49121
0
LINE
8
BLACK
6
CONTINUOUS
10
2.94665
20
-6.49121
11
2.9429
21
-6.49496
0
LINE
8
BLACK
6
CONTINUOUS
10
2.9429
20
-6.49496
11
2.9354
21
-6.49871
0
LINE
8
BLACK
6
CONTINUOUS
10
2.9354
20
-6.49871
11
2.9279
21
-6.49871
0
LINE
8
BLACK
6
CONTINUOUS
10
2.9279
20
-6.49871
11
2.9204
21
-6.49496
0
LINE
8
BLACK
6
CONTINUOUS
10
2.9204
20
-6.49496
11
2.91665
21
-6.49121
0
LINE
8
BLACK
6
CONTINUOUS
10
2.91665
20
-6.49121
11
2.91291
21
-6.48371
0
LINE
8
BLACK
6
CONTINUOUS
10
2.91291
20
-6.48371
11
2.90916
21
-6.46871
0
LINE
8
BLACK
6
CONTINUOUS
10
2.90916
20
-6.46871
11
2.90916
21
-6.44996
0
LINE
8
BLACK
6
CONTINUOUS
10
2.90916
20
-6.44996
11
2.91291
21
-6.43496
0
LINE
8
BLACK
6
CONTINUOUS
10
2.91291
20
-6.43496
11
2.91665
21
-6.42747
0
LINE
8
BLACK
6
CONTINUOUS
10
2.91665
20
-6.42747
11
2.9204
21
-6.42372
0
LINE
8
BLACK
6
CONTINUOUS
10
2.9204
20
-6.42372
11
2.9279
21
-6.41997
0
LINE
8
BLACK
6
CONTINUOUS
10
3.04789
20
-6.49871
11
3.04789
21
-6.41997
0
LINE
8
BLACK
6
CONTINUOUS
10
3.08163
20
-6.49871
11
3.08163
21
-6.45746
0
LINE
8
BLACK
6
CONTINUOUS
10
3.08163
20
-6.45746
11
3.07788
21
-6.44996
0
LINE
8
BLACK
6
CONTINUOUS
10
3.07788
20
-6.44996
11
3.07039
21
-6.44621
0
LINE
8
BLACK
6
CONTINUOUS
10
3.07039
20
-6.44621
11
3.05914
21
-6.44621
0
LINE
8
BLACK
6
CONTINUOUS
10
3.05914
20
-6.44621
11
3.05164
21
-6.44996
0
LINE
8
BLACK
6
CONTINUOUS
10
3.05164
20
-6.44996
11
3.04789
21
-6.45371
0
LINE
8
BLACK
6
CONTINUOUS
10
3.13038
20
-6.49871
11
3.12288
21
-6.49496
0
LINE
8
BLACK
6
CONTINUOUS
10
3.12288
20
-6.49496
11
3.11913
21
-6.49121
0
LINE
8
BLACK
6
CONTINUOUS
10
3.11913
20
-6.49121
11
3.11538
21
-6.48371
0
LINE
8
BLACK
6
CONTINUOUS
10
3.11538
20
-6.48371
11
3.11538
21
-6.46121
0
LINE
8
BLACK
6
CONTINUOUS
10
3.11538
20
-6.46121
11
3.11913
21
-6.45371
0
LINE
8
BLACK
6
CONTINUOUS
10
3.11913
20
-6.45371
11
3.12288
21
-6.44996
0
LINE
8
BLACK
6
CONTINUOUS
10
3.12288
20
-6.44996
11
3.13038
21
-6.44621
0
LINE
8
BLACK
6
CONTINUOUS
10
3.13038
20
-6.44621
11
3.14163
21
-6.44621
0
LINE
8
BLACK
6
CONTINUOUS
10
3.14163
20
-6.44621
11
3.14913
21
-6.44996
0
LINE
8
BLACK
6
CONTINUOUS
10
3.14913
20
-6.44996
11
3.15288
21
-6.45371
0
LINE
8
BLACK
6
CONTINUOUS
10
3.15288
20
-6.45371
11
3.15662
21
-6.46121
0
LINE
8
BLACK
6
CONTINUOUS
10
3.15662
20
-6.46121
11
3.15662
21
-6.48371
0
LINE
8
BLACK
6
CONTINUOUS
10
3.15662
20
-6.48371
11
3.15288
21
-6.49121
0
LINE
8
BLACK
6
CONTINUOUS
10
3.15288
20
-6.49121
11
3.14913
21
-6.49496
0
LINE
8
BLACK
6
CONTINUOUS
10
3.14913
20
-6.49496
11
3.14163
21
-6.49871
0
LINE
8
BLACK
6
CONTINUOUS
10
3.14163
20
-6.49871
11
3.13038
21
-6.49871
0
LINE
8
BLACK
6
CONTINUOUS
10
3.20162
20
-6.49871
11
3.19412
21
-6.49496
0
LINE
8
BLACK
6
CONTINUOUS
10
3.19412
20
-6.49496
11
3.19037
21
-6.48746
0
LINE
8
BLACK
6
CONTINUOUS
10
3.19037
20
-6.48746
11
3.19037
21
-6.41997
0
LINE
8
BLACK
6
CONTINUOUS
10
3.26161
20
-6.49496
11
3.25411
21
-6.49871
0
LINE
8
BLACK
6
CONTINUOUS
10
3.25411
20
-6.49871
11
3.23911
21
-6.49871
0
LINE
8
BLACK
6
CONTINUOUS
10
3.23911
20
-6.49871
11
3.23162
21
-6.49496
0
LINE
8
BLACK
6
CONTINUOUS
10
3.23162
20
-6.49496
11
3.22787
21
-6.48746
0
LINE
8
BLACK
6
CONTINUOUS
10
3.22787
20
-6.48746
11
3.22787
21
-6.45746
0
LINE
8
BLACK
6
CONTINUOUS
10
3.22787
20
-6.45746
11
3.23162
21
-6.44996
0
LINE
8
BLACK
6
CONTINUOUS
10
3.23162
20
-6.44996
11
3.23911
21
-6.44621
0
LINE
8
BLACK
6
CONTINUOUS
10
3.23911
20
-6.44621
11
3.25411
21
-6.44621
0
LINE
8
BLACK
6
CONTINUOUS
10
3.25411
20
-6.44621
11
3.26161
21
-6.44996
0
LINE
8
BLACK
6
CONTINUOUS
10
3.26161
20
-6.44996
11
3.26536
21
-6.45746
0
LINE
8
BLACK
6
CONTINUOUS
10
3.26536
20
-6.45746
11
3.26536
21
-6.46496
0
LINE
8
BLACK
6
CONTINUOUS
10
3.26536
20
-6.46496
11
3.22787
21
-6.47246
0
LINE
8
BLACK
6
CONTINUOUS
10
3.29536
20
-6.49496
11
3.30286
21
-6.49871
0
LINE
8
BLACK
6
CONTINUOUS
10
3.30286
20
-6.49871
11
3.31785
21
-6.49871
0
LINE
8
BLACK
6
CONTINUOUS
10
3.31785
20
-6.49871
11
3.32535
21
-6.49496
0
LINE
8
BLACK
6
CONTINUOUS
10
3.32535
20
-6.49496
11
3.3291
21
-6.48746
0
LINE
8
BLACK
6
CONTINUOUS
10
3.3291
20
-6.48746
11
3.3291
21
-6.48371
0
LINE
8
BLACK
6
CONTINUOUS
10
3.3291
20
-6.48371
11
3.32535
21
-6.47621
0
LINE
8
BLACK
6
CONTINUOUS
10
3.32535
20
-6.47621
11
3.31785
21
-6.47246
0
LINE
8
BLACK
6
CONTINUOUS
10
3.31785
20
-6.47246
11
3.30661
21
-6.47246
0
LINE
8
BLACK
6
CONTINUOUS
10
3.30661
20
-6.47246
11
3.29911
21
-6.46871
0
LINE
8
BLACK
6
CONTINUOUS
10
3.29911
20
-6.46871
11
3.29536
21
-6.46121
0
LINE
8
BLACK
6
CONTINUOUS
10
3.29536
20
-6.46121
11
3.29536
21
-6.45746
0
LINE
8
BLACK
6
CONTINUOUS
10
3.29536
20
-6.45746
11
3.29911
21
-6.44996
0
LINE
8
BLACK
6
CONTINUOUS
10
3.29911
20
-6.44996
11
3.30661
21
-6.44621
0
LINE
8
BLACK
6
CONTINUOUS
10
3.30661
20
-6.44621
11
3.31785
21
-6.44621
0
LINE
8
BLACK
6
CONTINUOUS
10
3.31785
20
-6.44621
11
3.32535
21
-6.44996
0
LINE
8
BLACK
6
CONTINUOUS
10
3.35535
20
-6.5287
11
3.3591
21
-6.52495
0
LINE
8
BLACK
6
CONTINUOUS
10
3.3591
20
-6.52495
11
3.3666
21
-6.5137
0
LINE
8
BLACK
6
CONTINUOUS
10
3.3666
20
-6.5137
11
3.37035
21
-6.50621
0
LINE
8
BLACK
6
CONTINUOUS
10
3.37035
20
-6.50621
11
3.3741
21
-6.49496
0
LINE
8
BLACK
6
CONTINUOUS
10
3.3741
20
-6.49496
11
3.37785
21
-6.47621
0
LINE
8
BLACK
6
CONTINUOUS
10
3.37785
20
-6.47621
11
3.37785
21
-6.46121
0
LINE
8
BLACK
6
CONTINUOUS
10
3.37785
20
-6.46121
11
3.3741
21
-6.44246
0
LINE
8
BLACK
6
CONTINUOUS
10
3.3741
20
-6.44246
11
3.37035
21
-6.43121
0
LINE
8
BLACK
6
CONTINUOUS
10
3.37035
20
-6.43121
11
3.3666
21
-6.42372
0
LINE
8
BLACK
6
CONTINUOUS
10
3.3666
20
-6.42372
11
3.3591
21
-6.41247
0
LINE
8
BLACK
6
CONTINUOUS
10
3.3591
20
-6.41247
11
3.35535
21
-6.40872
0
CIRCLE
8
BLACK
10
1.38073
20
-6.56663
40
0.019685
0
LINE
8
BLACK
6
CONTINUOUS
10
1.54433
20
-6.60264
11
1.49933
21
-6.60264
0
LINE
8
BLACK
6
CONTINUOUS
10
1.52183
20
-6.60264
11
1.52183
21
-6.5239
0
LINE
8
BLACK
6
CONTINUOUS
10
1.52183
20
-6.5239
11
1.51433
21
-6.53515
0
LINE
8
BLACK
6
CONTINUOUS
10
1.51433
20
-6.53515
11
1.50683
21
-6.54265
0
LINE
8
BLACK
6
CONTINUOUS
10
1.50683
20
-6.54265
11
1.49933
21
-6.5464
0
LINE
8
BLACK
6
CONTINUOUS
10
1.57807
20
-6.59514
11
1.58182
21
-6.59889
0
LINE
8
BLACK
6
CONTINUOUS
10
1.58182
20
-6.59889
11
1.57807
21
-6.60264
0
LINE
8
BLACK
6
CONTINUOUS
10
1.57807
20
-6.60264
11
1.57432
21
-6.59889
0
LINE
8
BLACK
6
CONTINUOUS
10
1.57432
20
-6.59889
11
1.57807
21
-6.59514
0
LINE
8
BLACK
6
CONTINUOUS
10
1.57807
20
-6.59514
11
1.57807
21
-6.60264
0
LINE
8
BLACK
6
CONTINUOUS
10
1.63057
20
-6.5239
11
1.63806
21
-6.5239
0
LINE
8
BLACK
6
CONTINUOUS
10
1.63806
20
-6.5239
11
1.64556
21
-6.52765
0
LINE
8
BLACK
6
CONTINUOUS
10
1.64556
20
-6.52765
11
1.64931
21
-6.5314
0
LINE
8
BLACK
6
CONTINUOUS
10
1.64931
20
-6.5314
11
1.65306
21
-6.5389
0
LINE
8
BLACK
6
CONTINUOUS
10
1.65306
20
-6.5389
11
1.65681
21
-6.5539
0
LINE
8
BLACK
6
CONTINUOUS
10
1.65681
20
-6.5539
11
1.65681
21
-6.57265
0
LINE
8
BLACK
6
CONTINUOUS
10
1.65681
20
-6.57265
11
1.65306
21
-6.58765
0
LINE
8
BLACK
6
CONTINUOUS
10
1.65306
20
-6.58765
11
1.64931
21
-6.59514
0
LINE
8
BLACK
6
CONTINUOUS
10
1.64931
20
-6.59514
11
1.64556
21
-6.59889
0
LINE
8
BLACK
6
CONTINUOUS
10
1.64556
20
-6.59889
11
1.63806
21
-6.60264
0
LINE
8
BLACK
6
CONTINUOUS
10
1.63806
20
-6.60264
11
1.63057
21
-6.60264
0
LINE
8
BLACK
6
CONTINUOUS
10
1.63057
20
-6.60264
11
1.62307
21
-6.59889
0
LINE
8
BLACK
6
CONTINUOUS
10
1.62307
20
-6.59889
11
1.61932
21
-6.59514
0
LINE
8
BLACK
6
CONTINUOUS
10
1.61932
20
-6.59514
11
1.61557
21
-6.58765
0
LINE
8
BLACK
6
CONTINUOUS
10
1.61557
20
-6.58765
11
1.61182
21
-6.57265
0
LINE
8
BLACK
6
CONTINUOUS
10
1.61182
20
-6.57265
11
1.61182
21
-6.5539
0
LINE
8
BLACK
6
CONTINUOUS
10
1.61182
20
-6.5539
11
1.61557
21
-6.5389
0
LINE
8
BLACK
6
CONTINUOUS
10
1.61557
20
-6.5389
11
1.61932
21
-6.5314
0
LINE
8
BLACK
6
CONTINUOUS
10
1.61932
20
-6.5314
11
1.62307
21
-6.52765
0
LINE
8
BLACK
6
CONTINUOUS
10
1.62307
20
-6.52765
11
1.63057
21
-6.5239
0
LINE
8
BLACK
6
CONTINUOUS
10
1.70556
20
-6.5239
11
1.71306
21
-6.5239
0
LINE
8
BLACK
6
CONTINUOUS
10
1.71306
20
-6.5239
11
1.72055
21
-6.52765
0
LINE
8
BLACK
6
CONTINUOUS
10
1.72055
20
-6.52765
11
1.7243
21
-6.5314
0
LINE
8
BLACK
6
CONTINUOUS
10
1.7243
20
-6.5314
11
1.72805
21
-6.5389
0
LINE
8
BLACK
6
CONTINUOUS
10
1.72805
20
-6.5389
11
1.7318
21
-6.5539
0
LINE
8
BLACK
6
CONTINUOUS
10
1.7318
20
-6.5539
11
1.7318
21
-6.57265
0
LINE
8
BLACK
6
CONTINUOUS
10
1.7318
20
-6.57265
11
1.72805
21
-6.58765
0
LINE
8
BLACK
6
CONTINUOUS
10
1.72805
20
-6.58765
11
1.7243
21
-6.59514
0
LINE
8
BLACK
6
CONTINUOUS
10
1.7243
20
-6.59514
11
1.72055
21
-6.59889
0
LINE
8
BLACK
6
CONTINUOUS
10
1.72055
20
-6.59889
11
1.71306
21
-6.60264
0
LINE
8
BLACK
6
CONTINUOUS
10
1.71306
20
-6.60264
11
1.70556
21
-6.60264
0
LINE
8
BLACK
6
CONTINUOUS
10
1.70556
20
-6.60264
11
1.69806
21
-6.59889
0
LINE
8
BLACK
6
CONTINUOUS
10
1.69806
20
-6.59889
11
1.69431
21
-6.59514
0
LINE
8
BLACK
6
CONTINUOUS
10
1.69431
20
-6.59514
11
1.69056
21
-6.58765
0
LINE
8
BLACK
6
CONTINUOUS
10
1.69056
20
-6.58765
11
1.68681
21
-6.57265
0
LINE
8
BLACK
6
CONTINUOUS
10
1.68681
20
-6.57265
11
1.68681
21
-6.5539
0
LINE
8
BLACK
6
CONTINUOUS
10
1.68681
20
-6.5539
11
1.69056
21
-6.5389
0
LINE
8
BLACK
6
CONTINUOUS
10
1.69056
20
-6.5389
11
1.69431
21
-6.5314
0
LINE
8
BLACK
6
CONTINUOUS
10
1.69431
20
-6.5314
11
1.69806
21
-6.52765
0
LINE
8
BLACK
6
CONTINUOUS
10
1.69806
20
-6.52765
11
1.70556
21
-6.5239
0
LINE
8
BLACK
6
CONTINUOUS
10
1.78055
20
-6.5239
11
1.78805
21
-6.5239
0
LINE
8
BLACK
6
CONTINUOUS
10
1.78805
20
-6.5239
11
1.79554
21
-6.52765
0
LINE
8
BLACK
6
CONTINUOUS
10
1.79554
20
-6.52765
11
1.79929
21
-6.5314
0
LINE
8
BLACK
6
CONTINUOUS
10
1.79929
20
-6.5314
11
1.80304
21
-6.5389
0
LINE
8
BLACK
6
CONTINUOUS
10
1.80304
20
-6.5389
11
1.80679
21
-6.5539
0
LINE
8
BLACK
6
CONTINUOUS
10
1.80679
20
-6.5539
11
1.80679
21
-6.57265
0
LINE
8
BLACK
6
CONTINUOUS
10
1.80679
20
-6.57265
11
1.80304
21
-6.58765
0
LINE
8
BLACK
6
CONTINUOUS
10
1.80304
20
-6.58765
11
1.79929
21
-6.59514
0
LINE
8
BLACK
6
CONTINUOUS
10
1.79929
20
-6.59514
11
1.79554
21
-6.59889
0
LINE
8
BLACK
6
CONTINUOUS
10
1.79554
20
-6.59889
11
1.78805
21
-6.60264
0
LINE
8
BLACK
6
CONTINUOUS
10
1.78805
20
-6.60264
11
1.78055
21
-6.60264
0
LINE
8
BLACK
6
CONTINUOUS
10
1.78055
20
-6.60264
11
1.77305
21
-6.59889
0
LINE
8
BLACK
6
CONTINUOUS
10
1.77305
20
-6.59889
11
1.7693
21
-6.59514
0
LINE
8
BLACK
6
CONTINUOUS
10
1.7693
20
-6.59514
11
1.76555
21
-6.58765
0
LINE
8
BLACK
6
CONTINUOUS
10
1.76555
20
-6.58765
11
1.7618
21
-6.57265
0
LINE
8
BLACK
6
CONTINUOUS
10
1.7618
20
-6.57265
11
1.7618
21
-6.5539
0
LINE
8
BLACK
6
CONTINUOUS
10
1.7618
20
-6.5539
11
1.76555
21
-6.5389
0
LINE
8
BLACK
6
CONTINUOUS
10
1.76555
20
-6.5389
11
1.7693
21
-6.5314
0
LINE
8
BLACK
6
CONTINUOUS
10
1.7693
20
-6.5314
11
1.77305
21
-6.52765
0
LINE
8
BLACK
6
CONTINUOUS
10
1.77305
20
-6.52765
11
1.78055
21
-6.5239
0
LINE
8
BLACK
6
CONTINUOUS
10
1.84054
20
-6.60264
11
1.84054
21
-6.55015
0
LINE
8
BLACK
6
CONTINUOUS
10
1.84054
20
-6.55765
11
1.84429
21
-6.5539
0
LINE
8
BLACK
6
CONTINUOUS
10
1.84429
20
-6.5539
11
1.85179
21
-6.55015
0
LINE
8
BLACK
6
CONTINUOUS
10
1.85179
20
-6.55015
11
1.86304
21
-6.55015
0
LINE
8
BLACK
6
CONTINUOUS
10
1.86304
20
-6.55015
11
1.87054
21
-6.5539
0
LINE
8
BLACK
6
CONTINUOUS
10
1.87054
20
-6.5539
11
1.87429
21
-6.5614
0
LINE
8
BLACK
6
CONTINUOUS
10
1.87429
20
-6.5614
11
1.87429
21
-6.60264
0
LINE
8
BLACK
6
CONTINUOUS
10
1.87429
20
-6.5614
11
1.87803
21
-6.5539
0
LINE
8
BLACK
6
CONTINUOUS
10
1.87803
20
-6.5539
11
1.88553
21
-6.55015
0
LINE
8
BLACK
6
CONTINUOUS
10
1.88553
20
-6.55015
11
1.89678
21
-6.55015
0
LINE
8
BLACK
6
CONTINUOUS
10
1.89678
20
-6.55015
11
1.90428
21
-6.5539
0
LINE
8
BLACK
6
CONTINUOUS
10
1.90428
20
-6.5539
11
1.90803
21
-6.5614
0
LINE
8
BLACK
6
CONTINUOUS
10
1.90803
20
-6.5614
11
1.90803
21
-6.60264
0
LINE
8
BLACK
6
CONTINUOUS
10
1.94553
20
-6.60264
11
1.94553
21
-6.55015
0
LINE
8
BLACK
6
CONTINUOUS
10
1.94553
20
-6.55765
11
1.94928
21
-6.5539
0
LINE
8
BLACK
6
CONTINUOUS
10
1.94928
20
-6.5539
11
1.95677
21
-6.55015
0
LINE
8
BLACK
6
CONTINUOUS
10
1.95677
20
-6.55015
11
1.96802
21
-6.55015
0
LINE
8
BLACK
6
CONTINUOUS
10
1.96802
20
-6.55015
11
1.97552
21
-6.5539
0
LINE
8
BLACK
6
CONTINUOUS
10
1.97552
20
-6.5539
11
1.97927
21
-6.5614
0
LINE
8
BLACK
6
CONTINUOUS
10
1.97927
20
-6.5614
11
1.97927
21
-6.60264
0
LINE
8
BLACK
6
CONTINUOUS
10
1.97927
20
-6.5614
11
1.98302
21
-6.5539
0
LINE
8
BLACK
6
CONTINUOUS
10
1.98302
20
-6.5539
11
1.99052
21
-6.55015
0
LINE
8
BLACK
6
CONTINUOUS
10
1.99052
20
-6.55015
11
2.00177
21
-6.55015
0
LINE
8
BLACK
6
CONTINUOUS
10
2.00177
20
-6.55015
11
2.00927
21
-6.5539
0
LINE
8
BLACK
6
CONTINUOUS
10
2.00927
20
-6.5539
11
2.01302
21
-6.5614
0
LINE
8
BLACK
6
CONTINUOUS
10
2.01302
20
-6.5614
11
2.01302
21
-6.60264
0
LINE
8
BLACK
6
CONTINUOUS
10
2.16675
20
-6.52015
11
2.09926
21
-6.62139
0
LINE
8
BLACK
6
CONTINUOUS
10
2.26799
20
-6.5239
11
2.27548
21
-6.5239
0
LINE
8
BLACK
6
CONTINUOUS
10
2.27548
20
-6.5239
11
2.28298
21
-6.52765
0
LINE
8
BLACK
6
CONTINUOUS
10
2.28298
20
-6.52765
11
2.28673
21
-6.5314
0
LINE
8
BLACK
6
CONTINUOUS
10
2.28673
20
-6.5314
11
2.29048
21
-6.5389
0
LINE
8
BLACK
6
CONTINUOUS
10
2.29048
20
-6.5389
11
2.29423
21
-6.5539
0
LINE
8
BLACK
6
CONTINUOUS
10
2.29423
20
-6.5539
11
2.29423
21
-6.57265
0
LINE
8
BLACK
6
CONTINUOUS
10
2.29423
20
-6.57265
11
2.29048
21
-6.58765
0
LINE
8
BLACK
6
CONTINUOUS
10
2.29048
20
-6.58765
11
2.28673
21
-6.59514
0
LINE
8
BLACK
6
CONTINUOUS
10
2.28673
20
-6.59514
11
2.28298
21
-6.59889
0
LINE
8
BLACK
6
CONTINUOUS
10
2.28298
20
-6.59889
11
2.27548
21
-6.60264
0
LINE
8
BLACK
6
CONTINUOUS
10
2.27548
20
-6.60264
11
2.26799
21
-6.60264
0
LINE
8
BLACK
6
CONTINUOUS
10
2.26799
20
-6.60264
11
2.26049
21
-6.59889
0
LINE
8
BLACK
6
CONTINUOUS
10
2.26049
20
-6.59889
11
2.25674
21
-6.59514
0
LINE
8
BLACK
6
CONTINUOUS
10
2.25674
20
-6.59514
11
2.25299
21
-6.58765
0
LINE
8
BLACK
6
CONTINUOUS
10
2.25299
20
-6.58765
11
2.24924
21
-6.57265
0
LINE
8
BLACK
6
CONTINUOUS
10
2.24924
20
-6.57265
11
2.24924
21
-6.5539
0
LINE
8
BLACK
6
CONTINUOUS
10
2.24924
20
-6.5539
11
2.25299
21
-6.5389
0
LINE
8
BLACK
6
CONTINUOUS
10
2.25299
20
-6.5389
11
2.25674
21
-6.5314
0
LINE
8
BLACK
6
CONTINUOUS
10
2.25674
20
-6.5314
11
2.26049
21
-6.52765
0
LINE
8
BLACK
6
CONTINUOUS
10
2.26049
20
-6.52765
11
2.26799
21
-6.5239
0
LINE
8
BLACK
6
CONTINUOUS
10
2.32798
20
-6.59514
11
2.33173
21
-6.59889
0
LINE
8
BLACK
6
CONTINUOUS
10
2.33173
20
-6.59889
11
2.32798
21
-6.60264
0
LINE
8
BLACK
6
CONTINUOUS
10
2.32798
20
-6.60264
11
2.32423
21
-6.59889
0
LINE
8
BLACK
6
CONTINUOUS
10
2.32423
20
-6.59889
11
2.32798
21
-6.59514
0
LINE
8
BLACK
6
CONTINUOUS
10
2.32798
20
-6.59514
11
2.32798
21
-6.60264
0
LINE
8
BLACK
6
CONTINUOUS
10
2.38047
20
-6.5239
11
2.38797
21
-6.5239
0
LINE
8
BLACK
6
CONTINUOUS
10
2.38797
20
-6.5239
11
2.39547
21
-6.52765
0
LINE
8
BLACK
6
CONTINUOUS
10
2.39547
20
-6.52765
11
2.39922
21
-6.5314
0
LINE
8
BLACK
6
CONTINUOUS
10
2.39922
20
-6.5314
11
2.40297
21
-6.5389
0
LINE
8
BLACK
6
CONTINUOUS
10
2.40297
20
-6.5389
11
2.40672
21
-6.5539
0
LINE
8
BLACK
6
CONTINUOUS
10
2.40672
20
-6.5539
11
2.40672
21
-6.57265
0
LINE
8
BLACK
6
CONTINUOUS
10
2.40672
20
-6.57265
11
2.40297
21
-6.58765
0
LINE
8
BLACK
6
CONTINUOUS
10
2.40297
20
-6.58765
11
2.39922
21
-6.59514
0
LINE
8
BLACK
6
CONTINUOUS
10
2.39922
20
-6.59514
11
2.39547
21
-6.59889
0
LINE
8
BLACK
6
CONTINUOUS
10
2.39547
20
-6.59889
11
2.38797
21
-6.60264
0
LINE
8
BLACK
6
CONTINUOUS
10
2.38797
20
-6.60264
11
2.38047
21
-6.60264
0
LINE
8
BLACK
6
CONTINUOUS
10
2.38047
20
-6.60264
11
2.37297
21
-6.59889
0
LINE
8
BLACK
6
CONTINUOUS
10
2.37297
20
-6.59889
11
2.36922
21
-6.59514
0
LINE
8
BLACK
6
CONTINUOUS
10
2.36922
20
-6.59514
11
2.36547
21
-6.58765
0
LINE
8
BLACK
6
CONTINUOUS
10
2.36547
20
-6.58765
11
2.36172
21
-6.57265
0
LINE
8
BLACK
6
CONTINUOUS
10
2.36172
20
-6.57265
11
2.36172
21
-6.5539
0
LINE
8
BLACK
6
CONTINUOUS
10
2.36172
20
-6.5539
11
2.36547
21
-6.5389
0
LINE
8
BLACK
6
CONTINUOUS
10
2.36547
20
-6.5389
11
2.36922
21
-6.5314
0
LINE
8
BLACK
6
CONTINUOUS
10
2.36922
20
-6.5314
11
2.37297
21
-6.52765
0
LINE
8
BLACK
6
CONTINUOUS
10
2.37297
20
-6.52765
11
2.38047
21
-6.5239
0
LINE
8
BLACK
6
CONTINUOUS
10
2.43297
20
-6.5239
11
2.48171
21
-6.5239
0
LINE
8
BLACK
6
CONTINUOUS
10
2.48171
20
-6.5239
11
2.45546
21
-6.5539
0
LINE
8
BLACK
6
CONTINUOUS
10
2.45546
20
-6.5539
11
2.46671
21
-6.5539
0
LINE
8
BLACK
6
CONTINUOUS
10
2.46671
20
-6.5539
11
2.47421
21
-6.55765
0
LINE
8
BLACK
6
CONTINUOUS
10
2.47421
20
-6.55765
11
2.47796
21
-6.5614
0
LINE
8
BLACK
6
CONTINUOUS
10
2.47796
20
-6.5614
11
2.48171
21
-6.5689
0
LINE
8
BLACK
6
CONTINUOUS
10
2.48171
20
-6.5689
11
2.48171
21
-6.58765
0
LINE
8
BLACK
6
CONTINUOUS
10
2.48171
20
-6.58765
11
2.47796
21
-6.59514
0
LINE
8
BLACK
6
CONTINUOUS
10
2.47796
20
-6.59514
11
2.47421
21
-6.59889
0
LINE
8
BLACK
6
CONTINUOUS
10
2.47421
20
-6.59889
11
2.46671
21
-6.60264
0
LINE
8
BLACK
6
CONTINUOUS
10
2.46671
20
-6.60264
11
2.44421
21
-6.60264
0
LINE
8
BLACK
6
CONTINUOUS
10
2.44421
20
-6.60264
11
2.43671
21
-6.59889
0
LINE
8
BLACK
6
CONTINUOUS
10
2.43671
20
-6.59889
11
2.43297
21
-6.59514
0
LINE
8
BLACK
6
CONTINUOUS
10
2.5192
20
-6.60264
11
2.5342
21
-6.60264
0
LINE
8
BLACK
6
CONTINUOUS
10
2.5342
20
-6.60264
11
2.5417
21
-6.59889
0
LINE
8
BLACK
6
CONTINUOUS
10
2.5417
20
-6.59889
11
2.54545
21
-6.59514
0
LINE
8
BLACK
6
CONTINUOUS
10
2.54545
20
-6.59514
11
2.55295
21
-6.5839
0
LINE
8
BLACK
6
CONTINUOUS
10
2.55295
20
-6.5839
11
2.5567
21
-6.5689
0
LINE
8
BLACK
6
CONTINUOUS
10
2.5567
20
-6.5689
11
2.5567
21
-6.5389
0
LINE
8
BLACK
6
CONTINUOUS
10
2.5567
20
-6.5389
11
2.55295
21
-6.5314
0
LINE
8
BLACK
6
CONTINUOUS
10
2.55295
20
-6.5314
11
2.5492
21
-6.52765
0
LINE
8
BLACK
6
CONTINUOUS
10
2.5492
20
-6.52765
11
2.5417
21
-6.5239
0
LINE
8
BLACK
6
CONTINUOUS
10
2.5417
20
-6.5239
11
2.5267
21
-6.5239
0
LINE
8
BLACK
6
CONTINUOUS
10
2.5267
20
-6.5239
11
2.5192
21
-6.52765
0
LINE
8
BLACK
6
CONTINUOUS
10
2.5192
20
-6.52765
11
2.51545
21
-6.5314
0
LINE
8
BLACK
6
CONTINUOUS
10
2.51545
20
-6.5314
11
2.51171
21
-6.5389
0
LINE
8
BLACK
6
CONTINUOUS
10
2.51171
20
-6.5389
11
2.51171
21
-6.55765
0
LINE
8
BLACK
6
CONTINUOUS
10
2.51171
20
-6.55765
11
2.51545
21
-6.56515
0
LINE
8
BLACK
6
CONTINUOUS
10
2.51545
20
-6.56515
11
2.5192
21
-6.5689
0
LINE
8
BLACK
6
CONTINUOUS
10
2.5192
20
-6.5689
11
2.5267
21
-6.57265
0
LINE
8
BLACK
6
CONTINUOUS
10
2.5267
20
-6.57265
11
2.5417
21
-6.57265
0
LINE
8
BLACK
6
CONTINUOUS
10
2.5417
20
-6.57265
11
2.5492
21
-6.5689
0
LINE
8
BLACK
6
CONTINUOUS
10
2.5492
20
-6.5689
11
2.55295
21
-6.56515
0
LINE
8
BLACK
6
CONTINUOUS
10
2.55295
20
-6.56515
11
2.5567
21
-6.55765
0
LINE
8
BLACK
6
CONTINUOUS
10
2.62419
20
-6.55015
11
2.62419
21
-6.60264
0
LINE
8
BLACK
6
CONTINUOUS
10
2.60544
20
-6.52015
11
2.5867
21
-6.5764
0
LINE
8
BLACK
6
CONTINUOUS
10
2.5867
20
-6.5764
11
2.63544
21
-6.5764
0
LINE
8
BLACK
6
CONTINUOUS
10
2.66169
20
-6.5239
11
2.66169
21
-6.5389
0
LINE
8
BLACK
6
CONTINUOUS
10
2.69168
20
-6.5239
11
2.69168
21
-6.5389
0
LINE
8
BLACK
6
CONTINUOUS
10
2.80792
20
-6.63264
11
2.80417
21
-6.62889
0
LINE
8
BLACK
6
CONTINUOUS
10
2.80417
20
-6.62889
11
2.79667
21
-6.61764
0
LINE
8
BLACK
6
CONTINUOUS
10
2.79667
20
-6.61764
11
2.79292
21
-6.61014
0
LINE
8
BLACK
6
CONTINUOUS
10
2.79292
20
-6.61014
11
2.78917
21
-6.59889
0
LINE
8
BLACK
6
CONTINUOUS
10
2.78917
20
-6.59889
11
2.78542
21
-6.58015
0
LINE
8
BLACK
6
CONTINUOUS
10
2.78542
20
-6.58015
11
2.78542
21
-6.56515
0
LINE
8
BLACK
6
CONTINUOUS
10
2.78542
20
-6.56515
11
2.78917
21
-6.5464
0
LINE
8
BLACK
6
CONTINUOUS
10
2.78917
20
-6.5464
11
2.79292
21
-6.53515
0
LINE
8
BLACK
6
CONTINUOUS
10
2.79292
20
-6.53515
11
2.79667
21
-6.52765
0
LINE
8
BLACK
6
CONTINUOUS
10
2.79667
20
-6.52765
11
2.80417
21
-6.5164
0
LINE
8
BLACK
6
CONTINUOUS
10
2.80417
20
-6.5164
11
2.80792
21
-6.51265
0
LINE
8
BLACK
6
CONTINUOUS
10
2.87166
20
-6.5239
11
2.85666
21
-6.5239
0
LINE
8
BLACK
6
CONTINUOUS
10
2.85666
20
-6.5239
11
2.84916
21
-6.52765
0
LINE
8
BLACK
6
CONTINUOUS
10
2.84916
20
-6.52765
11
2.84541
21
-6.5314
0
LINE
8
BLACK
6
CONTINUOUS
10
2.84541
20
-6.5314
11
2.83791
21
-6.54265
0
LINE
8
BLACK
6
CONTINUOUS
10
2.83791
20
-6.54265
11
2.83417
21
-6.55765
0
LINE
8
BLACK
6
CONTINUOUS
10
2.83417
20
-6.55765
11
2.83417
21
-6.58765
0
LINE
8
BLACK
6
CONTINUOUS
10
2.83417
20
-6.58765
11
2.83791
21
-6.59514
0
LINE
8
BLACK
6
CONTINUOUS
10
2.83791
20
-6.59514
11
2.84166
21
-6.59889
0
LINE
8
BLACK
6
CONTINUOUS
10
2.84166
20
-6.59889
11
2.84916
21
-6.60264
0
LINE
8
BLACK
6
CONTINUOUS
10
2.84916
20
-6.60264
11
2.86416
21
-6.60264
0
LINE
8
BLACK
6
CONTINUOUS
10
2.86416
20
-6.60264
11
2.87166
21
-6.59889
0
LINE
8
BLACK
6
CONTINUOUS
10
2.87166
20
-6.59889
11
2.87541
21
-6.59514
0
LINE
8
BLACK
6
CONTINUOUS
10
2.87541
20
-6.59514
11
2.87916
21
-6.58765
0
LINE
8
BLACK
6
CONTINUOUS
10
2.87916
20
-6.58765
11
2.87916
21
-6.5689
0
LINE
8
BLACK
6
CONTINUOUS
10
2.87916
20
-6.5689
11
2.87541
21
-6.5614
0
LINE
8
BLACK
6
CONTINUOUS
10
2.87541
20
-6.5614
11
2.87166
21
-6.55765
0
LINE
8
BLACK
6
CONTINUOUS
10
2.87166
20
-6.55765
11
2.86416
21
-6.5539
0
LINE
8
BLACK
6
CONTINUOUS
10
2.86416
20
-6.5539
11
2.84916
21
-6.5539
0
LINE
8
BLACK
6
CONTINUOUS
10
2.84916
20
-6.5539
11
2.84166
21
-6.55765
0
LINE
8
BLACK
6
CONTINUOUS
10
2.84166
20
-6.55765
11
2.83791
21
-6.5614
0
LINE
8
BLACK
6
CONTINUOUS
10
2.83791
20
-6.5614
11
2.83417
21
-6.5689
0
LINE
8
BLACK
6
CONTINUOUS
10
2.91665
20
-6.60264
11
2.93165
21
-6.60264
0
LINE
8
BLACK
6
CONTINUOUS
10
2.93165
20
-6.60264
11
2.93915
21
-6.59889
0
LINE
8
BLACK
6
CONTINUOUS
10
2.93915
20
-6.59889
11
2.9429
21
-6.59514
0
LINE
8
BLACK
6
CONTINUOUS
10
2.9429
20
-6.59514
11
2.9504
21
-6.5839
0
LINE
8
BLACK
6
CONTINUOUS
10
2.9504
20
-6.5839
11
2.95415
21
-6.5689
0
LINE
8
BLACK
6
CONTINUOUS
10
2.95415
20
-6.5689
11
2.95415
21
-6.5389
0
LINE
8
BLACK
6
CONTINUOUS
10
2.95415
20
-6.5389
11
2.9504
21
-6.5314
0
LINE
8
BLACK
6
CONTINUOUS
10
2.9504
20
-6.5314
11
2.94665
21
-6.52765
0
LINE
8
BLACK
6
CONTINUOUS
10
2.94665
20
-6.52765
11
2.93915
21
-6.5239
0
LINE
8
BLACK
6
CONTINUOUS
10
2.93915
20
-6.5239
11
2.92415
21
-6.5239
0
LINE
8
BLACK
6
CONTINUOUS
10
2.92415
20
-6.5239
11
2.91665
21
-6.52765
0
LINE
8
BLACK
6
CONTINUOUS
10
2.91665
20
-6.52765
11
2.91291
21
-6.5314
0
LINE
8
BLACK
6
CONTINUOUS
10
2.91291
20
-6.5314
11
2.90916
21
-6.5389
0
LINE
8
BLACK
6
CONTINUOUS
10
2.90916
20
-6.5389
11
2.90916
21
-6.55765
0
LINE
8
BLACK
6
CONTINUOUS
10
2.90916
20
-6.55765
11
2.91291
21
-6.56515
0
LINE
8
BLACK
6
CONTINUOUS
10
2.91291
20
-6.56515
11
2.91665
21
-6.5689
0
LINE
8
BLACK
6
CONTINUOUS
10
2.91665
20
-6.5689
11
2.92415
21
-6.57265
0
LINE
8
BLACK
6
CONTINUOUS
10
2.92415
20
-6.57265
11
2.93915
21
-6.57265
0
LINE
8
BLACK
6
CONTINUOUS
10
2.93915
20
-6.57265
11
2.94665
21
-6.5689
0
LINE
8
BLACK
6
CONTINUOUS
10
2.94665
20
-6.5689
11
2.9504
21
-6.56515
0
LINE
8
BLACK
6
CONTINUOUS
10
2.9504
20
-6.56515
11
2.95415
21
-6.55765
0
LINE
8
BLACK
6
CONTINUOUS
10
3.04789
20
-6.60264
11
3.04789
21
-6.5239
0
LINE
8
BLACK
6
CONTINUOUS
10
3.08163
20
-6.60264
11
3.08163
21
-6.5614
0
LINE
8
BLACK
6
CONTINUOUS
10
3.08163
20
-6.5614
11
3.07788
21
-6.5539
0
LINE
8
BLACK
6
CONTINUOUS
10
3.07788
20
-6.5539
11
3.07039
21
-6.55015
0
LINE
8
BLACK
6
CONTINUOUS
10
3.07039
20
-6.55015
11
3.05914
21
-6.55015
0
LINE
8
BLACK
6
CONTINUOUS
10
3.05914
20
-6.55015
11
3.05164
21
-6.5539
0
LINE
8
BLACK
6
CONTINUOUS
10
3.05164
20
-6.5539
11
3.04789
21
-6.55765
0
LINE
8
BLACK
6
CONTINUOUS
10
3.13038
20
-6.60264
11
3.12288
21
-6.59889
0
LINE
8
BLACK
6
CONTINUOUS
10
3.12288
20
-6.59889
11
3.11913
21
-6.59514
0
LINE
8
BLACK
6
CONTINUOUS
10
3.11913
20
-6.59514
11
3.11538
21
-6.58765
0
LINE
8
BLACK
6
CONTINUOUS
10
3.11538
20
-6.58765
11
3.11538
21
-6.56515
0
LINE
8
BLACK
6
CONTINUOUS
10
3.11538
20
-6.56515
11
3.11913
21
-6.55765
0
LINE
8
BLACK
6
CONTINUOUS
10
3.11913
20
-6.55765
11
3.12288
21
-6.5539
0
LINE
8
BLACK
6
CONTINUOUS
10
3.12288
20
-6.5539
11
3.13038
21
-6.55015
0
LINE
8
BLACK
6
CONTINUOUS
10
3.13038
20
-6.55015
11
3.14163
21
-6.55015
0
LINE
8
BLACK
6
CONTINUOUS
10
3.14163
20
-6.55015
11
3.14913
21
-6.5539
0
LINE
8
BLACK
6
CONTINUOUS
10
3.14913
20
-6.5539
11
3.15288
21
-6.55765
0
LINE
8
BLACK
6
CONTINUOUS
10
3.15288
20
-6.55765
11
3.15662
21
-6.56515
0
LINE
8
BLACK
6
CONTINUOUS
10
3.15662
20
-6.56515
11
3.15662
21
-6.58765
0
LINE
8
BLACK
6
CONTINUOUS
10
3.15662
20
-6.58765
11
3.15288
21
-6.59514
0
LINE
8
BLACK
6
CONTINUOUS
10
3.15288
20
-6.59514
11
3.14913
21
-6.59889
0
LINE
8
BLACK
6
CONTINUOUS
10
3.14913
20
-6.59889
11
3.14163
21
-6.60264
0
LINE
8
BLACK
6
CONTINUOUS
10
3.14163
20
-6.60264
11
3.13038
21
-6.60264
0
LINE
8
BLACK
6
CONTINUOUS
10
3.20162
20
-6.60264
11
3.19412
21
-6.59889
0
LINE
8
BLACK
6
CONTINUOUS
10
3.19412
20
-6.59889
11
3.19037
21
-6.59139
0
LINE
8
BLACK
6
CONTINUOUS
10
3.19037
20
-6.59139
11
3.19037
21
-6.5239
0
LINE
8
BLACK
6
CONTINUOUS
10
3.26161
20
-6.59889
11
3.25411
21
-6.60264
0
LINE
8
BLACK
6
CONTINUOUS
10
3.25411
20
-6.60264
11
3.23911
21
-6.60264
0
LINE
8
BLACK
6
CONTINUOUS
10
3.23911
20
-6.60264
11
3.23162
21
-6.59889
0
LINE
8
BLACK
6
CONTINUOUS
10
3.23162
20
-6.59889
11
3.22787
21
-6.59139
0
LINE
8
BLACK
6
CONTINUOUS
10
3.22787
20
-6.59139
11
3.22787
21
-6.5614
0
LINE
8
BLACK
6
CONTINUOUS
10
3.22787
20
-6.5614
11
3.23162
21
-6.5539
0
LINE
8
BLACK
6
CONTINUOUS
10
3.23162
20
-6.5539
11
3.23911
21
-6.55015
0
LINE
8
BLACK
6
CONTINUOUS
10
3.23911
20
-6.55015
11
3.25411
21
-6.55015
0
LINE
8
BLACK
6
CONTINUOUS
10
3.25411
20
-6.55015
11
3.26161
21
-6.5539
0
LINE
8
BLACK
6
CONTINUOUS
10
3.26161
20
-6.5539
11
3.26536
21
-6.5614
0
LINE
8
BLACK
6
CONTINUOUS
10
3.26536
20
-6.5614
11
3.26536
21
-6.5689
0
LINE
8
BLACK
6
CONTINUOUS
10
3.26536
20
-6.5689
11
3.22787
21
-6.5764
0
LINE
8
BLACK
6
CONTINUOUS
10
3.29536
20
-6.59889
11
3.30286
21
-6.60264
0
LINE
8
BLACK
6
CONTINUOUS
10
3.30286
20
-6.60264
11
3.31785
21
-6.60264
0
LINE
8
BLACK
6
CONTINUOUS
10
3.31785
20
-6.60264
11
3.32535
21
-6.59889
0
LINE
8
BLACK
6
CONTINUOUS
10
3.32535
20
-6.59889
11
3.3291
21
-6.59139
0
LINE
8
BLACK
6
CONTINUOUS
10
3.3291
20
-6.59139
11
3.3291
21
-6.58765
0
LINE
8
BLACK
6
CONTINUOUS
10
3.3291
20
-6.58765
11
3.32535
21
-6.58015
0
LINE
8
BLACK
6
CONTINUOUS
10
3.32535
20
-6.58015
11
3.31785
21
-6.5764
0
LINE
8
BLACK
6
CONTINUOUS
10
3.31785
20
-6.5764
11
3.30661
21
-6.5764
0
LINE
8
BLACK
6
CONTINUOUS
10
3.30661
20
-6.5764
11
3.29911
21
-6.57265
0
LINE
8
BLACK
6
CONTINUOUS
10
3.29911
20
-6.57265
11
3.29536
21
-6.56515
0
LINE
8
BLACK
6
CONTINUOUS
10
3.29536
20
-6.56515
11
3.29536
21
-6.5614
0
LINE
8
BLACK
6
CONTINUOUS
10
3.29536
20
-6.5614
11
3.29911
21
-6.5539
0
LINE
8
BLACK
6
CONTINUOUS
10
3.29911
20
-6.5539
11
3.30661
21
-6.55015
0
LINE
8
BLACK
6
CONTINUOUS
10
3.30661
20
-6.55015
11
3.31785
21
-6.55015
0
LINE
8
BLACK
6
CONTINUOUS
10
3.31785
20
-6.55015
11
3.32535
21
-6.5539
0
LINE
8
BLACK
6
CONTINUOUS
10
3.42284
20
-6.57265
11
3.48283
21
-6.57265
0
LINE
8
BLACK
6
CONTINUOUS
10
3.45284
20
-6.60264
11
3.45284
21
-6.54265
0
LINE
8
BLACK
6
CONTINUOUS
10
3.59157
20
-6.55765
11
3.58407
21
-6.5539
0
LINE
8
BLACK
6
CONTINUOUS
10
3.58407
20
-6.5539
11
3.58032
21
-6.55015
0
LINE
8
BLACK
6
CONTINUOUS
10
3.58032
20
-6.55015
11
3.57657
21
-6.54265
0
LINE
8
BLACK
6
CONTINUOUS
10
3.57657
20
-6.54265
11
3.57657
21
-6.5389
0
LINE
8
BLACK
6
CONTINUOUS
10
3.57657
20
-6.5389
11
3.58032
21
-6.5314
0
LINE
8
BLACK
6
CONTINUOUS
10
3.58032
20
-6.5314
11
3.58407
21
-6.52765
0
LINE
8
BLACK
6
CONTINUOUS
10
3.58407
20
-6.52765
11
3.59157
21
-6.5239
0
LINE
8
BLACK
6
CONTINUOUS
10
3.59157
20
-6.5239
11
3.60657
21
-6.5239
0
LINE
8
BLACK
6
CONTINUOUS
10
3.60657
20
-6.5239
11
3.61407
21
-6.52765
0
LINE
8
BLACK
6
CONTINUOUS
10
3.61407
20
-6.52765
11
3.61782
21
-6.5314
0
LINE
8
BLACK
6
CONTINUOUS
10
3.61782
20
-6.5314
11
3.62157
21
-6.5389
0
LINE
8
BLACK
6
CONTINUOUS
10
3.62157
20
-6.5389
11
3.62157
21
-6.54265
0
LINE
8
BLACK
6
CONTINUOUS
10
3.62157
20
-6.54265
11
3.61782
21
-6.55015
0
LINE
8
BLACK
6
CONTINUOUS
10
3.61782
20
-6.55015
11
3.61407
21
-6.5539
0
LINE
8
BLACK
6
CONTINUOUS
10
3.61407
20
-6.5539
11
3.60657
21
-6.55765
0
LINE
8
BLACK
6
CONTINUOUS
10
3.60657
20
-6.55765
11
3.59157
21
-6.55765
0
LINE
8
BLACK
6
CONTINUOUS
10
3.59157
20
-6.55765
11
3.58407
21
-6.5614
0
LINE
8
BLACK
6
CONTINUOUS
10
3.58407
20
-6.5614
11
3.58032
21
-6.56515
0
LINE
8
BLACK
6
CONTINUOUS
10
3.58032
20
-6.56515
11
3.57657
21
-6.57265
0
LINE
8
BLACK
6
CONTINUOUS
10
3.57657
20
-6.57265
11
3.57657
21
-6.58765
0
LINE
8
BLACK
6
CONTINUOUS
10
3.57657
20
-6.58765
11
3.58032
21
-6.59514
0
LINE
8
BLACK
6
CONTINUOUS
10
3.58032
20
-6.59514
11
3.58407
21
-6.59889
0
LINE
8
BLACK
6
CONTINUOUS
10
3.58407
20
-6.59889
11
3.59157
21
-6.60264
0
LINE
8
BLACK
6
CONTINUOUS
10
3.59157
20
-6.60264
11
3.60657
21
-6.60264
0
LINE
8
BLACK
6
CONTINUOUS
10
3.60657
20
-6.60264
11
3.61407
21
-6.59889
0
LINE
8
BLACK
6
CONTINUOUS
10
3.61407
20
-6.59889
11
3.61782
21
-6.59514
0
LINE
8
BLACK
6
CONTINUOUS
10
3.61782
20
-6.59514
11
3.62157
21
-6.58765
0
LINE
8
BLACK
6
CONTINUOUS
10
3.62157
20
-6.58765
11
3.62157
21
-6.57265
0
LINE
8
BLACK
6
CONTINUOUS
10
3.62157
20
-6.57265
11
3.61782
21
-6.56515
0
LINE
8
BLACK
6
CONTINUOUS
10
3.61782
20
-6.56515
11
3.61407
21
-6.5614
0
LINE
8
BLACK
6
CONTINUOUS
10
3.61407
20
-6.5614
11
3.60657
21
-6.55765
0
LINE
8
BLACK
6
CONTINUOUS
10
3.71156
20
-6.59889
11
3.71905
21
-6.60264
0
LINE
8
BLACK
6
CONTINUOUS
10
3.71905
20
-6.60264
11
3.73405
21
-6.60264
0
LINE
8
BLACK
6
CONTINUOUS
10
3.73405
20
-6.60264
11
3.74155
21
-6.59889
0
LINE
8
BLACK
6
CONTINUOUS
10
3.74155
20
-6.59889
11
3.7453
21
-6.59139
0
LINE
8
BLACK
6
CONTINUOUS
10
3.7453
20
-6.59139
11
3.7453
21
-6.58765
0
LINE
8
BLACK
6
CONTINUOUS
10
3.7453
20
-6.58765
11
3.74155
21
-6.58015
0
LINE
8
BLACK
6
CONTINUOUS
10
3.74155
20
-6.58015
11
3.73405
21
-6.5764
0
LINE
8
BLACK
6
CONTINUOUS
10
3.73405
20
-6.5764
11
3.7228
21
-6.5764
0
LINE
8
BLACK
6
CONTINUOUS
10
3.7228
20
-6.5764
11
3.71531
21
-6.57265
0
LINE
8
BLACK
6
CONTINUOUS
10
3.71531
20
-6.57265
11
3.71156
21
-6.56515
0
LINE
8
BLACK
6
CONTINUOUS
10
3.71156
20
-6.56515
11
3.71156
21
-6.5614
0
LINE
8
BLACK
6
CONTINUOUS
10
3.71156
20
-6.5614
11
3.71531
21
-6.5539
0
LINE
8
BLACK
6
CONTINUOUS
10
3.71531
20
-6.5539
11
3.7228
21
-6.55015
0
LINE
8
BLACK
6
CONTINUOUS
10
3.7228
20
-6.55015
11
3.73405
21
-6.55015
0
LINE
8
BLACK
6
CONTINUOUS
10
3.73405
20
-6.55015
11
3.74155
21
-6.5539
0
LINE
8
BLACK
6
CONTINUOUS
10
3.7903
20
-6.60264
11
3.7828
21
-6.59889
0
LINE
8
BLACK
6
CONTINUOUS
10
3.7828
20
-6.59889
11
3.77905
21
-6.59139
0
LINE
8
BLACK
6
CONTINUOUS
10
3.77905
20
-6.59139
11
3.77905
21
-6.5239
0
LINE
8
BLACK
6
CONTINUOUS
10
3.83154
20
-6.60264
11
3.82404
21
-6.59889
0
LINE
8
BLACK
6
CONTINUOUS
10
3.82404
20
-6.59889
11
3.82029
21
-6.59514
0
LINE
8
BLACK
6
CONTINUOUS
10
3.82029
20
-6.59514
11
3.81654
21
-6.58765
0
LINE
8
BLACK
6
CONTINUOUS
10
3.81654
20
-6.58765
11
3.81654
21
-6.56515
0
LINE
8
BLACK
6
CONTINUOUS
10
3.81654
20
-6.56515
11
3.82029
21
-6.55765
0
LINE
8
BLACK
6
CONTINUOUS
10
3.82029
20
-6.55765
11
3.82404
21
-6.5539
0
LINE
8
BLACK
6
CONTINUOUS
10
3.82404
20
-6.5539
11
3.83154
21
-6.55015
0
LINE
8
BLACK
6
CONTINUOUS
10
3.83154
20
-6.55015
11
3.84279
21
-6.55015
0
LINE
8
BLACK
6
CONTINUOUS
10
3.84279
20
-6.55015
11
3.85029
21
-6.5539
0
LINE
8
BLACK
6
CONTINUOUS
10
3.85029
20
-6.5539
11
3.85404
21
-6.55765
0
LINE
8
BLACK
6
CONTINUOUS
10
3.85404
20
-6.55765
11
3.85779
21
-6.56515
0
LINE
8
BLACK
6
CONTINUOUS
10
3.85779
20
-6.56515
11
3.85779
21
-6.58765
0
LINE
8
BLACK
6
CONTINUOUS
10
3.85779
20
-6.58765
11
3.85404
21
-6.59514
0
LINE
8
BLACK
6
CONTINUOUS
10
3.85404
20
-6.59514
11
3.85029
21
-6.59889
0
LINE
8
BLACK
6
CONTINUOUS
10
3.85029
20
-6.59889
11
3.84279
21
-6.60264
0
LINE
8
BLACK
6
CONTINUOUS
10
3.84279
20
-6.60264
11
3.83154
21
-6.60264
0
LINE
8
BLACK
6
CONTINUOUS
10
3.88028
20
-6.55015
11
3.91028
21
-6.55015
0
LINE
8
BLACK
6
CONTINUOUS
10
3.89153
20
-6.5239
11
3.89153
21
-6.59139
0
LINE
8
BLACK
6
CONTINUOUS
10
3.89153
20
-6.59139
11
3.89528
21
-6.59889
0
LINE
8
BLACK
6
CONTINUOUS
10
3.89528
20
-6.59889
11
3.90278
21
-6.60264
0
LINE
8
BLACK
6
CONTINUOUS
10
3.90278
20
-6.60264
11
3.91028
21
-6.60264
0
LINE
8
BLACK
6
CONTINUOUS
10
3.93278
20
-6.59889
11
3.94028
21
-6.60264
0
LINE
8
BLACK
6
CONTINUOUS
10
3.94028
20
-6.60264
11
3.95528
21
-6.60264
0
LINE
8
BLACK
6
CONTINUOUS
10
3.95528
20
-6.60264
11
3.96277
21
-6.59889
0
LINE
8
BLACK
6
CONTINUOUS
10
3.96277
20
-6.59889
11
3.96652
21
-6.59139
0
LINE
8
BLACK
6
CONTINUOUS
10
3.96652
20
-6.59139
11
3.96652
21
-6.58765
0
LINE
8
BLACK
6
CONTINUOUS
10
3.96652
20
-6.58765
11
3.96277
21
-6.58015
0
LINE
8
BLACK
6
CONTINUOUS
10
3.96277
20
-6.58015
11
3.95528
21
-6.5764
0
LINE
8
BLACK
6
CONTINUOUS
10
3.95528
20
-6.5764
11
3.94403
21
-6.5764
0
LINE
8
BLACK
6
CONTINUOUS
10
3.94403
20
-6.5764
11
3.93653
21
-6.57265
0
LINE
8
BLACK
6
CONTINUOUS
10
3.93653
20
-6.57265
11
3.93278
21
-6.56515
0
LINE
8
BLACK
6
CONTINUOUS
10
3.93278
20
-6.56515
11
3.93278
21
-6.5614
0
LINE
8
BLACK
6
CONTINUOUS
10
3.93278
20
-6.5614
11
3.93653
21
-6.5539
0
LINE
8
BLACK
6
CONTINUOUS
10
3.93653
20
-6.5539
11
3.94403
21
-6.55015
0
LINE
8
BLACK
6
CONTINUOUS
10
3.94403
20
-6.55015
11
3.95528
21
-6.55015
0
LINE
8
BLACK
6
CONTINUOUS
10
3.95528
20
-6.55015
11
3.96277
21
-6.5539
0
LINE
8
BLACK
6
CONTINUOUS
10
3.99277
20
-6.63264
11
3.99652
21
-6.62889
0
LINE
8
BLACK
6
CONTINUOUS
10
3.99652
20
-6.62889
11
4.00402
21
-6.61764
0
LINE
8
BLACK
6
CONTINUOUS
10
4.00402
20
-6.61764
11
4.00777
21
-6.61014
0
LINE
8
BLACK
6
CONTINUOUS
10
4.00777
20
-6.61014
11
4.01152
21
-6.59889
0
LINE
8
BLACK
6
CONTINUOUS
10
4.01152
20
-6.59889
11
4.01527
21
-6.58015
0
LINE
8
BLACK
6
CONTINUOUS
10
4.01527
20
-6.58015
11
4.01527
21
-6.56515
0
LINE
8
BLACK
6
CONTINUOUS
10
4.01527
20
-6.56515
11
4.01152
21
-6.5464
0
LINE
8
BLACK
6
CONTINUOUS
10
4.01152
20
-6.5464
11
4.00777
21
-6.53515
0
LINE
8
BLACK
6
CONTINUOUS
10
4.00777
20
-6.53515
11
4.00402
21
-6.52765
0
LINE
8
BLACK
6
CONTINUOUS
10
4.00402
20
-6.52765
11
3.99652
21
-6.5164
0
LINE
8
BLACK
6
CONTINUOUS
10
3.99652
20
-6.5164
11
3.99277
21
-6.51265
0
LINE
8
BLACK
6
CONTINUOUS
10
1.37876
20
-6.64891
11
1.37876
21
-6.69222
0
LINE
8
BLACK
6
CONTINUOUS
10
1.35711
20
-6.67056
11
1.40041
21
-6.67056
0
LINE
8
BLACK
6
CONTINUOUS
10
1.54433
20
-6.70658
11
1.49933
21
-6.70658
0
LINE
8
BLACK
6
CONTINUOUS
10
1.52183
20
-6.70658
11
1.52183
21
-6.62784
0
LINE
8
BLACK
6
CONTINUOUS
10
1.52183
20
-6.62784
11
1.51433
21
-6.63909
0
LINE
8
BLACK
6
CONTINUOUS
10
1.51433
20
-6.63909
11
1.50683
21
-6.64659
0
LINE
8
BLACK
6
CONTINUOUS
10
1.50683
20
-6.64659
11
1.49933
21
-6.65034
0
LINE
8
BLACK
6
CONTINUOUS
10
1.57807
20
-6.69908
11
1.58182
21
-6.70283
0
LINE
8
BLACK
6
CONTINUOUS
10
1.58182
20
-6.70283
11
1.57807
21
-6.70658
0
LINE
8
BLACK
6
CONTINUOUS
10
1.57807
20
-6.70658
11
1.57432
21
-6.70283
0
LINE
8
BLACK
6
CONTINUOUS
10
1.57432
20
-6.70283
11
1.57807
21
-6.69908
0
LINE
8
BLACK
6
CONTINUOUS
10
1.57807
20
-6.69908
11
1.57807
21
-6.70658
0
LINE
8
BLACK
6
CONTINUOUS
10
1.65681
20
-6.70658
11
1.61182
21
-6.70658
0
LINE
8
BLACK
6
CONTINUOUS
10
1.63432
20
-6.70658
11
1.63432
21
-6.62784
0
LINE
8
BLACK
6
CONTINUOUS
10
1.63432
20
-6.62784
11
1.62682
21
-6.63909
0
LINE
8
BLACK
6
CONTINUOUS
10
1.62682
20
-6.63909
11
1.61932
21
-6.64659
0
LINE
8
BLACK
6
CONTINUOUS
10
1.61932
20
-6.64659
11
1.61182
21
-6.65034
0
LINE
8
BLACK
6
CONTINUOUS
10
1.70556
20
-6.62784
11
1.71306
21
-6.62784
0
LINE
8
BLACK
6
CONTINUOUS
10
1.71306
20
-6.62784
11
1.72055
21
-6.63159
0
LINE
8
BLACK
6
CONTINUOUS
10
1.72055
20
-6.63159
11
1.7243
21
-6.63534
0
LINE
8
BLACK
6
CONTINUOUS
10
1.7243
20
-6.63534
11
1.72805
21
-6.64284
0
LINE
8
BLACK
6
CONTINUOUS
10
1.72805
20
-6.64284
11
1.7318
21
-6.65784
0
LINE
8
BLACK
6
CONTINUOUS
10
1.7318
20
-6.65784
11
1.7318
21
-6.67658
0
LINE
8
BLACK
6
CONTINUOUS
10
1.7318
20
-6.67658
11
1.72805
21
-6.69158
0
LINE
8
BLACK
6
CONTINUOUS
10
1.72805
20
-6.69158
11
1.7243
21
-6.69908
0
LINE
8
BLACK
6
CONTINUOUS
10
1.7243
20
-6.69908
11
1.72055
21
-6.70283
0
LINE
8
BLACK
6
CONTINUOUS
10
1.72055
20
-6.70283
11
1.71306
21
-6.70658
0
LINE
8
BLACK
6
CONTINUOUS
10
1.71306
20
-6.70658
11
1.70556
21
-6.70658
0
LINE
8
BLACK
6
CONTINUOUS
10
1.70556
20
-6.70658
11
1.69806
21
-6.70283
0
LINE
8
BLACK
6
CONTINUOUS
10
1.69806
20
-6.70283
11
1.69431
21
-6.69908
0
LINE
8
BLACK
6
CONTINUOUS
10
1.69431
20
-6.69908
11
1.69056
21
-6.69158
0
LINE
8
BLACK
6
CONTINUOUS
10
1.69056
20
-6.69158
11
1.68681
21
-6.67658
0
LINE
8
BLACK
6
CONTINUOUS
10
1.68681
20
-6.67658
11
1.68681
21
-6.65784
0
LINE
8
BLACK
6
CONTINUOUS
10
1.68681
20
-6.65784
11
1.69056
21
-6.64284
0
LINE
8
BLACK
6
CONTINUOUS
10
1.69056
20
-6.64284
11
1.69431
21
-6.63534
0
LINE
8
BLACK
6
CONTINUOUS
10
1.69431
20
-6.63534
11
1.69806
21
-6.63159
0
LINE
8
BLACK
6
CONTINUOUS
10
1.69806
20
-6.63159
11
1.70556
21
-6.62784
0
LINE
8
BLACK
6
CONTINUOUS
10
1.78055
20
-6.62784
11
1.78805
21
-6.62784
0
LINE
8
BLACK
6
CONTINUOUS
10
1.78805
20
-6.62784
11
1.79554
21
-6.63159
0
LINE
8
BLACK
6
CONTINUOUS
10
1.79554
20
-6.63159
11
1.79929
21
-6.63534
0
LINE
8
BLACK
6
CONTINUOUS
10
1.79929
20
-6.63534
11
1.80304
21
-6.64284
0
LINE
8
BLACK
6
CONTINUOUS
10
1.80304
20
-6.64284
11
1.80679
21
-6.65784
0
LINE
8
BLACK
6
CONTINUOUS
10
1.80679
20
-6.65784
11
1.80679
21
-6.67658
0
LINE
8
BLACK
6
CONTINUOUS
10
1.80679
20
-6.67658
11
1.80304
21
-6.69158
0
LINE
8
BLACK
6
CONTINUOUS
10
1.80304
20
-6.69158
11
1.79929
21
-6.69908
0
LINE
8
BLACK
6
CONTINUOUS
10
1.79929
20
-6.69908
11
1.79554
21
-6.70283
0
LINE
8
BLACK
6
CONTINUOUS
10
1.79554
20
-6.70283
11
1.78805
21
-6.70658
0
LINE
8
BLACK
6
CONTINUOUS
10
1.78805
20
-6.70658
11
1.78055
21
-6.70658
0
LINE
8
BLACK
6
CONTINUOUS
10
1.78055
20
-6.70658
11
1.77305
21
-6.70283
0
LINE
8
BLACK
6
CONTINUOUS
10
1.77305
20
-6.70283
11
1.7693
21
-6.69908
0
LINE
8
BLACK
6
CONTINUOUS
10
1.7693
20
-6.69908
11
1.76555
21
-6.69158
0
LINE
8
BLACK
6
CONTINUOUS
10
1.76555
20
-6.69158
11
1.7618
21
-6.67658
0
LINE
8
BLACK
6
CONTINUOUS
10
1.7618
20
-6.67658
11
1.7618
21
-6.65784
0
LINE
8
BLACK
6
CONTINUOUS
10
1.7618
20
-6.65784
11
1.76555
21
-6.64284
0
LINE
8
BLACK
6
CONTINUOUS
10
1.76555
20
-6.64284
11
1.7693
21
-6.63534
0
LINE
8
BLACK
6
CONTINUOUS
10
1.7693
20
-6.63534
11
1.77305
21
-6.63159
0
LINE
8
BLACK
6
CONTINUOUS
10
1.77305
20
-6.63159
11
1.78055
21
-6.62784
0
LINE
8
BLACK
6
CONTINUOUS
10
1.84054
20
-6.70658
11
1.84054
21
-6.65409
0
LINE
8
BLACK
6
CONTINUOUS
10
1.84054
20
-6.66159
11
1.84429
21
-6.65784
0
LINE
8
BLACK
6
CONTINUOUS
10
1.84429
20
-6.65784
11
1.85179
21
-6.65409
0
LINE
8
BLACK
6
CONTINUOUS
10
1.85179
20
-6.65409
11
1.86304
21
-6.65409
0
LINE
8
BLACK
6
CONTINUOUS
10
1.86304
20
-6.65409
11
1.87054
21
-6.65784
0
LINE
8
BLACK
6
CONTINUOUS
10
1.87054
20
-6.65784
11
1.87429
21
-6.66534
0
LINE
8
BLACK
6
CONTINUOUS
10
1.87429
20
-6.66534
11
1.87429
21
-6.70658
0
LINE
8
BLACK
6
CONTINUOUS
10
1.87429
20
-6.66534
11
1.87803
21
-6.65784
0
LINE
8
BLACK
6
CONTINUOUS
10
1.87803
20
-6.65784
11
1.88553
21
-6.65409
0
LINE
8
BLACK
6
CONTINUOUS
10
1.88553
20
-6.65409
11
1.89678
21
-6.65409
0
LINE
8
BLACK
6
CONTINUOUS
10
1.89678
20
-6.65409
11
1.90428
21
-6.65784
0
LINE
8
BLACK
6
CONTINUOUS
10
1.90428
20
-6.65784
11
1.90803
21
-6.66534
0
LINE
8
BLACK
6
CONTINUOUS
10
1.90803
20
-6.66534
11
1.90803
21
-6.70658
0
LINE
8
BLACK
6
CONTINUOUS
10
1.94553
20
-6.70658
11
1.94553
21
-6.65409
0
LINE
8
BLACK
6
CONTINUOUS
10
1.94553
20
-6.66159
11
1.94928
21
-6.65784
0
LINE
8
BLACK
6
CONTINUOUS
10
1.94928
20
-6.65784
11
1.95677
21
-6.65409
0
LINE
8
BLACK
6
CONTINUOUS
10
1.95677
20
-6.65409
11
1.96802
21
-6.65409
0
LINE
8
BLACK
6
CONTINUOUS
10
1.96802
20
-6.65409
11
1.97552
21
-6.65784
0
LINE
8
BLACK
6
CONTINUOUS
10
1.97552
20
-6.65784
11
1.97927
21
-6.66534
0
LINE
8
BLACK
6
CONTINUOUS
10
1.97927
20
-6.66534
11
1.97927
21
-6.70658
0
LINE
8
BLACK
6
CONTINUOUS
10
1.97927
20
-6.66534
11
1.98302
21
-6.65784
0
LINE
8
BLACK
6
CONTINUOUS
10
1.98302
20
-6.65784
11
1.99052
21
-6.65409
0
LINE
8
BLACK
6
CONTINUOUS
10
1.99052
20
-6.65409
11
2.00177
21
-6.65409
0
LINE
8
BLACK
6
CONTINUOUS
10
2.00177
20
-6.65409
11
2.00927
21
-6.65784
0
LINE
8
BLACK
6
CONTINUOUS
10
2.00927
20
-6.65784
11
2.01302
21
-6.66534
0
LINE
8
BLACK
6
CONTINUOUS
10
2.01302
20
-6.66534
11
2.01302
21
-6.70658
0
LINE
8
BLACK
6
CONTINUOUS
10
2.16675
20
-6.62409
11
2.09926
21
-6.72533
0
LINE
8
BLACK
6
CONTINUOUS
10
2.26799
20
-6.62784
11
2.27548
21
-6.62784
0
LINE
8
BLACK
6
CONTINUOUS
10
2.27548
20
-6.62784
11
2.28298
21
-6.63159
0
LINE
8
BLACK
6
CONTINUOUS
10
2.28298
20
-6.63159
11
2.28673
21
-6.63534
0
LINE
8
BLACK
6
CONTINUOUS
10
2.28673
20
-6.63534
11
2.29048
21
-6.64284
0
LINE
8
BLACK
6
CONTINUOUS
10
2.29048
20
-6.64284
11
2.29423
21
-6.65784
0
LINE
8
BLACK
6
CONTINUOUS
10
2.29423
20
-6.65784
11
2.29423
21
-6.67658
0
LINE
8
BLACK
6
CONTINUOUS
10
2.29423
20
-6.67658
11
2.29048
21
-6.69158
0
LINE
8
BLACK
6
CONTINUOUS
10
2.29048
20
-6.69158
11
2.28673
21
-6.69908
0
LINE
8
BLACK
6
CONTINUOUS
10
2.28673
20
-6.69908
11
2.28298
21
-6.70283
0
LINE
8
BLACK
6
CONTINUOUS
10
2.28298
20
-6.70283
11
2.27548
21
-6.70658
0
LINE
8
BLACK
6
CONTINUOUS
10
2.27548
20
-6.70658
11
2.26799
21
-6.70658
0
LINE
8
BLACK
6
CONTINUOUS
10
2.26799
20
-6.70658
11
2.26049
21
-6.70283
0
LINE
8
BLACK
6
CONTINUOUS
10
2.26049
20
-6.70283
11
2.25674
21
-6.69908
0
LINE
8
BLACK
6
CONTINUOUS
10
2.25674
20
-6.69908
11
2.25299
21
-6.69158
0
LINE
8
BLACK
6
CONTINUOUS
10
2.25299
20
-6.69158
11
2.24924
21
-6.67658
0
LINE
8
BLACK
6
CONTINUOUS
10
2.24924
20
-6.67658
11
2.24924
21
-6.65784
0
LINE
8
BLACK
6
CONTINUOUS
10
2.24924
20
-6.65784
11
2.25299
21
-6.64284
0
LINE
8
BLACK
6
CONTINUOUS
10
2.25299
20
-6.64284
11
2.25674
21
-6.63534
0
LINE
8
BLACK
6
CONTINUOUS
10
2.25674
20
-6.63534
11
2.26049
21
-6.63159
0
LINE
8
BLACK
6
CONTINUOUS
10
2.26049
20
-6.63159
11
2.26799
21
-6.62784
0
LINE
8
BLACK
6
CONTINUOUS
10
2.32798
20
-6.69908
11
2.33173
21
-6.70283
0
LINE
8
BLACK
6
CONTINUOUS
10
2.33173
20
-6.70283
11
2.32798
21
-6.70658
0
LINE
8
BLACK
6
CONTINUOUS
10
2.32798
20
-6.70658
11
2.32423
21
-6.70283
0
LINE
8
BLACK
6
CONTINUOUS
10
2.32423
20
-6.70283
11
2.32798
21
-6.69908
0
LINE
8
BLACK
6
CONTINUOUS
10
2.32798
20
-6.69908
11
2.32798
21
-6.70658
0
LINE
8
BLACK
6
CONTINUOUS
10
2.38047
20
-6.62784
11
2.38797
21
-6.62784
0
LINE
8
BLACK
6
CONTINUOUS
10
2.38797
20
-6.62784
11
2.39547
21
-6.63159
0
LINE
8
BLACK
6
CONTINUOUS
10
2.39547
20
-6.63159
11
2.39922
21
-6.63534
0
LINE
8
BLACK
6
CONTINUOUS
10
2.39922
20
-6.63534
11
2.40297
21
-6.64284
0
LINE
8
BLACK
6
CONTINUOUS
10
2.40297
20
-6.64284
11
2.40672
21
-6.65784
0
LINE
8
BLACK
6
CONTINUOUS
10
2.40672
20
-6.65784
11
2.40672
21
-6.67658
0
LINE
8
BLACK
6
CONTINUOUS
10
2.40672
20
-6.67658
11
2.40297
21
-6.69158
0
LINE
8
BLACK
6
CONTINUOUS
10
2.40297
20
-6.69158
11
2.39922
21
-6.69908
0
LINE
8
BLACK
6
CONTINUOUS
10
2.39922
20
-6.69908
11
2.39547
21
-6.70283
0
LINE
8
BLACK
6
CONTINUOUS
10
2.39547
20
-6.70283
11
2.38797
21
-6.70658
0
LINE
8
BLACK
6
CONTINUOUS
10
2.38797
20
-6.70658
11
2.38047
21
-6.70658
0
LINE
8
BLACK
6
CONTINUOUS
10
2.38047
20
-6.70658
11
2.37297
21
-6.70283
0
LINE
8
BLACK
6
CONTINUOUS
10
2.37297
20
-6.70283
11
2.36922
21
-6.69908
0
LINE
8
BLACK
6
CONTINUOUS
10
2.36922
20
-6.69908
11
2.36547
21
-6.69158
0
LINE
8
BLACK
6
CONTINUOUS
10
2.36547
20
-6.69158
11
2.36172
21
-6.67658
0
LINE
8
BLACK
6
CONTINUOUS
10
2.36172
20
-6.67658
11
2.36172
21
-6.65784
0
LINE
8
BLACK
6
CONTINUOUS
10
2.36172
20
-6.65784
11
2.36547
21
-6.64284
0
LINE
8
BLACK
6
CONTINUOUS
10
2.36547
20
-6.64284
11
2.36922
21
-6.63534
0
LINE
8
BLACK
6
CONTINUOUS
10
2.36922
20
-6.63534
11
2.37297
21
-6.63159
0
LINE
8
BLACK
6
CONTINUOUS
10
2.37297
20
-6.63159
11
2.38047
21
-6.62784
0
LINE
8
BLACK
6
CONTINUOUS
10
2.47421
20
-6.65409
11
2.47421
21
-6.70658
0
LINE
8
BLACK
6
CONTINUOUS
10
2.45546
20
-6.62409
11
2.43671
21
-6.68033
0
LINE
8
BLACK
6
CONTINUOUS
10
2.43671
20
-6.68033
11
2.48546
21
-6.68033
0
LINE
8
BLACK
6
CONTINUOUS
10
2.50796
20
-6.62784
11
2.5567
21
-6.62784
0
LINE
8
BLACK
6
CONTINUOUS
10
2.5567
20
-6.62784
11
2.53045
21
-6.65784
0
LINE
8
BLACK
6
CONTINUOUS
10
2.53045
20
-6.65784
11
2.5417
21
-6.65784
0
LINE
8
BLACK
6
CONTINUOUS
10
2.5417
20
-6.65784
11
2.5492
21
-6.66159
0
LINE
8
BLACK
6
CONTINUOUS
10
2.5492
20
-6.66159
11
2.55295
21
-6.66534
0
LINE
8
BLACK
6
CONTINUOUS
10
2.55295
20
-6.66534
11
2.5567
21
-6.67283
0
LINE
8
BLACK
6
CONTINUOUS
10
2.5567
20
-6.67283
11
2.5567
21
-6.69158
0
LINE
8
BLACK
6
CONTINUOUS
10
2.5567
20
-6.69158
11
2.55295
21
-6.69908
0
LINE
8
BLACK
6
CONTINUOUS
10
2.55295
20
-6.69908
11
2.5492
21
-6.70283
0
LINE
8
BLACK
6
CONTINUOUS
10
2.5492
20
-6.70283
11
2.5417
21
-6.70658
0
LINE
8
BLACK
6
CONTINUOUS
10
2.5417
20
-6.70658
11
2.5192
21
-6.70658
0
LINE
8
BLACK
6
CONTINUOUS
10
2.5192
20
-6.70658
11
2.51171
21
-6.70283
0
LINE
8
BLACK
6
CONTINUOUS
10
2.51171
20
-6.70283
11
2.50796
21
-6.69908
0
LINE
8
BLACK
6
CONTINUOUS
10
2.58295
20
-6.62784
11
2.63169
21
-6.62784
0
LINE
8
BLACK
6
CONTINUOUS
10
2.63169
20
-6.62784
11
2.60544
21
-6.65784
0
LINE
8
BLACK
6
CONTINUOUS
10
2.60544
20
-6.65784
11
2.61669
21
-6.65784
0
LINE
8
BLACK
6
CONTINUOUS
10
2.61669
20
-6.65784
11
2.62419
21
-6.66159
0
LINE
8
BLACK
6
CONTINUOUS
10
2.62419
20
-6.66159
11
2.62794
21
-6.66534
0
LINE
8
BLACK
6
CONTINUOUS
10
2.62794
20
-6.66534
11
2.63169
21
-6.67283
0
LINE
8
BLACK
6
CONTINUOUS
10
2.63169
20
-6.67283
11
2.63169
21
-6.69158
0
LINE
8
BLACK
6
CONTINUOUS
10
2.63169
20
-6.69158
11
2.62794
21
-6.69908
0
LINE
8
BLACK
6
CONTINUOUS
10
2.62794
20
-6.69908
11
2.62419
21
-6.70283
0
LINE
8
BLACK
6
CONTINUOUS
10
2.62419
20
-6.70283
11
2.61669
21
-6.70658
0
LINE
8
BLACK
6
CONTINUOUS
10
2.61669
20
-6.70658
11
2.5942
21
-6.70658
0
LINE
8
BLACK
6
CONTINUOUS
10
2.5942
20
-6.70658
11
2.5867
21
-6.70283
0
LINE
8
BLACK
6
CONTINUOUS
10
2.5867
20
-6.70283
11
2.58295
21
-6.69908
0
LINE
8
BLACK
6
CONTINUOUS
10
2.66169
20
-6.62784
11
2.66169
21
-6.64284
0
LINE
8
BLACK
6
CONTINUOUS
10
2.69168
20
-6.62784
11
2.69168
21
-6.64284
0
LINE
8
BLACK
6
CONTINUOUS
10
2.80792
20
-6.73658
11
2.80417
21
-6.73283
0
LINE
8
BLACK
6
CONTINUOUS
10
2.80417
20
-6.73283
11
2.79667
21
-6.72158
0
LINE
8
BLACK
6
CONTINUOUS
10
2.79667
20
-6.72158
11
2.79292
21
-6.71408
0
LINE
8
BLACK
6
CONTINUOUS
10
2.79292
20
-6.71408
11
2.78917
21
-6.70283
0
LINE
8
BLACK
6
CONTINUOUS
10
2.78917
20
-6.70283
11
2.78542
21
-6.68408
0
LINE
8
BLACK
6
CONTINUOUS
10
2.78542
20
-6.68408
11
2.78542
21
-6.66908
0
LINE
8
BLACK
6
CONTINUOUS
10
2.78542
20
-6.66908
11
2.78917
21
-6.65034
0
LINE
8
BLACK
6
CONTINUOUS
10
2.78917
20
-6.65034
11
2.79292
21
-6.63909
0
LINE
8
BLACK
6
CONTINUOUS
10
2.79292
20
-6.63909
11
2.79667
21
-6.63159
0
LINE
8
BLACK
6
CONTINUOUS
10
2.79667
20
-6.63159
11
2.80417
21
-6.62034
0
LINE
8
BLACK
6
CONTINUOUS
10
2.80417
20
-6.62034
11
2.80792
21
-6.61659
0
LINE
8
BLACK
6
CONTINUOUS
10
2.87916
20
-6.70658
11
2.83417
21
-6.70658
0
LINE
8
BLACK
6
CONTINUOUS
10
2.85666
20
-6.70658
11
2.85666
21
-6.62784
0
LINE
8
BLACK
6
CONTINUOUS
10
2.85666
20
-6.62784
11
2.84916
21
-6.63909
0
LINE
8
BLACK
6
CONTINUOUS
10
2.84916
20
-6.63909
11
2.84166
21
-6.64659
0
LINE
8
BLACK
6
CONTINUOUS
10
2.84166
20
-6.64659
11
2.83417
21
-6.65034
0
LINE
8
BLACK
6
CONTINUOUS
10
2.94665
20
-6.62784
11
2.93165
21
-6.62784
0
LINE
8
BLACK
6
CONTINUOUS
10
2.93165
20
-6.62784
11
2.92415
21
-6.63159
0
LINE
8
BLACK
6
CONTINUOUS
10
2.92415
20
-6.63159
11
2.9204
21
-6.63534
0
LINE
8
BLACK
6
CONTINUOUS
10
2.9204
20
-6.63534
11
2.91291
21
-6.64659
0
LINE
8
BLACK
6
CONTINUOUS
10
2.91291
20
-6.64659
11
2.90916
21
-6.66159
0
LINE
8
BLACK
6
CONTINUOUS
10
2.90916
20
-6.66159
11
2.90916
21
-6.69158
0
LINE
8
BLACK
6
CONTINUOUS
10
2.90916
20
-6.69158
11
2.91291
21
-6.69908
0
LINE
8
BLACK
6
CONTINUOUS
10
2.91291
20
-6.69908
11
2.91665
21
-6.70283
0
LINE
8
BLACK
6
CONTINUOUS
10
2.91665
20
-6.70283
11
2.92415
21
-6.70658
0
LINE
8
BLACK
6
CONTINUOUS
10
2.92415
20
-6.70658
11
2.93915
21
-6.70658
0
LINE
8
BLACK
6
CONTINUOUS
10
2.93915
20
-6.70658
11
2.94665
21
-6.70283
0
LINE
8
BLACK
6
CONTINUOUS
10
2.94665
20
-6.70283
11
2.9504
21
-6.69908
0
LINE
8
BLACK
6
CONTINUOUS
10
2.9504
20
-6.69908
11
2.95415
21
-6.69158
0
LINE
8
BLACK
6
CONTINUOUS
10
2.95415
20
-6.69158
11
2.95415
21
-6.67283
0
LINE
8
BLACK
6
CONTINUOUS
10
2.95415
20
-6.67283
11
2.9504
21
-6.66534
0
LINE
8
BLACK
6
CONTINUOUS
10
2.9504
20
-6.66534
11
2.94665
21
-6.66159
0
LINE
8
BLACK
6
CONTINUOUS
10
2.94665
20
-6.66159
11
2.93915
21
-6.65784
0
LINE
8
BLACK
6
CONTINUOUS
10
2.93915
20
-6.65784
11
2.92415
21
-6.65784
0
LINE
8
BLACK
6
CONTINUOUS
10
2.92415
20
-6.65784
11
2.91665
21
-6.66159
0
LINE
8
BLACK
6
CONTINUOUS
10
2.91665
20
-6.66159
11
2.91291
21
-6.66534
0
LINE
8
BLACK
6
CONTINUOUS
10
2.91291
20
-6.66534
11
2.90916
21
-6.67283
0
LINE
8
BLACK
6
CONTINUOUS
10
3.04789
20
-6.70658
11
3.04789
21
-6.62784
0
LINE
8
BLACK
6
CONTINUOUS
10
3.08163
20
-6.70658
11
3.08163
21
-6.66534
0
LINE
8
BLACK
6
CONTINUOUS
10
3.08163
20
-6.66534
11
3.07788
21
-6.65784
0
LINE
8
BLACK
6
CONTINUOUS
10
3.07788
20
-6.65784
11
3.07039
21
-6.65409
0
LINE
8
BLACK
6
CONTINUOUS
10
3.07039
20
-6.65409
11
3.05914
21
-6.65409
0
LINE
8
BLACK
6
CONTINUOUS
10
3.05914
20
-6.65409
11
3.05164
21
-6.65784
0
LINE
8
BLACK
6
CONTINUOUS
10
3.05164
20
-6.65784
11
3.04789
21
-6.66159
0
LINE
8
BLACK
6
CONTINUOUS
10
3.13038
20
-6.70658
11
3.12288
21
-6.70283
0
LINE
8
BLACK
6
CONTINUOUS
10
3.12288
20
-6.70283
11
3.11913
21
-6.69908
0
LINE
8
BLACK
6
CONTINUOUS
10
3.11913
20
-6.69908
11
3.11538
21
-6.69158
0
LINE
8
BLACK
6
CONTINUOUS
10
3.11538
20
-6.69158
11
3.11538
21
-6.66908
0
LINE
8
BLACK
6
CONTINUOUS
10
3.11538
20
-6.66908
11
3.11913
21
-6.66159
0
LINE
8
BLACK
6
CONTINUOUS
10
3.11913
20
-6.66159
11
3.12288
21
-6.65784
0
LINE
8
BLACK
6
CONTINUOUS
10
3.12288
20
-6.65784
11
3.13038
21
-6.65409
0
LINE
8
BLACK
6
CONTINUOUS
10
3.13038
20
-6.65409
11
3.14163
21
-6.65409
0
LINE
8
BLACK
6
CONTINUOUS
10
3.14163
20
-6.65409
11
3.14913
21
-6.65784
0
LINE
8
BLACK
6
CONTINUOUS
10
3.14913
20
-6.65784
11
3.15288
21
-6.66159
0
LINE
8
BLACK
6
CONTINUOUS
10
3.15288
20
-6.66159
11
3.15662
21
-6.66908
0
LINE
8
BLACK
6
CONTINUOUS
10
3.15662
20
-6.66908
11
3.15662
21
-6.69158
0
LINE
8
BLACK
6
CONTINUOUS
10
3.15662
20
-6.69158
11
3.15288
21
-6.69908
0
LINE
8
BLACK
6
CONTINUOUS
10
3.15288
20
-6.69908
11
3.14913
21
-6.70283
0
LINE
8
BLACK
6
CONTINUOUS
10
3.14913
20
-6.70283
11
3.14163
21
-6.70658
0
LINE
8
BLACK
6
CONTINUOUS
10
3.14163
20
-6.70658
11
3.13038
21
-6.70658
0
LINE
8
BLACK
6
CONTINUOUS
10
3.20162
20
-6.70658
11
3.19412
21
-6.70283
0
LINE
8
BLACK
6
CONTINUOUS
10
3.19412
20
-6.70283
11
3.19037
21
-6.69533
0
LINE
8
BLACK
6
CONTINUOUS
10
3.19037
20
-6.69533
11
3.19037
21
-6.62784
0
LINE
8
BLACK
6
CONTINUOUS
10
3.26161
20
-6.70283
11
3.25411
21
-6.70658
0
LINE
8
BLACK
6
CONTINUOUS
10
3.25411
20
-6.70658
11
3.23911
21
-6.70658
0
LINE
8
BLACK
6
CONTINUOUS
10
3.23911
20
-6.70658
11
3.23162
21
-6.70283
0
LINE
8
BLACK
6
CONTINUOUS
10
3.23162
20
-6.70283
11
3.22787
21
-6.69533
0
LINE
8
BLACK
6
CONTINUOUS
10
3.22787
20
-6.69533
11
3.22787
21
-6.66534
0
LINE
8
BLACK
6
CONTINUOUS
10
3.22787
20
-6.66534
11
3.23162
21
-6.65784
0
LINE
8
BLACK
6
CONTINUOUS
10
3.23162
20
-6.65784
11
3.23911
21
-6.65409
0
LINE
8
BLACK
6
CONTINUOUS
10
3.23911
20
-6.65409
11
3.25411
21
-6.65409
0
LINE
8
BLACK
6
CONTINUOUS
10
3.25411
20
-6.65409
11
3.26161
21
-6.65784
0
LINE
8
BLACK
6
CONTINUOUS
10
3.26161
20
-6.65784
11
3.26536
21
-6.66534
0
LINE
8
BLACK
6
CONTINUOUS
10
3.26536
20
-6.66534
11
3.26536
21
-6.67283
0
LINE
8
BLACK
6
CONTINUOUS
10
3.26536
20
-6.67283
11
3.22787
21
-6.68033
0
LINE
8
BLACK
6
CONTINUOUS
10
3.29536
20
-6.70283
11
3.30286
21
-6.70658
0
LINE
8
BLACK
6
CONTINUOUS
10
3.30286
20
-6.70658
11
3.31785
21
-6.70658
0
LINE
8
BLACK
6
CONTINUOUS
10
3.31785
20
-6.70658
11
3.32535
21
-6.70283
0
LINE
8
BLACK
6
CONTINUOUS
10
3.32535
20
-6.70283
11
3.3291
21
-6.69533
0
LINE
8
BLACK
6
CONTINUOUS
10
3.3291
20
-6.69533
11
3.3291
21
-6.69158
0
LINE
8
BLACK
6
CONTINUOUS
10
3.3291
20
-6.69158
11
3.32535
21
-6.68408
0
LINE
8
BLACK
6
CONTINUOUS
10
3.32535
20
-6.68408
11
3.31785
21
-6.68033
0
LINE
8
BLACK
6
CONTINUOUS
10
3.31785
20
-6.68033
11
3.30661
21
-6.68033
0
LINE
8
BLACK
6
CONTINUOUS
10
3.30661
20
-6.68033
11
3.29911
21
-6.67658
0
LINE
8
BLACK
6
CONTINUOUS
10
3.29911
20
-6.67658
11
3.29536
21
-6.66908
0
LINE
8
BLACK
6
CONTINUOUS
10
3.29536
20
-6.66908
11
3.29536
21
-6.66534
0
LINE
8
BLACK
6
CONTINUOUS
10
3.29536
20
-6.66534
11
3.29911
21
-6.65784
0
LINE
8
BLACK
6
CONTINUOUS
10
3.29911
20
-6.65784
11
3.30661
21
-6.65409
0
LINE
8
BLACK
6
CONTINUOUS
10
3.30661
20
-6.65409
11
3.31785
21
-6.65409
0
LINE
8
BLACK
6
CONTINUOUS
10
3.31785
20
-6.65409
11
3.32535
21
-6.65784
0
LINE
8
BLACK
6
CONTINUOUS
10
3.35535
20
-6.73658
11
3.3591
21
-6.73283
0
LINE
8
BLACK
6
CONTINUOUS
10
3.3591
20
-6.73283
11
3.3666
21
-6.72158
0
LINE
8
BLACK
6
CONTINUOUS
10
3.3666
20
-6.72158
11
3.37035
21
-6.71408
0
LINE
8
BLACK
6
CONTINUOUS
10
3.37035
20
-6.71408
11
3.3741
21
-6.70283
0
LINE
8
BLACK
6
CONTINUOUS
10
3.3741
20
-6.70283
11
3.37785
21
-6.68408
0
LINE
8
BLACK
6
CONTINUOUS
10
3.37785
20
-6.68408
11
3.37785
21
-6.66908
0
LINE
8
BLACK
6
CONTINUOUS
10
3.37785
20
-6.66908
11
3.3741
21
-6.65034
0
LINE
8
BLACK
6
CONTINUOUS
10
3.3741
20
-6.65034
11
3.37035
21
-6.63909
0
LINE
8
BLACK
6
CONTINUOUS
10
3.37035
20
-6.63909
11
3.3666
21
-6.63159
0
LINE
8
BLACK
6
CONTINUOUS
10
3.3666
20
-6.63159
11
3.3591
21
-6.62034
0
LINE
8
BLACK
6
CONTINUOUS
10
3.3591
20
-6.62034
11
3.35535
21
-6.61659
0
LINE
8
BLACK
6
CONTINUOUS
10
1.39292
20
-6.7926
11
1.39292
21
-6.7564
0
LINE
8
BLACK
6
CONTINUOUS
10
1.39292
20
-6.7564
11
1.35673
21
-6.7564
0
LINE
8
BLACK
6
CONTINUOUS
10
1.35673
20
-6.7564
11
1.35673
21
-6.7926
0
LINE
8
BLACK
6
CONTINUOUS
10
1.35673
20
-6.7926
11
1.39292
21
-6.7926
0
LINE
8
BLACK
6
CONTINUOUS
10
1.54433
20
-6.81052
11
1.49933
21
-6.81052
0
LINE
8
BLACK
6
CONTINUOUS
10
1.52183
20
-6.81052
11
1.52183
21
-6.73178
0
LINE
8
BLACK
6
CONTINUOUS
10
1.52183
20
-6.73178
11
1.51433
21
-6.74303
0
LINE
8
BLACK
6
CONTINUOUS
10
1.51433
20
-6.74303
11
1.50683
21
-6.75052
0
LINE
8
BLACK
6
CONTINUOUS
10
1.50683
20
-6.75052
11
1.49933
21
-6.75427
0
LINE
8
BLACK
6
CONTINUOUS
10
1.57807
20
-6.80302
11
1.58182
21
-6.80677
0
LINE
8
BLACK
6
CONTINUOUS
10
1.58182
20
-6.80677
11
1.57807
21
-6.81052
0
LINE
8
BLACK
6
CONTINUOUS
10
1.57807
20
-6.81052
11
1.57432
21
-6.80677
0
LINE
8
BLACK
6
CONTINUOUS
10
1.57432
20
-6.80677
11
1.57807
21
-6.80302
0
LINE
8
BLACK
6
CONTINUOUS
10
1.57807
20
-6.80302
11
1.57807
21
-6.81052
0
LINE
8
BLACK
6
CONTINUOUS
10
1.60807
20
-6.73178
11
1.65681
21
-6.73178
0
LINE
8
BLACK
6
CONTINUOUS
10
1.65681
20
-6.73178
11
1.63057
21
-6.76177
0
LINE
8
BLACK
6
CONTINUOUS
10
1.63057
20
-6.76177
11
1.64181
21
-6.76177
0
LINE
8
BLACK
6
CONTINUOUS
10
1.64181
20
-6.76177
11
1.64931
21
-6.76552
0
LINE
8
BLACK
6
CONTINUOUS
10
1.64931
20
-6.76552
11
1.65306
21
-6.76927
0
LINE
8
BLACK
6
CONTINUOUS
10
1.65306
20
-6.76927
11
1.65681
21
-6.77677
0
LINE
8
BLACK
6
CONTINUOUS
10
1.65681
20
-6.77677
11
1.65681
21
-6.79552
0
LINE
8
BLACK
6
CONTINUOUS
10
1.65681
20
-6.79552
11
1.65306
21
-6.80302
0
LINE
8
BLACK
6
CONTINUOUS
10
1.65306
20
-6.80302
11
1.64931
21
-6.80677
0
LINE
8
BLACK
6
CONTINUOUS
10
1.64931
20
-6.80677
11
1.64181
21
-6.81052
0
LINE
8
BLACK
6
CONTINUOUS
10
1.64181
20
-6.81052
11
1.61932
21
-6.81052
0
LINE
8
BLACK
6
CONTINUOUS
10
1.61932
20
-6.81052
11
1.61182
21
-6.80677
0
LINE
8
BLACK
6
CONTINUOUS
10
1.61182
20
-6.80677
11
1.60807
21
-6.80302
0
LINE
8
BLACK
6
CONTINUOUS
10
1.70556
20
-6.73178
11
1.71306
21
-6.73178
0
LINE
8
BLACK
6
CONTINUOUS
10
1.71306
20
-6.73178
11
1.72055
21
-6.73553
0
LINE
8
BLACK
6
CONTINUOUS
10
1.72055
20
-6.73553
11
1.7243
21
-6.73928
0
LINE
8
BLACK
6
CONTINUOUS
10
1.7243
20
-6.73928
11
1.72805
21
-6.74678
0
LINE
8
BLACK
6
CONTINUOUS
10
1.72805
20
-6.74678
11
1.7318
21
-6.76177
0
LINE
8
BLACK
6
CONTINUOUS
10
1.7318
20
-6.76177
11
1.7318
21
-6.78052
0
LINE
8
BLACK
6
CONTINUOUS
10
1.7318
20
-6.78052
11
1.72805
21
-6.79552
0
LINE
8
BLACK
6
CONTINUOUS
10
1.72805
20
-6.79552
11
1.7243
21
-6.80302
0
LINE
8
BLACK
6
CONTINUOUS
10
1.7243
20
-6.80302
11
1.72055
21
-6.80677
0
LINE
8
BLACK
6
CONTINUOUS
10
1.72055
20
-6.80677
11
1.71306
21
-6.81052
0
LINE
8
BLACK
6
CONTINUOUS
10
1.71306
20
-6.81052
11
1.70556
21
-6.81052
0
LINE
8
BLACK
6
CONTINUOUS
10
1.70556
20
-6.81052
11
1.69806
21
-6.80677
0
LINE
8
BLACK
6
CONTINUOUS
10
1.69806
20
-6.80677
11
1.69431
21
-6.80302
0
LINE
8
BLACK
6
CONTINUOUS
10
1.69431
20
-6.80302
11
1.69056
21
-6.79552
0
LINE
8
BLACK
6
CONTINUOUS
10
1.69056
20
-6.79552
11
1.68681
21
-6.78052
0
LINE
8
BLACK
6
CONTINUOUS
10
1.68681
20
-6.78052
11
1.68681
21
-6.76177
0
LINE
8
BLACK
6
CONTINUOUS
10
1.68681
20
-6.76177
11
1.69056
21
-6.74678
0
LINE
8
BLACK
6
CONTINUOUS
10
1.69056
20
-6.74678
11
1.69431
21
-6.73928
0
LINE
8
BLACK
6
CONTINUOUS
10
1.69431
20
-6.73928
11
1.69806
21
-6.73553
0
LINE
8
BLACK
6
CONTINUOUS
10
1.69806
20
-6.73553
11
1.70556
21
-6.73178
0
LINE
8
BLACK
6
CONTINUOUS
10
1.78055
20
-6.73178
11
1.78805
21
-6.73178
0
LINE
8
BLACK
6
CONTINUOUS
10
1.78805
20
-6.73178
11
1.79554
21
-6.73553
0
LINE
8
BLACK
6
CONTINUOUS
10
1.79554
20
-6.73553
11
1.79929
21
-6.73928
0
LINE
8
BLACK
6
CONTINUOUS
10
1.79929
20
-6.73928
11
1.80304
21
-6.74678
0
LINE
8
BLACK
6
CONTINUOUS
10
1.80304
20
-6.74678
11
1.80679
21
-6.76177
0
LINE
8
BLACK
6
CONTINUOUS
10
1.80679
20
-6.76177
11
1.80679
21
-6.78052
0
LINE
8
BLACK
6
CONTINUOUS
10
1.80679
20
-6.78052
11
1.80304
21
-6.79552
0
LINE
8
BLACK
6
CONTINUOUS
10
1.80304
20
-6.79552
11
1.79929
21
-6.80302
0
LINE
8
BLACK
6
CONTINUOUS
10
1.79929
20
-6.80302
11
1.79554
21
-6.80677
0
LINE
8
BLACK
6
CONTINUOUS
10
1.79554
20
-6.80677
11
1.78805
21
-6.81052
0
LINE
8
BLACK
6
CONTINUOUS
10
1.78805
20
-6.81052
11
1.78055
21
-6.81052
0
LINE
8
BLACK
6
CONTINUOUS
10
1.78055
20
-6.81052
11
1.77305
21
-6.80677
0
LINE
8
BLACK
6
CONTINUOUS
10
1.77305
20
-6.80677
11
1.7693
21
-6.80302
0
LINE
8
BLACK
6
CONTINUOUS
10
1.7693
20
-6.80302
11
1.76555
21
-6.79552
0
LINE
8
BLACK
6
CONTINUOUS
10
1.76555
20
-6.79552
11
1.7618
21
-6.78052
0
LINE
8
BLACK
6
CONTINUOUS
10
1.7618
20
-6.78052
11
1.7618
21
-6.76177
0
LINE
8
BLACK
6
CONTINUOUS
10
1.7618
20
-6.76177
11
1.76555
21
-6.74678
0
LINE
8
BLACK
6
CONTINUOUS
10
1.76555
20
-6.74678
11
1.7693
21
-6.73928
0
LINE
8
BLACK
6
CONTINUOUS
10
1.7693
20
-6.73928
11
1.77305
21
-6.73553
0
LINE
8
BLACK
6
CONTINUOUS
10
1.77305
20
-6.73553
11
1.78055
21
-6.73178
0
LINE
8
BLACK
6
CONTINUOUS
10
1.84054
20
-6.81052
11
1.84054
21
-6.75802
0
LINE
8
BLACK
6
CONTINUOUS
10
1.84054
20
-6.76552
11
1.84429
21
-6.76177
0
LINE
8
BLACK
6
CONTINUOUS
10
1.84429
20
-6.76177
11
1.85179
21
-6.75802
0
LINE
8
BLACK
6
CONTINUOUS
10
1.85179
20
-6.75802
11
1.86304
21
-6.75802
0
LINE
8
BLACK
6
CONTINUOUS
10
1.86304
20
-6.75802
11
1.87054
21
-6.76177
0
LINE
8
BLACK
6
CONTINUOUS
10
1.87054
20
-6.76177
11
1.87429
21
-6.76927
0
LINE
8
BLACK
6
CONTINUOUS
10
1.87429
20
-6.76927
11
1.87429
21
-6.81052
0
LINE
8
BLACK
6
CONTINUOUS
10
1.87429
20
-6.76927
11
1.87803
21
-6.76177
0
LINE
8
BLACK
6
CONTINUOUS
10
1.87803
20
-6.76177
11
1.88553
21
-6.75802
0
LINE
8
BLACK
6
CONTINUOUS
10
1.88553
20
-6.75802
11
1.89678
21
-6.75802
0
LINE
8
BLACK
6
CONTINUOUS
10
1.89678
20
-6.75802
11
1.90428
21
-6.76177
0
LINE
8
BLACK
6
CONTINUOUS
10
1.90428
20
-6.76177
11
1.90803
21
-6.76927
0
LINE
8
BLACK
6
CONTINUOUS
10
1.90803
20
-6.76927
11
1.90803
21
-6.81052
0
LINE
8
BLACK
6
CONTINUOUS
10
1.94553
20
-6.81052
11
1.94553
21
-6.75802
0
LINE
8
BLACK
6
CONTINUOUS
10
1.94553
20
-6.76552
11
1.94928
21
-6.76177
0
LINE
8
BLACK
6
CONTINUOUS
10
1.94928
20
-6.76177
11
1.95677
21
-6.75802
0
LINE
8
BLACK
6
CONTINUOUS
10
1.95677
20
-6.75802
11
1.96802
21
-6.75802
0
LINE
8
BLACK
6
CONTINUOUS
10
1.96802
20
-6.75802
11
1.97552
21
-6.76177
0
LINE
8
BLACK
6
CONTINUOUS
10
1.97552
20
-6.76177
11
1.97927
21
-6.76927
0
LINE
8
BLACK
6
CONTINUOUS
10
1.97927
20
-6.76927
11
1.97927
21
-6.81052
0
LINE
8
BLACK
6
CONTINUOUS
10
1.97927
20
-6.76927
11
1.98302
21
-6.76177
0
LINE
8
BLACK
6
CONTINUOUS
10
1.98302
20
-6.76177
11
1.99052
21
-6.75802
0
LINE
8
BLACK
6
CONTINUOUS
10
1.99052
20
-6.75802
11
2.00177
21
-6.75802
0
LINE
8
BLACK
6
CONTINUOUS
10
2.00177
20
-6.75802
11
2.00927
21
-6.76177
0
LINE
8
BLACK
6
CONTINUOUS
10
2.00927
20
-6.76177
11
2.01302
21
-6.76927
0
LINE
8
BLACK
6
CONTINUOUS
10
2.01302
20
-6.76927
11
2.01302
21
-6.81052
0
LINE
8
BLACK
6
CONTINUOUS
10
2.16675
20
-6.72803
11
2.09926
21
-6.82926
0
LINE
8
BLACK
6
CONTINUOUS
10
2.26799
20
-6.73178
11
2.27548
21
-6.73178
0
LINE
8
BLACK
6
CONTINUOUS
10
2.27548
20
-6.73178
11
2.28298
21
-6.73553
0
LINE
8
BLACK
6
CONTINUOUS
10
2.28298
20
-6.73553
11
2.28673
21
-6.73928
0
LINE
8
BLACK
6
CONTINUOUS
10
2.28673
20
-6.73928
11
2.29048
21
-6.74678
0
LINE
8
BLACK
6
CONTINUOUS
10
2.29048
20
-6.74678
11
2.29423
21
-6.76177
0
LINE
8
BLACK
6
CONTINUOUS
10
2.29423
20
-6.76177
11
2.29423
21
-6.78052
0
LINE
8
BLACK
6
CONTINUOUS
10
2.29423
20
-6.78052
11
2.29048
21
-6.79552
0
LINE
8
BLACK
6
CONTINUOUS
10
2.29048
20
-6.79552
11
2.28673
21
-6.80302
0
LINE
8
BLACK
6
CONTINUOUS
10
2.28673
20
-6.80302
11
2.28298
21
-6.80677
0
LINE
8
BLACK
6
CONTINUOUS
10
2.28298
20
-6.80677
11
2.27548
21
-6.81052
0
LINE
8
BLACK
6
CONTINUOUS
10
2.27548
20
-6.81052
11
2.26799
21
-6.81052
0
LINE
8
BLACK
6
CONTINUOUS
10
2.26799
20
-6.81052
11
2.26049
21
-6.80677
0
LINE
8
BLACK
6
CONTINUOUS
10
2.26049
20
-6.80677
11
2.25674
21
-6.80302
0
LINE
8
BLACK
6
CONTINUOUS
10
2.25674
20
-6.80302
11
2.25299
21
-6.79552
0
LINE
8
BLACK
6
CONTINUOUS
10
2.25299
20
-6.79552
11
2.24924
21
-6.78052
0
LINE
8
BLACK
6
CONTINUOUS
10
2.24924
20
-6.78052
11
2.24924
21
-6.76177
0
LINE
8
BLACK
6
CONTINUOUS
10
2.24924
20
-6.76177
11
2.25299
21
-6.74678
0
LINE
8
BLACK
6
CONTINUOUS
10
2.25299
20
-6.74678
11
2.25674
21
-6.73928
0
LINE
8
BLACK
6
CONTINUOUS
10
2.25674
20
-6.73928
11
2.26049
21
-6.73553
0
LINE
8
BLACK
6
CONTINUOUS
10
2.26049
20
-6.73553
11
2.26799
21
-6.73178
0
LINE
8
BLACK
6
CONTINUOUS
10
2.32798
20
-6.80302
11
2.33173
21
-6.80677
0
LINE
8
BLACK
6
CONTINUOUS
10
2.33173
20
-6.80677
11
2.32798
21
-6.81052
0
LINE
8
BLACK
6
CONTINUOUS
10
2.32798
20
-6.81052
11
2.32423
21
-6.80677
0
LINE
8
BLACK
6
CONTINUOUS
10
2.32423
20
-6.80677
11
2.32798
21
-6.80302
0
LINE
8
BLACK
6
CONTINUOUS
10
2.32798
20
-6.80302
11
2.32798
21
-6.81052
0
LINE
8
BLACK
6
CONTINUOUS
10
2.38047
20
-6.73178
11
2.38797
21
-6.73178
0
LINE
8
BLACK
6
CONTINUOUS
10
2.38797
20
-6.73178
11
2.39547
21
-6.73553
0
LINE
8
BLACK
6
CONTINUOUS
10
2.39547
20
-6.73553
11
2.39922
21
-6.73928
0
LINE
8
BLACK
6
CONTINUOUS
10
2.39922
20
-6.73928
11
2.40297
21
-6.74678
0
LINE
8
BLACK
6
CONTINUOUS
10
2.40297
20
-6.74678
11
2.40672
21
-6.76177
0
LINE
8
BLACK
6
CONTINUOUS
10
2.40672
20
-6.76177
11
2.40672
21
-6.78052
0
LINE
8
BLACK
6
CONTINUOUS
10
2.40672
20
-6.78052
11
2.40297
21
-6.79552
0
LINE
8
BLACK
6
CONTINUOUS
10
2.40297
20
-6.79552
11
2.39922
21
-6.80302
0
LINE
8
BLACK
6
CONTINUOUS
10
2.39922
20
-6.80302
11
2.39547
21
-6.80677
0
LINE
8
BLACK
6
CONTINUOUS
10
2.39547
20
-6.80677
11
2.38797
21
-6.81052
0
LINE
8
BLACK
6
CONTINUOUS
10
2.38797
20
-6.81052
11
2.38047
21
-6.81052
0
LINE
8
BLACK
6
CONTINUOUS
10
2.38047
20
-6.81052
11
2.37297
21
-6.80677
0
LINE
8
BLACK
6
CONTINUOUS
10
2.37297
20
-6.80677
11
2.36922
21
-6.80302
0
LINE
8
BLACK
6
CONTINUOUS
10
2.36922
20
-6.80302
11
2.36547
21
-6.79552
0
LINE
8
BLACK
6
CONTINUOUS
10
2.36547
20
-6.79552
11
2.36172
21
-6.78052
0
LINE
8
BLACK
6
CONTINUOUS
10
2.36172
20
-6.78052
11
2.36172
21
-6.76177
0
LINE
8
BLACK
6
CONTINUOUS
10
2.36172
20
-6.76177
11
2.36547
21
-6.74678
0
LINE
8
BLACK
6
CONTINUOUS
10
2.36547
20
-6.74678
11
2.36922
21
-6.73928
0
LINE
8
BLACK
6
CONTINUOUS
10
2.36922
20
-6.73928
11
2.37297
21
-6.73553
0
LINE
8
BLACK
6
CONTINUOUS
10
2.37297
20
-6.73553
11
2.38047
21
-6.73178
0
LINE
8
BLACK
6
CONTINUOUS
10
2.47796
20
-6.73178
11
2.44046
21
-6.73178
0
LINE
8
BLACK
6
CONTINUOUS
10
2.44046
20
-6.73178
11
2.43671
21
-6.76927
0
LINE
8
BLACK
6
CONTINUOUS
10
2.43671
20
-6.76927
11
2.44046
21
-6.76552
0
LINE
8
BLACK
6
CONTINUOUS
10
2.44046
20
-6.76552
11
2.44796
21
-6.76177
0
LINE
8
BLACK
6
CONTINUOUS
10
2.44796
20
-6.76177
11
2.46671
21
-6.76177
0
LINE
8
BLACK
6
CONTINUOUS
10
2.46671
20
-6.76177
11
2.47421
21
-6.76552
0
LINE
8
BLACK
6
CONTINUOUS
10
2.47421
20
-6.76552
11
2.47796
21
-6.76927
0
LINE
8
BLACK
6
CONTINUOUS
10
2.47796
20
-6.76927
11
2.48171
21
-6.77677
0
LINE
8
BLACK
6
CONTINUOUS
10
2.48171
20
-6.77677
11
2.48171
21
-6.79552
0
LINE
8
BLACK
6
CONTINUOUS
10
2.48171
20
-6.79552
11
2.47796
21
-6.80302
0
LINE
8
BLACK
6
CONTINUOUS
10
2.47796
20
-6.80302
11
2.47421
21
-6.80677
0
LINE
8
BLACK
6
CONTINUOUS
10
2.47421
20
-6.80677
11
2.46671
21
-6.81052
0
LINE
8
BLACK
6
CONTINUOUS
10
2.46671
20
-6.81052
11
2.44796
21
-6.81052
0
LINE
8
BLACK
6
CONTINUOUS
10
2.44796
20
-6.81052
11
2.44046
21
-6.80677
0
LINE
8
BLACK
6
CONTINUOUS
10
2.44046
20
-6.80677
11
2.43671
21
-6.80302
0
LINE
8
BLACK
6
CONTINUOUS
10
2.5567
20
-6.81052
11
2.51171
21
-6.81052
0
LINE
8
BLACK
6
CONTINUOUS
10
2.5342
20
-6.81052
11
2.5342
21
-6.73178
0
LINE
8
BLACK
6
CONTINUOUS
10
2.5342
20
-6.73178
11
2.5267
21
-6.74303
0
LINE
8
BLACK
6
CONTINUOUS
10
2.5267
20
-6.74303
11
2.5192
21
-6.75052
0
LINE
8
BLACK
6
CONTINUOUS
10
2.5192
20
-6.75052
11
2.51171
21
-6.75427
0
LINE
8
BLACK
6
CONTINUOUS
10
2.5867
20
-6.73928
11
2.59045
21
-6.73553
0
LINE
8
BLACK
6
CONTINUOUS
10
2.59045
20
-6.73553
11
2.59794
21
-6.73178
0
LINE
8
BLACK
6
CONTINUOUS
10
2.59794
20
-6.73178
11
2.61669
21
-6.73178
0
LINE
8
BLACK
6
CONTINUOUS
10
2.61669
20
-6.73178
11
2.62419
21
-6.73553
0
LINE
8
BLACK
6
CONTINUOUS
10
2.62419
20
-6.73553
11
2.62794
21
-6.73928
0
LINE
8
BLACK
6
CONTINUOUS
10
2.62794
20
-6.73928
11
2.63169
21
-6.74678
0
LINE
8
BLACK
6
CONTINUOUS
10
2.63169
20
-6.74678
11
2.63169
21
-6.75427
0
LINE
8
BLACK
6
CONTINUOUS
10
2.63169
20
-6.75427
11
2.62794
21
-6.76552
0
LINE
8
BLACK
6
CONTINUOUS
10
2.62794
20
-6.76552
11
2.58295
21
-6.81052
0
LINE
8
BLACK
6
CONTINUOUS
10
2.58295
20
-6.81052
11
2.63169
21
-6.81052
0
LINE
8
BLACK
6
CONTINUOUS
10
2.66169
20
-6.73178
11
2.66169
21
-6.74678
0
LINE
8
BLACK
6
CONTINUOUS
10
2.69168
20
-6.73178
11
2.69168
21
-6.74678
0
LINE
8
BLACK
6
CONTINUOUS
10
2.80792
20
-6.84051
11
2.80417
21
-6.83676
0
LINE
8
BLACK
6
CONTINUOUS
10
2.80417
20
-6.83676
11
2.79667
21
-6.82552
0
LINE
8
BLACK
6
CONTINUOUS
10
2.79667
20
-6.82552
11
2.79292
21
-6.81802
0
LINE
8
BLACK
6
CONTINUOUS
10
2.79292
20
-6.81802
11
2.78917
21
-6.80677
0
LINE
8
BLACK
6
CONTINUOUS
10
2.78917
20
-6.80677
11
2.78542
21
-6.78802
0
LINE
8
BLACK
6
CONTINUOUS
10
2.78542
20
-6.78802
11
2.78542
21
-6.77302
0
LINE
8
BLACK
6
CONTINUOUS
10
2.78542
20
-6.77302
11
2.78917
21
-6.75427
0
LINE
8
BLACK
6
CONTINUOUS
10
2.78917
20
-6.75427
11
2.79292
21
-6.74303
0
LINE
8
BLACK
6
CONTINUOUS
10
2.79292
20
-6.74303
11
2.79667
21
-6.73553
0
LINE
8
BLACK
6
CONTINUOUS
10
2.79667
20
-6.73553
11
2.80417
21
-6.72428
0
LINE
8
BLACK
6
CONTINUOUS
10
2.80417
20
-6.72428
11
2.80792
21
-6.72053
0
LINE
8
BLACK
6
CONTINUOUS
10
2.87166
20
-6.75802
11
2.87166
21
-6.81052
0
LINE
8
BLACK
6
CONTINUOUS
10
2.85291
20
-6.72803
11
2.83417
21
-6.78427
0
LINE
8
BLACK
6
CONTINUOUS
10
2.83417
20
-6.78427
11
2.88291
21
-6.78427
0
LINE
8
BLACK
6
CONTINUOUS
10
2.9729
20
-6.81052
11
2.9729
21
-6.73178
0
LINE
8
BLACK
6
CONTINUOUS
10
3.00664
20
-6.81052
11
3.00664
21
-6.76927
0
LINE
8
BLACK
6
CONTINUOUS
10
3.00664
20
-6.76927
11
3.00289
21
-6.76177
0
LINE
8
BLACK
6
CONTINUOUS
10
3.00289
20
-6.76177
11
2.9954
21
-6.75802
0
LINE
8
BLACK
6
CONTINUOUS
10
2.9954
20
-6.75802
11
2.98415
21
-6.75802
0
LINE
8
BLACK
6
CONTINUOUS
10
2.98415
20
-6.75802
11
2.97665
21
-6.76177
0
LINE
8
BLACK
6
CONTINUOUS
10
2.97665
20
-6.76177
11
2.9729
21
-6.76552
0
LINE
8
BLACK
6
CONTINUOUS
10
3.05539
20
-6.81052
11
3.04789
21
-6.80677
0
LINE
8
BLACK
6
CONTINUOUS
10
3.04789
20
-6.80677
11
3.04414
21
-6.80302
0
LINE
8
BLACK
6
CONTINUOUS
10
3.04414
20
-6.80302
11
3.04039
21
-6.79552
0
LINE
8
BLACK
6
CONTINUOUS
10
3.04039
20
-6.79552
11
3.04039
21
-6.77302
0
LINE
8
BLACK
6
CONTINUOUS
10
3.04039
20
-6.77302
11
3.04414
21
-6.76552
0
LINE
8
BLACK
6
CONTINUOUS
10
3.04414
20
-6.76552
11
3.04789
21
-6.76177
0
LINE
8
BLACK
6
CONTINUOUS
10
3.04789
20
-6.76177
11
3.05539
21
-6.75802
0
LINE
8
BLACK
6
CONTINUOUS
10
3.05539
20
-6.75802
11
3.06664
21
-6.75802
0
LINE
8
BLACK
6
CONTINUOUS
10
3.06664
20
-6.75802
11
3.07414
21
-6.76177
0
LINE
8
BLACK
6
CONTINUOUS
10
3.07414
20
-6.76177
11
3.07788
21
-6.76552
0
LINE
8
BLACK
6
CONTINUOUS
10
3.07788
20
-6.76552
11
3.08163
21
-6.77302
0
LINE
8
BLACK
6
CONTINUOUS
10
3.08163
20
-6.77302
11
3.08163
21
-6.79552
0
LINE
8
BLACK
6
CONTINUOUS
10
3.08163
20
-6.79552
11
3.07788
21
-6.80302
0
LINE
8
BLACK
6
CONTINUOUS
10
3.07788
20
-6.80302
11
3.07414
21
-6.80677
0
LINE
8
BLACK
6
CONTINUOUS
10
3.07414
20
-6.80677
11
3.06664
21
-6.81052
0
LINE
8
BLACK
6
CONTINUOUS
10
3.06664
20
-6.81052
11
3.05539
21
-6.81052
0
LINE
8
BLACK
6
CONTINUOUS
10
3.12663
20
-6.81052
11
3.11913
21
-6.80677
0
LINE
8
BLACK
6
CONTINUOUS
10
3.11913
20
-6.80677
11
3.11538
21
-6.79927
0
LINE
8
BLACK
6
CONTINUOUS
10
3.11538
20
-6.79927
11
3.11538
21
-6.73178
0
LINE
8
BLACK
6
CONTINUOUS
10
3.18662
20
-6.80677
11
3.17912
21
-6.81052
0
LINE
8
BLACK
6
CONTINUOUS
10
3.17912
20
-6.81052
11
3.16412
21
-6.81052
0
LINE
8
BLACK
6
CONTINUOUS
10
3.16412
20
-6.81052
11
3.15662
21
-6.80677
0
LINE
8
BLACK
6
CONTINUOUS
10
3.15662
20
-6.80677
11
3.15288
21
-6.79927
0
LINE
8
BLACK
6
CONTINUOUS
10
3.15288
20
-6.79927
11
3.15288
21
-6.76927
0
LINE
8
BLACK
6
CONTINUOUS
10
3.15288
20
-6.76927
11
3.15662
21
-6.76177
0
LINE
8
BLACK
6
CONTINUOUS
10
3.15662
20
-6.76177
11
3.16412
21
-6.75802
0
LINE
8
BLACK
6
CONTINUOUS
10
3.16412
20
-6.75802
11
3.17912
21
-6.75802
0
LINE
8
BLACK
6
CONTINUOUS
10
3.17912
20
-6.75802
11
3.18662
21
-6.76177
0
LINE
8
BLACK
6
CONTINUOUS
10
3.18662
20
-6.76177
11
3.19037
21
-6.76927
0
LINE
8
BLACK
6
CONTINUOUS
10
3.19037
20
-6.76927
11
3.19037
21
-6.77677
0
LINE
8
BLACK
6
CONTINUOUS
10
3.19037
20
-6.77677
11
3.15288
21
-6.78427
0
LINE
8
BLACK
6
CONTINUOUS
10
3.22037
20
-6.80677
11
3.22787
21
-6.81052
0
LINE
8
BLACK
6
CONTINUOUS
10
3.22787
20
-6.81052
11
3.24286
21
-6.81052
0
LINE
8
BLACK
6
CONTINUOUS
10
3.24286
20
-6.81052
11
3.25036
21
-6.80677
0
LINE
8
BLACK
6
CONTINUOUS
10
3.25036
20
-6.80677
11
3.25411
21
-6.79927
0
LINE
8
BLACK
6
CONTINUOUS
10
3.25411
20
-6.79927
11
3.25411
21
-6.79552
0
LINE
8
BLACK
6
CONTINUOUS
10
3.25411
20
-6.79552
11
3.25036
21
-6.78802
0
LINE
8
BLACK
6
CONTINUOUS
10
3.25036
20
-6.78802
11
3.24286
21
-6.78427
0
LINE
8
BLACK
6
CONTINUOUS
10
3.24286
20
-6.78427
11
3.23162
21
-6.78427
0
LINE
8
BLACK
6
CONTINUOUS
10
3.23162
20
-6.78427
11
3.22412
21
-6.78052
0
LINE
8
BLACK
6
CONTINUOUS
10
3.22412
20
-6.78052
11
3.22037
21
-6.77302
0
LINE
8
BLACK
6
CONTINUOUS
10
3.22037
20
-6.77302
11
3.22037
21
-6.76927
0
LINE
8
BLACK
6
CONTINUOUS
10
3.22037
20
-6.76927
11
3.22412
21
-6.76177
0
LINE
8
BLACK
6
CONTINUOUS
10
3.22412
20
-6.76177
11
3.23162
21
-6.75802
0
LINE
8
BLACK
6
CONTINUOUS
10
3.23162
20
-6.75802
11
3.24286
21
-6.75802
0
LINE
8
BLACK
6
CONTINUOUS
10
3.24286
20
-6.75802
11
3.25036
21
-6.76177
0
LINE
8
BLACK
6
CONTINUOUS
10
3.28036
20
-6.84051
11
3.28411
21
-6.83676
0
LINE
8
BLACK
6
CONTINUOUS
10
3.28411
20
-6.83676
11
3.29161
21
-6.82552
0
LINE
8
BLACK
6
CONTINUOUS
10
3.29161
20
-6.82552
11
3.29536
21
-6.81802
0
LINE
8
BLACK
6
CONTINUOUS
10
3.29536
20
-6.81802
11
3.29911
21
-6.80677
0
LINE
8
BLACK
6
CONTINUOUS
10
3.29911
20
-6.80677
11
3.30286
21
-6.78802
0
LINE
8
BLACK
6
CONTINUOUS
10
3.30286
20
-6.78802
11
3.30286
21
-6.77302
0
LINE
8
BLACK
6
CONTINUOUS
10
3.30286
20
-6.77302
11
3.29911
21
-6.75427
0
LINE
8
BLACK
6
CONTINUOUS
10
3.29911
20
-6.75427
11
3.29536
21
-6.74303
0
LINE
8
BLACK
6
CONTINUOUS
10
3.29536
20
-6.74303
11
3.29161
21
-6.73553
0
LINE
8
BLACK
6
CONTINUOUS
10
3.29161
20
-6.73553
11
3.28411
21
-6.72428
0
LINE
8
BLACK
6
CONTINUOUS
10
3.28411
20
-6.72428
11
3.28036
21
-6.72053
0
LINE
8
BLACK
6
CONTINUOUS
10
1.36104
20
-6.91781
11
1.40041
21
-6.87844
0
LINE
8
BLACK
6
CONTINUOUS
10
1.40041
20
-6.87844
11
1.36104
21
-6.83907
0
LINE
8
BLACK
6
CONTINUOUS
10
1.36104
20
-6.83907
11
1.32167
21
-6.87844
0
LINE
8
BLACK
6
CONTINUOUS
10
1.32167
20
-6.87844
11
1.36104
21
-6.91781
0
LINE
8
BLACK
6
CONTINUOUS
10
1.49933
20
-6.84321
11
1.50308
21
-6.83946
0
LINE
8
BLACK
6
CONTINUOUS
10
1.50308
20
-6.83946
11
1.51058
21
-6.83571
0
LINE
8
BLACK
6
CONTINUOUS
10
1.51058
20
-6.83571
11
1.52933
21
-6.83571
0
LINE
8
BLACK
6
CONTINUOUS
10
1.52933
20
-6.83571
11
1.53683
21
-6.83946
0
LINE
8
BLACK
6
CONTINUOUS
10
1.53683
20
-6.83946
11
1.54058
21
-6.84321
0
LINE
8
BLACK
6
CONTINUOUS
10
1.54058
20
-6.84321
11
1.54433
21
-6.85071
0
LINE
8
BLACK
6
CONTINUOUS
10
1.54433
20
-6.85071
11
1.54433
21
-6.85821
0
LINE
8
BLACK
6
CONTINUOUS
10
1.54433
20
-6.85821
11
1.54058
21
-6.86946
0
LINE
8
BLACK
6
CONTINUOUS
10
1.54058
20
-6.86946
11
1.49558
21
-6.91445
0
LINE
8
BLACK
6
CONTINUOUS
10
1.49558
20
-6.91445
11
1.54433
21
-6.91445
0
LINE
8
BLACK
6
CONTINUOUS
10
1.57807
20
-6.90696
11
1.58182
21
-6.9107
0
LINE
8
BLACK
6
CONTINUOUS
10
1.58182
20
-6.9107
11
1.57807
21
-6.91445
0
LINE
8
BLACK
6
CONTINUOUS
10
1.57807
20
-6.91445
11
1.57432
21
-6.9107
0
LINE
8
BLACK
6
CONTINUOUS
10
1.57432
20
-6.9107
11
1.57807
21
-6.90696
0
LINE
8
BLACK
6
CONTINUOUS
10
1.57807
20
-6.90696
11
1.57807
21
-6.91445
0
LINE
8
BLACK
6
CONTINUOUS
10
1.63057
20
-6.83571
11
1.63806
21
-6.83571
0
LINE
8
BLACK
6
CONTINUOUS
10
1.63806
20
-6.83571
11
1.64556
21
-6.83946
0
LINE
8
BLACK
6
CONTINUOUS
10
1.64556
20
-6.83946
11
1.64931
21
-6.84321
0
LINE
8
BLACK
6
CONTINUOUS
10
1.64931
20
-6.84321
11
1.65306
21
-6.85071
0
LINE
8
BLACK
6
CONTINUOUS
10
1.65306
20
-6.85071
11
1.65681
21
-6.86571
0
LINE
8
BLACK
6
CONTINUOUS
10
1.65681
20
-6.86571
11
1.65681
21
-6.88446
0
LINE
8
BLACK
6
CONTINUOUS
10
1.65681
20
-6.88446
11
1.65306
21
-6.89946
0
LINE
8
BLACK
6
CONTINUOUS
10
1.65306
20
-6.89946
11
1.64931
21
-6.90696
0
LINE
8
BLACK
6
CONTINUOUS
10
1.64931
20
-6.90696
11
1.64556
21
-6.9107
0
LINE
8
BLACK
6
CONTINUOUS
10
1.64556
20
-6.9107
11
1.63806
21
-6.91445
0
LINE
8
BLACK
6
CONTINUOUS
10
1.63806
20
-6.91445
11
1.63057
21
-6.91445
0
LINE
8
BLACK
6
CONTINUOUS
10
1.63057
20
-6.91445
11
1.62307
21
-6.9107
0
LINE
8
BLACK
6
CONTINUOUS
10
1.62307
20
-6.9107
11
1.61932
21
-6.90696
0
LINE
8
BLACK
6
CONTINUOUS
10
1.61932
20
-6.90696
11
1.61557
21
-6.89946
0
LINE
8
BLACK
6
CONTINUOUS
10
1.61557
20
-6.89946
11
1.61182
21
-6.88446
0
LINE
8
BLACK
6
CONTINUOUS
10
1.61182
20
-6.88446
11
1.61182
21
-6.86571
0
LINE
8
BLACK
6
CONTINUOUS
10
1.61182
20
-6.86571
11
1.61557
21
-6.85071
0
LINE
8
BLACK
6
CONTINUOUS
10
1.61557
20
-6.85071
11
1.61932
21
-6.84321
0
LINE
8
BLACK
6
CONTINUOUS
10
1.61932
20
-6.84321
11
1.62307
21
-6.83946
0
LINE
8
BLACK
6
CONTINUOUS
10
1.62307
20
-6.83946
11
1.63057
21
-6.83571
0
LINE
8
BLACK
6
CONTINUOUS
10
1.70556
20
-6.83571
11
1.71306
21
-6.83571
0
LINE
8
BLACK
6
CONTINUOUS
10
1.71306
20
-6.83571
11
1.72055
21
-6.83946
0
LINE
8
BLACK
6
CONTINUOUS
10
1.72055
20
-6.83946
11
1.7243
21
-6.84321
0
LINE
8
BLACK
6
CONTINUOUS
10
1.7243
20
-6.84321
11
1.72805
21
-6.85071
0
LINE
8
BLACK
6
CONTINUOUS
10
1.72805
20
-6.85071
11
1.7318
21
-6.86571
0
LINE
8
BLACK
6
CONTINUOUS
10
1.7318
20
-6.86571
11
1.7318
21
-6.88446
0
LINE
8
BLACK
6
CONTINUOUS
10
1.7318
20
-6.88446
11
1.72805
21
-6.89946
0
LINE
8
BLACK
6
CONTINUOUS
10
1.72805
20
-6.89946
11
1.7243
21
-6.90696
0
LINE
8
BLACK
6
CONTINUOUS
10
1.7243
20
-6.90696
11
1.72055
21
-6.9107
0
LINE
8
BLACK
6
CONTINUOUS
10
1.72055
20
-6.9107
11
1.71306
21
-6.91445
0
LINE
8
BLACK
6
CONTINUOUS
10
1.71306
20
-6.91445
11
1.70556
21
-6.91445
0
LINE
8
BLACK
6
CONTINUOUS
10
1.70556
20
-6.91445
11
1.69806
21
-6.9107
0
LINE
8
BLACK
6
CONTINUOUS
10
1.69806
20
-6.9107
11
1.69431
21
-6.90696
0
LINE
8
BLACK
6
CONTINUOUS
10
1.69431
20
-6.90696
11
1.69056
21
-6.89946
0
LINE
8
BLACK
6
CONTINUOUS
10
1.69056
20
-6.89946
11
1.68681
21
-6.88446
0
LINE
8
BLACK
6
CONTINUOUS
10
1.68681
20
-6.88446
11
1.68681
21
-6.86571
0
LINE
8
BLACK
6
CONTINUOUS
10
1.68681
20
-6.86571
11
1.69056
21
-6.85071
0
LINE
8
BLACK
6
CONTINUOUS
10
1.69056
20
-6.85071
11
1.69431
21
-6.84321
0
LINE
8
BLACK
6
CONTINUOUS
10
1.69431
20
-6.84321
11
1.69806
21
-6.83946
0
LINE
8
BLACK
6
CONTINUOUS
10
1.69806
20
-6.83946
11
1.70556
21
-6.83571
0
LINE
8
BLACK
6
CONTINUOUS
10
1.78055
20
-6.83571
11
1.78805
21
-6.83571
0
LINE
8
BLACK
6
CONTINUOUS
10
1.78805
20
-6.83571
11
1.79554
21
-6.83946
0
LINE
8
BLACK
6
CONTINUOUS
10
1.79554
20
-6.83946
11
1.79929
21
-6.84321
0
LINE
8
BLACK
6
CONTINUOUS
10
1.79929
20
-6.84321
11
1.80304
21
-6.85071
0
LINE
8
BLACK
6
CONTINUOUS
10
1.80304
20
-6.85071
11
1.80679
21
-6.86571
0
LINE
8
BLACK
6
CONTINUOUS
10
1.80679
20
-6.86571
11
1.80679
21
-6.88446
0
LINE
8
BLACK
6
CONTINUOUS
10
1.80679
20
-6.88446
11
1.80304
21
-6.89946
0
LINE
8
BLACK
6
CONTINUOUS
10
1.80304
20
-6.89946
11
1.79929
21
-6.90696
0
LINE
8
BLACK
6
CONTINUOUS
10
1.79929
20
-6.90696
11
1.79554
21
-6.9107
0
LINE
8
BLACK
6
CONTINUOUS
10
1.79554
20
-6.9107
11
1.78805
21
-6.91445
0
LINE
8
BLACK
6
CONTINUOUS
10
1.78805
20
-6.91445
11
1.78055
21
-6.91445
0
LINE
8
BLACK
6
CONTINUOUS
10
1.78055
20
-6.91445
11
1.77305
21
-6.9107
0
LINE
8
BLACK
6
CONTINUOUS
10
1.77305
20
-6.9107
11
1.7693
21
-6.90696
0
LINE
8
BLACK
6
CONTINUOUS
10
1.7693
20
-6.90696
11
1.76555
21
-6.89946
0
LINE
8
BLACK
6
CONTINUOUS
10
1.76555
20
-6.89946
11
1.7618
21
-6.88446
0
LINE
8
BLACK
6
CONTINUOUS
10
1.7618
20
-6.88446
11
1.7618
21
-6.86571
0
LINE
8
BLACK
6
CONTINUOUS
10
1.7618
20
-6.86571
11
1.76555
21
-6.85071
0
LINE
8
BLACK
6
CONTINUOUS
10
1.76555
20
-6.85071
11
1.7693
21
-6.84321
0
LINE
8
BLACK
6
CONTINUOUS
10
1.7693
20
-6.84321
11
1.77305
21
-6.83946
0
LINE
8
BLACK
6
CONTINUOUS
10
1.77305
20
-6.83946
11
1.78055
21
-6.83571
0
LINE
8
BLACK
6
CONTINUOUS
10
1.84054
20
-6.91445
11
1.84054
21
-6.86196
0
LINE
8
BLACK
6
CONTINUOUS
10
1.84054
20
-6.86946
11
1.84429
21
-6.86571
0
LINE
8
BLACK
6
CONTINUOUS
10
1.84429
20
-6.86571
11
1.85179
21
-6.86196
0
LINE
8
BLACK
6
CONTINUOUS
10
1.85179
20
-6.86196
11
1.86304
21
-6.86196
0
LINE
8
BLACK
6
CONTINUOUS
10
1.86304
20
-6.86196
11
1.87054
21
-6.86571
0
LINE
8
BLACK
6
CONTINUOUS
10
1.87054
20
-6.86571
11
1.87429
21
-6.87321
0
LINE
8
BLACK
6
CONTINUOUS
10
1.87429
20
-6.87321
11
1.87429
21
-6.91445
0
LINE
8
BLACK
6
CONTINUOUS
10
1.87429
20
-6.87321
11
1.87803
21
-6.86571
0
LINE
8
BLACK
6
CONTINUOUS
10
1.87803
20
-6.86571
11
1.88553
21
-6.86196
0
LINE
8
BLACK
6
CONTINUOUS
10
1.88553
20
-6.86196
11
1.89678
21
-6.86196
0
LINE
8
BLACK
6
CONTINUOUS
10
1.89678
20
-6.86196
11
1.90428
21
-6.86571
0
LINE
8
BLACK
6
CONTINUOUS
10
1.90428
20
-6.86571
11
1.90803
21
-6.87321
0
LINE
8
BLACK
6
CONTINUOUS
10
1.90803
20
-6.87321
11
1.90803
21
-6.91445
0
LINE
8
BLACK
6
CONTINUOUS
10
1.94553
20
-6.91445
11
1.94553
21
-6.86196
0
LINE
8
BLACK
6
CONTINUOUS
10
1.94553
20
-6.86946
11
1.94928
21
-6.86571
0
LINE
8
BLACK
6
CONTINUOUS
10
1.94928
20
-6.86571
11
1.95677
21
-6.86196
0
LINE
8
BLACK
6
CONTINUOUS
10
1.95677
20
-6.86196
11
1.96802
21
-6.86196
0
LINE
8
BLACK
6
CONTINUOUS
10
1.96802
20
-6.86196
11
1.97552
21
-6.86571
0
LINE
8
BLACK
6
CONTINUOUS
10
1.97552
20
-6.86571
11
1.97927
21
-6.87321
0
LINE
8
BLACK
6
CONTINUOUS
10
1.97927
20
-6.87321
11
1.97927
21
-6.91445
0
LINE
8
BLACK
6
CONTINUOUS
10
1.97927
20
-6.87321
11
1.98302
21
-6.86571
0
LINE
8
BLACK
6
CONTINUOUS
10
1.98302
20
-6.86571
11
1.99052
21
-6.86196
0
LINE
8
BLACK
6
CONTINUOUS
10
1.99052
20
-6.86196
11
2.00177
21
-6.86196
0
LINE
8
BLACK
6
CONTINUOUS
10
2.00177
20
-6.86196
11
2.00927
21
-6.86571
0
LINE
8
BLACK
6
CONTINUOUS
10
2.00927
20
-6.86571
11
2.01302
21
-6.87321
0
LINE
8
BLACK
6
CONTINUOUS
10
2.01302
20
-6.87321
11
2.01302
21
-6.91445
0
LINE
8
BLACK
6
CONTINUOUS
10
2.16675
20
-6.83196
11
2.09926
21
-6.9332
0
LINE
8
BLACK
6
CONTINUOUS
10
2.26799
20
-6.83571
11
2.27548
21
-6.83571
0
LINE
8
BLACK
6
CONTINUOUS
10
2.27548
20
-6.83571
11
2.28298
21
-6.83946
0
LINE
8
BLACK
6
CONTINUOUS
10
2.28298
20
-6.83946
11
2.28673
21
-6.84321
0
LINE
8
BLACK
6
CONTINUOUS
10
2.28673
20
-6.84321
11
2.29048
21
-6.85071
0
LINE
8
BLACK
6
CONTINUOUS
10
2.29048
20
-6.85071
11
2.29423
21
-6.86571
0
LINE
8
BLACK
6
CONTINUOUS
10
2.29423
20
-6.86571
11
2.29423
21
-6.88446
0
LINE
8
BLACK
6
CONTINUOUS
10
2.29423
20
-6.88446
11
2.29048
21
-6.89946
0
LINE
8
BLACK
6
CONTINUOUS
10
2.29048
20
-6.89946
11
2.28673
21
-6.90696
0
LINE
8
BLACK
6
CONTINUOUS
10
2.28673
20
-6.90696
11
2.28298
21
-6.9107
0
LINE
8
BLACK
6
CONTINUOUS
10
2.28298
20
-6.9107
11
2.27548
21
-6.91445
0
LINE
8
BLACK
6
CONTINUOUS
10
2.27548
20
-6.91445
11
2.26799
21
-6.91445
0
LINE
8
BLACK
6
CONTINUOUS
10
2.26799
20
-6.91445
11
2.26049
21
-6.9107
0
LINE
8
BLACK
6
CONTINUOUS
10
2.26049
20
-6.9107
11
2.25674
21
-6.90696
0
LINE
8
BLACK
6
CONTINUOUS
10
2.25674
20
-6.90696
11
2.25299
21
-6.89946
0
LINE
8
BLACK
6
CONTINUOUS
10
2.25299
20
-6.89946
11
2.24924
21
-6.88446
0
LINE
8
BLACK
6
CONTINUOUS
10
2.24924
20
-6.88446
11
2.24924
21
-6.86571
0
LINE
8
BLACK
6
CONTINUOUS
10
2.24924
20
-6.86571
11
2.25299
21
-6.85071
0
LINE
8
BLACK
6
CONTINUOUS
10
2.25299
20
-6.85071
11
2.25674
21
-6.84321
0
LINE
8
BLACK
6
CONTINUOUS
10
2.25674
20
-6.84321
11
2.26049
21
-6.83946
0
LINE
8
BLACK
6
CONTINUOUS
10
2.26049
20
-6.83946
11
2.26799
21
-6.83571
0
LINE
8
BLACK
6
CONTINUOUS
10
2.32798
20
-6.90696
11
2.33173
21
-6.9107
0
LINE
8
BLACK
6
CONTINUOUS
10
2.33173
20
-6.9107
11
2.32798
21
-6.91445
0
LINE
8
BLACK
6
CONTINUOUS
10
2.32798
20
-6.91445
11
2.32423
21
-6.9107
0
LINE
8
BLACK
6
CONTINUOUS
10
2.32423
20
-6.9107
11
2.32798
21
-6.90696
0
LINE
8
BLACK
6
CONTINUOUS
10
2.32798
20
-6.90696
11
2.32798
21
-6.91445
0
LINE
8
BLACK
6
CONTINUOUS
10
2.38047
20
-6.83571
11
2.38797
21
-6.83571
0
LINE
8
BLACK
6
CONTINUOUS
10
2.38797
20
-6.83571
11
2.39547
21
-6.83946
0
LINE
8
BLACK
6
CONTINUOUS
10
2.39547
20
-6.83946
11
2.39922
21
-6.84321
0
LINE
8
BLACK
6
CONTINUOUS
10
2.39922
20
-6.84321
11
2.40297
21
-6.85071
0
LINE
8
BLACK
6
CONTINUOUS
10
2.40297
20
-6.85071
11
2.40672
21
-6.86571
0
LINE
8
BLACK
6
CONTINUOUS
10
2.40672
20
-6.86571
11
2.40672
21
-6.88446
0
LINE
8
BLACK
6
CONTINUOUS
10
2.40672
20
-6.88446
11
2.40297
21
-6.89946
0
LINE
8
BLACK
6
CONTINUOUS
10
2.40297
20
-6.89946
11
2.39922
21
-6.90696
0
LINE
8
BLACK
6
CONTINUOUS
10
2.39922
20
-6.90696
11
2.39547
21
-6.9107
0
LINE
8
BLACK
6
CONTINUOUS
10
2.39547
20
-6.9107
11
2.38797
21
-6.91445
0
LINE
8
BLACK
6
CONTINUOUS
10
2.38797
20
-6.91445
11
2.38047
21
-6.91445
0
LINE
8
BLACK
6
CONTINUOUS
10
2.38047
20
-6.91445
11
2.37297
21
-6.9107
0
LINE
8
BLACK
6
CONTINUOUS
10
2.37297
20
-6.9107
11
2.36922
21
-6.90696
0
LINE
8
BLACK
6
CONTINUOUS
10
2.36922
20
-6.90696
11
2.36547
21
-6.89946
0
LINE
8
BLACK
6
CONTINUOUS
10
2.36547
20
-6.89946
11
2.36172
21
-6.88446
0
LINE
8
BLACK
6
CONTINUOUS
10
2.36172
20
-6.88446
11
2.36172
21
-6.86571
0
LINE
8
BLACK
6
CONTINUOUS
10
2.36172
20
-6.86571
11
2.36547
21
-6.85071
0
LINE
8
BLACK
6
CONTINUOUS
10
2.36547
20
-6.85071
11
2.36922
21
-6.84321
0
LINE
8
BLACK
6
CONTINUOUS
10
2.36922
20
-6.84321
11
2.37297
21
-6.83946
0
LINE
8
BLACK
6
CONTINUOUS
10
2.37297
20
-6.83946
11
2.38047
21
-6.83571
0
LINE
8
BLACK
6
CONTINUOUS
10
2.43297
20
-6.83571
11
2.48546
21
-6.83571
0
LINE
8
BLACK
6
CONTINUOUS
10
2.48546
20
-6.83571
11
2.45171
21
-6.91445
0
LINE
8
BLACK
6
CONTINUOUS
10
2.5267
20
-6.86946
11
2.5192
21
-6.86571
0
LINE
8
BLACK
6
CONTINUOUS
10
2.5192
20
-6.86571
11
2.51545
21
-6.86196
0
LINE
8
BLACK
6
CONTINUOUS
10
2.51545
20
-6.86196
11
2.51171
21
-6.85446
0
LINE
8
BLACK
6
CONTINUOUS
10
2.51171
20
-6.85446
11
2.51171
21
-6.85071
0
LINE
8
BLACK
6
CONTINUOUS
10
2.51171
20
-6.85071
11
2.51545
21
-6.84321
0
LINE
8
BLACK
6
CONTINUOUS
10
2.51545
20
-6.84321
11
2.5192
21
-6.83946
0
LINE
8
BLACK
6
CONTINUOUS
10
2.5192
20
-6.83946
11
2.5267
21
-6.83571
0
LINE
8
BLACK
6
CONTINUOUS
10
2.5267
20
-6.83571
11
2.5417
21
-6.83571
0
LINE
8
BLACK
6
CONTINUOUS
10
2.5417
20
-6.83571
11
2.5492
21
-6.83946
0
LINE
8
BLACK
6
CONTINUOUS
10
2.5492
20
-6.83946
11
2.55295
21
-6.84321
0
LINE
8
BLACK
6
CONTINUOUS
10
2.55295
20
-6.84321
11
2.5567
21
-6.85071
0
LINE
8
BLACK
6
CONTINUOUS
10
2.5567
20
-6.85071
11
2.5567
21
-6.85446
0
LINE
8
BLACK
6
CONTINUOUS
10
2.5567
20
-6.85446
11
2.55295
21
-6.86196
0
LINE
8
BLACK
6
CONTINUOUS
10
2.55295
20
-6.86196
11
2.5492
21
-6.86571
0
LINE
8
BLACK
6
CONTINUOUS
10
2.5492
20
-6.86571
11
2.5417
21
-6.86946
0
LINE
8
BLACK
6
CONTINUOUS
10
2.5417
20
-6.86946
11
2.5267
21
-6.86946
0
LINE
8
BLACK
6
CONTINUOUS
10
2.5267
20
-6.86946
11
2.5192
21
-6.87321
0
LINE
8
BLACK
6
CONTINUOUS
10
2.5192
20
-6.87321
11
2.51545
21
-6.87696
0
LINE
8
BLACK
6
CONTINUOUS
10
2.51545
20
-6.87696
11
2.51171
21
-6.88446
0
LINE
8
BLACK
6
CONTINUOUS
10
2.51171
20
-6.88446
11
2.51171
21
-6.89946
0
LINE
8
BLACK
6
CONTINUOUS
10
2.51171
20
-6.89946
11
2.51545
21
-6.90696
0
LINE
8
BLACK
6
CONTINUOUS
10
2.51545
20
-6.90696
11
2.5192
21
-6.9107
0
LINE
8
BLACK
6
CONTINUOUS
10
2.5192
20
-6.9107
11
2.5267
21
-6.91445
0
LINE
8
BLACK
6
CONTINUOUS
10
2.5267
20
-6.91445
11
2.5417
21
-6.91445
0
LINE
8
BLACK
6
CONTINUOUS
10
2.5417
20
-6.91445
11
2.5492
21
-6.9107
0
LINE
8
BLACK
6
CONTINUOUS
10
2.5492
20
-6.9107
11
2.55295
21
-6.90696
0
LINE
8
BLACK
6
CONTINUOUS
10
2.55295
20
-6.90696
11
2.5567
21
-6.89946
0
LINE
8
BLACK
6
CONTINUOUS
10
2.5567
20
-6.89946
11
2.5567
21
-6.88446
0
LINE
8
BLACK
6
CONTINUOUS
10
2.5567
20
-6.88446
11
2.55295
21
-6.87696
0
LINE
8
BLACK
6
CONTINUOUS
10
2.55295
20
-6.87696
11
2.5492
21
-6.87321
0
LINE
8
BLACK
6
CONTINUOUS
10
2.5492
20
-6.87321
11
2.5417
21
-6.86946
0
LINE
8
BLACK
6
CONTINUOUS
10
2.58295
20
-6.83571
11
2.63544
21
-6.83571
0
LINE
8
BLACK
6
CONTINUOUS
10
2.63544
20
-6.83571
11
2.60169
21
-6.91445
0
LINE
8
BLACK
6
CONTINUOUS
10
2.66169
20
-6.83571
11
2.66169
21
-6.85071
0
LINE
8
BLACK
6
CONTINUOUS
10
2.69168
20
-6.83571
11
2.69168
21
-6.85071
0
LINE
8
BLACK
6
CONTINUOUS
10
2.80792
20
-6.94445
11
2.80417
21
-6.9407
0
LINE
8
BLACK
6
CONTINUOUS
10
2.80417
20
-6.9407
11
2.79667
21
-6.92945
0
LINE
8
BLACK
6
CONTINUOUS
10
2.79667
20
-6.92945
11
2.79292
21
-6.92195
0
LINE
8
BLACK
6
CONTINUOUS
10
2.79292
20
-6.92195
11
2.78917
21
-6.9107
0
LINE
8
BLACK
6
CONTINUOUS
10
2.78917
20
-6.9107
11
2.78542
21
-6.89196
0
LINE
8
BLACK
6
CONTINUOUS
10
2.78542
20
-6.89196
11
2.78542
21
-6.87696
0
LINE
8
BLACK
6
CONTINUOUS
10
2.78542
20
-6.87696
11
2.78917
21
-6.85821
0
LINE
8
BLACK
6
CONTINUOUS
10
2.78917
20
-6.85821
11
2.79292
21
-6.84696
0
LINE
8
BLACK
6
CONTINUOUS
10
2.79292
20
-6.84696
11
2.79667
21
-6.83946
0
LINE
8
BLACK
6
CONTINUOUS
10
2.79667
20
-6.83946
11
2.80417
21
-6.82822
0
LINE
8
BLACK
6
CONTINUOUS
10
2.80417
20
-6.82822
11
2.80792
21
-6.82447
0
LINE
8
BLACK
6
CONTINUOUS
10
2.85291
20
-6.83571
11
2.86041
21
-6.83571
0
LINE
8
BLACK
6
CONTINUOUS
10
2.86041
20
-6.83571
11
2.86791
21
-6.83946
0
LINE
8
BLACK
6
CONTINUOUS
10
2.86791
20
-6.83946
11
2.87166
21
-6.84321
0
LINE
8
BLACK
6
CONTINUOUS
10
2.87166
20
-6.84321
11
2.87541
21
-6.85071
0
LINE
8
BLACK
6
CONTINUOUS
10
2.87541
20
-6.85071
11
2.87916
21
-6.86571
0
LINE
8
BLACK
6
CONTINUOUS
10
2.87916
20
-6.86571
11
2.87916
21
-6.88446
0
LINE
8
BLACK
6
CONTINUOUS
10
2.87916
20
-6.88446
11
2.87541
21
-6.89946
0
LINE
8
BLACK
6
CONTINUOUS
10
2.87541
20
-6.89946
11
2.87166
21
-6.90696
0
LINE
8
BLACK
6
CONTINUOUS
10
2.87166
20
-6.90696
11
2.86791
21
-6.9107
0
LINE
8
BLACK
6
CONTINUOUS
10
2.86791
20
-6.9107
11
2.86041
21
-6.91445
0
LINE
8
BLACK
6
CONTINUOUS
10
2.86041
20
-6.91445
11
2.85291
21
-6.91445
0
LINE
8
BLACK
6
CONTINUOUS
10
2.85291
20
-6.91445
11
2.84541
21
-6.9107
0
LINE
8
BLACK
6
CONTINUOUS
10
2.84541
20
-6.9107
11
2.84166
21
-6.90696
0
LINE
8
BLACK
6
CONTINUOUS
10
2.84166
20
-6.90696
11
2.83791
21
-6.89946
0
LINE
8
BLACK
6
CONTINUOUS
10
2.83791
20
-6.89946
11
2.83417
21
-6.88446
0
LINE
8
BLACK
6
CONTINUOUS
10
2.83417
20
-6.88446
11
2.83417
21
-6.86571
0
LINE
8
BLACK
6
CONTINUOUS
10
2.83417
20
-6.86571
11
2.83791
21
-6.85071
0
LINE
8
BLACK
6
CONTINUOUS
10
2.83791
20
-6.85071
11
2.84166
21
-6.84321
0
LINE
8
BLACK
6
CONTINUOUS
10
2.84166
20
-6.84321
11
2.84541
21
-6.83946
0
LINE
8
BLACK
6
CONTINUOUS
10
2.84541
20
-6.83946
11
2.85291
21
-6.83571
0
LINE
8
BLACK
6
CONTINUOUS
10
2.9729
20
-6.91445
11
2.9729
21
-6.83571
0
LINE
8
BLACK
6
CONTINUOUS
10
3.00664
20
-6.91445
11
3.00664
21
-6.87321
0
LINE
8
BLACK
6
CONTINUOUS
10
3.00664
20
-6.87321
11
3.00289
21
-6.86571
0
LINE
8
BLACK
6
CONTINUOUS
10
3.00289
20
-6.86571
11
2.9954
21
-6.86196
0
LINE
8
BLACK
6
CONTINUOUS
10
2.9954
20
-6.86196
11
2.98415
21
-6.86196
0
LINE
8
BLACK
6
CONTINUOUS
10
2.98415
20
-6.86196
11
2.97665
21
-6.86571
0
LINE
8
BLACK
6
CONTINUOUS
10
2.97665
20
-6.86571
11
2.9729
21
-6.86946
0
LINE
8
BLACK
6
CONTINUOUS
10
3.05539
20
-6.91445
11
3.04789
21
-6.9107
0
LINE
8
BLACK
6
CONTINUOUS
10
3.04789
20
-6.9107
11
3.04414
21
-6.90696
0
LINE
8
BLACK
6
CONTINUOUS
10
3.04414
20
-6.90696
11
3.04039
21
-6.89946
0
LINE
8
BLACK
6
CONTINUOUS
10
3.04039
20
-6.89946
11
3.04039
21
-6.87696
0
LINE
8
BLACK
6
CONTINUOUS
10
3.04039
20
-6.87696
11
3.04414
21
-6.86946
0
LINE
8
BLACK
6
CONTINUOUS
10
3.04414
20
-6.86946
11
3.04789
21
-6.86571
0
LINE
8
BLACK
6
CONTINUOUS
10
3.04789
20
-6.86571
11
3.05539
21
-6.86196
0
LINE
8
BLACK
6
CONTINUOUS
10
3.05539
20
-6.86196
11
3.06664
21
-6.86196
0
LINE
8
BLACK
6
CONTINUOUS
10
3.06664
20
-6.86196
11
3.07414
21
-6.86571
0
LINE
8
BLACK
6
CONTINUOUS
10
3.07414
20
-6.86571
11
3.07788
21
-6.86946
0
LINE
8
BLACK
6
CONTINUOUS
10
3.07788
20
-6.86946
11
3.08163
21
-6.87696
0
LINE
8
BLACK
6
CONTINUOUS
10
3.08163
20
-6.87696
11
3.08163
21
-6.89946
0
LINE
8
BLACK
6
CONTINUOUS
10
3.08163
20
-6.89946
11
3.07788
21
-6.90696
0
LINE
8
BLACK
6
CONTINUOUS
10
3.07788
20
-6.90696
11
3.07414
21
-6.9107
0
LINE
8
BLACK
6
CONTINUOUS
10
3.07414
20
-6.9107
11
3.06664
21
-6.91445
0
LINE
8
BLACK
6
CONTINUOUS
10
3.06664
20
-6.91445
11
3.05539
21
-6.91445
0
LINE
8
BLACK
6
CONTINUOUS
10
3.12663
20
-6.91445
11
3.11913
21
-6.9107
0
LINE
8
BLACK
6
CONTINUOUS
10
3.11913
20
-6.9107
11
3.11538
21
-6.90321
0
LINE
8
BLACK
6
CONTINUOUS
10
3.11538
20
-6.90321
11
3.11538
21
-6.83571
0
LINE
8
BLACK
6
CONTINUOUS
10
3.18662
20
-6.9107
11
3.17912
21
-6.91445
0
LINE
8
BLACK
6
CONTINUOUS
10
3.17912
20
-6.91445
11
3.16412
21
-6.91445
0
LINE
8
BLACK
6
CONTINUOUS
10
3.16412
20
-6.91445
11
3.15662
21
-6.9107
0
LINE
8
BLACK
6
CONTINUOUS
10
3.15662
20
-6.9107
11
3.15288
21
-6.90321
0
LINE
8
BLACK
6
CONTINUOUS
10
3.15288
20
-6.90321
11
3.15288
21
-6.87321
0
LINE
8
BLACK
6
CONTINUOUS
10
3.15288
20
-6.87321
11
3.15662
21
-6.86571
0
LINE
8
BLACK
6
CONTINUOUS
10
3.15662
20
-6.86571
11
3.16412
21
-6.86196
0
LINE
8
BLACK
6
CONTINUOUS
10
3.16412
20
-6.86196
11
3.17912
21
-6.86196
0
LINE
8
BLACK
6
CONTINUOUS
10
3.17912
20
-6.86196
11
3.18662
21
-6.86571
0
LINE
8
BLACK
6
CONTINUOUS
10
3.18662
20
-6.86571
11
3.19037
21
-6.87321
0
LINE
8
BLACK
6
CONTINUOUS
10
3.19037
20
-6.87321
11
3.19037
21
-6.88071
0
LINE
8
BLACK
6
CONTINUOUS
10
3.19037
20
-6.88071
11
3.15288
21
-6.88821
0
LINE
8
BLACK
6
CONTINUOUS
10
3.22037
20
-6.9107
11
3.22787
21
-6.91445
0
LINE
8
BLACK
6
CONTINUOUS
10
3.22787
20
-6.91445
11
3.24286
21
-6.91445
0
LINE
8
BLACK
6
CONTINUOUS
10
3.24286
20
-6.91445
11
3.25036
21
-6.9107
0
LINE
8
BLACK
6
CONTINUOUS
10
3.25036
20
-6.9107
11
3.25411
21
-6.90321
0
LINE
8
BLACK
6
CONTINUOUS
10
3.25411
20
-6.90321
11
3.25411
21
-6.89946
0
LINE
8
BLACK
6
CONTINUOUS
10
3.25411
20
-6.89946
11
3.25036
21
-6.89196
0
LINE
8
BLACK
6
CONTINUOUS
10
3.25036
20
-6.89196
11
3.24286
21
-6.88821
0
LINE
8
BLACK
6
CONTINUOUS
10
3.24286
20
-6.88821
11
3.23162
21
-6.88821
0
LINE
8
BLACK
6
CONTINUOUS
10
3.23162
20
-6.88821
11
3.22412
21
-6.88446
0
LINE
8
BLACK
6
CONTINUOUS
10
3.22412
20
-6.88446
11
3.22037
21
-6.87696
0
LINE
8
BLACK
6
CONTINUOUS
10
3.22037
20
-6.87696
11
3.22037
21
-6.87321
0
LINE
8
BLACK
6
CONTINUOUS
10
3.22037
20
-6.87321
11
3.22412
21
-6.86571
0
LINE
8
BLACK
6
CONTINUOUS
10
3.22412
20
-6.86571
11
3.23162
21
-6.86196
0
LINE
8
BLACK
6
CONTINUOUS
10
3.23162
20
-6.86196
11
3.24286
21
-6.86196
0
LINE
8
BLACK
6
CONTINUOUS
10
3.24286
20
-6.86196
11
3.25036
21
-6.86571
0
LINE
8
BLACK
6
CONTINUOUS
10
3.34785
20
-6.88446
11
3.40784
21
-6.88446
0
LINE
8
BLACK
6
CONTINUOUS
10
3.37785
20
-6.91445
11
3.37785
21
-6.85446
0
LINE
8
BLACK
6
CONTINUOUS
10
3.50158
20
-6.84321
11
3.50533
21
-6.83946
0
LINE
8
BLACK
6
CONTINUOUS
10
3.50533
20
-6.83946
11
3.51283
21
-6.83571
0
LINE
8
BLACK
6
CONTINUOUS
10
3.51283
20
-6.83571
11
3.53158
21
-6.83571
0
LINE
8
BLACK
6
CONTINUOUS
10
3.53158
20
-6.83571
11
3.53908
21
-6.83946
0
LINE
8
BLACK
6
CONTINUOUS
10
3.53908
20
-6.83946
11
3.54283
21
-6.84321
0
LINE
8
BLACK
6
CONTINUOUS
10
3.54283
20
-6.84321
11
3.54658
21
-6.85071
0
LINE
8
BLACK
6
CONTINUOUS
10
3.54658
20
-6.85071
11
3.54658
21
-6.85821
0
LINE
8
BLACK
6
CONTINUOUS
10
3.54658
20
-6.85821
11
3.54283
21
-6.86946
0
LINE
8
BLACK
6
CONTINUOUS
10
3.54283
20
-6.86946
11
3.49783
21
-6.91445
0
LINE
8
BLACK
6
CONTINUOUS
10
3.49783
20
-6.91445
11
3.54658
21
-6.91445
0
LINE
8
BLACK
6
CONTINUOUS
10
3.63657
20
-6.9107
11
3.64406
21
-6.91445
0
LINE
8
BLACK
6
CONTINUOUS
10
3.64406
20
-6.91445
11
3.65906
21
-6.91445
0
LINE
8
BLACK
6
CONTINUOUS
10
3.65906
20
-6.91445
11
3.66656
21
-6.9107
0
LINE
8
BLACK
6
CONTINUOUS
10
3.66656
20
-6.9107
11
3.67031
21
-6.90321
0
LINE
8
BLACK
6
CONTINUOUS
10
3.67031
20
-6.90321
11
3.67031
21
-6.89946
0
LINE
8
BLACK
6
CONTINUOUS
10
3.67031
20
-6.89946
11
3.66656
21
-6.89196
0
LINE
8
BLACK
6
CONTINUOUS
10
3.66656
20
-6.89196
11
3.65906
21
-6.88821
0
LINE
8
BLACK
6
CONTINUOUS
10
3.65906
20
-6.88821
11
3.64781
21
-6.88821
0
LINE
8
BLACK
6
CONTINUOUS
10
3.64781
20
-6.88821
11
3.64031
21
-6.88446
0
LINE
8
BLACK
6
CONTINUOUS
10
3.64031
20
-6.88446
11
3.63657
21
-6.87696
0
LINE
8
BLACK
6
CONTINUOUS
10
3.63657
20
-6.87696
11
3.63657
21
-6.87321
0
LINE
8
BLACK
6
CONTINUOUS
10
3.63657
20
-6.87321
11
3.64031
21
-6.86571
0
LINE
8
BLACK
6
CONTINUOUS
10
3.64031
20
-6.86571
11
3.64781
21
-6.86196
0
LINE
8
BLACK
6
CONTINUOUS
10
3.64781
20
-6.86196
11
3.65906
21
-6.86196
0
LINE
8
BLACK
6
CONTINUOUS
10
3.65906
20
-6.86196
11
3.66656
21
-6.86571
0
LINE
8
BLACK
6
CONTINUOUS
10
3.71531
20
-6.91445
11
3.70781
21
-6.9107
0
LINE
8
BLACK
6
CONTINUOUS
10
3.70781
20
-6.9107
11
3.70406
21
-6.90321
0
LINE
8
BLACK
6
CONTINUOUS
10
3.70406
20
-6.90321
11
3.70406
21
-6.83571
0
LINE
8
BLACK
6
CONTINUOUS
10
3.75655
20
-6.91445
11
3.74905
21
-6.9107
0
LINE
8
BLACK
6
CONTINUOUS
10
3.74905
20
-6.9107
11
3.7453
21
-6.90696
0
LINE
8
BLACK
6
CONTINUOUS
10
3.7453
20
-6.90696
11
3.74155
21
-6.89946
0
LINE
8
BLACK
6
CONTINUOUS
10
3.74155
20
-6.89946
11
3.74155
21
-6.87696
0
LINE
8
BLACK
6
CONTINUOUS
10
3.74155
20
-6.87696
11
3.7453
21
-6.86946
0
LINE
8
BLACK
6
CONTINUOUS
10
3.7453
20
-6.86946
11
3.74905
21
-6.86571
0
LINE
8
BLACK
6
CONTINUOUS
10
3.74905
20
-6.86571
11
3.75655
21
-6.86196
0
LINE
8
BLACK
6
CONTINUOUS
10
3.75655
20
-6.86196
11
3.7678
21
-6.86196
0
LINE
8
BLACK
6
CONTINUOUS
10
3.7678
20
-6.86196
11
3.7753
21
-6.86571
0
LINE
8
BLACK
6
CONTINUOUS
10
3.7753
20
-6.86571
11
3.77905
21
-6.86946
0
LINE
8
BLACK
6
CONTINUOUS
10
3.77905
20
-6.86946
11
3.7828
21
-6.87696
0
LINE
8
BLACK
6
CONTINUOUS
10
3.7828
20
-6.87696
11
3.7828
21
-6.89946
0
LINE
8
BLACK
6
CONTINUOUS
10
3.7828
20
-6.89946
11
3.77905
21
-6.90696
0
LINE
8
BLACK
6
CONTINUOUS
10
3.77905
20
-6.90696
11
3.7753
21
-6.9107
0
LINE
8
BLACK
6
CONTINUOUS
10
3.7753
20
-6.9107
11
3.7678
21
-6.91445
0
LINE
8
BLACK
6
CONTINUOUS
10
3.7678
20
-6.91445
11
3.75655
21
-6.91445
0
LINE
8
BLACK
6
CONTINUOUS
10
3.80529
20
-6.86196
11
3.83529
21
-6.86196
0
LINE
8
BLACK
6
CONTINUOUS
10
3.81654
20
-6.83571
11
3.81654
21
-6.90321
0
LINE
8
BLACK
6
CONTINUOUS
10
3.81654
20
-6.90321
11
3.82029
21
-6.9107
0
LINE
8
BLACK
6
CONTINUOUS
10
3.82029
20
-6.9107
11
3.82779
21
-6.91445
0
LINE
8
BLACK
6
CONTINUOUS
10
3.82779
20
-6.91445
11
3.83529
21
-6.91445
0
LINE
8
BLACK
6
CONTINUOUS
10
3.85779
20
-6.9107
11
3.86529
21
-6.91445
0
LINE
8
BLACK
6
CONTINUOUS
10
3.86529
20
-6.91445
11
3.88028
21
-6.91445
0
LINE
8
BLACK
6
CONTINUOUS
10
3.88028
20
-6.91445
11
3.88778
21
-6.9107
0
LINE
8
BLACK
6
CONTINUOUS
10
3.88778
20
-6.9107
11
3.89153
21
-6.90321
0
LINE
8
BLACK
6
CONTINUOUS
10
3.89153
20
-6.90321
11
3.89153
21
-6.89946
0
LINE
8
BLACK
6
CONTINUOUS
10
3.89153
20
-6.89946
11
3.88778
21
-6.89196
0
LINE
8
BLACK
6
CONTINUOUS
10
3.88778
20
-6.89196
11
3.88028
21
-6.88821
0
LINE
8
BLACK
6
CONTINUOUS
10
3.88028
20
-6.88821
11
3.86904
21
-6.88821
0
LINE
8
BLACK
6
CONTINUOUS
10
3.86904
20
-6.88821
11
3.86154
21
-6.88446
0
LINE
8
BLACK
6
CONTINUOUS
10
3.86154
20
-6.88446
11
3.85779
21
-6.87696
0
LINE
8
BLACK
6
CONTINUOUS
10
3.85779
20
-6.87696
11
3.85779
21
-6.87321
0
LINE
8
BLACK
6
CONTINUOUS
10
3.85779
20
-6.87321
11
3.86154
21
-6.86571
0
LINE
8
BLACK
6
CONTINUOUS
10
3.86154
20
-6.86571
11
3.86904
21
-6.86196
0
LINE
8
BLACK
6
CONTINUOUS
10
3.86904
20
-6.86196
11
3.88028
21
-6.86196
0
LINE
8
BLACK
6
CONTINUOUS
10
3.88028
20
-6.86196
11
3.88778
21
-6.86571
0
LINE
8
BLACK
6
CONTINUOUS
10
3.91778
20
-6.94445
11
3.92153
21
-6.9407
0
LINE
8
BLACK
6
CONTINUOUS
10
3.92153
20
-6.9407
11
3.92903
21
-6.92945
0
LINE
8
BLACK
6
CONTINUOUS
10
3.92903
20
-6.92945
11
3.93278
21
-6.92195
0
LINE
8
BLACK
6
CONTINUOUS
10
3.93278
20
-6.92195
11
3.93653
21
-6.9107
0
LINE
8
BLACK
6
CONTINUOUS
10
3.93653
20
-6.9107
11
3.94028
21
-6.89196
0
LINE
8
BLACK
6
CONTINUOUS
10
3.94028
20
-6.89196
11
3.94028
21
-6.87696
0
LINE
8
BLACK
6
CONTINUOUS
10
3.94028
20
-6.87696
11
3.93653
21
-6.85821
0
LINE
8
BLACK
6
CONTINUOUS
10
3.93653
20
-6.85821
11
3.93278
21
-6.84696
0
LINE
8
BLACK
6
CONTINUOUS
10
3.93278
20
-6.84696
11
3.92903
21
-6.83946
0
LINE
8
BLACK
6
CONTINUOUS
10
3.92903
20
-6.83946
11
3.92153
21
-6.82822
0
LINE
8
BLACK
6
CONTINUOUS
10
3.92153
20
-6.82822
11
3.91778
21
-6.82447
0
LINE
8
BLACK
6
CONTINUOUS
10
1.32167
20
-6.96505
11
1.40041
21
-7.04379
0
LINE
8
BLACK
6
CONTINUOUS
10
1.40041
20
-6.96505
11
1.32167
21
-7.04379
0
CIRCLE
8
BLACK
10
1.36104
20
-7.00442
40
0.0393701
0
LINE
8
BLACK
6
CONTINUOUS
10
1.49558
20
-6.9617
11
1.54433
21
-6.9617
0
LINE
8
BLACK
6
CONTINUOUS
10
1.54433
20
-6.9617
11
1.51808
21
-6.99169
0
LINE
8
BLACK
6
CONTINUOUS
10
1.51808
20
-6.99169
11
1.52933
21
-6.99169
0
LINE
8
BLACK
6
CONTINUOUS
10
1.52933
20
-6.99169
11
1.53683
21
-6.99544
0
LINE
8
BLACK
6
CONTINUOUS
10
1.53683
20
-6.99544
11
1.54058
21
-6.99919
0
LINE
8
BLACK
6
CONTINUOUS
10
1.54058
20
-6.99919
11
1.54433
21
-7.00669
0
LINE
8
BLACK
6
CONTINUOUS
10
1.54433
20
-7.00669
11
1.54433
21
-7.02544
0
LINE
8
BLACK
6
CONTINUOUS
10
1.54433
20
-7.02544
11
1.54058
21
-7.03294
0
LINE
8
BLACK
6
CONTINUOUS
10
1.54058
20
-7.03294
11
1.53683
21
-7.03669
0
LINE
8
BLACK
6
CONTINUOUS
10
1.53683
20
-7.03669
11
1.52933
21
-7.04044
0
LINE
8
BLACK
6
CONTINUOUS
10
1.52933
20
-7.04044
11
1.50683
21
-7.04044
0
LINE
8
BLACK
6
CONTINUOUS
10
1.50683
20
-7.04044
11
1.49933
21
-7.03669
0
LINE
8
BLACK
6
CONTINUOUS
10
1.49933
20
-7.03669
11
1.49558
21
-7.03294
0
LINE
8
BLACK
6
CONTINUOUS
10
1.57807
20
-7.03294
11
1.58182
21
-7.03669
0
LINE
8
BLACK
6
CONTINUOUS
10
1.58182
20
-7.03669
11
1.57807
21
-7.04044
0
LINE
8
BLACK
6
CONTINUOUS
10
1.57807
20
-7.04044
11
1.57432
21
-7.03669
0
LINE
8
BLACK
6
CONTINUOUS
10
1.57432
20
-7.03669
11
1.57807
21
-7.03294
0
LINE
8
BLACK
6
CONTINUOUS
10
1.57807
20
-7.03294
11
1.57807
21
-7.04044
0
LINE
8
BLACK
6
CONTINUOUS
10
1.63057
20
-6.9617
11
1.63806
21
-6.9617
0
LINE
8
BLACK
6
CONTINUOUS
10
1.63806
20
-6.9617
11
1.64556
21
-6.96545
0
LINE
8
BLACK
6
CONTINUOUS
10
1.64556
20
-6.96545
11
1.64931
21
-6.9692
0
LINE
8
BLACK
6
CONTINUOUS
10
1.64931
20
-6.9692
11
1.65306
21
-6.9767
0
LINE
8
BLACK
6
CONTINUOUS
10
1.65306
20
-6.9767
11
1.65681
21
-6.99169
0
LINE
8
BLACK
6
CONTINUOUS
10
1.65681
20
-6.99169
11
1.65681
21
-7.01044
0
LINE
8
BLACK
6
CONTINUOUS
10
1.65681
20
-7.01044
11
1.65306
21
-7.02544
0
LINE
8
BLACK
6
CONTINUOUS
10
1.65306
20
-7.02544
11
1.64931
21
-7.03294
0
LINE
8
BLACK
6
CONTINUOUS
10
1.64931
20
-7.03294
11
1.64556
21
-7.03669
0
LINE
8
BLACK
6
CONTINUOUS
10
1.64556
20
-7.03669
11
1.63806
21
-7.04044
0
LINE
8
BLACK
6
CONTINUOUS
10
1.63806
20
-7.04044
11
1.63057
21
-7.04044
0
LINE
8
BLACK
6
CONTINUOUS
10
1.63057
20
-7.04044
11
1.62307
21
-7.03669
0
LINE
8
BLACK
6
CONTINUOUS
10
1.62307
20
-7.03669
11
1.61932
21
-7.03294
0
LINE
8
BLACK
6
CONTINUOUS
10
1.61932
20
-7.03294
11
1.61557
21
-7.02544
0
LINE
8
BLACK
6
CONTINUOUS
10
1.61557
20
-7.02544
11
1.61182
21
-7.01044
0
LINE
8
BLACK
6
CONTINUOUS
10
1.61182
20
-7.01044
11
1.61182
21
-6.99169
0
LINE
8
BLACK
6
CONTINUOUS
10
1.61182
20
-6.99169
11
1.61557
21
-6.9767
0
LINE
8
BLACK
6
CONTINUOUS
10
1.61557
20
-6.9767
11
1.61932
21
-6.9692
0
LINE
8
BLACK
6
CONTINUOUS
10
1.61932
20
-6.9692
11
1.62307
21
-6.96545
0
LINE
8
BLACK
6
CONTINUOUS
10
1.62307
20
-6.96545
11
1.63057
21
-6.9617
0
LINE
8
BLACK
6
CONTINUOUS
10
1.70556
20
-6.9617
11
1.71306
21
-6.9617
0
LINE
8
BLACK
6
CONTINUOUS
10
1.71306
20
-6.9617
11
1.72055
21
-6.96545
0
LINE
8
BLACK
6
CONTINUOUS
10
1.72055
20
-6.96545
11
1.7243
21
-6.9692
0
LINE
8
BLACK
6
CONTINUOUS
10
1.7243
20
-6.9692
11
1.72805
21
-6.9767
0
LINE
8
BLACK
6
CONTINUOUS
10
1.72805
20
-6.9767
11
1.7318
21
-6.99169
0
LINE
8
BLACK
6
CONTINUOUS
10
1.7318
20
-6.99169
11
1.7318
21
-7.01044
0
LINE
8
BLACK
6
CONTINUOUS
10
1.7318
20
-7.01044
11
1.72805
21
-7.02544
0
LINE
8
BLACK
6
CONTINUOUS
10
1.72805
20
-7.02544
11
1.7243
21
-7.03294
0
LINE
8
BLACK
6
CONTINUOUS
10
1.7243
20
-7.03294
11
1.72055
21
-7.03669
0
LINE
8
BLACK
6
CONTINUOUS
10
1.72055
20
-7.03669
11
1.71306
21
-7.04044
0
LINE
8
BLACK
6
CONTINUOUS
10
1.71306
20
-7.04044
11
1.70556
21
-7.04044
0
LINE
8
BLACK
6
CONTINUOUS
10
1.70556
20
-7.04044
11
1.69806
21
-7.03669
0
LINE
8
BLACK
6
CONTINUOUS
10
1.69806
20
-7.03669
11
1.69431
21
-7.03294
0
LINE
8
BLACK
6
CONTINUOUS
10
1.69431
20
-7.03294
11
1.69056
21
-7.02544
0
LINE
8
BLACK
6
CONTINUOUS
10
1.69056
20
-7.02544
11
1.68681
21
-7.01044
0
LINE
8
BLACK
6
CONTINUOUS
10
1.68681
20
-7.01044
11
1.68681
21
-6.99169
0
LINE
8
BLACK
6
CONTINUOUS
10
1.68681
20
-6.99169
11
1.69056
21
-6.9767
0
LINE
8
BLACK
6
CONTINUOUS
10
1.69056
20
-6.9767
11
1.69431
21
-6.9692
0
LINE
8
BLACK
6
CONTINUOUS
10
1.69431
20
-6.9692
11
1.69806
21
-6.96545
0
LINE
8
BLACK
6
CONTINUOUS
10
1.69806
20
-6.96545
11
1.70556
21
-6.9617
0
LINE
8
BLACK
6
CONTINUOUS
10
1.78055
20
-6.9617
11
1.78805
21
-6.9617
0
LINE
8
BLACK
6
CONTINUOUS
10
1.78805
20
-6.9617
11
1.79554
21
-6.96545
0
LINE
8
BLACK
6
CONTINUOUS
10
1.79554
20
-6.96545
11
1.79929
21
-6.9692
0
LINE
8
BLACK
6
CONTINUOUS
10
1.79929
20
-6.9692
11
1.80304
21
-6.9767
0
LINE
8
BLACK
6
CONTINUOUS
10
1.80304
20
-6.9767
11
1.80679
21
-6.99169
0
LINE
8
BLACK
6
CONTINUOUS
10
1.80679
20
-6.99169
11
1.80679
21
-7.01044
0
LINE
8
BLACK
6
CONTINUOUS
10
1.80679
20
-7.01044
11
1.80304
21
-7.02544
0
LINE
8
BLACK
6
CONTINUOUS
10
1.80304
20
-7.02544
11
1.79929
21
-7.03294
0
LINE
8
BLACK
6
CONTINUOUS
10
1.79929
20
-7.03294
11
1.79554
21
-7.03669
0
LINE
8
BLACK
6
CONTINUOUS
10
1.79554
20
-7.03669
11
1.78805
21
-7.04044
0
LINE
8
BLACK
6
CONTINUOUS
10
1.78805
20
-7.04044
11
1.78055
21
-7.04044
0
LINE
8
BLACK
6
CONTINUOUS
10
1.78055
20
-7.04044
11
1.77305
21
-7.03669
0
LINE
8
BLACK
6
CONTINUOUS
10
1.77305
20
-7.03669
11
1.7693
21
-7.03294
0
LINE
8
BLACK
6
CONTINUOUS
10
1.7693
20
-7.03294
11
1.76555
21
-7.02544
0
LINE
8
BLACK
6
CONTINUOUS
10
1.76555
20
-7.02544
11
1.7618
21
-7.01044
0
LINE
8
BLACK
6
CONTINUOUS
10
1.7618
20
-7.01044
11
1.7618
21
-6.99169
0
LINE
8
BLACK
6
CONTINUOUS
10
1.7618
20
-6.99169
11
1.76555
21
-6.9767
0
LINE
8
BLACK
6
CONTINUOUS
10
1.76555
20
-6.9767
11
1.7693
21
-6.9692
0
LINE
8
BLACK
6
CONTINUOUS
10
1.7693
20
-6.9692
11
1.77305
21
-6.96545
0
LINE
8
BLACK
6
CONTINUOUS
10
1.77305
20
-6.96545
11
1.78055
21
-6.9617
0
LINE
8
BLACK
6
CONTINUOUS
10
1.84054
20
-7.04044
11
1.84054
21
-6.98795
0
LINE
8
BLACK
6
CONTINUOUS
10
1.84054
20
-6.99544
11
1.84429
21
-6.99169
0
LINE
8
BLACK
6
CONTINUOUS
10
1.84429
20
-6.99169
11
1.85179
21
-6.98795
0
LINE
8
BLACK
6
CONTINUOUS
10
1.85179
20
-6.98795
11
1.86304
21
-6.98795
0
LINE
8
BLACK
6
CONTINUOUS
10
1.86304
20
-6.98795
11
1.87054
21
-6.99169
0
LINE
8
BLACK
6
CONTINUOUS
10
1.87054
20
-6.99169
11
1.87429
21
-6.99919
0
LINE
8
BLACK
6
CONTINUOUS
10
1.87429
20
-6.99919
11
1.87429
21
-7.04044
0
LINE
8
BLACK
6
CONTINUOUS
10
1.87429
20
-6.99919
11
1.87803
21
-6.99169
0
LINE
8
BLACK
6
CONTINUOUS
10
1.87803
20
-6.99169
11
1.88553
21
-6.98795
0
LINE
8
BLACK
6
CONTINUOUS
10
1.88553
20
-6.98795
11
1.89678
21
-6.98795
0
LINE
8
BLACK
6
CONTINUOUS
10
1.89678
20
-6.98795
11
1.90428
21
-6.99169
0
LINE
8
BLACK
6
CONTINUOUS
10
1.90428
20
-6.99169
11
1.90803
21
-6.99919
0
LINE
8
BLACK
6
CONTINUOUS
10
1.90803
20
-6.99919
11
1.90803
21
-7.04044
0
LINE
8
BLACK
6
CONTINUOUS
10
1.94553
20
-7.04044
11
1.94553
21
-6.98795
0
LINE
8
BLACK
6
CONTINUOUS
10
1.94553
20
-6.99544
11
1.94928
21
-6.99169
0
LINE
8
BLACK
6
CONTINUOUS
10
1.94928
20
-6.99169
11
1.95677
21
-6.98795
0
LINE
8
BLACK
6
CONTINUOUS
10
1.95677
20
-6.98795
11
1.96802
21
-6.98795
0
LINE
8
BLACK
6
CONTINUOUS
10
1.96802
20
-6.98795
11
1.97552
21
-6.99169
0
LINE
8
BLACK
6
CONTINUOUS
10
1.97552
20
-6.99169
11
1.97927
21
-6.99919
0
LINE
8
BLACK
6
CONTINUOUS
10
1.97927
20
-6.99919
11
1.97927
21
-7.04044
0
LINE
8
BLACK
6
CONTINUOUS
10
1.97927
20
-6.99919
11
1.98302
21
-6.99169
0
LINE
8
BLACK
6
CONTINUOUS
10
1.98302
20
-6.99169
11
1.99052
21
-6.98795
0
LINE
8
BLACK
6
CONTINUOUS
10
1.99052
20
-6.98795
11
2.00177
21
-6.98795
0
LINE
8
BLACK
6
CONTINUOUS
10
2.00177
20
-6.98795
11
2.00927
21
-6.99169
0
LINE
8
BLACK
6
CONTINUOUS
10
2.00927
20
-6.99169
11
2.01302
21
-6.99919
0
LINE
8
BLACK
6
CONTINUOUS
10
2.01302
20
-6.99919
11
2.01302
21
-7.04044
0
LINE
8
BLACK
6
CONTINUOUS
10
2.16675
20
-6.95795
11
2.09926
21
-7.05919
0
LINE
8
BLACK
6
CONTINUOUS
10
2.26799
20
-6.9617
11
2.27548
21
-6.9617
0
LINE
8
BLACK
6
CONTINUOUS
10
2.27548
20
-6.9617
11
2.28298
21
-6.96545
0
LINE
8
BLACK
6
CONTINUOUS
10
2.28298
20
-6.96545
11
2.28673
21
-6.9692
0
LINE
8
BLACK
6
CONTINUOUS
10
2.28673
20
-6.9692
11
2.29048
21
-6.9767
0
LINE
8
BLACK
6
CONTINUOUS
10
2.29048
20
-6.9767
11
2.29423
21
-6.99169
0
LINE
8
BLACK
6
CONTINUOUS
10
2.29423
20
-6.99169
11
2.29423
21
-7.01044
0
LINE
8
BLACK
6
CONTINUOUS
10
2.29423
20
-7.01044
11
2.29048
21
-7.02544
0
LINE
8
BLACK
6
CONTINUOUS
10
2.29048
20
-7.02544
11
2.28673
21
-7.03294
0
LINE
8
BLACK
6
CONTINUOUS
10
2.28673
20
-7.03294
11
2.28298
21
-7.03669
0
LINE
8
BLACK
6
CONTINUOUS
10
2.28298
20
-7.03669
11
2.27548
21
-7.04044
0
LINE
8
BLACK
6
CONTINUOUS
10
2.27548
20
-7.04044
11
2.26799
21
-7.04044
0
LINE
8
BLACK
6
CONTINUOUS
10
2.26799
20
-7.04044
11
2.26049
21
-7.03669
0
LINE
8
BLACK
6
CONTINUOUS
10
2.26049
20
-7.03669
11
2.25674
21
-7.03294
0
LINE
8
BLACK
6
CONTINUOUS
10
2.25674
20
-7.03294
11
2.25299
21
-7.02544
0
LINE
8
BLACK
6
CONTINUOUS
10
2.25299
20
-7.02544
11
2.24924
21
-7.01044
0
LINE
8
BLACK
6
CONTINUOUS
10
2.24924
20
-7.01044
11
2.24924
21
-6.99169
0
LINE
8
BLACK
6
CONTINUOUS
10
2.24924
20
-6.99169
11
2.25299
21
-6.9767
0
LINE
8
BLACK
6
CONTINUOUS
10
2.25299
20
-6.9767
11
2.25674
21
-6.9692
0
LINE
8
BLACK
6
CONTINUOUS
10
2.25674
20
-6.9692
11
2.26049
21
-6.96545
0
LINE
8
BLACK
6
CONTINUOUS
10
2.26049
20
-6.96545
11
2.26799
21
-6.9617
0
LINE
8
BLACK
6
CONTINUOUS
10
2.32798
20
-7.03294
11
2.33173
21
-7.03669
0
LINE
8
BLACK
6
CONTINUOUS
10
2.33173
20
-7.03669
11
2.32798
21
-7.04044
0
LINE
8
BLACK
6
CONTINUOUS
10
2.32798
20
-7.04044
11
2.32423
21
-7.03669
0
LINE
8
BLACK
6
CONTINUOUS
10
2.32423
20
-7.03669
11
2.32798
21
-7.03294
0
LINE
8
BLACK
6
CONTINUOUS
10
2.32798
20
-7.03294
11
2.32798
21
-7.04044
0
LINE
8
BLACK
6
CONTINUOUS
10
2.40672
20
-7.04044
11
2.36172
21
-7.04044
0
LINE
8
BLACK
6
CONTINUOUS
10
2.38422
20
-7.04044
11
2.38422
21
-6.9617
0
LINE
8
BLACK
6
CONTINUOUS
10
2.38422
20
-6.9617
11
2.37672
21
-6.97295
0
LINE
8
BLACK
6
CONTINUOUS
10
2.37672
20
-6.97295
11
2.36922
21
-6.98045
0
LINE
8
BLACK
6
CONTINUOUS
10
2.36922
20
-6.98045
11
2.36172
21
-6.9842
0
LINE
8
BLACK
6
CONTINUOUS
10
2.48171
20
-7.04044
11
2.43671
21
-7.04044
0
LINE
8
BLACK
6
CONTINUOUS
10
2.45921
20
-7.04044
11
2.45921
21
-6.9617
0
LINE
8
BLACK
6
CONTINUOUS
10
2.45921
20
-6.9617
11
2.45171
21
-6.97295
0
LINE
8
BLACK
6
CONTINUOUS
10
2.45171
20
-6.97295
11
2.44421
21
-6.98045
0
LINE
8
BLACK
6
CONTINUOUS
10
2.44421
20
-6.98045
11
2.43671
21
-6.9842
0
LINE
8
BLACK
6
CONTINUOUS
10
2.5267
20
-6.99544
11
2.5192
21
-6.99169
0
LINE
8
BLACK
6
CONTINUOUS
10
2.5192
20
-6.99169
11
2.51545
21
-6.98795
0
LINE
8
BLACK
6
CONTINUOUS
10
2.51545
20
-6.98795
11
2.51171
21
-6.98045
0
LINE
8
BLACK
6
CONTINUOUS
10
2.51171
20
-6.98045
11
2.51171
21
-6.9767
0
LINE
8
BLACK
6
CONTINUOUS
10
2.51171
20
-6.9767
11
2.51545
21
-6.9692
0
LINE
8
BLACK
6
CONTINUOUS
10
2.51545
20
-6.9692
11
2.5192
21
-6.96545
0
LINE
8
BLACK
6
CONTINUOUS
10
2.5192
20
-6.96545
11
2.5267
21
-6.9617
0
LINE
8
BLACK
6
CONTINUOUS
10
2.5267
20
-6.9617
11
2.5417
21
-6.9617
0
LINE
8
BLACK
6
CONTINUOUS
10
2.5417
20
-6.9617
11
2.5492
21
-6.96545
0
LINE
8
BLACK
6
CONTINUOUS
10
2.5492
20
-6.96545
11
2.55295
21
-6.9692
0
LINE
8
BLACK
6
CONTINUOUS
10
2.55295
20
-6.9692
11
2.5567
21
-6.9767
0
LINE
8
BLACK
6
CONTINUOUS
10
2.5567
20
-6.9767
11
2.5567
21
-6.98045
0
LINE
8
BLACK
6
CONTINUOUS
10
2.5567
20
-6.98045
11
2.55295
21
-6.98795
0
LINE
8
BLACK
6
CONTINUOUS
10
2.55295
20
-6.98795
11
2.5492
21
-6.99169
0
LINE
8
BLACK
6
CONTINUOUS
10
2.5492
20
-6.99169
11
2.5417
21
-6.99544
0
LINE
8
BLACK
6
CONTINUOUS
10
2.5417
20
-6.99544
11
2.5267
21
-6.99544
0
LINE
8
BLACK
6
CONTINUOUS
10
2.5267
20
-6.99544
11
2.5192
21
-6.99919
0
LINE
8
BLACK
6
CONTINUOUS
10
2.5192
20
-6.99919
11
2.51545
21
-7.00294
0
LINE
8
BLACK
6
CONTINUOUS
10
2.51545
20
-7.00294
11
2.51171
21
-7.01044
0
LINE
8
BLACK
6
CONTINUOUS
10
2.51171
20
-7.01044
11
2.51171
21
-7.02544
0
LINE
8
BLACK
6
CONTINUOUS
10
2.51171
20
-7.02544
11
2.51545
21
-7.03294
0
LINE
8
BLACK
6
CONTINUOUS
10
2.51545
20
-7.03294
11
2.5192
21
-7.03669
0
LINE
8
BLACK
6
CONTINUOUS
10
2.5192
20
-7.03669
11
2.5267
21
-7.04044
0
LINE
8
BLACK
6
CONTINUOUS
10
2.5267
20
-7.04044
11
2.5417
21
-7.04044
0
LINE
8
BLACK
6
CONTINUOUS
10
2.5417
20
-7.04044
11
2.5492
21
-7.03669
0
LINE
8
BLACK
6
CONTINUOUS
10
2.5492
20
-7.03669
11
2.55295
21
-7.03294
0
LINE
8
BLACK
6
CONTINUOUS
10
2.55295
20
-7.03294
11
2.5567
21
-7.02544
0
LINE
8
BLACK
6
CONTINUOUS
10
2.5567
20
-7.02544
11
2.5567
21
-7.01044
0
LINE
8
BLACK
6
CONTINUOUS
10
2.5567
20
-7.01044
11
2.55295
21
-7.00294
0
LINE
8
BLACK
6
CONTINUOUS
10
2.55295
20
-7.00294
11
2.5492
21
-6.99919
0
LINE
8
BLACK
6
CONTINUOUS
10
2.5492
20
-6.99919
11
2.5417
21
-6.99544
0
LINE
8
BLACK
6
CONTINUOUS
10
2.63169
20
-7.04044
11
2.5867
21
-7.04044
0
LINE
8
BLACK
6
CONTINUOUS
10
2.60919
20
-7.04044
11
2.60919
21
-6.9617
0
LINE
8
BLACK
6
CONTINUOUS
10
2.60919
20
-6.9617
11
2.60169
21
-6.97295
0
LINE
8
BLACK
6
CONTINUOUS
10
2.60169
20
-6.97295
11
2.5942
21
-6.98045
0
LINE
8
BLACK
6
CONTINUOUS
10
2.5942
20
-6.98045
11
2.5867
21
-6.9842
0
LINE
8
BLACK
6
CONTINUOUS
10
2.66169
20
-6.9617
11
2.66169
21
-6.9767
0
LINE
8
BLACK
6
CONTINUOUS
10
2.69168
20
-6.9617
11
2.69168
21
-6.9767
0
LINE
8
BLACK
6
CONTINUOUS
10
2.80792
20
-7.07043
11
2.80417
21
-7.06669
0
LINE
8
BLACK
6
CONTINUOUS
10
2.80417
20
-7.06669
11
2.79667
21
-7.05544
0
LINE
8
BLACK
6
CONTINUOUS
10
2.79667
20
-7.05544
11
2.79292
21
-7.04794
0
LINE
8
BLACK
6
CONTINUOUS
10
2.79292
20
-7.04794
11
2.78917
21
-7.03669
0
LINE
8
BLACK
6
CONTINUOUS
10
2.78917
20
-7.03669
11
2.78542
21
-7.01794
0
LINE
8
BLACK
6
CONTINUOUS
10
2.78542
20
-7.01794
11
2.78542
21
-7.00294
0
LINE
8
BLACK
6
CONTINUOUS
10
2.78542
20
-7.00294
11
2.78917
21
-6.9842
0
LINE
8
BLACK
6
CONTINUOUS
10
2.78917
20
-6.9842
11
2.79292
21
-6.97295
0
LINE
8
BLACK
6
CONTINUOUS
10
2.79292
20
-6.97295
11
2.79667
21
-6.96545
0
LINE
8
BLACK
6
CONTINUOUS
10
2.79667
20
-6.96545
11
2.80417
21
-6.9542
0
LINE
8
BLACK
6
CONTINUOUS
10
2.80417
20
-6.9542
11
2.80792
21
-6.95045
0
LINE
8
BLACK
6
CONTINUOUS
10
2.83042
20
-6.9617
11
2.88291
21
-6.9617
0
LINE
8
BLACK
6
CONTINUOUS
10
2.88291
20
-6.9617
11
2.84916
21
-7.04044
0
LINE
8
BLACK
6
CONTINUOUS
10
2.90916
20
-6.9692
11
2.91291
21
-6.96545
0
LINE
8
BLACK
6
CONTINUOUS
10
2.91291
20
-6.96545
11
2.9204
21
-6.9617
0
LINE
8
BLACK
6
CONTINUOUS
10
2.9204
20
-6.9617
11
2.93915
21
-6.9617
0
LINE
8
BLACK
6
CONTINUOUS
10
2.93915
20
-6.9617
11
2.94665
21
-6.96545
0
LINE
8
BLACK
6
CONTINUOUS
10
2.94665
20
-6.96545
11
2.9504
21
-6.9692
0
LINE
8
BLACK
6
CONTINUOUS
10
2.9504
20
-6.9692
11
2.95415
21
-6.9767
0
LINE
8
BLACK
6
CONTINUOUS
10
2.95415
20
-6.9767
11
2.95415
21
-6.9842
0
LINE
8
BLACK
6
CONTINUOUS
10
2.95415
20
-6.9842
11
2.9504
21
-6.99544
0
LINE
8
BLACK
6
CONTINUOUS
10
2.9504
20
-6.99544
11
2.90541
21
-7.04044
0
LINE
8
BLACK
6
CONTINUOUS
10
2.90541
20
-7.04044
11
2.95415
21
-7.04044
0
LINE
8
BLACK
6
CONTINUOUS
10
3.04789
20
-7.04044
11
3.04789
21
-6.9617
0
LINE
8
BLACK
6
CONTINUOUS
10
3.08163
20
-7.04044
11
3.08163
21
-6.99919
0
LINE
8
BLACK
6
CONTINUOUS
10
3.08163
20
-6.99919
11
3.07788
21
-6.99169
0
LINE
8
BLACK
6
CONTINUOUS
10
3.07788
20
-6.99169
11
3.07039
21
-6.98795
0
LINE
8
BLACK
6
CONTINUOUS
10
3.07039
20
-6.98795
11
3.05914
21
-6.98795
0
LINE
8
BLACK
6
CONTINUOUS
10
3.05914
20
-6.98795
11
3.05164
21
-6.99169
0
LINE
8
BLACK
6
CONTINUOUS
10
3.05164
20
-6.99169
11
3.04789
21
-6.99544
0
LINE
8
BLACK
6
CONTINUOUS
10
3.13038
20
-7.04044
11
3.12288
21
-7.03669
0
LINE
8
BLACK
6
CONTINUOUS
10
3.12288
20
-7.03669
11
3.11913
21
-7.03294
0
LINE
8
BLACK
6
CONTINUOUS
10
3.11913
20
-7.03294
11
3.11538
21
-7.02544
0
LINE
8
BLACK
6
CONTINUOUS
10
3.11538
20
-7.02544
11
3.11538
21
-7.00294
0
LINE
8
BLACK
6
CONTINUOUS
10
3.11538
20
-7.00294
11
3.11913
21
-6.99544
0
LINE
8
BLACK
6
CONTINUOUS
10
3.11913
20
-6.99544
11
3.12288
21
-6.99169
0
LINE
8
BLACK
6
CONTINUOUS
10
3.12288
20
-6.99169
11
3.13038
21
-6.98795
0
LINE
8
BLACK
6
CONTINUOUS
10
3.13038
20
-6.98795
11
3.14163
21
-6.98795
0
LINE
8
BLACK
6
CONTINUOUS
10
3.14163
20
-6.98795
11
3.14913
21
-6.99169
0
LINE
8
BLACK
6
CONTINUOUS
10
3.14913
20
-6.99169
11
3.15288
21
-6.99544
0
LINE
8
BLACK
6
CONTINUOUS
10
3.15288
20
-6.99544
11
3.15662
21
-7.00294
0
LINE
8
BLACK
6
CONTINUOUS
10
3.15662
20
-7.00294
11
3.15662
21
-7.02544
0
LINE
8
BLACK
6
CONTINUOUS
10
3.15662
20
-7.02544
11
3.15288
21
-7.03294
0
LINE
8
BLACK
6
CONTINUOUS
10
3.15288
20
-7.03294
11
3.14913
21
-7.03669
0
LINE
8
BLACK
6
CONTINUOUS
10
3.14913
20
-7.03669
11
3.14163
21
-7.04044
0
LINE
8
BLACK
6
CONTINUOUS
10
3.14163
20
-7.04044
11
3.13038
21
-7.04044
0
LINE
8
BLACK
6
CONTINUOUS
10
3.20162
20
-7.04044
11
3.19412
21
-7.03669
0
LINE
8
BLACK
6
CONTINUOUS
10
3.19412
20
-7.03669
11
3.19037
21
-7.02919
0
LINE
8
BLACK
6
CONTINUOUS
10
3.19037
20
-7.02919
11
3.19037
21
-6.9617
0
LINE
8
BLACK
6
CONTINUOUS
10
3.26161
20
-7.03669
11
3.25411
21
-7.04044
0
LINE
8
BLACK
6
CONTINUOUS
10
3.25411
20
-7.04044
11
3.23911
21
-7.04044
0
LINE
8
BLACK
6
CONTINUOUS
10
3.23911
20
-7.04044
11
3.23162
21
-7.03669
0
LINE
8
BLACK
6
CONTINUOUS
10
3.23162
20
-7.03669
11
3.22787
21
-7.02919
0
LINE
8
BLACK
6
CONTINUOUS
10
3.22787
20
-7.02919
11
3.22787
21
-6.99919
0
LINE
8
BLACK
6
CONTINUOUS
10
3.22787
20
-6.99919
11
3.23162
21
-6.99169
0
LINE
8
BLACK
6
CONTINUOUS
10
3.23162
20
-6.99169
11
3.23911
21
-6.98795
0
LINE
8
BLACK
6
CONTINUOUS
10
3.23911
20
-6.98795
11
3.25411
21
-6.98795
0
LINE
8
BLACK
6
CONTINUOUS
10
3.25411
20
-6.98795
11
3.26161
21
-6.99169
0
LINE
8
BLACK
6
CONTINUOUS
10
3.26161
20
-6.99169
11
3.26536
21
-6.99919
0
LINE
8
BLACK
6
CONTINUOUS
10
3.26536
20
-6.99919
11
3.26536
21
-7.00669
0
LINE
8
BLACK
6
CONTINUOUS
10
3.26536
20
-7.00669
11
3.22787
21
-7.01419
0
LINE
8
BLACK
6
CONTINUOUS
10
3.29536
20
-7.03669
11
3.30286
21
-7.04044
0
LINE
8
BLACK
6
CONTINUOUS
10
3.30286
20
-7.04044
11
3.31785
21
-7.04044
0
LINE
8
BLACK
6
CONTINUOUS
10
3.31785
20
-7.04044
11
3.32535
21
-7.03669
0
LINE
8
BLACK
6
CONTINUOUS
10
3.32535
20
-7.03669
11
3.3291
21
-7.02919
0
LINE
8
BLACK
6
CONTINUOUS
10
3.3291
20
-7.02919
11
3.3291
21
-7.02544
0
LINE
8
BLACK
6
CONTINUOUS
10
3.3291
20
-7.02544
11
3.32535
21
-7.01794
0
LINE
8
BLACK
6
CONTINUOUS
10
3.32535
20
-7.01794
11
3.31785
21
-7.01419
0
LINE
8
BLACK
6
CONTINUOUS
10
3.31785
20
-7.01419
11
3.30661
21
-7.01419
0
LINE
8
BLACK
6
CONTINUOUS
10
3.30661
20
-7.01419
11
3.29911
21
-7.01044
0
LINE
8
BLACK
6
CONTINUOUS
10
3.29911
20
-7.01044
11
3.29536
21
-7.00294
0
LINE
8
BLACK
6
CONTINUOUS
10
3.29536
20
-7.00294
11
3.29536
21
-6.99919
0
LINE
8
BLACK
6
CONTINUOUS
10
3.29536
20
-6.99919
11
3.29911
21
-6.99169
0
LINE
8
BLACK
6
CONTINUOUS
10
3.29911
20
-6.99169
11
3.30661
21
-6.98795
0
LINE
8
BLACK
6
CONTINUOUS
10
3.30661
20
-6.98795
11
3.31785
21
-6.98795
0
LINE
8
BLACK
6
CONTINUOUS
10
3.31785
20
-6.98795
11
3.32535
21
-6.99169
0
LINE
8
BLACK
6
CONTINUOUS
10
3.35535
20
-7.07043
11
3.3591
21
-7.06669
0
LINE
8
BLACK
6
CONTINUOUS
10
3.3591
20
-7.06669
11
3.3666
21
-7.05544
0
LINE
8
BLACK
6
CONTINUOUS
10
3.3666
20
-7.05544
11
3.37035
21
-7.04794
0
LINE
8
BLACK
6
CONTINUOUS
10
3.37035
20
-7.04794
11
3.3741
21
-7.03669
0
LINE
8
BLACK
6
CONTINUOUS
10
3.3741
20
-7.03669
11
3.37785
21
-7.01794
0
LINE
8
BLACK
6
CONTINUOUS
10
3.37785
20
-7.01794
11
3.37785
21
-7.00294
0
LINE
8
BLACK
6
CONTINUOUS
10
3.37785
20
-7.00294
11
3.3741
21
-6.9842
0
LINE
8
BLACK
6
CONTINUOUS
10
3.3741
20
-6.9842
11
3.37035
21
-6.97295
0
LINE
8
BLACK
6
CONTINUOUS
10
3.37035
20
-6.97295
11
3.3666
21
-6.96545
0
LINE
8
BLACK
6
CONTINUOUS
10
3.3666
20
-6.96545
11
3.3591
21
-6.9542
0
LINE
8
BLACK
6
CONTINUOUS
10
3.3591
20
-6.9542
11
3.35535
21
-6.95045
  0
ENDSEC
  0
EOF
