%TF.GenerationSoftware,KiCad,Pcbnew,7.0.7-7.0.7~ubuntu22.04.1*%
%TF.CreationDate,2023-09-08T11:00:04+02:00*%
%TF.ProjectId,abomination,61626f6d-696e-4617-9469-6f6e2e6b6963,rev?*%
%TF.SameCoordinates,Original*%
%TF.FileFunction,Legend,Bot*%
%TF.FilePolarity,Positive*%
%FSLAX46Y46*%
G04 Gerber Fmt 4.6, Leading zero omitted, Abs format (unit mm)*
G04 Created by KiCad (PCBNEW 7.0.7-7.0.7~ubuntu22.04.1) date 2023-09-08 11:00:04*
%MOMM*%
%LPD*%
G01*
G04 APERTURE LIST*
%ADD10C,0.150000*%
%ADD11C,0.120000*%
G04 APERTURE END LIST*
D10*
X153515318Y-74039077D02*
X152515318Y-74039077D01*
X152515318Y-74039077D02*
X153229603Y-74372410D01*
X153229603Y-74372410D02*
X152515318Y-74705743D01*
X152515318Y-74705743D02*
X153515318Y-74705743D01*
X153420079Y-75753362D02*
X153467699Y-75705743D01*
X153467699Y-75705743D02*
X153515318Y-75562886D01*
X153515318Y-75562886D02*
X153515318Y-75467648D01*
X153515318Y-75467648D02*
X153467699Y-75324791D01*
X153467699Y-75324791D02*
X153372460Y-75229553D01*
X153372460Y-75229553D02*
X153277222Y-75181934D01*
X153277222Y-75181934D02*
X153086746Y-75134315D01*
X153086746Y-75134315D02*
X152943889Y-75134315D01*
X152943889Y-75134315D02*
X152753413Y-75181934D01*
X152753413Y-75181934D02*
X152658175Y-75229553D01*
X152658175Y-75229553D02*
X152562937Y-75324791D01*
X152562937Y-75324791D02*
X152515318Y-75467648D01*
X152515318Y-75467648D02*
X152515318Y-75562886D01*
X152515318Y-75562886D02*
X152562937Y-75705743D01*
X152562937Y-75705743D02*
X152610556Y-75753362D01*
X152515318Y-76181934D02*
X153324841Y-76181934D01*
X153324841Y-76181934D02*
X153420079Y-76229553D01*
X153420079Y-76229553D02*
X153467699Y-76277172D01*
X153467699Y-76277172D02*
X153515318Y-76372410D01*
X153515318Y-76372410D02*
X153515318Y-76562886D01*
X153515318Y-76562886D02*
X153467699Y-76658124D01*
X153467699Y-76658124D02*
X153420079Y-76705743D01*
X153420079Y-76705743D02*
X153324841Y-76753362D01*
X153324841Y-76753362D02*
X152515318Y-76753362D01*
X153515318Y-78134315D02*
X153467699Y-78039077D01*
X153467699Y-78039077D02*
X153420079Y-77991458D01*
X153420079Y-77991458D02*
X153324841Y-77943839D01*
X153324841Y-77943839D02*
X153039127Y-77943839D01*
X153039127Y-77943839D02*
X152943889Y-77991458D01*
X152943889Y-77991458D02*
X152896270Y-78039077D01*
X152896270Y-78039077D02*
X152848651Y-78134315D01*
X152848651Y-78134315D02*
X152848651Y-78277172D01*
X152848651Y-78277172D02*
X152896270Y-78372410D01*
X152896270Y-78372410D02*
X152943889Y-78420029D01*
X152943889Y-78420029D02*
X153039127Y-78467648D01*
X153039127Y-78467648D02*
X153324841Y-78467648D01*
X153324841Y-78467648D02*
X153420079Y-78420029D01*
X153420079Y-78420029D02*
X153467699Y-78372410D01*
X153467699Y-78372410D02*
X153515318Y-78277172D01*
X153515318Y-78277172D02*
X153515318Y-78134315D01*
X152848651Y-78753363D02*
X152848651Y-79134315D01*
X152515318Y-78896220D02*
X153372460Y-78896220D01*
X153372460Y-78896220D02*
X153467699Y-78943839D01*
X153467699Y-78943839D02*
X153515318Y-79039077D01*
X153515318Y-79039077D02*
X153515318Y-79134315D01*
X153515318Y-79467649D02*
X152515318Y-79467649D01*
X153515318Y-79896220D02*
X152991508Y-79896220D01*
X152991508Y-79896220D02*
X152896270Y-79848601D01*
X152896270Y-79848601D02*
X152848651Y-79753363D01*
X152848651Y-79753363D02*
X152848651Y-79610506D01*
X152848651Y-79610506D02*
X152896270Y-79515268D01*
X152896270Y-79515268D02*
X152943889Y-79467649D01*
X153467699Y-80753363D02*
X153515318Y-80658125D01*
X153515318Y-80658125D02*
X153515318Y-80467649D01*
X153515318Y-80467649D02*
X153467699Y-80372411D01*
X153467699Y-80372411D02*
X153372460Y-80324792D01*
X153372460Y-80324792D02*
X152991508Y-80324792D01*
X152991508Y-80324792D02*
X152896270Y-80372411D01*
X152896270Y-80372411D02*
X152848651Y-80467649D01*
X152848651Y-80467649D02*
X152848651Y-80658125D01*
X152848651Y-80658125D02*
X152896270Y-80753363D01*
X152896270Y-80753363D02*
X152991508Y-80800982D01*
X152991508Y-80800982D02*
X153086746Y-80800982D01*
X153086746Y-80800982D02*
X153181984Y-80324792D01*
X153515318Y-81229554D02*
X152848651Y-81229554D01*
X153039127Y-81229554D02*
X152943889Y-81277173D01*
X152943889Y-81277173D02*
X152896270Y-81324792D01*
X152896270Y-81324792D02*
X152848651Y-81420030D01*
X152848651Y-81420030D02*
X152848651Y-81515268D01*
X153467699Y-82562888D02*
X153515318Y-82658126D01*
X153515318Y-82658126D02*
X153515318Y-82848602D01*
X153515318Y-82848602D02*
X153467699Y-82943840D01*
X153467699Y-82943840D02*
X153372460Y-82991459D01*
X153372460Y-82991459D02*
X153324841Y-82991459D01*
X153324841Y-82991459D02*
X153229603Y-82943840D01*
X153229603Y-82943840D02*
X153181984Y-82848602D01*
X153181984Y-82848602D02*
X153181984Y-82705745D01*
X153181984Y-82705745D02*
X153134365Y-82610507D01*
X153134365Y-82610507D02*
X153039127Y-82562888D01*
X153039127Y-82562888D02*
X152991508Y-82562888D01*
X152991508Y-82562888D02*
X152896270Y-82610507D01*
X152896270Y-82610507D02*
X152848651Y-82705745D01*
X152848651Y-82705745D02*
X152848651Y-82848602D01*
X152848651Y-82848602D02*
X152896270Y-82943840D01*
X153515318Y-83420031D02*
X152848651Y-83420031D01*
X152515318Y-83420031D02*
X152562937Y-83372412D01*
X152562937Y-83372412D02*
X152610556Y-83420031D01*
X152610556Y-83420031D02*
X152562937Y-83467650D01*
X152562937Y-83467650D02*
X152515318Y-83420031D01*
X152515318Y-83420031D02*
X152610556Y-83420031D01*
X153515318Y-84324792D02*
X152515318Y-84324792D01*
X153467699Y-84324792D02*
X153515318Y-84229554D01*
X153515318Y-84229554D02*
X153515318Y-84039078D01*
X153515318Y-84039078D02*
X153467699Y-83943840D01*
X153467699Y-83943840D02*
X153420079Y-83896221D01*
X153420079Y-83896221D02*
X153324841Y-83848602D01*
X153324841Y-83848602D02*
X153039127Y-83848602D01*
X153039127Y-83848602D02*
X152943889Y-83896221D01*
X152943889Y-83896221D02*
X152896270Y-83943840D01*
X152896270Y-83943840D02*
X152848651Y-84039078D01*
X152848651Y-84039078D02*
X152848651Y-84229554D01*
X152848651Y-84229554D02*
X152896270Y-84324792D01*
X153467699Y-85181935D02*
X153515318Y-85086697D01*
X153515318Y-85086697D02*
X153515318Y-84896221D01*
X153515318Y-84896221D02*
X153467699Y-84800983D01*
X153467699Y-84800983D02*
X153372460Y-84753364D01*
X153372460Y-84753364D02*
X152991508Y-84753364D01*
X152991508Y-84753364D02*
X152896270Y-84800983D01*
X152896270Y-84800983D02*
X152848651Y-84896221D01*
X152848651Y-84896221D02*
X152848651Y-85086697D01*
X152848651Y-85086697D02*
X152896270Y-85181935D01*
X152896270Y-85181935D02*
X152991508Y-85229554D01*
X152991508Y-85229554D02*
X153086746Y-85229554D01*
X153086746Y-85229554D02*
X153181984Y-84753364D01*
X153420079Y-85658126D02*
X153467699Y-85705745D01*
X153467699Y-85705745D02*
X153515318Y-85658126D01*
X153515318Y-85658126D02*
X153467699Y-85610507D01*
X153467699Y-85610507D02*
X153420079Y-85658126D01*
X153420079Y-85658126D02*
X153515318Y-85658126D01*
X153134365Y-85658126D02*
X152562937Y-85610507D01*
X152562937Y-85610507D02*
X152515318Y-85658126D01*
X152515318Y-85658126D02*
X152562937Y-85705745D01*
X152562937Y-85705745D02*
X153134365Y-85658126D01*
X153134365Y-85658126D02*
X152515318Y-85658126D01*
%TO.C,SW3*%
X87330677Y-70397518D02*
X87330677Y-69927518D01*
X87330677Y-73477518D02*
X87330677Y-73247518D01*
X87830677Y-69427518D02*
X92395501Y-69427518D01*
X88880677Y-73477518D02*
X87330677Y-73477518D01*
X96280677Y-73477518D02*
X90380677Y-73477518D01*
X98280677Y-67827518D02*
X98280677Y-67587518D01*
X98280677Y-70677518D02*
X98280677Y-71477518D01*
X87830677Y-69427518D02*
G75*
G03*
X87330677Y-69927518I1J-500001D01*
G01*
X92395501Y-69427517D02*
G75*
G03*
X94689822Y-67587518I866J2349331D01*
G01*
X96280677Y-73477518D02*
G75*
G03*
X98280677Y-71477518I-5J2000005D01*
G01*
%TO.C,SW1*%
X43777914Y-95040526D02*
X43696299Y-94577666D01*
X44312750Y-98073734D02*
X44272811Y-97847228D01*
X44101879Y-93998438D02*
X48597353Y-93205765D01*
X45839202Y-97804579D02*
X44312750Y-98073734D01*
X53126779Y-96519583D02*
X47316414Y-97544107D01*
X54115283Y-90608122D02*
X54073607Y-90371769D01*
X54610180Y-93414825D02*
X54749099Y-94202671D01*
X44101879Y-93998439D02*
G75*
G03*
X43696300Y-94577666I86825J-492404D01*
G01*
X48597353Y-93205764D02*
G75*
G03*
X50537305Y-90995314I-407108J2313792D01*
G01*
X53126779Y-96519583D02*
G75*
G03*
X54749098Y-94202671I-347302J1969620D01*
G01*
%TO.C,SW10*%
X125430677Y-96572518D02*
X125430677Y-96102518D01*
X125430677Y-99652518D02*
X125430677Y-99422518D01*
X125930677Y-95602518D02*
X130495501Y-95602518D01*
X126980677Y-99652518D02*
X125430677Y-99652518D01*
X134380677Y-99652518D02*
X128480677Y-99652518D01*
X136380677Y-94002518D02*
X136380677Y-93762518D01*
X136380677Y-96852518D02*
X136380677Y-97652518D01*
X125930677Y-95602518D02*
G75*
G03*
X125430677Y-96102518I1J-500001D01*
G01*
X130495501Y-95602517D02*
G75*
G03*
X132789822Y-93762518I866J2349331D01*
G01*
X134380677Y-99652518D02*
G75*
G03*
X136380677Y-97652518I-5J2000005D01*
G01*
%TO.C,SW29*%
X264180176Y-94197021D02*
X264180176Y-93727021D01*
X264180176Y-97277021D02*
X264180176Y-97047021D01*
X264680176Y-93227021D02*
X269245000Y-93227021D01*
X265730176Y-97277021D02*
X264180176Y-97277021D01*
X273130176Y-97277021D02*
X267230176Y-97277021D01*
X275130176Y-91627021D02*
X275130176Y-91387021D01*
X275130176Y-94477021D02*
X275130176Y-95277021D01*
X264680176Y-93227021D02*
G75*
G03*
X264180176Y-93727021I1J-500001D01*
G01*
X269245000Y-93227020D02*
G75*
G03*
X271539321Y-91387021I866J2349331D01*
G01*
X273130176Y-97277021D02*
G75*
G03*
X275130176Y-95277021I-5J2000005D01*
G01*
%TO.C,SW13*%
X50393909Y-132561704D02*
X50312294Y-132098844D01*
X50928745Y-135594912D02*
X50888806Y-135368406D01*
X50717874Y-131519616D02*
X55213348Y-130726943D01*
X52455197Y-135325757D02*
X50928745Y-135594912D01*
X59742774Y-134040761D02*
X53932409Y-135065285D01*
X60731278Y-128129300D02*
X60689602Y-127892947D01*
X61226175Y-130936003D02*
X61365094Y-131723849D01*
X50717874Y-131519617D02*
G75*
G03*
X50312295Y-132098844I86825J-492404D01*
G01*
X55213348Y-130726942D02*
G75*
G03*
X57153300Y-128516492I-407108J2313792D01*
G01*
X59742774Y-134040761D02*
G75*
G03*
X61365093Y-131723849I-347302J1969620D01*
G01*
%TO.C,SW9*%
X106380678Y-94197517D02*
X106380678Y-93727517D01*
X106380678Y-97277517D02*
X106380678Y-97047517D01*
X106880678Y-93227517D02*
X111445502Y-93227517D01*
X107930678Y-97277517D02*
X106380678Y-97277517D01*
X115330678Y-97277517D02*
X109430678Y-97277517D01*
X117330678Y-91627517D02*
X117330678Y-91387517D01*
X117330678Y-94477517D02*
X117330678Y-95277517D01*
X106880678Y-93227517D02*
G75*
G03*
X106380678Y-93727517I1J-500001D01*
G01*
X111445502Y-93227516D02*
G75*
G03*
X113739823Y-91387517I866J2349331D01*
G01*
X115330678Y-97277517D02*
G75*
G03*
X117330678Y-95277517I-5J2000005D01*
G01*
%TO.C,SW39*%
X239995867Y-140381069D02*
X239874222Y-139927084D01*
X240793029Y-143356121D02*
X240733501Y-143133958D01*
X240227775Y-139314712D02*
X244637057Y-138133248D01*
X242290214Y-142954951D02*
X240793029Y-143356121D01*
X249438065Y-141039690D02*
X243739103Y-142566723D01*
X249907590Y-135064571D02*
X249845473Y-134832749D01*
X250645224Y-137817460D02*
X250852279Y-138590201D01*
X240227775Y-139314712D02*
G75*
G03*
X239874223Y-139927084I129411J-482963D01*
G01*
X244637057Y-138133248D02*
G75*
G03*
X246376974Y-135762131I-607220J2269506D01*
G01*
X249438065Y-141039690D02*
G75*
G03*
X250852279Y-138590201I-517642J1931854D01*
G01*
%TO.C,SW15*%
X87330678Y-108497518D02*
X87330678Y-108027518D01*
X87330678Y-111577518D02*
X87330678Y-111347518D01*
X87830678Y-107527518D02*
X92395502Y-107527518D01*
X88880678Y-111577518D02*
X87330678Y-111577518D01*
X96280678Y-111577518D02*
X90380678Y-111577518D01*
X98280678Y-105927518D02*
X98280678Y-105687518D01*
X98280678Y-108777518D02*
X98280678Y-109577518D01*
X87830678Y-107527518D02*
G75*
G03*
X87330678Y-108027518I1J-500001D01*
G01*
X92395502Y-107527517D02*
G75*
G03*
X94689823Y-105687518I866J2349331D01*
G01*
X96280678Y-111577518D02*
G75*
G03*
X98280678Y-109577518I-5J2000005D01*
G01*
%TO.C,SW27*%
X326930761Y-93350495D02*
X327012375Y-92887636D01*
X326395924Y-96383703D02*
X326435863Y-96157197D01*
X327591603Y-92482056D02*
X332087077Y-93274729D01*
X327922376Y-96652858D02*
X326395924Y-96383703D01*
X335209954Y-97937854D02*
X329399588Y-96913330D01*
X338160681Y-92720987D02*
X338202357Y-92484633D01*
X337665784Y-95527689D02*
X337526865Y-96315535D01*
X327591603Y-92482056D02*
G75*
G03*
X327012375Y-92887636I-86823J-492405D01*
G01*
X332087077Y-93274729D02*
G75*
G03*
X334666056Y-91861088I408810J2313490D01*
G01*
X335209954Y-97937853D02*
G75*
G03*
X337526865Y-96315535I347292J1969620D01*
G01*
%TO.C,SW31*%
X303878494Y-98287567D02*
X303919458Y-97819356D01*
X303610055Y-101355847D02*
X303630101Y-101126722D01*
X304461133Y-97364836D02*
X309008586Y-97762687D01*
X305154156Y-101490938D02*
X303610055Y-101355847D01*
X312525997Y-102135891D02*
X306648449Y-101621672D01*
X315010817Y-96681702D02*
X315031734Y-96442616D01*
X314762423Y-99520857D02*
X314692698Y-100317813D01*
X304461133Y-97364838D02*
G75*
G03*
X303919459Y-97819356I-43577J-498097D01*
G01*
X309008586Y-97762685D02*
G75*
G03*
X311454544Y-96129652I205621J2340315D01*
G01*
X312525997Y-102135891D02*
G75*
G03*
X314692698Y-100317813I174307J1992395D01*
G01*
%TO.C,SW24*%
X264180176Y-75147020D02*
X264180176Y-74677020D01*
X264180176Y-78227020D02*
X264180176Y-77997020D01*
X264680176Y-74177020D02*
X269245000Y-74177020D01*
X265730176Y-78227020D02*
X264180176Y-78227020D01*
X273130176Y-78227020D02*
X267230176Y-78227020D01*
X275130176Y-72577020D02*
X275130176Y-72337020D01*
X275130176Y-75427020D02*
X275130176Y-76227020D01*
X264680176Y-74177020D02*
G75*
G03*
X264180176Y-74677020I1J-500001D01*
G01*
X269245000Y-74177019D02*
G75*
G03*
X271539321Y-72337020I866J2349331D01*
G01*
X273130176Y-78227020D02*
G75*
G03*
X275130176Y-76227020I-5J2000005D01*
G01*
%TO.C,SW8*%
X87330679Y-89447518D02*
X87330679Y-88977518D01*
X87330679Y-92527518D02*
X87330679Y-92297518D01*
X87830679Y-88477518D02*
X92395503Y-88477518D01*
X88880679Y-92527518D02*
X87330679Y-92527518D01*
X96280679Y-92527518D02*
X90380679Y-92527518D01*
X98280679Y-86877518D02*
X98280679Y-86637518D01*
X98280679Y-89727518D02*
X98280679Y-90527518D01*
X87830679Y-88477518D02*
G75*
G03*
X87330679Y-88977518I1J-500001D01*
G01*
X92395503Y-88477517D02*
G75*
G03*
X94689824Y-86637518I866J2349331D01*
G01*
X96280679Y-92527518D02*
G75*
G03*
X98280679Y-90527518I-5J2000005D01*
G01*
%TO.C,SW40*%
X260880179Y-136247021D02*
X260880179Y-135777021D01*
X260880179Y-139327021D02*
X260880179Y-139097021D01*
X261380179Y-135277021D02*
X265945003Y-135277021D01*
X262430179Y-139327021D02*
X260880179Y-139327021D01*
X269830179Y-139327021D02*
X263930179Y-139327021D01*
X271830179Y-133677021D02*
X271830179Y-133437021D01*
X271830179Y-136527021D02*
X271830179Y-137327021D01*
X261380179Y-135277021D02*
G75*
G03*
X260880179Y-135777021I1J-500001D01*
G01*
X265945003Y-135277020D02*
G75*
G03*
X268239324Y-133437021I866J2349331D01*
G01*
X269830179Y-139327021D02*
G75*
G03*
X271830179Y-137327021I-5J2000005D01*
G01*
%TO.C,SW28*%
X245130176Y-96572022D02*
X245130176Y-96102022D01*
X245130176Y-99652022D02*
X245130176Y-99422022D01*
X245630176Y-95602022D02*
X250195000Y-95602022D01*
X246680176Y-99652022D02*
X245130176Y-99652022D01*
X254080176Y-99652022D02*
X248180176Y-99652022D01*
X256080176Y-94002022D02*
X256080176Y-93762022D01*
X256080176Y-96852022D02*
X256080176Y-97652022D01*
X245630176Y-95602022D02*
G75*
G03*
X245130176Y-96102022I1J-500001D01*
G01*
X250195000Y-95602021D02*
G75*
G03*
X252489321Y-93762022I866J2349331D01*
G01*
X254080176Y-99652022D02*
G75*
G03*
X256080176Y-97652022I-5J2000005D01*
G01*
%TO.C,SW36*%
X302218175Y-117265074D02*
X302259139Y-116796863D01*
X301949736Y-120333354D02*
X301969782Y-120104229D01*
X302800814Y-116342343D02*
X307348267Y-116740194D01*
X303493837Y-120468445D02*
X301949736Y-120333354D01*
X310865678Y-121113398D02*
X304988130Y-120599179D01*
X313350498Y-115659209D02*
X313371415Y-115420123D01*
X313102104Y-118498364D02*
X313032379Y-119295320D01*
X302800814Y-116342345D02*
G75*
G03*
X302259140Y-116796863I-43577J-498097D01*
G01*
X307348267Y-116740192D02*
G75*
G03*
X309794225Y-115107159I205621J2340315D01*
G01*
X310865678Y-121113398D02*
G75*
G03*
X313032379Y-119295320I174307J1992395D01*
G01*
%TO.C,SW32*%
X323622763Y-112111082D02*
X323704377Y-111648223D01*
X323087926Y-115144290D02*
X323127865Y-114917784D01*
X324283605Y-111242643D02*
X328779079Y-112035316D01*
X324614378Y-115413445D02*
X323087926Y-115144290D01*
X331901956Y-116698441D02*
X326091590Y-115673917D01*
X334852683Y-111481574D02*
X334894359Y-111245220D01*
X334357786Y-114288276D02*
X334218867Y-115076122D01*
X324283605Y-111242643D02*
G75*
G03*
X323704377Y-111648223I-86823J-492405D01*
G01*
X328779079Y-112035316D02*
G75*
G03*
X331358058Y-110621675I408810J2313490D01*
G01*
X331901956Y-116698440D02*
G75*
G03*
X334218867Y-115076122I347292J1969620D01*
G01*
%TO.C,SW21*%
X130896518Y-137863350D02*
X131018163Y-137409365D01*
X130099355Y-140838402D02*
X130158884Y-140616239D01*
X131630535Y-137055812D02*
X136039817Y-138237275D01*
X131596540Y-141239571D02*
X130099355Y-140838402D01*
X138744392Y-143154832D02*
X133045429Y-141627800D01*
X142138571Y-138214989D02*
X142200687Y-137983167D01*
X141400936Y-140967878D02*
X141193881Y-141740619D01*
X131630535Y-137055812D02*
G75*
G03*
X131018163Y-137409365I-129408J-482964D01*
G01*
X136039817Y-138237275D02*
G75*
G03*
X138732189Y-137053786I608888J2269056D01*
G01*
X138744392Y-143154831D02*
G75*
G03*
X141193880Y-141740619I517640J1931847D01*
G01*
%TO.C,SW2*%
X65059070Y-80158550D02*
X65018107Y-79690339D01*
X65327510Y-83226830D02*
X65307464Y-82997705D01*
X65472626Y-79148663D02*
X70020080Y-78750813D01*
X66871611Y-83091738D02*
X65327510Y-83226830D01*
X74243452Y-82446786D02*
X68365903Y-82961005D01*
X75743412Y-76643974D02*
X75722494Y-76404888D01*
X75991805Y-79483129D02*
X76061530Y-80280085D01*
X65472626Y-79148665D02*
G75*
G03*
X65018108Y-79690339I43579J-498097D01*
G01*
X70020080Y-78750810D02*
G75*
G03*
X72145303Y-76717851I-203895J2340465D01*
G01*
X74243452Y-82446786D02*
G75*
G03*
X76061530Y-80280085I-174317J1992394D01*
G01*
%TO.C,SW38*%
X220867050Y-149687717D02*
X220632050Y-149280685D01*
X222407050Y-152355075D02*
X222292050Y-152155889D01*
X220815063Y-148597672D02*
X224768316Y-146315260D01*
X223749389Y-151580075D02*
X222407050Y-152355075D01*
X230157977Y-147880075D02*
X225048427Y-150830075D01*
X229065028Y-141987031D02*
X228945028Y-141779185D01*
X230490028Y-144455204D02*
X230890028Y-145148024D01*
X220815063Y-148597672D02*
G75*
G03*
X220632050Y-149280685I250001J-433013D01*
G01*
X224768316Y-146315259D02*
G75*
G03*
X225835256Y-143574612I-1173916J2035013D01*
G01*
X230157977Y-147880075D02*
G75*
G03*
X230890027Y-145148024I-1000005J1732052D01*
G01*
%TO.C,SW16*%
X106380678Y-113247518D02*
X106380678Y-112777518D01*
X106380678Y-116327518D02*
X106380678Y-116097518D01*
X106880678Y-112277518D02*
X111445502Y-112277518D01*
X107930678Y-116327518D02*
X106380678Y-116327518D01*
X115330678Y-116327518D02*
X109430678Y-116327518D01*
X117330678Y-110677518D02*
X117330678Y-110437518D01*
X117330678Y-113527518D02*
X117330678Y-114327518D01*
X106880678Y-112277518D02*
G75*
G03*
X106380678Y-112777518I1J-500001D01*
G01*
X111445502Y-112277517D02*
G75*
G03*
X113739823Y-110437518I866J2349331D01*
G01*
X115330678Y-116327518D02*
G75*
G03*
X117330678Y-114327518I-5J2000005D01*
G01*
%TO.C,SW17*%
X125430677Y-115622518D02*
X125430677Y-115152518D01*
X125430677Y-118702518D02*
X125430677Y-118472518D01*
X125930677Y-114652518D02*
X130495501Y-114652518D01*
X126980677Y-118702518D02*
X125430677Y-118702518D01*
X134380677Y-118702518D02*
X128480677Y-118702518D01*
X136380677Y-113052518D02*
X136380677Y-112812518D01*
X136380677Y-115902518D02*
X136380677Y-116702518D01*
X125930677Y-114652518D02*
G75*
G03*
X125430677Y-115152518I1J-500001D01*
G01*
X130495501Y-114652517D02*
G75*
G03*
X132789822Y-112812518I866J2349331D01*
G01*
X134380677Y-118702518D02*
G75*
G03*
X136380677Y-116702518I-5J2000005D01*
G01*
%TO.C,SW35*%
X283230176Y-108497021D02*
X283230176Y-108027021D01*
X283230176Y-111577021D02*
X283230176Y-111347021D01*
X283730176Y-107527021D02*
X288295000Y-107527021D01*
X284780176Y-111577021D02*
X283230176Y-111577021D01*
X292180176Y-111577021D02*
X286280176Y-111577021D01*
X294180176Y-105927021D02*
X294180176Y-105687021D01*
X294180176Y-108777021D02*
X294180176Y-109577021D01*
X283730176Y-107527021D02*
G75*
G03*
X283230176Y-108027021I1J-500001D01*
G01*
X288295000Y-107527020D02*
G75*
G03*
X290589321Y-105687021I866J2349331D01*
G01*
X292180176Y-111577021D02*
G75*
G03*
X294180176Y-109577021I-5J2000005D01*
G01*
%TO.C,SW23*%
X245130176Y-77522020D02*
X245130176Y-77052020D01*
X245130176Y-80602020D02*
X245130176Y-80372020D01*
X245630176Y-76552020D02*
X250195000Y-76552020D01*
X246680176Y-80602020D02*
X245130176Y-80602020D01*
X254080176Y-80602020D02*
X248180176Y-80602020D01*
X256080176Y-74952020D02*
X256080176Y-74712020D01*
X256080176Y-77802020D02*
X256080176Y-78602020D01*
X245630176Y-76552020D02*
G75*
G03*
X245130176Y-77052020I1J-500001D01*
G01*
X250195000Y-76552019D02*
G75*
G03*
X252489321Y-74712020I866J2349331D01*
G01*
X254080176Y-80602020D02*
G75*
G03*
X256080176Y-78602020I-5J2000005D01*
G01*
%TO.C,SW20*%
X109680678Y-136247517D02*
X109680678Y-135777517D01*
X109680678Y-139327517D02*
X109680678Y-139097517D01*
X110180678Y-135277517D02*
X114745502Y-135277517D01*
X111230678Y-139327517D02*
X109680678Y-139327517D01*
X118630678Y-139327517D02*
X112730678Y-139327517D01*
X120630678Y-133677517D02*
X120630678Y-133437517D01*
X120630678Y-136527517D02*
X120630678Y-137327517D01*
X110180678Y-135277517D02*
G75*
G03*
X109680678Y-135777517I1J-500001D01*
G01*
X114745502Y-135277516D02*
G75*
G03*
X117039823Y-133437517I866J2349331D01*
G01*
X118630678Y-139327517D02*
G75*
G03*
X120630678Y-137327517I-5J2000005D01*
G01*
%TO.C,SW22*%
X150997330Y-144823391D02*
X151232330Y-144416359D01*
X149457330Y-147490749D02*
X149572330Y-147291563D01*
X151915343Y-144233346D02*
X155868596Y-146515758D01*
X150799669Y-148265749D02*
X149457330Y-147490749D01*
X157208257Y-151965749D02*
X152098707Y-149015749D01*
X161765308Y-148072705D02*
X161885308Y-147864859D01*
X160340308Y-150540878D02*
X159940308Y-151233698D01*
X151915342Y-144233347D02*
G75*
G03*
X151232331Y-144416359I-249999J-433013D01*
G01*
X155868597Y-146515757D02*
G75*
G03*
X158775537Y-146069432I1175415J2034147D01*
G01*
X157208257Y-151965748D02*
G75*
G03*
X159940308Y-151233698I999999J1732055D01*
G01*
%TO.C,SW33*%
X245130179Y-115622022D02*
X245130179Y-115152022D01*
X245130179Y-118702022D02*
X245130179Y-118472022D01*
X245630179Y-114652022D02*
X250195003Y-114652022D01*
X246680179Y-118702022D02*
X245130179Y-118702022D01*
X254080179Y-118702022D02*
X248180179Y-118702022D01*
X256080179Y-113052022D02*
X256080179Y-112812022D01*
X256080179Y-115902022D02*
X256080179Y-116702022D01*
X245630179Y-114652022D02*
G75*
G03*
X245130179Y-115152022I1J-500001D01*
G01*
X250195003Y-114652021D02*
G75*
G03*
X252489324Y-112812022I866J2349331D01*
G01*
X254080179Y-118702022D02*
G75*
G03*
X256080179Y-116702022I-5J2000005D01*
G01*
%TO.C,SW7*%
X66719388Y-99136059D02*
X66678425Y-98667848D01*
X66987828Y-102204339D02*
X66967782Y-101975214D01*
X67132944Y-98126172D02*
X71680398Y-97728322D01*
X68531929Y-102069247D02*
X66987828Y-102204339D01*
X75903770Y-101424295D02*
X70026221Y-101938514D01*
X77403730Y-95621483D02*
X77382812Y-95382397D01*
X77652123Y-98460638D02*
X77721848Y-99257594D01*
X67132944Y-98126174D02*
G75*
G03*
X66678426Y-98667848I43579J-498097D01*
G01*
X71680398Y-97728319D02*
G75*
G03*
X73805621Y-95695360I-203895J2340465D01*
G01*
X75903770Y-101424295D02*
G75*
G03*
X77721848Y-99257594I-174317J1992394D01*
G01*
%TO.C,SW26*%
X305538811Y-79310057D02*
X305579775Y-78841846D01*
X305270372Y-82378337D02*
X305290418Y-82149212D01*
X306121450Y-78387326D02*
X310668903Y-78785177D01*
X306814473Y-82513428D02*
X305270372Y-82378337D01*
X314186314Y-83158381D02*
X308308766Y-82644162D01*
X316671134Y-77704192D02*
X316692051Y-77465106D01*
X316422740Y-80543347D02*
X316353015Y-81340303D01*
X306121450Y-78387328D02*
G75*
G03*
X305579776Y-78841846I-43577J-498097D01*
G01*
X310668903Y-78785175D02*
G75*
G03*
X313114861Y-77152142I205621J2340315D01*
G01*
X314186314Y-83158381D02*
G75*
G03*
X316353015Y-81340303I174307J1992395D01*
G01*
%TO.C,SW5*%
X125430679Y-77522518D02*
X125430679Y-77052518D01*
X125430679Y-80602518D02*
X125430679Y-80372518D01*
X125930679Y-76552518D02*
X130495503Y-76552518D01*
X126980679Y-80602518D02*
X125430679Y-80602518D01*
X134380679Y-80602518D02*
X128480679Y-80602518D01*
X136380679Y-74952518D02*
X136380679Y-74712518D01*
X136380679Y-77802518D02*
X136380679Y-78602518D01*
X125930679Y-76552518D02*
G75*
G03*
X125430679Y-77052518I1J-500001D01*
G01*
X130495503Y-76552517D02*
G75*
G03*
X132789824Y-74712518I866J2349331D01*
G01*
X134380679Y-80602518D02*
G75*
G03*
X136380679Y-78602518I-5J2000005D01*
G01*
%TO.C,SW34*%
X264180178Y-113247021D02*
X264180178Y-112777021D01*
X264180178Y-116327021D02*
X264180178Y-116097021D01*
X264680178Y-112277021D02*
X269245002Y-112277021D01*
X265730178Y-116327021D02*
X264180178Y-116327021D01*
X273130178Y-116327021D02*
X267230178Y-116327021D01*
X275130178Y-110677021D02*
X275130178Y-110437021D01*
X275130178Y-113527021D02*
X275130178Y-114327021D01*
X264680178Y-112277021D02*
G75*
G03*
X264180178Y-112777021I1J-500001D01*
G01*
X269245002Y-112277020D02*
G75*
G03*
X271539323Y-110437021I866J2349331D01*
G01*
X273130178Y-116327021D02*
G75*
G03*
X275130178Y-114327021I-5J2000005D01*
G01*
%TO.C,SW37*%
X320314765Y-130871671D02*
X320396379Y-130408812D01*
X319779928Y-133904879D02*
X319819867Y-133678373D01*
X320975607Y-130003232D02*
X325471081Y-130795905D01*
X321306380Y-134174034D02*
X319779928Y-133904879D01*
X328593958Y-135459030D02*
X322783592Y-134434506D01*
X331544685Y-130242163D02*
X331586361Y-130005809D01*
X331049788Y-133048865D02*
X330910869Y-133836711D01*
X320975607Y-130003232D02*
G75*
G03*
X320396379Y-130408812I-86823J-492405D01*
G01*
X325471081Y-130795905D02*
G75*
G03*
X328050060Y-129382264I408810J2313490D01*
G01*
X328593958Y-135459029D02*
G75*
G03*
X330910869Y-133836711I347292J1969620D01*
G01*
%TO.C,SW25*%
X283230178Y-70397020D02*
X283230178Y-69927020D01*
X283230178Y-73477020D02*
X283230178Y-73247020D01*
X283730178Y-69427020D02*
X288295002Y-69427020D01*
X284780178Y-73477020D02*
X283230178Y-73477020D01*
X292180178Y-73477020D02*
X286280178Y-73477020D01*
X294180178Y-67827020D02*
X294180178Y-67587020D01*
X294180178Y-70677020D02*
X294180178Y-71477020D01*
X283730178Y-69427020D02*
G75*
G03*
X283230178Y-69927020I1J-500001D01*
G01*
X288295002Y-69427019D02*
G75*
G03*
X290589323Y-67587020I866J2349331D01*
G01*
X292180178Y-73477020D02*
G75*
G03*
X294180178Y-71477020I-5J2000005D01*
G01*
%TO.C,SW30*%
X283230176Y-89447020D02*
X283230176Y-88977020D01*
X283230176Y-92527020D02*
X283230176Y-92297020D01*
X283730176Y-88477020D02*
X288295000Y-88477020D01*
X284780176Y-92527020D02*
X283230176Y-92527020D01*
X292180176Y-92527020D02*
X286280176Y-92527020D01*
X294180176Y-86877020D02*
X294180176Y-86637020D01*
X294180176Y-89727020D02*
X294180176Y-90527020D01*
X283730176Y-88477020D02*
G75*
G03*
X283230176Y-88977020I1J-500001D01*
G01*
X288295000Y-88477019D02*
G75*
G03*
X290589321Y-86637020I866J2349331D01*
G01*
X292180176Y-92527020D02*
G75*
G03*
X294180176Y-90527020I-5J2000005D01*
G01*
%TO.C,SW4*%
X106380676Y-75147519D02*
X106380676Y-74677519D01*
X106380676Y-78227519D02*
X106380676Y-77997519D01*
X106880676Y-74177519D02*
X111445500Y-74177519D01*
X107930676Y-78227519D02*
X106380676Y-78227519D01*
X115330676Y-78227519D02*
X109430676Y-78227519D01*
X117330676Y-72577519D02*
X117330676Y-72337519D01*
X117330676Y-75427519D02*
X117330676Y-76227519D01*
X106880676Y-74177519D02*
G75*
G03*
X106380676Y-74677519I1J-500001D01*
G01*
X111445500Y-74177518D02*
G75*
G03*
X113739821Y-72337519I866J2349331D01*
G01*
X115330676Y-78227519D02*
G75*
G03*
X117330676Y-76227519I-5J2000005D01*
G01*
%TO.C,SW14*%
X68379706Y-118113568D02*
X68338743Y-117645357D01*
X68648146Y-121181848D02*
X68628100Y-120952723D01*
X68793262Y-117103681D02*
X73340716Y-116705831D01*
X70192247Y-121046756D02*
X68648146Y-121181848D01*
X77564088Y-120401804D02*
X71686539Y-120916023D01*
X79064048Y-114598992D02*
X79043130Y-114359906D01*
X79312441Y-117438147D02*
X79382166Y-118235103D01*
X68793262Y-117103683D02*
G75*
G03*
X68338744Y-117645357I43579J-498097D01*
G01*
X73340716Y-116705828D02*
G75*
G03*
X75465939Y-114672869I-203895J2340465D01*
G01*
X77564088Y-120401804D02*
G75*
G03*
X79382166Y-118235103I-174317J1992394D01*
G01*
%TO.C,SW6*%
X47085911Y-113801115D02*
X47004296Y-113338255D01*
X47620747Y-116834323D02*
X47580808Y-116607817D01*
X47409876Y-112759027D02*
X51905350Y-111966354D01*
X49147199Y-116565168D02*
X47620747Y-116834323D01*
X56434776Y-115280172D02*
X50624411Y-116304696D01*
X57423280Y-109368711D02*
X57381604Y-109132358D01*
X57918177Y-112175414D02*
X58057096Y-112963260D01*
X47409876Y-112759028D02*
G75*
G03*
X47004297Y-113338255I86825J-492404D01*
G01*
X51905350Y-111966353D02*
G75*
G03*
X53845302Y-109755903I-407108J2313792D01*
G01*
X56434776Y-115280172D02*
G75*
G03*
X58057095Y-112963260I-347302J1969620D01*
G01*
D11*
%TO.C,D9*%
X104645502Y-82452298D02*
X104645502Y-86352298D01*
X102645502Y-82452298D02*
X104645502Y-82452298D01*
X102645502Y-82452298D02*
X102645502Y-86352298D01*
X103645502Y-83952298D02*
X103645502Y-84352298D01*
X103645502Y-84352298D02*
X103245502Y-84952298D01*
X103095502Y-84352298D02*
X104195502Y-84352298D01*
X104045502Y-84952298D02*
X103645502Y-84352298D01*
X103245502Y-84952298D02*
X104045502Y-84952298D01*
X103645502Y-85452298D02*
X103645502Y-84952298D01*
%TO.C,D39*%
X235379085Y-129745148D02*
X236388479Y-133512259D01*
X233447233Y-130262786D02*
X235379085Y-129745148D01*
X233447233Y-130262786D02*
X234456628Y-134029897D01*
X234801388Y-131452856D02*
X234904915Y-131839226D01*
X234904915Y-131839226D02*
X234673836Y-132522309D01*
X234373656Y-131981576D02*
X235436175Y-131696875D01*
X235446577Y-132315254D02*
X234904915Y-131839226D01*
X234673836Y-132522309D02*
X235446577Y-132315254D01*
X235189616Y-132901744D02*
X235060207Y-132418781D01*
%TO.C,D29*%
X262983002Y-82302301D02*
X262983002Y-86202301D01*
X260983002Y-82302301D02*
X262983002Y-82302301D01*
X260983002Y-82302301D02*
X260983002Y-86202301D01*
X261983002Y-83802301D02*
X261983002Y-84202301D01*
X261983002Y-84202301D02*
X261583002Y-84802301D01*
X261433002Y-84202301D02*
X262533002Y-84202301D01*
X262383002Y-84802301D02*
X261983002Y-84202301D01*
X261583002Y-84802301D02*
X262383002Y-84802301D01*
X261983002Y-85302301D02*
X261983002Y-84802301D01*
%TO.C,D17*%
X123645503Y-103452298D02*
X123645503Y-107352298D01*
X121645503Y-103452298D02*
X123645503Y-103452298D01*
X121645503Y-103452298D02*
X121645503Y-107352298D01*
X122645503Y-104952298D02*
X122645503Y-105352298D01*
X122645503Y-105352298D02*
X122245503Y-105952298D01*
X122095503Y-105352298D02*
X123195503Y-105352298D01*
X123045503Y-105952298D02*
X122645503Y-105352298D01*
X122245503Y-105952298D02*
X123045503Y-105952298D01*
X122645503Y-106452298D02*
X122645503Y-105952298D01*
%TO.C,D27*%
X326858519Y-80922633D02*
X326181291Y-84763383D01*
X324888904Y-80575336D02*
X326858519Y-80922633D01*
X324888904Y-80575336D02*
X324211676Y-84416087D01*
X325613239Y-82226196D02*
X325543780Y-82620119D01*
X325543780Y-82620119D02*
X325045668Y-83141545D01*
X325002136Y-82524613D02*
X326085424Y-82715626D01*
X325833514Y-83280463D02*
X325543780Y-82620119D01*
X325045668Y-83141545D02*
X325833514Y-83280463D01*
X325352767Y-83703408D02*
X325439591Y-83211004D01*
%TO.C,D18*%
X150793002Y-126439198D02*
X146893002Y-126439198D01*
X150793002Y-124439198D02*
X150793002Y-126439198D01*
X150793002Y-124439198D02*
X146893002Y-124439198D01*
X149293002Y-125439198D02*
X148893002Y-125439198D01*
X148893002Y-125439198D02*
X148293002Y-125039198D01*
X148893002Y-124889198D02*
X148893002Y-125989198D01*
X148293002Y-125839198D02*
X148893002Y-125439198D01*
X148293002Y-125039198D02*
X148293002Y-125839198D01*
X147793002Y-125439198D02*
X148293002Y-125439198D01*
%TO.C,D34*%
X262983000Y-101352301D02*
X262983000Y-105252301D01*
X260983000Y-101352301D02*
X262983000Y-101352301D01*
X260983000Y-101352301D02*
X260983000Y-105252301D01*
X261983000Y-102852301D02*
X261983000Y-103252301D01*
X261983000Y-103252301D02*
X261583000Y-103852301D01*
X261433000Y-103252301D02*
X262533000Y-103252301D01*
X262383000Y-103852301D02*
X261983000Y-103252301D01*
X261583000Y-103852301D02*
X262383000Y-103852301D01*
X261983000Y-104352301D02*
X261983000Y-103852301D01*
%TO.C,D14*%
X66445596Y-106373704D02*
X66785504Y-110258864D01*
X64453207Y-106548016D02*
X66445596Y-106373704D01*
X64453207Y-106548016D02*
X64793114Y-110433175D01*
X65580135Y-107955152D02*
X65614997Y-108353630D01*
X65614997Y-108353630D02*
X65268813Y-108986209D01*
X65067090Y-108401566D02*
X66162905Y-108305694D01*
X66065769Y-108916484D02*
X65614997Y-108353630D01*
X65268813Y-108986209D02*
X66065769Y-108916484D01*
X65710869Y-109449444D02*
X65667291Y-108951347D01*
%TO.C,D24*%
X262983002Y-63252300D02*
X262983002Y-67152300D01*
X260983002Y-63252300D02*
X262983002Y-63252300D01*
X260983002Y-63252300D02*
X260983002Y-67152300D01*
X261983002Y-64752300D02*
X261983002Y-65152300D01*
X261983002Y-65152300D02*
X261583002Y-65752300D01*
X261433002Y-65152300D02*
X262533002Y-65152300D01*
X262383002Y-65752300D02*
X261983002Y-65152300D01*
X261583002Y-65752300D02*
X262383002Y-65752300D01*
X261983002Y-66252300D02*
X261983002Y-65752300D01*
%TO.C,D12*%
X160579601Y-112533697D02*
X164479601Y-112533697D01*
X160579601Y-114533697D02*
X160579601Y-112533697D01*
X160579601Y-114533697D02*
X164479601Y-114533697D01*
X162079601Y-113533697D02*
X162479601Y-113533697D01*
X162479601Y-113533697D02*
X163079601Y-113933697D01*
X162479601Y-114083697D02*
X162479601Y-112983697D01*
X163079601Y-113133697D02*
X162479601Y-113533697D01*
X163079601Y-113933697D02*
X163079601Y-113133697D01*
X163579601Y-113533697D02*
X163079601Y-113533697D01*
%TO.C,D26*%
X304450299Y-66523018D02*
X304110392Y-70408177D01*
X302457910Y-66348706D02*
X304450299Y-66523018D01*
X302457910Y-66348706D02*
X302118002Y-70233866D01*
X303323371Y-67930154D02*
X303288509Y-68328632D01*
X303288509Y-68328632D02*
X302837737Y-68891486D01*
X302740601Y-68280696D02*
X303836416Y-68376568D01*
X303634693Y-68961211D02*
X303288509Y-68328632D01*
X302837737Y-68891486D02*
X303634693Y-68961211D01*
X303192637Y-69424446D02*
X303236215Y-68926349D01*
%TO.C,D21*%
X132193772Y-125787783D02*
X131184377Y-129554894D01*
X130261920Y-125270145D02*
X132193772Y-125787783D01*
X130261920Y-125270145D02*
X129252526Y-129037256D01*
X130839617Y-126977853D02*
X130736090Y-127364223D01*
X130736090Y-127364223D02*
X130194428Y-127840251D01*
X130204830Y-127221872D02*
X131267349Y-127506573D01*
X130967169Y-128047306D02*
X130736090Y-127364223D01*
X130194428Y-127840251D02*
X130967169Y-128047306D01*
X130451389Y-128426741D02*
X130580798Y-127943778D01*
%TO.C,D2*%
X62833096Y-68373704D02*
X63173004Y-72258864D01*
X60840707Y-68548016D02*
X62833096Y-68373704D01*
X60840707Y-68548016D02*
X61180614Y-72433175D01*
X61967635Y-69955152D02*
X62002497Y-70353630D01*
X62002497Y-70353630D02*
X61656313Y-70986209D01*
X61454590Y-70401566D02*
X62550405Y-70305694D01*
X62453269Y-70916484D02*
X62002497Y-70353630D01*
X61656313Y-70986209D02*
X62453269Y-70916484D01*
X62098369Y-71449444D02*
X62054791Y-70951347D01*
%TO.C,D4*%
X105645500Y-63452299D02*
X105645500Y-67352299D01*
X103645500Y-63452299D02*
X105645500Y-63452299D01*
X103645500Y-63452299D02*
X103645500Y-67352299D01*
X104645500Y-64952299D02*
X104645500Y-65352299D01*
X104645500Y-65352299D02*
X104245500Y-65952299D01*
X104095500Y-65352299D02*
X105195500Y-65352299D01*
X105045500Y-65952299D02*
X104645500Y-65352299D01*
X104245500Y-65952299D02*
X105045500Y-65952299D01*
X104645500Y-66452299D02*
X104645500Y-65952299D01*
%TO.C,D25*%
X282033002Y-58489803D02*
X282033002Y-62389803D01*
X280033002Y-58489803D02*
X282033002Y-58489803D01*
X280033002Y-58489803D02*
X280033002Y-62389803D01*
X281033002Y-59989803D02*
X281033002Y-60389803D01*
X281033002Y-60389803D02*
X280633002Y-60989803D01*
X280483002Y-60389803D02*
X281583002Y-60389803D01*
X281433002Y-60989803D02*
X281033002Y-60389803D01*
X280633002Y-60989803D02*
X281433002Y-60989803D01*
X281033002Y-61489803D02*
X281033002Y-60989803D01*
%TO.C,D20*%
X107645502Y-124452298D02*
X107645502Y-128352298D01*
X105645502Y-124452298D02*
X107645502Y-124452298D01*
X105645502Y-124452298D02*
X105645502Y-128352298D01*
X106645502Y-125952298D02*
X106645502Y-126352298D01*
X106645502Y-126352298D02*
X106245502Y-126952298D01*
X106095502Y-126352298D02*
X107195502Y-126352298D01*
X107045502Y-126952298D02*
X106645502Y-126352298D01*
X106245502Y-126952298D02*
X107045502Y-126952298D01*
X106645502Y-127452298D02*
X106645502Y-126952298D01*
%TO.C,D10*%
X123645501Y-84452298D02*
X123645501Y-88352298D01*
X121645501Y-84452298D02*
X123645501Y-84452298D01*
X121645501Y-84452298D02*
X121645501Y-88352298D01*
X122645501Y-85952298D02*
X122645501Y-86352298D01*
X122645501Y-86352298D02*
X122245501Y-86952298D01*
X122095501Y-86352298D02*
X123195501Y-86352298D01*
X123045501Y-86952298D02*
X122645501Y-86352298D01*
X122245501Y-86952298D02*
X123045501Y-86952298D01*
X122645501Y-87452298D02*
X122645501Y-86952298D01*
%TO.C,D35*%
X282033003Y-96589801D02*
X282033003Y-100489801D01*
X280033003Y-96589801D02*
X282033003Y-96589801D01*
X280033003Y-96589801D02*
X280033003Y-100489801D01*
X281033003Y-98089801D02*
X281033003Y-98489801D01*
X281033003Y-98489801D02*
X280633003Y-99089801D01*
X280483003Y-98489801D02*
X281583003Y-98489801D01*
X281433003Y-99089801D02*
X281033003Y-98489801D01*
X280633003Y-99089801D02*
X281433003Y-99089801D01*
X281033003Y-99589801D02*
X281033003Y-99089801D01*
%TO.C,D6*%
X43239601Y-103312833D02*
X43916829Y-107153584D01*
X41269986Y-103660130D02*
X43239601Y-103312833D01*
X41269986Y-103660130D02*
X41947214Y-107500880D01*
X42515266Y-104963693D02*
X42584725Y-105357616D01*
X42584725Y-105357616D02*
X42294991Y-106017960D01*
X42043081Y-105453123D02*
X43126369Y-105262110D01*
X43082837Y-105879042D02*
X42584725Y-105357616D01*
X42294991Y-106017960D02*
X43082837Y-105879042D01*
X42775738Y-106440905D02*
X42688914Y-105948501D01*
%TO.C,D23*%
X243933003Y-66427301D02*
X243933003Y-70327301D01*
X241933003Y-66427301D02*
X243933003Y-66427301D01*
X241933003Y-66427301D02*
X241933003Y-70327301D01*
X242933003Y-67927301D02*
X242933003Y-68327301D01*
X242933003Y-68327301D02*
X242533003Y-68927301D01*
X242383003Y-68327301D02*
X243483003Y-68327301D01*
X243333003Y-68927301D02*
X242933003Y-68327301D01*
X242533003Y-68927301D02*
X243333003Y-68927301D01*
X242933003Y-69427301D02*
X242933003Y-68927301D01*
%TO.C,D28*%
X243933005Y-85477299D02*
X243933005Y-89377299D01*
X241933005Y-85477299D02*
X243933005Y-85477299D01*
X241933005Y-85477299D02*
X241933005Y-89377299D01*
X242933005Y-86977299D02*
X242933005Y-87377299D01*
X242933005Y-87377299D02*
X242533005Y-87977299D01*
X242383005Y-87377299D02*
X243483005Y-87377299D01*
X243333005Y-87977299D02*
X242933005Y-87377299D01*
X242533005Y-87977299D02*
X243333005Y-87977299D01*
X242933005Y-88477299D02*
X242933005Y-87977299D01*
%TO.C,D3*%
X86645501Y-58902299D02*
X86645501Y-62802299D01*
X84645501Y-58902299D02*
X86645501Y-58902299D01*
X84645501Y-58902299D02*
X84645501Y-62802299D01*
X85645501Y-60402299D02*
X85645501Y-60802299D01*
X85645501Y-60802299D02*
X85245501Y-61402299D01*
X85095501Y-60802299D02*
X86195501Y-60802299D01*
X86045501Y-61402299D02*
X85645501Y-60802299D01*
X85245501Y-61402299D02*
X86045501Y-61402299D01*
X85645501Y-61902299D02*
X85645501Y-61402299D01*
%TO.C,D19*%
X160579603Y-124439197D02*
X164479603Y-124439197D01*
X160579603Y-126439197D02*
X160579603Y-124439197D01*
X160579603Y-126439197D02*
X164479603Y-126439197D01*
X162079603Y-125439197D02*
X162479603Y-125439197D01*
X162479603Y-125439197D02*
X163079603Y-125839197D01*
X162479603Y-125989197D02*
X162479603Y-124889197D01*
X163079603Y-125039197D02*
X162479603Y-125439197D01*
X163079603Y-125839197D02*
X163079603Y-125039197D01*
X163579603Y-125439197D02*
X163079603Y-125439197D01*
%TO.C,D36*%
X301275298Y-104623017D02*
X300935391Y-108508176D01*
X299282909Y-104448705D02*
X301275298Y-104623017D01*
X299282909Y-104448705D02*
X298943001Y-108333865D01*
X300148370Y-106030153D02*
X300113508Y-106428631D01*
X300113508Y-106428631D02*
X299662736Y-106991485D01*
X299565600Y-106380695D02*
X300661415Y-106476567D01*
X300459692Y-107061210D02*
X300113508Y-106428631D01*
X299662736Y-106991485D02*
X300459692Y-107061210D01*
X300017636Y-107524445D02*
X300061214Y-107026348D01*
%TO.C,D15*%
X85645502Y-97452301D02*
X85645502Y-101352301D01*
X83645502Y-97452301D02*
X85645502Y-97452301D01*
X83645502Y-97452301D02*
X83645502Y-101352301D01*
X84645502Y-98952301D02*
X84645502Y-99352301D01*
X84645502Y-99352301D02*
X84245502Y-99952301D01*
X84095502Y-99352301D02*
X85195502Y-99352301D01*
X85045502Y-99952301D02*
X84645502Y-99352301D01*
X84245502Y-99952301D02*
X85045502Y-99952301D01*
X84645502Y-100452301D02*
X84645502Y-99952301D01*
%TO.C,D32*%
X323683519Y-99972629D02*
X323006291Y-103813379D01*
X321713904Y-99625332D02*
X323683519Y-99972629D01*
X321713904Y-99625332D02*
X321036676Y-103466083D01*
X322438239Y-101276192D02*
X322368780Y-101670115D01*
X322368780Y-101670115D02*
X321870668Y-102191541D01*
X321827136Y-101574609D02*
X322910424Y-101765622D01*
X322658514Y-102330459D02*
X322368780Y-101670115D01*
X321870668Y-102191541D02*
X322658514Y-102330459D01*
X322177767Y-102753404D02*
X322264591Y-102261000D01*
%TO.C,D11*%
X151586700Y-114533698D02*
X147686700Y-114533698D01*
X151586700Y-112533698D02*
X151586700Y-114533698D01*
X151586700Y-112533698D02*
X147686700Y-112533698D01*
X150086700Y-113533698D02*
X149686700Y-113533698D01*
X149686700Y-113533698D02*
X149086700Y-113133698D01*
X149686700Y-112983698D02*
X149686700Y-114083698D01*
X149086700Y-113933698D02*
X149686700Y-113533698D01*
X149086700Y-113133698D02*
X149086700Y-113933698D01*
X148586700Y-113533698D02*
X149086700Y-113533698D01*
%TO.C,D16*%
X104645502Y-101452298D02*
X104645502Y-105352298D01*
X102645502Y-101452298D02*
X104645502Y-101452298D01*
X102645502Y-101452298D02*
X102645502Y-105352298D01*
X103645502Y-102952298D02*
X103645502Y-103352298D01*
X103645502Y-103352298D02*
X103245502Y-103952298D01*
X103095502Y-103352298D02*
X104195502Y-103352298D01*
X104045502Y-103952298D02*
X103645502Y-103352298D01*
X103245502Y-103952298D02*
X104045502Y-103952298D01*
X103645502Y-104452298D02*
X103645502Y-103952298D01*
%TO.C,D8*%
X85645503Y-78452299D02*
X85645503Y-82352299D01*
X83645503Y-78452299D02*
X85645503Y-78452299D01*
X83645503Y-78452299D02*
X83645503Y-82352299D01*
X84645503Y-79952299D02*
X84645503Y-80352299D01*
X84645503Y-80352299D02*
X84245503Y-80952299D01*
X84095503Y-80352299D02*
X85195503Y-80352299D01*
X85045503Y-80952299D02*
X84645503Y-80352299D01*
X84245503Y-80952299D02*
X85045503Y-80952299D01*
X84645503Y-81452299D02*
X84645503Y-80952299D01*
%TO.C,D40*%
X259808003Y-123577303D02*
X259808003Y-127477303D01*
X257808003Y-123577303D02*
X259808003Y-123577303D01*
X257808003Y-123577303D02*
X257808003Y-127477303D01*
X258808003Y-125077303D02*
X258808003Y-125477303D01*
X258808003Y-125477303D02*
X258408003Y-126077303D01*
X258258003Y-125477303D02*
X259358003Y-125477303D01*
X259208003Y-126077303D02*
X258808003Y-125477303D01*
X258408003Y-126077303D02*
X259208003Y-126077303D01*
X258808003Y-126577303D02*
X258808003Y-126077303D01*
%TO.C,D33*%
X243933004Y-104527302D02*
X243933004Y-108427302D01*
X241933004Y-104527302D02*
X243933004Y-104527302D01*
X241933004Y-104527302D02*
X241933004Y-108427302D01*
X242933004Y-106027302D02*
X242933004Y-106427302D01*
X242933004Y-106427302D02*
X242533004Y-107027302D01*
X242383004Y-106427302D02*
X243483004Y-106427302D01*
X243333004Y-107027302D02*
X242933004Y-106427302D01*
X242533004Y-107027302D02*
X243333004Y-107027302D01*
X242933004Y-107527302D02*
X242933004Y-107027302D01*
%TO.C,D7*%
X64445594Y-87373704D02*
X64785502Y-91258864D01*
X62453205Y-87548016D02*
X64445594Y-87373704D01*
X62453205Y-87548016D02*
X62793112Y-91433175D01*
X63580133Y-88955152D02*
X63614995Y-89353630D01*
X63614995Y-89353630D02*
X63268811Y-89986209D01*
X63067088Y-89401566D02*
X64162903Y-89305694D01*
X64065767Y-89916484D02*
X63614995Y-89353630D01*
X63268811Y-89986209D02*
X64065767Y-89916484D01*
X63710867Y-90449444D02*
X63667289Y-89951347D01*
%TO.C,D1*%
X40402101Y-84162832D02*
X41079329Y-88003583D01*
X38432486Y-84510129D02*
X40402101Y-84162832D01*
X38432486Y-84510129D02*
X39109714Y-88350879D01*
X39677766Y-85813692D02*
X39747225Y-86207615D01*
X39747225Y-86207615D02*
X39457491Y-86867959D01*
X39205581Y-86303122D02*
X40288869Y-86112109D01*
X40245337Y-86729041D02*
X39747225Y-86207615D01*
X39457491Y-86867959D02*
X40245337Y-86729041D01*
X39938238Y-87290904D02*
X39851414Y-86798500D01*
%TO.C,D30*%
X282033003Y-77477302D02*
X282033003Y-81377302D01*
X280033003Y-77477302D02*
X282033003Y-77477302D01*
X280033003Y-77477302D02*
X280033003Y-81377302D01*
X281033003Y-78977302D02*
X281033003Y-79377302D01*
X281033003Y-79377302D02*
X280633003Y-79977302D01*
X280483003Y-79377302D02*
X281583003Y-79377302D01*
X281433003Y-79977302D02*
X281033003Y-79377302D01*
X280633003Y-79977302D02*
X281433003Y-79977302D01*
X281033003Y-80477302D02*
X281033003Y-79977302D01*
%TO.C,D22*%
X155636527Y-134253742D02*
X153686527Y-137631241D01*
X153904477Y-133253742D02*
X155636527Y-134253742D01*
X153904477Y-133253742D02*
X151954477Y-136631241D01*
X154020502Y-135052780D02*
X153820502Y-135399190D01*
X153820502Y-135399190D02*
X153174092Y-135718805D01*
X153344188Y-135124190D02*
X154296816Y-135674190D01*
X153866912Y-136118805D02*
X153820502Y-135399190D01*
X153174092Y-135718805D02*
X153866912Y-136118805D01*
X153270502Y-136351818D02*
X153520502Y-135918805D01*
%TO.C,D37*%
X320508516Y-119022631D02*
X319831288Y-122863381D01*
X318538901Y-118675334D02*
X320508516Y-119022631D01*
X318538901Y-118675334D02*
X317861673Y-122516085D01*
X319263236Y-120326194D02*
X319193777Y-120720117D01*
X319193777Y-120720117D02*
X318695665Y-121241543D01*
X318652133Y-120624611D02*
X319735421Y-120815624D01*
X319483511Y-121380461D02*
X319193777Y-120720117D01*
X318695665Y-121241543D02*
X319483511Y-121380461D01*
X319002764Y-121803406D02*
X319089588Y-121311002D01*
%TO.C,D5*%
X124645502Y-66452296D02*
X124645502Y-70352296D01*
X122645502Y-66452296D02*
X124645502Y-66452296D01*
X122645502Y-66452296D02*
X122645502Y-70352296D01*
X123645502Y-67952296D02*
X123645502Y-68352296D01*
X123645502Y-68352296D02*
X123245502Y-68952296D01*
X123095502Y-68352296D02*
X124195502Y-68352296D01*
X124045502Y-68952296D02*
X123645502Y-68352296D01*
X123245502Y-68952296D02*
X124045502Y-68952296D01*
X123645502Y-69452296D02*
X123645502Y-68952296D01*
%TO.C,D31*%
X302862798Y-85573019D02*
X302522891Y-89458178D01*
X300870409Y-85398707D02*
X302862798Y-85573019D01*
X300870409Y-85398707D02*
X300530501Y-89283867D01*
X301735870Y-86980155D02*
X301701008Y-87378633D01*
X301701008Y-87378633D02*
X301250236Y-87941487D01*
X301153100Y-87330697D02*
X302248915Y-87426569D01*
X302047192Y-88011212D02*
X301701008Y-87378633D01*
X301250236Y-87941487D02*
X302047192Y-88011212D01*
X301605136Y-88474447D02*
X301648714Y-87976350D01*
%TO.C,D38*%
X214099027Y-140841244D02*
X216049027Y-144218743D01*
X212366977Y-141841244D02*
X214099027Y-140841244D01*
X212366977Y-141841244D02*
X214316977Y-145218743D01*
X213983002Y-142640282D02*
X214183002Y-142986692D01*
X214183002Y-142986692D02*
X214136592Y-143706307D01*
X213706688Y-143261692D02*
X214659316Y-142711692D01*
X214829412Y-143306307D02*
X214183002Y-142986692D01*
X214136592Y-143706307D02*
X214829412Y-143306307D01*
X214733002Y-143939320D02*
X214483002Y-143506307D01*
%TO.C,D13*%
X47239600Y-121312833D02*
X47916828Y-125153584D01*
X45269985Y-121660130D02*
X47239600Y-121312833D01*
X45269985Y-121660130D02*
X45947213Y-125500880D01*
X46515265Y-122963693D02*
X46584724Y-123357616D01*
X46584724Y-123357616D02*
X46294990Y-124017960D01*
X46043080Y-123453123D02*
X47126368Y-123262110D01*
X47082836Y-123879042D02*
X46584724Y-123357616D01*
X46294990Y-124017960D02*
X47082836Y-123879042D01*
X46775737Y-124440905D02*
X46688913Y-123948501D01*
%TD*%
M02*
