M48
; DRILL file {KiCad 7.0.7-7.0.7~ubuntu22.04.1} date Fr 08 Sep 2023 11:00:01 CEST
; FORMAT={-:-/ absolute / inch / decimal}
; #@! TF.CreationDate,2023-09-08T11:00:01+02:00
; #@! TF.GenerationSoftware,Kicad,Pcbnew,7.0.7-7.0.7~ubuntu22.04.1
; #@! TF.FileFunction,Plated,1,2,PTH
FMAT,2
INCH
; #@! TA.AperFunction,Plated,PTH,ViaDrill
T1C0.0157
; #@! TA.AperFunction,Plated,PTH,ComponentDrill
T2C0.0394
; #@! TA.AperFunction,Plated,PTH,ComponentDrill
T3C0.0433
; #@! TA.AperFunction,Plated,PTH,ComponentDrill
T4C0.0512
; #@! TA.AperFunction,Plated,PTH,ComponentDrill
T5C0.0787
; #@! TA.AperFunction,Plated,PTH,ComponentDrill
T6C0.1181
%
G90
G05
T1
X2.1862Y-3.5312
X2.2162Y-3.6906
X2.3188Y-4.2722
X2.3461Y-4.4273
X2.4487Y-5.0089
X3.0523Y-2.98
X3.0621Y-3.1714
X3.1102Y-3.7205
X3.1273Y-3.9166
X3.1754Y-4.4657
X3.6429Y-4.9879
X3.909Y-2.8029
X3.909Y-3.3934
X3.909Y-3.5509
X3.909Y-4.1415
X3.9185Y-2.6257
X4.6571Y-3.7478
X4.6571Y-2.9997
X4.6571Y-3.5903
X4.6571Y-4.3383
X4.6665Y-2.8225
X4.8244Y-5.2248
X5.3756Y-4.5949
X5.4051Y-3.8265
X5.4051Y-3.0785
X5.4051Y-4.4171
X5.4051Y-3.669
X5.4145Y-2.9013
X5.572Y-4.4761
X5.572Y-4.7123
X5.6114Y-4.9092
X5.6512Y-5.3823
X5.887Y-2.7832
X5.887Y-3.1769
X5.887Y-4.5548
X6.4779Y-5.776
X6.5956Y-3.8855
X8.0523Y-3.0981
X8.3673Y-3.9643
X9.1551Y-5.5398
X9.9819Y-5.3036
X10.0212Y-4.6736
X10.1295Y-3.669
X10.1295Y-4.4171
X10.1295Y-3.1179
X10.1295Y-3.8659
X10.1389Y-2.9013
X10.7693Y-4.5555
X10.7693Y-5.2248
X10.8775Y-4.3383
X10.8775Y-2.9997
X10.8775Y-3.5903
X10.8775Y-3.7478
X10.887Y-2.8225
X11.6256Y-2.8029
X11.6256Y-3.3934
X11.6256Y-3.5509
X11.6256Y-4.1415
X11.635Y-2.6257
X11.6354Y-4.3193
X12.3964Y-4.5143
X12.4444Y-3.9652
X12.4616Y-3.7691
X12.5011Y-3.0194
X12.5096Y-3.22
X13.1124Y-5.1058
X13.2081Y-4.563
X13.2423Y-4.3692
X13.3449Y-3.7876
X13.3673Y-3.6099
T2
X3.5311Y-4.8682
X3.6295Y-4.8682
X3.728Y-4.8682
X5.7294Y-2.5091
X5.7294Y-2.6091
X5.7294Y-2.7091
X5.7294Y-2.8091
X5.7294Y-2.9091
X5.7294Y-3.0091
X5.7294Y-3.1091
X5.7294Y-3.2091
X5.7294Y-3.3091
X5.7294Y-3.4091
X5.7294Y-3.5091
X5.7294Y-3.6091
X5.8294Y-3.6091
X5.9294Y-3.6091
X6.0294Y-3.6091
X6.1294Y-3.6091
X6.2294Y-3.6091
X6.3294Y-2.5091
X6.3294Y-2.6091
X6.3294Y-2.7091
X6.3294Y-2.8091
X6.3294Y-2.9091
X6.3294Y-3.0091
X6.3294Y-3.1091
X6.3294Y-3.2091
X6.3294Y-3.3091
X6.3294Y-3.4091
X6.3294Y-3.5091
X6.3294Y-3.6091
X6.6002Y-3.2166
X6.6002Y-3.4135
X8.3081Y-2.6538
X8.3081Y-2.7538
X8.3081Y-2.8538
X8.3081Y-2.9538
X8.3081Y-3.0538
X8.3081Y-3.1538
X8.3081Y-3.2538
X8.3081Y-3.3538
X8.3081Y-3.4538
X8.3081Y-3.5538
X8.3081Y-3.6538
X8.3081Y-3.7538
X8.362Y-4.7717
X8.362Y-4.9686
X8.4081Y-3.7538
X8.4643Y-4.1221
X8.5081Y-3.7538
X8.5643Y-4.1221
X8.6081Y-3.7538
X8.6643Y-4.1221
X8.7081Y-3.7538
X8.7643Y-4.1221
X8.8081Y-3.7538
X8.9081Y-2.6538
X8.9081Y-2.7538
X8.9081Y-2.8538
X8.9081Y-2.9538
X8.9081Y-3.0538
X8.9081Y-3.1538
X8.9081Y-3.2538
X8.9081Y-3.3538
X8.9081Y-3.4538
X8.9081Y-3.5538
X8.9081Y-3.6538
X8.9081Y-3.7538
T3
X5.7202Y-4.1313
X5.7202Y-4.3084
X5.7202Y-4.6313
X5.7202Y-4.8084
X5.9761Y-4.1313
X5.9761Y-4.3084
X5.9761Y-4.6313
X5.9761Y-4.8084
X6.2827Y-4.1313
X6.2827Y-4.3084
X6.2827Y-4.6313
X6.2827Y-4.8084
X6.5386Y-4.1313
X6.5386Y-4.3084
X6.5386Y-4.6313
X6.5386Y-4.8084
T4
X6.5018Y-3.1773
X6.5018Y-3.4528
X8.4605Y-4.7324
X8.4605Y-5.008
T6
X1.8233Y-3.7805
X1.9536Y-4.5191
X2.0522Y-3.6386
X2.0838Y-5.2577
X2.1824Y-4.3772
X2.3126Y-5.1158
X2.6574Y-3.2032
X2.7228Y-3.9503
X2.7881Y-4.6975
X2.8977Y-3.0818
X2.9631Y-3.8289
X3.0285Y-4.576
X3.5297Y-2.8271
X3.5297Y-4.3271
X3.5297Y-3.5771
X3.7797Y-2.7271
X3.7797Y-4.2271
X3.7797Y-3.4771
X4.2797Y-3.0141
X4.2797Y-3.7641
X4.2797Y-4.5141
X4.4097Y-5.4196
X4.5297Y-2.9141
X4.5297Y-3.6641
X4.5297Y-4.4141
X4.6597Y-5.3196
X5.0297Y-3.8576
X5.0297Y-4.6076
X5.0297Y-3.1076
X5.2275Y-5.505
X5.2797Y-3.7576
X5.2797Y-4.5076
X5.2797Y-3.0076
X5.4948Y-5.4731
X5.9963Y-5.7955
X6.2628Y-5.8339
X8.8026Y-5.8955
X8.9691Y-5.6839
X9.5514Y-5.5567
X9.7423Y-3.1076
X9.7423Y-3.8576
X9.7423Y-4.6076
X9.767Y-5.3954
X9.9923Y-3.0076
X9.9923Y-3.7576
X9.9923Y-4.5076
X10.3624Y-5.4196
X10.4923Y-3.014
X10.4923Y-3.764
X10.4923Y-4.514
X10.6124Y-5.3196
X10.7423Y-2.914
X10.7423Y-3.664
X10.7423Y-4.414
X11.2423Y-3.577
X11.2423Y-4.327
X11.2423Y-2.827
X11.4923Y-3.477
X11.4923Y-4.227
X11.4923Y-2.727
X11.9847Y-4.68
X12.0501Y-3.9329
X12.1154Y-3.1857
X12.2425Y-4.6022
X12.3078Y-3.855
X12.3732Y-3.1079
X12.6913Y-5.223
X12.8216Y-4.4844
X12.9518Y-3.7458
X12.9549Y-5.1679
X13.0851Y-4.4293
X13.2154Y-3.6907
T2
G00X6.4846Y-2.9469
M15
G01X6.4846Y-2.9666
M16
G05
G00X6.6499Y-2.6123
M15
G01X6.6499Y-2.632
M16
G05
G00X6.6499Y-2.7304
M15
G01X6.6499Y-2.7501
M16
G05
G00X6.6499Y-2.8879
M15
G01X6.6499Y-2.9076
M16
G05
G00X7.9875Y-2.96
M15
G01X7.9875Y-2.9797
M16
G05
G00X8.1529Y-2.6254
M15
G01X8.1529Y-2.6451
M16
G05
G00X8.1529Y-2.7435
M15
G01X8.1529Y-2.7632
M16
G05
G00X8.1529Y-2.901
M15
G01X8.1529Y-2.9207
M16
G05
T5
G00X3.4091Y-5.1536
M15
G01X3.4091Y-5.1733
M16
G05
G00X3.85Y-5.1536
M15
G01X3.85Y-5.1733
M16
G05
T0
M30
