M48
; DRILL file {KiCad 7.0.7-7.0.7~ubuntu22.04.1} date Fr 08 Sep 2023 11:00:01 CEST
; FORMAT={-:-/ absolute / inch / decimal}
; #@! TF.CreationDate,2023-09-08T11:00:01+02:00
; #@! TF.GenerationSoftware,Kicad,Pcbnew,7.0.7-7.0.7~ubuntu22.04.1
; #@! TF.FileFunction,NonPlated,1,2,NPTH
FMAT,2
INCH
; #@! TA.AperFunction,NonPlated,NPTH,ComponentDrill
T1C0.0310
; #@! TA.AperFunction,NonPlated,NPTH,ComponentDrill
T2C0.0472
; #@! TA.AperFunction,NonPlated,NPTH,ComponentDrill
T3C0.0689
; #@! TA.AperFunction,NonPlated,NPTH,ComponentDrill
T4C0.0866
; #@! TA.AperFunction,NonPlated,NPTH,ComponentDrill
T5C0.1570
%
G90
G05
T1
X6.7362Y-2.7098
X6.7362Y-2.7598
X6.7362Y-2.8098
X6.7362Y-2.8598
X6.7362Y-2.9098
X6.7362Y-4.2122
X6.7362Y-4.2622
X6.7362Y-4.3122
X6.7362Y-4.3622
X6.7362Y-4.4122
X7.5276Y-4.2098
X7.5276Y-4.2598
X7.5276Y-4.3098
X7.5276Y-4.3598
X7.5276Y-4.4098
X7.5294Y-2.711
X7.5294Y-2.761
X7.5294Y-2.811
X7.5294Y-2.861
X7.5294Y-2.911
T2
X6.5672Y-2.5513
X6.5672Y-2.8269
X8.0702Y-2.5644
X8.0702Y-2.84
T3
X1.6901Y-3.6009
X1.8203Y-4.3395
X1.9506Y-5.0781
X2.084Y-3.5315
X2.2143Y-4.2701
X2.3445Y-5.0087
X2.5403Y-3.0126
X2.6057Y-3.7598
X2.6711Y-4.5069
X2.9388Y-2.9778
X3.0042Y-3.7249
X3.0696Y-4.4721
X3.4297Y-2.6271
X3.4297Y-4.1271
X3.4297Y-3.3771
X3.8297Y-2.6271
X3.8297Y-4.1271
X3.8297Y-3.3771
X4.1797Y-2.8141
X4.1797Y-3.5641
X4.1797Y-4.3141
X4.3097Y-5.2196
X4.5797Y-2.8141
X4.5797Y-3.5641
X4.5797Y-4.3141
X4.7097Y-5.2196
X4.9297Y-3.6576
X4.9297Y-4.4076
X4.9297Y-2.9076
X5.1826Y-5.2859
X5.3297Y-3.6576
X5.3297Y-4.4076
X5.3297Y-2.9076
X5.569Y-5.3895
X6.0097Y-5.5723
X6.3561Y-5.7723
X8.616Y-5.7723
X8.9624Y-5.5723
X9.4031Y-5.3894
X9.6423Y-2.9076
X9.6423Y-3.6576
X9.6423Y-4.4076
X9.7894Y-5.2859
X10.0423Y-2.9076
X10.0423Y-3.6576
X10.0423Y-4.4076
X10.2624Y-5.2196
X10.3923Y-2.814
X10.3923Y-3.564
X10.3923Y-4.314
X10.6624Y-5.2196
X10.7923Y-2.814
X10.7923Y-3.564
X10.7923Y-4.314
X11.1423Y-3.377
X11.1423Y-4.127
X11.1423Y-2.627
X11.5423Y-3.377
X11.5423Y-4.127
X11.5423Y-2.627
X11.9025Y-4.472
X11.9679Y-3.7249
X12.0332Y-2.9778
X12.301Y-4.5069
X12.3664Y-3.7598
X12.4317Y-3.0126
X12.6276Y-5.0087
X12.7578Y-4.27
X12.888Y-3.5314
X13.0215Y-5.0781
X13.1517Y-4.3395
X13.282Y-3.6009
T4
X2.112Y-2.941
X2.8994Y-5.1851
X4.1593Y-2.2324
X5.5372Y-2.3111
X5.6553Y-3.8451
X6.5047Y-5.2201
X6.5608Y-3.6497
X7.7183Y-2.7836
X7.7183Y-4.3426
X9.2774Y-2.7836
X9.2774Y-4.3426
X10.8143Y-2.2663
X12.0643Y-5.2038
X12.8768Y-2.9538
T5
X1.8871Y-3.5662
X2.0173Y-4.3048
X2.1475Y-5.0434
X2.7396Y-2.9952
X2.805Y-3.7424
X2.8703Y-4.4895
X3.6297Y-2.6271
X3.6297Y-4.1271
X3.6297Y-3.3771
X4.3797Y-2.8141
X4.3797Y-3.5641
X4.3797Y-4.3141
X4.5097Y-5.2196
X5.1297Y-3.6576
X5.1297Y-4.4076
X5.1297Y-2.9076
X5.3758Y-5.3377
X6.1829Y-5.6723
X8.7892Y-5.6723
X9.5963Y-5.3377
X9.8423Y-2.9076
X9.8423Y-3.6576
X9.8423Y-4.4076
X10.4624Y-5.2196
X10.5923Y-2.814
X10.5923Y-3.564
X10.5923Y-4.314
X11.3423Y-3.377
X11.3423Y-4.127
X11.3423Y-2.627
X12.1017Y-4.4895
X12.1671Y-3.7423
X12.2325Y-2.9952
X12.8245Y-5.0434
X12.9548Y-4.3048
X13.085Y-3.5662
T0
M30
