%TF.GenerationSoftware,KiCad,Pcbnew,7.0.7-7.0.7~ubuntu22.04.1*%
%TF.CreationDate,2023-09-08T11:00:04+02:00*%
%TF.ProjectId,abomination,61626f6d-696e-4617-9469-6f6e2e6b6963,rev?*%
%TF.SameCoordinates,Original*%
%TF.FileFunction,Soldermask,Top*%
%TF.FilePolarity,Negative*%
%FSLAX46Y46*%
G04 Gerber Fmt 4.6, Leading zero omitted, Abs format (unit mm)*
G04 Created by KiCad (PCBNEW 7.0.7-7.0.7~ubuntu22.04.1) date 2023-09-08 11:00:04*
%MOMM*%
%LPD*%
G01*
G04 APERTURE LIST*
%ADD10C,2.200000*%
%ADD11C,1.750000*%
%ADD12C,3.987800*%
%ADD13C,3.300000*%
%ADD14C,0.787400*%
%ADD15C,2.000000*%
%ADD16C,1.200000*%
%ADD17C,2.100000*%
%ADD18R,1.700000X1.700000*%
%ADD19O,1.700000X1.700000*%
%ADD20R,2.000000X2.000000*%
%ADD21R,2.500000X3.000000*%
G04 APERTURE END LIST*
D10*
%TO.C,H15*%
X143645502Y-97664795D03*
%TD*%
D11*
%TO.C,SW3*%
X87115501Y-66727298D03*
D12*
X92195501Y-66727298D03*
D11*
X97275501Y-66727298D03*
D13*
X96005501Y-69267298D03*
X89655501Y-71807298D03*
%TD*%
D11*
%TO.C,SW1*%
X42928680Y-91463430D03*
D12*
X47931503Y-90581297D03*
D11*
X52934326Y-89699164D03*
D13*
X52124687Y-92421109D03*
X46312224Y-96025187D03*
%TD*%
D11*
%TO.C,SW10*%
X125215501Y-92902298D03*
D12*
X130295501Y-92902298D03*
D11*
X135375501Y-92902298D03*
D13*
X134105501Y-95442298D03*
X127755501Y-97982298D03*
%TD*%
D11*
%TO.C,SW29*%
X263965000Y-90526801D03*
D12*
X269045000Y-90526801D03*
D11*
X274125000Y-90526801D03*
D13*
X272855000Y-93066801D03*
X266505000Y-95606801D03*
%TD*%
D10*
%TO.C,H1*%
X53645499Y-74702298D03*
%TD*%
D14*
%TO.C,H10*%
X171100000Y-106990600D03*
X171100000Y-108260600D03*
X171100000Y-109530600D03*
X171100000Y-110800600D03*
X171100000Y-112070600D03*
%TD*%
D11*
%TO.C,SW13*%
X49544675Y-128984608D03*
D12*
X54547498Y-128102475D03*
D11*
X59550321Y-127220342D03*
D13*
X58740682Y-129942287D03*
X52928219Y-133546365D03*
%TD*%
D11*
%TO.C,SW9*%
X106165502Y-90527297D03*
D12*
X111245502Y-90527297D03*
D11*
X116325502Y-90527297D03*
D13*
X115055502Y-93067297D03*
X108705502Y-95607297D03*
%TD*%
D10*
%TO.C,H13*%
X196045504Y-70702300D03*
X196045504Y-110302300D03*
X235645504Y-70702300D03*
X235645504Y-110302300D03*
%TD*%
D11*
%TO.C,SW39*%
X238838100Y-136891601D03*
D12*
X243745003Y-135576800D03*
D11*
X248651906Y-134261999D03*
D13*
X248082581Y-137044151D03*
X242606352Y-141141104D03*
%TD*%
D11*
%TO.C,SW15*%
X87115502Y-104827298D03*
D12*
X92195502Y-104827298D03*
D11*
X97275502Y-104827298D03*
D13*
X96005502Y-107367298D03*
X89655502Y-109907298D03*
%TD*%
D11*
%TO.C,SW27*%
X327356181Y-89698669D03*
D12*
X332359004Y-90580802D03*
D11*
X337361827Y-91462935D03*
D13*
X335670055Y-93743813D03*
X328975460Y-95142559D03*
%TD*%
D10*
%TO.C,H2*%
X73645500Y-131702298D03*
%TD*%
%TO.C,H4*%
X306433001Y-132177302D03*
%TD*%
D11*
%TO.C,SW31*%
X303984018Y-94612560D03*
D12*
X309044687Y-95055311D03*
D11*
X314105356Y-95498062D03*
D13*
X312618813Y-97917709D03*
X306071601Y-99894604D03*
%TD*%
D10*
%TO.C,H3*%
X327070502Y-75027298D03*
%TD*%
D11*
%TO.C,SW24*%
X263965000Y-71476800D03*
D12*
X269045000Y-71476800D03*
D11*
X274125000Y-71476800D03*
D13*
X272855000Y-74016800D03*
X266505000Y-76556800D03*
%TD*%
D15*
%TO.C,SW19*%
X159579601Y-117634097D03*
X166079601Y-117634097D03*
X159579601Y-122134097D03*
X166079601Y-122134097D03*
%TD*%
D11*
%TO.C,SW8*%
X87115503Y-85777298D03*
D12*
X92195503Y-85777298D03*
D11*
X97275503Y-85777298D03*
D13*
X96005503Y-88317298D03*
X89655503Y-90857298D03*
%TD*%
D11*
%TO.C,SW40*%
X260665003Y-132576801D03*
D12*
X265745003Y-132576801D03*
D11*
X270825003Y-132576801D03*
D13*
X269555003Y-135116801D03*
X263205003Y-137656801D03*
%TD*%
D10*
%TO.C,H8*%
X274683002Y-57564800D03*
%TD*%
D16*
%TO.C,J1*%
X166808001Y-64802297D03*
X166808001Y-71802297D03*
%TD*%
D11*
%TO.C,SW28*%
X244915000Y-92901802D03*
D12*
X249995000Y-92901802D03*
D11*
X255075000Y-92901802D03*
D13*
X253805000Y-95441802D03*
X247455000Y-97981802D03*
%TD*%
D15*
%TO.C,SW11*%
X145293000Y-104934098D03*
X151793000Y-104934098D03*
X145293000Y-109434098D03*
X151793000Y-109434098D03*
%TD*%
D11*
%TO.C,SW36*%
X302323699Y-113590067D03*
D12*
X307384368Y-114032818D03*
D11*
X312445037Y-114475569D03*
D13*
X310958494Y-116895216D03*
X304411282Y-118872111D03*
%TD*%
D11*
%TO.C,SW32*%
X324048183Y-108459256D03*
D12*
X329051006Y-109341389D03*
D11*
X334053829Y-110223522D03*
D13*
X332362057Y-112504400D03*
X325667462Y-113903146D03*
%TD*%
D11*
%TO.C,SW21*%
X131638597Y-134262498D03*
D12*
X136545500Y-135577299D03*
D11*
X141452403Y-136892100D03*
D13*
X139568277Y-139016851D03*
X132777248Y-139826802D03*
%TD*%
D11*
%TO.C,SW2*%
X64524832Y-76521050D03*
D12*
X69585501Y-76078299D03*
D11*
X74646170Y-75635548D03*
D13*
X73602378Y-78276570D03*
X67497918Y-81360344D03*
%TD*%
D11*
%TO.C,SW38*%
X218845592Y-146616801D03*
D12*
X223245001Y-144076801D03*
D11*
X227644410Y-141536801D03*
D13*
X227814558Y-144371506D03*
X223585296Y-149746210D03*
%TD*%
D14*
%TO.C,H11*%
X191246000Y-73940000D03*
X191246000Y-72670000D03*
X191246000Y-71400000D03*
X191246000Y-70130000D03*
X191246000Y-68860000D03*
%TD*%
D11*
%TO.C,SW16*%
X106165502Y-109577298D03*
D12*
X111245502Y-109577298D03*
D11*
X116325502Y-109577298D03*
D13*
X115055502Y-112117298D03*
X108705502Y-114657298D03*
%TD*%
D10*
%TO.C,H5*%
X105645501Y-56702298D03*
%TD*%
%TO.C,H9*%
X140645501Y-58702299D03*
%TD*%
D11*
%TO.C,SW17*%
X125215501Y-111952298D03*
D12*
X130295501Y-111952298D03*
D11*
X135375501Y-111952298D03*
D13*
X134105501Y-114492298D03*
X127755501Y-117032298D03*
%TD*%
D11*
%TO.C,SW35*%
X283015000Y-104826801D03*
D12*
X288095000Y-104826801D03*
D11*
X293175000Y-104826801D03*
D13*
X291905000Y-107366801D03*
X285555000Y-109906801D03*
%TD*%
D11*
%TO.C,SW23*%
X244915000Y-73851800D03*
D12*
X249995000Y-73851800D03*
D11*
X255075000Y-73851800D03*
D13*
X253805000Y-76391800D03*
X247455000Y-78931800D03*
%TD*%
D17*
%TO.C,R_RST1*%
X214895502Y-127202300D03*
X214895502Y-120202300D03*
%TD*%
D18*
%TO.C,J3*%
X214993003Y-104702300D03*
D19*
X217533003Y-104702300D03*
X220073003Y-104702300D03*
X222613003Y-104702300D03*
%TD*%
D16*
%TO.C,J2*%
X204983502Y-65134801D03*
X204983502Y-72134801D03*
%TD*%
D11*
%TO.C,SW20*%
X109465502Y-132577297D03*
D12*
X114545502Y-132577297D03*
D11*
X119625502Y-132577297D03*
D13*
X118355502Y-135117297D03*
X112005502Y-137657297D03*
%TD*%
D17*
%TO.C,L_RST1*%
X165145501Y-80702298D03*
X165145501Y-87702298D03*
%TD*%
D11*
%TO.C,SW22*%
X152646092Y-141537299D03*
D12*
X157045501Y-144077299D03*
D11*
X161444910Y-146617299D03*
D13*
X159075058Y-148182004D03*
X152305796Y-147206708D03*
%TD*%
D11*
%TO.C,SW33*%
X244915003Y-111951802D03*
D12*
X249995003Y-111951802D03*
D11*
X255075003Y-111951802D03*
D13*
X253805003Y-114491802D03*
X247455003Y-117031802D03*
%TD*%
D11*
%TO.C,SW7*%
X66185150Y-95498559D03*
D12*
X71245819Y-95055808D03*
D11*
X76306488Y-94613057D03*
D13*
X75262696Y-97254079D03*
X69158236Y-100337853D03*
%TD*%
D11*
%TO.C,SW26*%
X305644335Y-75635050D03*
D12*
X310705004Y-76077801D03*
D11*
X315765673Y-76520552D03*
D13*
X314279130Y-78940199D03*
X307731918Y-80917094D03*
%TD*%
D10*
%TO.C,H6*%
X165220503Y-132589798D03*
%TD*%
D11*
%TO.C,SW5*%
X125215503Y-73852298D03*
D12*
X130295503Y-73852298D03*
D11*
X135375503Y-73852298D03*
D13*
X134105503Y-76392298D03*
X127755503Y-78932298D03*
%TD*%
D15*
%TO.C,SW18*%
X145293000Y-117634098D03*
X151793000Y-117634098D03*
X145293000Y-122134098D03*
X151793000Y-122134098D03*
%TD*%
D11*
%TO.C,SW34*%
X263965002Y-109576801D03*
D12*
X269045002Y-109576801D03*
D11*
X274125002Y-109576801D03*
D13*
X272855002Y-112116801D03*
X266505002Y-114656801D03*
%TD*%
D14*
%TO.C,H7*%
X171100000Y-68830000D03*
X171100000Y-70100000D03*
X171100000Y-71370000D03*
X171100000Y-72640000D03*
X171100000Y-73910000D03*
%TD*%
D11*
%TO.C,SW37*%
X320740185Y-127219845D03*
D12*
X325743008Y-128101978D03*
D11*
X330745831Y-128984111D03*
D13*
X329054059Y-131264989D03*
X322359464Y-132663735D03*
%TD*%
D20*
%TO.C,L_ROT1*%
X94690302Y-123651398D03*
D15*
X89690302Y-123651398D03*
X92190302Y-123651398D03*
D21*
X97790302Y-131151398D03*
X86590302Y-131151398D03*
%TD*%
D11*
%TO.C,SW25*%
X283015002Y-66726800D03*
D12*
X288095002Y-66726800D03*
D11*
X293175002Y-66726800D03*
D13*
X291905002Y-69266800D03*
X285555002Y-71806800D03*
%TD*%
D11*
%TO.C,SW30*%
X283015000Y-85776800D03*
D12*
X288095000Y-85776800D03*
D11*
X293175000Y-85776800D03*
D13*
X291905000Y-88316800D03*
X285555000Y-90856800D03*
%TD*%
D10*
%TO.C,H14*%
X166645502Y-92702299D03*
%TD*%
D14*
%TO.C,H12*%
X191200000Y-112010000D03*
X191200000Y-110740000D03*
X191200000Y-109470000D03*
X191200000Y-108200000D03*
X191200000Y-106930000D03*
%TD*%
D11*
%TO.C,SW4*%
X106165500Y-71477299D03*
D12*
X111245500Y-71477299D03*
D11*
X116325500Y-71477299D03*
D13*
X115055500Y-74017299D03*
X108705500Y-76557299D03*
%TD*%
D15*
%TO.C,SW12*%
X159579600Y-104934097D03*
X166079600Y-104934097D03*
X159579600Y-109434097D03*
X166079600Y-109434097D03*
%TD*%
D11*
%TO.C,SW14*%
X67845468Y-114476068D03*
D12*
X72906137Y-114033317D03*
D11*
X77966806Y-113590566D03*
D13*
X76923014Y-116231588D03*
X70818554Y-119315362D03*
%TD*%
D11*
%TO.C,SW6*%
X46236677Y-110224019D03*
D12*
X51239500Y-109341886D03*
D11*
X56242323Y-108459753D03*
D13*
X55432684Y-111181698D03*
X49620221Y-114785776D03*
%TD*%
M02*
