%TF.GenerationSoftware,KiCad,Pcbnew,7.0.7-7.0.7~ubuntu22.04.1*%
%TF.CreationDate,2023-09-08T11:00:04+02:00*%
%TF.ProjectId,abomination,61626f6d-696e-4617-9469-6f6e2e6b6963,rev?*%
%TF.SameCoordinates,Original*%
%TF.FileFunction,Paste,Bot*%
%TF.FilePolarity,Positive*%
%FSLAX46Y46*%
G04 Gerber Fmt 4.6, Leading zero omitted, Abs format (unit mm)*
G04 Created by KiCad (PCBNEW 7.0.7-7.0.7~ubuntu22.04.1) date 2023-09-08 11:00:04*
%MOMM*%
%LPD*%
G01*
G04 APERTURE LIST*
G04 Aperture macros list*
%AMRoundRect*
0 Rectangle with rounded corners*
0 $1 Rounding radius*
0 $2 $3 $4 $5 $6 $7 $8 $9 X,Y pos of 4 corners*
0 Add a 4 corners polygon primitive as box body*
4,1,4,$2,$3,$4,$5,$6,$7,$8,$9,$2,$3,0*
0 Add four circle primitives for the rounded corners*
1,1,$1+$1,$2,$3*
1,1,$1+$1,$4,$5*
1,1,$1+$1,$6,$7*
1,1,$1+$1,$8,$9*
0 Add four rect primitives between the rounded corners*
20,1,$1+$1,$2,$3,$4,$5,0*
20,1,$1+$1,$4,$5,$6,$7,0*
20,1,$1+$1,$6,$7,$8,$9,0*
20,1,$1+$1,$8,$9,$2,$3,0*%
%AMRotRect*
0 Rectangle, with rotation*
0 The origin of the aperture is its center*
0 $1 length*
0 $2 width*
0 $3 Rotation angle, in degrees counterclockwise*
0 Add horizontal line*
21,1,$1,$2,0,0,$3*%
G04 Aperture macros list end*
%ADD10RoundRect,0.250000X1.025000X1.000000X-1.025000X1.000000X-1.025000X-1.000000X1.025000X-1.000000X0*%
%ADD11RoundRect,0.250000X0.835780X1.162797X-1.183076X0.806818X-0.835780X-1.162797X1.183076X-0.806818X0*%
%ADD12RoundRect,0.250000X0.731255X1.231215X-1.248893X0.700636X-0.731255X-1.231215X1.248893X-0.700636X0*%
%ADD13RoundRect,0.250000X1.183076X0.806818X-0.835780X1.162797X-1.183076X-0.806818X0.835780X-1.162797X0*%
%ADD14RoundRect,0.250000X1.108255X0.906860X-0.933944X1.085529X-1.108255X-0.906860X0.933944X-1.085529X0*%
%ADD15RoundRect,0.250000X1.248893X0.700636X-0.731255X1.231215X-1.248893X-0.700636X0.731255X-1.231215X0*%
%ADD16RoundRect,0.250000X0.933944X1.085529X-1.108255X0.906860X-0.933944X-1.085529X1.108255X-0.906860X0*%
%ADD17RoundRect,0.250000X0.387676X1.378525X-1.387676X0.353525X-0.387676X-1.378525X1.387676X-0.353525X0*%
%ADD18RoundRect,0.250000X1.387676X0.353525X-0.387676X1.378525X-1.387676X-0.353525X0.387676X-1.378525X0*%
%ADD19R,1.200000X0.900000*%
%ADD20RotRect,0.900000X1.200000X285.000000*%
%ADD21RotRect,0.900000X1.200000X260.000000*%
%ADD22R,0.900000X1.200000*%
%ADD23RotRect,0.900000X1.200000X275.000000*%
%ADD24RotRect,0.900000X1.200000X265.000000*%
%ADD25RotRect,0.900000X1.200000X255.000000*%
%ADD26RotRect,0.900000X1.200000X280.000000*%
%ADD27RotRect,0.900000X1.200000X240.000000*%
%ADD28RotRect,0.900000X1.200000X300.000000*%
G04 APERTURE END LIST*
D10*
%TO.C,SW3*%
X99555501Y-69267298D03*
X86105501Y-71807298D03*
%TD*%
D11*
%TO.C,SW1*%
X55620754Y-91804658D03*
X42816157Y-96641638D03*
%TD*%
D10*
%TO.C,SW10*%
X137655501Y-95442298D03*
X124205501Y-97982298D03*
%TD*%
%TO.C,SW29*%
X276405000Y-93066801D03*
X262955000Y-95606801D03*
%TD*%
D11*
%TO.C,SW13*%
X62236749Y-129325836D03*
X49432152Y-134162816D03*
%TD*%
D10*
%TO.C,SW9*%
X118605502Y-93067297D03*
X105155502Y-95607297D03*
%TD*%
D12*
%TO.C,SW39*%
X251511617Y-136125343D03*
X239177315Y-142059911D03*
%TD*%
D10*
%TO.C,SW15*%
X99555502Y-107367298D03*
X86105502Y-109907298D03*
%TD*%
D13*
%TO.C,SW27*%
X339166123Y-94360264D03*
X325479392Y-94526108D03*
%TD*%
D14*
%TO.C,SW31*%
X316155304Y-98227112D03*
X302535110Y-99585202D03*
%TD*%
D10*
%TO.C,SW24*%
X276405000Y-74016800D03*
X262955000Y-76556800D03*
%TD*%
%TO.C,SW8*%
X99555503Y-88317298D03*
X86105503Y-90857298D03*
%TD*%
%TO.C,SW40*%
X273105003Y-135116801D03*
X259655003Y-137656801D03*
%TD*%
%TO.C,SW28*%
X257355000Y-95441802D03*
X243905000Y-97981802D03*
%TD*%
D14*
%TO.C,SW36*%
X314494985Y-117204619D03*
X300874791Y-118562709D03*
%TD*%
D13*
%TO.C,SW32*%
X335858125Y-113120851D03*
X322171394Y-113286695D03*
%TD*%
D15*
%TO.C,SW21*%
X142997314Y-139935659D03*
X129348211Y-138907994D03*
%TD*%
D16*
%TO.C,SW2*%
X77138870Y-77967167D03*
X63961426Y-81669747D03*
%TD*%
D17*
%TO.C,SW38*%
X230888948Y-142596506D03*
X220510906Y-151521210D03*
%TD*%
D10*
%TO.C,SW16*%
X118605502Y-112117298D03*
X105155502Y-114657298D03*
%TD*%
%TO.C,SW17*%
X137655501Y-114492298D03*
X124205501Y-117032298D03*
%TD*%
%TO.C,SW35*%
X295455000Y-107366801D03*
X282005000Y-109906801D03*
%TD*%
%TO.C,SW23*%
X257355000Y-76391800D03*
X243905000Y-78931800D03*
%TD*%
%TO.C,SW20*%
X121905502Y-135117297D03*
X108455502Y-137657297D03*
%TD*%
D18*
%TO.C,SW22*%
X162149448Y-149957004D03*
X149231406Y-145431708D03*
%TD*%
D10*
%TO.C,SW33*%
X257355003Y-114491802D03*
X243905003Y-117031802D03*
%TD*%
D16*
%TO.C,SW7*%
X78799188Y-96944676D03*
X65621744Y-100647256D03*
%TD*%
D14*
%TO.C,SW26*%
X317815621Y-79249602D03*
X304195427Y-80607692D03*
%TD*%
D10*
%TO.C,SW5*%
X137655503Y-76392298D03*
X124205503Y-78932298D03*
%TD*%
%TO.C,SW34*%
X276405002Y-112116801D03*
X262955002Y-114656801D03*
%TD*%
D13*
%TO.C,SW37*%
X332550127Y-131881440D03*
X318863396Y-132047284D03*
%TD*%
D10*
%TO.C,SW25*%
X295455002Y-69266800D03*
X282005002Y-71806800D03*
%TD*%
%TO.C,SW30*%
X295455000Y-88316800D03*
X282005000Y-90856800D03*
%TD*%
%TO.C,SW4*%
X118605500Y-74017299D03*
X105155500Y-76557299D03*
%TD*%
D16*
%TO.C,SW14*%
X80459506Y-115922185D03*
X67282062Y-119624765D03*
%TD*%
D11*
%TO.C,SW6*%
X58928751Y-110565247D03*
X46124154Y-115402227D03*
%TD*%
D19*
%TO.C,D9*%
X103645502Y-83052298D03*
X103645502Y-86352298D03*
%TD*%
D20*
%TO.C,D39*%
X234568451Y-130583522D03*
X235422553Y-133771078D03*
%TD*%
D19*
%TO.C,D29*%
X261983002Y-82902301D03*
X261983002Y-86202301D03*
%TD*%
%TO.C,D17*%
X122645503Y-104052298D03*
X122645503Y-107352298D03*
%TD*%
D21*
%TO.C,D27*%
X325769522Y-81339869D03*
X325196484Y-84589735D03*
%TD*%
D22*
%TO.C,D18*%
X150193002Y-125439198D03*
X146893002Y-125439198D03*
%TD*%
D19*
%TO.C,D34*%
X261983000Y-101952301D03*
X261983000Y-105252301D03*
%TD*%
D23*
%TO.C,D14*%
X65501695Y-107058577D03*
X65789309Y-110346019D03*
%TD*%
D19*
%TO.C,D24*%
X261983002Y-63852300D03*
X261983002Y-67152300D03*
%TD*%
D22*
%TO.C,D12*%
X161179601Y-113533697D03*
X164479601Y-113533697D03*
%TD*%
D24*
%TO.C,D26*%
X303401811Y-67033579D03*
X303114197Y-70321021D03*
%TD*%
D25*
%TO.C,D21*%
X131072554Y-126108519D03*
X130218452Y-129296075D03*
%TD*%
D23*
%TO.C,D2*%
X61889195Y-69058577D03*
X62176809Y-72346019D03*
%TD*%
D19*
%TO.C,D4*%
X104645500Y-64052299D03*
X104645500Y-67352299D03*
%TD*%
%TO.C,D25*%
X281033002Y-59089803D03*
X281033002Y-62389803D03*
%TD*%
%TO.C,D20*%
X106645502Y-125052298D03*
X106645502Y-128352298D03*
%TD*%
%TO.C,D10*%
X122645501Y-85052298D03*
X122645501Y-88352298D03*
%TD*%
%TO.C,D35*%
X281033003Y-97189801D03*
X281033003Y-100489801D03*
%TD*%
D26*
%TO.C,D6*%
X42358983Y-104077366D03*
X42932021Y-107327232D03*
%TD*%
D19*
%TO.C,D23*%
X242933003Y-67027301D03*
X242933003Y-70327301D03*
%TD*%
%TO.C,D28*%
X242933005Y-86077299D03*
X242933005Y-89377299D03*
%TD*%
%TO.C,D3*%
X85645501Y-59502299D03*
X85645501Y-62802299D03*
%TD*%
D22*
%TO.C,D19*%
X161179603Y-125439197D03*
X164479603Y-125439197D03*
%TD*%
D24*
%TO.C,D36*%
X300226810Y-105133578D03*
X299939196Y-108421020D03*
%TD*%
D19*
%TO.C,D15*%
X84645502Y-98052301D03*
X84645502Y-101352301D03*
%TD*%
D21*
%TO.C,D32*%
X322594522Y-100389865D03*
X322021484Y-103639731D03*
%TD*%
D22*
%TO.C,D11*%
X150986700Y-113533698D03*
X147686700Y-113533698D03*
%TD*%
D19*
%TO.C,D16*%
X103645502Y-102052298D03*
X103645502Y-105352298D03*
%TD*%
%TO.C,D8*%
X84645503Y-79052299D03*
X84645503Y-82352299D03*
%TD*%
%TO.C,D40*%
X258808003Y-124177303D03*
X258808003Y-127477303D03*
%TD*%
%TO.C,D33*%
X242933004Y-105127302D03*
X242933004Y-108427302D03*
%TD*%
D23*
%TO.C,D7*%
X63501693Y-88058577D03*
X63789307Y-91346019D03*
%TD*%
D26*
%TO.C,D1*%
X39521483Y-84927365D03*
X40094521Y-88177231D03*
%TD*%
D19*
%TO.C,D30*%
X281033003Y-78077302D03*
X281033003Y-81377302D03*
%TD*%
D27*
%TO.C,D22*%
X154470502Y-134273357D03*
X152820502Y-137131241D03*
%TD*%
D21*
%TO.C,D37*%
X319419519Y-119439867D03*
X318846481Y-122689733D03*
%TD*%
D19*
%TO.C,D5*%
X123645502Y-67052296D03*
X123645502Y-70352296D03*
%TD*%
D24*
%TO.C,D31*%
X301814310Y-86083580D03*
X301526696Y-89371022D03*
%TD*%
D28*
%TO.C,D38*%
X213533002Y-141860859D03*
X215183002Y-144718743D03*
%TD*%
D26*
%TO.C,D13*%
X46358982Y-122077366D03*
X46932020Y-125327232D03*
%TD*%
M02*
